<svg width="463" height="502" viewBox="0 0 463 502" fill="none" xmlns="http://www.w3.org/2000/svg">
<rect y="0.730713" width="462.541" height="500.38" fill="#FFFF00"/>
<path d="M138.251 91.81H129.006V95.4952H133.855V99.5198C132.53 100.231 131.027 100.587 129.362 100.587C127.05 100.587 125.175 99.8431 123.721 98.3561C122.266 96.8691 121.555 94.9941 121.555 92.7313C121.555 90.4685 122.282 88.5612 123.753 87.0257C125.208 85.4902 127.067 84.7144 129.329 84.7144C131.576 84.7144 133.451 85.4902 134.97 87.0096L137.783 83.8093C136.667 82.8072 135.391 82.0152 133.952 81.4656C132.497 80.9161 130.962 80.6413 129.313 80.6413C127.551 80.6413 125.903 80.9646 124.383 81.5788C122.848 82.2091 121.555 83.0658 120.488 84.1325C119.421 85.2155 118.581 86.4923 117.967 87.9794C117.353 89.4664 117.062 91.0503 117.062 92.7151C117.062 94.3799 117.353 95.9478 117.951 97.4024C118.549 98.8733 119.373 100.134 120.44 101.201C121.506 102.268 122.799 103.124 124.335 103.738C125.87 104.353 127.535 104.66 129.329 104.66C132.724 104.66 135.698 103.593 138.251 101.459V91.81ZM147.012 100.651V94.2668H156.289V90.5816H147.012V84.7144H157.679V81.0292H147.012H142.615V104.336H157.954V100.651H147.012ZM179.306 81.0292H159.732V84.7144H167.329V104.336H171.725V84.7144H179.306V81.0292ZM204.035 104.336H208.577L199.655 81.0292H194.968L186.046 104.336H190.588L192.463 99.4067H202.16L204.035 104.336ZM197.295 86.2499L200.787 95.7215H193.836L197.295 86.2499ZM226.761 81.0292V97.0307L215.64 81.0292H211.244V104.336H215.64V88.3511L226.761 104.336H231.157V81.0292H226.761ZM248.452 100.651V94.2668H257.729V90.5816H248.452V84.7144H259.119V81.0292H248.452H244.055V104.336H259.394V100.651H248.452ZM282.459 104.336L274.458 92.408L282.184 81.0292H277.06L271.71 89.03L266.36 81.0292H261.237L268.882 92.3111L260.816 104.336H265.94L271.646 95.7215L277.335 104.336H282.459ZM302.469 81.0292H282.895V84.7144H290.492V104.336H294.888V84.7144H302.469V81.0292ZM318.244 104.336H323.594L316.288 94.8164C318.212 94.5093 319.747 93.7334 320.895 92.505C322.042 91.2766 322.624 89.7735 322.624 87.9955C322.624 85.959 321.864 84.3103 320.345 83.0334C318.826 81.7566 316.902 81.0939 314.543 81.0292H309.936H305.54V104.336H309.936V94.9618H311.261L318.244 104.336ZM309.936 84.7144H314.543C315.658 84.7144 316.531 85.0377 317.177 85.6519C317.807 86.2822 318.131 87.1065 318.131 88.1087C318.131 89.1593 317.791 89.9997 317.145 90.6301C316.498 91.2605 315.625 91.5676 314.543 91.5676H309.936V84.7144ZM342.262 104.336H346.804L337.882 81.0292H333.195L324.273 104.336H328.815L330.689 99.4067H340.387L342.262 104.336ZM335.522 86.2499L339.014 95.7215H332.063L335.522 86.2499Z" fill="#3B333D"/>
<path d="M134.679 298.986H129.555L124.335 308.571L119.114 298.986H113.99L122.185 312.887V322.293H126.581V312.709L134.679 298.986ZM140.482 322.617C142.874 322.617 144.878 321.841 146.527 320.289C148.159 318.738 148.983 316.782 148.983 314.406C148.983 312.046 148.159 310.074 146.51 308.49C144.862 306.906 142.841 306.114 140.449 306.114C138.881 306.114 137.443 306.47 136.15 307.181C134.857 307.892 133.822 308.894 133.079 310.155C132.319 311.432 131.948 312.854 131.948 314.406C131.948 315.974 132.319 317.38 133.079 318.641C133.839 319.901 134.873 320.887 136.182 321.582C137.475 322.277 138.914 322.617 140.482 322.617ZM140.449 318.964C139.172 318.964 138.154 318.56 137.394 317.719C136.635 316.895 136.263 315.812 136.263 314.454C136.263 313.097 136.651 311.981 137.427 311.092C138.203 310.22 139.221 309.767 140.482 309.767C141.742 309.767 142.761 310.22 143.52 311.125C144.28 312.03 144.668 313.129 144.668 314.454C144.668 315.812 144.28 316.895 143.504 317.719C142.728 318.56 141.71 318.964 140.449 318.964ZM162.981 306.405V317.17C162.496 317.719 161.93 318.14 161.251 318.463C160.572 318.786 159.894 318.948 159.231 318.948C158.31 318.948 157.582 318.641 157.065 318.026C156.548 317.412 156.289 316.539 156.289 315.424V306.405H151.99V315.861C151.99 317.913 152.523 319.546 153.622 320.758C154.721 321.986 156.241 322.584 158.213 322.584C160.217 322.584 161.898 322.003 163.272 320.806V322.293H167.28V306.405H162.981ZM175.426 307.876V306.405H171.418V322.293H175.733V311.884C176.218 311.319 176.784 310.882 177.431 310.559C178.077 310.252 178.74 310.09 179.419 310.09C179.887 310.09 180.291 310.139 180.615 310.203V306.114C179.37 306.114 178.352 306.26 177.576 306.518C176.8 306.777 176.073 307.229 175.426 307.876ZM205.166 302.671V298.986H194.984H190.587V322.293H194.984V312.66H203.776V308.975H194.984V302.671H205.166ZM212.504 304.272H207.963V299.908H212.504V304.272ZM208.076 306.405V322.293H212.391V306.405H208.076ZM220.521 307.876V306.405H216.513V322.293H220.828V311.884C221.313 311.319 221.879 310.882 222.526 310.559C223.172 310.252 223.835 310.09 224.514 310.09C224.982 310.09 225.386 310.139 225.71 310.203V306.114C224.465 306.114 223.447 306.26 222.671 306.518C221.895 306.777 221.168 307.229 220.521 307.876ZM240.402 317.493C240.402 316.766 240.24 316.119 239.933 315.553C239.61 314.988 239.206 314.535 238.721 314.196C238.22 313.856 237.67 313.565 237.072 313.307C236.474 313.064 235.876 312.854 235.278 312.676C234.68 312.515 234.131 312.353 233.646 312.192C233.145 312.03 232.741 311.852 232.434 311.626C232.11 311.4 231.965 311.141 231.965 310.85C231.965 310.494 232.143 310.22 232.531 309.993C232.919 309.767 233.5 309.654 234.309 309.654C235.763 309.654 237.04 310.058 238.139 310.85L240.289 307.747C238.673 306.712 236.717 306.179 234.422 306.179C232.272 306.179 230.607 306.631 229.427 307.504C228.247 308.393 227.665 309.573 227.665 311.06C227.665 311.723 227.779 312.321 228.021 312.838C228.264 313.355 228.587 313.775 228.975 314.099C229.363 314.422 229.815 314.713 230.332 314.972C230.833 315.23 231.351 315.44 231.868 315.586C232.385 315.747 232.902 315.893 233.42 316.054C233.921 316.216 234.373 316.362 234.761 316.491C235.149 316.62 235.472 316.798 235.715 317.008C235.957 317.234 236.086 317.477 236.086 317.752C236.086 318.592 235.278 319.012 233.662 319.012C231.722 319.012 230.138 318.447 228.91 317.315L226.68 320.435C227.455 321.114 228.457 321.631 229.718 322.003C230.963 322.374 232.256 322.552 233.581 322.552C235.666 322.552 237.331 322.099 238.559 321.162C239.788 320.225 240.402 319.012 240.402 317.493ZM253.187 309.977V306.405H249.599V301.104H245.299V306.405H241.97V309.977H245.299V317.784L245.93 322.293H250.1L249.599 317.784V309.977H253.187ZM274.587 322.617C276.333 322.617 277.981 322.31 279.517 321.695C281.052 321.081 282.361 320.225 283.428 319.158C284.495 318.091 285.335 316.83 285.95 315.343C286.564 313.872 286.871 312.305 286.871 310.64C286.871 308.975 286.564 307.407 285.95 305.92C285.335 304.449 284.495 303.172 283.428 302.09C282.361 301.023 281.052 300.166 279.533 299.536C277.997 298.922 276.365 298.598 274.619 298.598C272.858 298.598 271.209 298.922 269.69 299.536C268.154 300.166 266.861 301.023 265.794 302.09C264.728 303.172 263.887 304.449 263.273 305.92C262.659 307.407 262.352 308.975 262.352 310.64C262.352 312.305 262.642 313.872 263.257 315.343C263.871 316.83 264.711 318.091 265.778 319.158C266.845 320.225 268.138 321.081 269.657 321.695C271.177 322.31 272.825 322.617 274.587 322.617ZM274.619 318.56C272.357 318.56 270.482 317.816 269.027 316.313C267.572 314.81 266.845 312.935 266.845 310.672C266.845 308.409 267.572 306.518 269.043 304.983C270.514 303.447 272.373 302.671 274.619 302.671C276.85 302.671 278.692 303.447 280.163 304.983C281.634 306.518 282.378 308.409 282.378 310.672C282.378 312.935 281.634 314.81 280.179 316.313C278.725 317.816 276.866 318.56 274.619 318.56ZM294.064 307.876V306.405H290.055V322.293H294.371V311.884C294.856 311.319 295.421 310.882 296.068 310.559C296.714 310.252 297.377 310.09 298.056 310.09C298.525 310.09 298.929 310.139 299.252 310.203V306.114C298.007 306.114 296.989 306.26 296.213 306.518C295.437 306.777 294.71 307.229 294.064 307.876ZM317.338 322.293L316.837 320.031V298.485H312.538V307.456C311.407 306.518 310.065 306.05 308.513 306.05C307.091 306.05 305.782 306.389 304.57 307.068C303.341 307.747 302.355 308.733 301.596 310.009C300.836 311.303 300.464 312.741 300.464 314.341C300.464 315.941 300.836 317.38 301.579 318.641C302.323 319.917 303.309 320.887 304.521 321.566C305.733 322.245 307.043 322.584 308.465 322.584C310.194 322.584 311.649 322.035 312.829 320.92L313.217 322.293H317.338ZM309.079 318.948C307.915 318.948 306.897 318.544 306.057 317.703C305.2 316.863 304.78 315.747 304.78 314.325C304.78 312.903 305.2 311.787 306.057 310.947C306.913 310.123 307.932 309.702 309.095 309.702C310.534 309.702 311.73 310.236 312.683 311.303V317.331C311.714 318.414 310.518 318.948 309.079 318.948ZM324.353 315.424H336.573C336.589 315.166 336.605 314.955 336.605 314.761C336.605 312.127 335.845 310.026 334.358 308.458C332.855 306.906 330.899 306.114 328.507 306.114C326.859 306.114 325.404 306.486 324.111 307.229C322.818 307.973 321.832 308.975 321.137 310.236C320.442 311.496 320.102 312.887 320.102 314.406C320.102 315.537 320.296 316.604 320.7 317.606C321.104 318.608 321.67 319.481 322.398 320.225C323.109 320.968 323.998 321.55 325.064 321.97C326.115 322.407 327.263 322.617 328.507 322.617C329.962 322.617 331.303 322.326 332.516 321.712C333.728 321.114 334.746 320.257 335.554 319.125L332.839 316.685C331.74 318.204 330.301 318.964 328.507 318.964C327.376 318.964 326.454 318.673 325.711 318.059C324.967 317.461 324.515 316.588 324.353 315.424ZM328.604 309.654C330.608 309.654 331.885 310.624 332.419 312.563H324.531C324.806 311.626 325.291 310.915 326.002 310.414C326.713 309.913 327.57 309.654 328.604 309.654ZM343.587 307.876V306.405H339.579V322.293H343.894V311.884C344.379 311.319 344.945 310.882 345.592 310.559C346.238 310.252 346.901 310.09 347.58 310.09C348.048 310.09 348.452 310.139 348.776 310.203V306.114C347.531 306.114 346.513 306.26 345.737 306.518C344.961 306.777 344.234 307.229 343.587 307.876Z" fill="#3B333D"/>
<path d="M107.512 244.571L133.934 217.132C146.89 203.454 153.368 190.03 153.368 176.774C153.368 166.136 149.618 157.44 142.117 150.77C134.616 144.185 124.985 140.807 113.052 140.807C93.533 140.807 79.8953 150.686 72.0537 170.273L92.4249 179.392C94.8115 173.144 97.7095 168.585 101.119 165.714C104.528 162.843 108.62 161.408 113.478 161.408C118.422 161.408 122.342 162.843 125.24 165.63C128.138 168.416 129.673 172.131 129.673 176.774C129.673 180.996 128.224 185.471 125.411 190.283C122.598 195.096 117.91 200.921 111.262 207.676L72.2242 247.695V264.581H153.539V244.571H107.512Z" fill="#3B333D"/>
<path d="M205.692 266.27C220.523 266.27 231.945 260.951 240.042 250.313C248.054 239.675 252.145 224.139 252.145 203.792C252.145 183.36 248.054 167.825 239.957 157.018C231.774 146.211 220.353 140.807 205.522 140.807C190.691 140.807 179.184 146.211 171.001 157.018C162.819 167.825 158.728 183.275 158.728 203.539C158.728 223.886 162.819 239.421 171.001 250.144C179.184 260.951 190.776 266.27 205.692 266.27ZM205.692 245.078C190.179 245.078 182.423 231.4 182.423 203.876C182.423 176.015 190.094 162.084 205.522 162.084C220.779 162.084 228.45 176.099 228.45 204.13C228.45 218.483 226.49 228.868 222.654 235.369C218.733 241.87 213.108 245.078 205.692 245.078Z" fill="#3B333D"/>
<path d="M267.852 167.956C272.148 167.956 275.831 166.487 278.899 163.447C281.967 160.408 283.502 156.76 283.502 152.455C283.502 148.199 281.967 144.501 278.899 141.462C275.831 138.422 272.148 136.903 267.852 136.903C263.506 136.903 259.823 138.422 256.755 141.462C253.686 144.501 252.152 148.199 252.152 152.455C252.152 156.76 253.686 160.408 256.755 163.447C259.823 166.487 263.506 167.956 267.852 167.956ZM299.816 138.878L259.874 200.782H272.506L312.448 138.878H299.816ZM267.852 157.926C266.318 157.926 264.989 157.419 263.915 156.355C262.79 155.291 262.278 153.974 262.278 152.455C262.278 150.935 262.79 149.668 263.915 148.554C264.989 147.49 266.318 146.933 267.852 146.933C269.387 146.933 270.665 147.49 271.739 148.554C272.813 149.668 273.376 150.935 273.376 152.455C273.376 153.974 272.813 155.291 271.739 156.355C270.665 157.419 269.387 157.926 267.852 157.926ZM304.214 202.808C308.51 202.808 312.192 201.339 315.26 198.3C318.329 195.26 319.863 191.613 319.863 187.307C319.863 183.052 318.329 179.405 315.26 176.365C312.192 173.326 308.51 171.806 304.214 171.806C299.867 171.806 296.185 173.326 293.116 176.365C290.048 179.405 288.565 183.052 288.565 187.307C288.565 191.613 290.048 195.26 293.116 198.3C296.185 201.339 299.867 202.808 304.214 202.808ZM304.214 192.778C302.68 192.778 301.35 192.272 300.276 191.208C299.202 190.144 298.691 188.827 298.691 187.307C298.691 185.787 299.202 184.521 300.276 183.407C301.35 182.343 302.68 181.785 304.214 181.785C305.748 181.785 307.027 182.343 308.152 183.407C309.226 184.521 309.788 185.787 309.788 187.307C309.788 188.827 309.226 190.144 308.152 191.208C307.027 192.272 305.748 192.778 304.214 192.778Z" fill="#3B333D"/>
<path d="M285.27 265.329C289.347 265.329 293.198 264.619 296.785 263.197C300.372 261.776 303.43 259.794 305.922 257.326C308.414 254.858 310.377 251.941 311.812 248.5C313.246 245.097 313.964 241.469 313.964 237.617C313.964 233.765 313.246 230.137 311.812 226.697C310.377 223.293 308.414 220.339 305.922 217.833C303.43 215.365 300.372 213.383 296.823 211.924C293.236 210.503 289.423 209.755 285.345 209.755C281.23 209.755 277.379 210.503 273.83 211.924C270.243 213.383 267.223 215.365 264.731 217.833C262.239 220.339 260.276 223.293 258.841 226.697C257.406 230.137 256.689 233.765 256.689 237.617C256.689 241.469 257.369 245.097 258.803 248.5C260.238 251.941 262.201 254.858 264.693 257.326C267.185 259.794 270.205 261.776 273.754 263.197C277.303 264.619 281.154 265.329 285.27 265.329ZM285.345 255.942C280.059 255.942 275.68 254.222 272.282 250.744C268.884 247.266 267.185 242.928 267.185 237.692C267.185 232.456 268.884 228.08 272.32 224.528C275.755 220.975 280.097 219.18 285.345 219.18C290.555 219.18 294.859 220.975 298.295 224.528C301.731 228.08 303.468 232.456 303.468 237.692C303.468 242.928 301.731 247.266 298.333 250.744C294.935 254.222 290.593 255.942 285.345 255.942Z" fill="#3B333D"/>
<path d="M352.318 219.18V210.653H318.263V264.581H328.533V242.292H349.071V233.765H328.533V219.18H352.318Z" fill="#3B333D"/>
<path d="M389.956 219.18V210.653H355.9V264.581H366.17V242.292H386.709V233.765H366.17V219.18H389.956Z" fill="#3B333D"/>
<rect x="37.9644" y="399.807" width="387.388" height="67.536" fill="#3B333D"/>
<path d="M158.405 439.227C158.405 438.37 158.26 437.594 158.001 436.899C157.727 436.22 157.355 435.638 156.902 435.17C156.45 434.717 155.916 434.297 155.334 433.941C154.753 433.586 154.122 433.279 153.476 433.02C152.829 432.778 152.166 432.551 151.52 432.325C150.857 432.115 150.227 431.905 149.645 431.678C149.063 431.468 148.53 431.242 148.077 430.983C147.625 430.725 147.253 430.418 146.994 430.046C146.72 429.69 146.59 429.27 146.59 428.785C146.59 428.026 146.913 427.411 147.576 426.943C148.223 426.474 149.209 426.231 150.502 426.231C151.536 426.231 152.571 426.393 153.605 426.684C154.623 426.991 155.48 427.395 156.191 427.88L158.018 424.276C155.884 422.87 153.411 422.158 150.599 422.158C148.013 422.158 145.96 422.756 144.424 423.952C142.889 425.149 142.129 426.83 142.129 428.995C142.129 429.884 142.258 430.676 142.533 431.371C142.792 432.066 143.164 432.648 143.616 433.101C144.069 433.553 144.586 433.957 145.184 434.313C145.766 434.669 146.396 434.96 147.043 435.186C147.689 435.412 148.336 435.638 148.982 435.832C149.629 436.026 150.259 436.236 150.857 436.447C151.439 436.657 151.973 436.883 152.425 437.142C152.878 437.4 153.233 437.723 153.508 438.111C153.767 438.499 153.912 438.952 153.912 439.469C153.912 440.31 153.557 440.972 152.845 441.425C152.134 441.894 151.067 442.12 149.629 442.12C148.562 442.12 147.528 441.974 146.509 441.667C145.475 441.36 144.344 440.827 143.099 440.051L141.014 443.542C142.436 444.512 143.778 445.191 145.039 445.579C146.299 445.983 147.705 446.177 149.225 446.177C152.134 446.177 154.397 445.579 155.997 444.35C157.597 443.138 158.405 441.425 158.405 439.227ZM177.155 422.546V432.066H166.697V422.546H162.301V445.854H166.697V435.752H177.155V445.854H181.551V422.546H177.155ZM197.746 446.177C199.492 446.177 201.141 445.87 202.676 445.255C204.212 444.641 205.521 443.785 206.588 442.718C207.654 441.651 208.495 440.39 209.109 438.903C209.723 437.433 210.03 435.865 210.03 434.2C210.03 432.535 209.723 430.967 209.109 429.48C208.495 428.009 207.654 426.733 206.588 425.65C205.521 424.583 204.212 423.726 202.692 423.096C201.157 422.482 199.524 422.158 197.779 422.158C196.017 422.158 194.368 422.482 192.849 423.096C191.314 423.726 190.02 424.583 188.954 425.65C187.887 426.733 187.046 428.009 186.432 429.48C185.818 430.967 185.511 432.535 185.511 434.2C185.511 435.865 185.802 437.433 186.416 438.903C187.03 440.39 187.871 441.651 188.938 442.718C190.004 443.785 191.297 444.641 192.817 445.255C194.336 445.87 195.985 446.177 197.746 446.177ZM197.779 442.12C195.516 442.12 193.641 441.376 192.186 439.873C190.732 438.37 190.004 436.495 190.004 434.232C190.004 431.969 190.732 430.078 192.203 428.543C193.673 427.007 195.532 426.231 197.779 426.231C200.009 426.231 201.852 427.007 203.323 428.543C204.794 430.078 205.537 431.969 205.537 434.232C205.537 436.495 204.794 438.37 203.339 439.873C201.884 441.376 200.025 442.12 197.779 442.12ZM223.123 422.546H218.419H214.023V445.854H218.419V436.948H223.123C225.466 436.948 227.39 436.285 228.893 434.943C230.38 433.618 231.139 431.889 231.139 429.755C231.139 427.622 230.38 425.892 228.893 424.551C227.39 423.225 225.466 422.546 223.123 422.546ZM223.123 433.279H218.419V426.231H223.123C224.222 426.231 225.078 426.539 225.725 427.153C226.371 427.767 226.695 428.624 226.711 429.723C226.711 430.789 226.388 431.662 225.741 432.309C225.078 432.955 224.205 433.279 223.123 433.279ZM256.596 422.546V438.548L245.476 422.546H241.08V445.854H245.476V429.868L256.596 445.854H260.993V422.546H256.596ZM277.172 446.177C278.918 446.177 280.566 445.87 282.102 445.255C283.637 444.641 284.946 443.785 286.013 442.718C287.08 441.651 287.92 440.39 288.535 438.903C289.149 437.433 289.456 435.865 289.456 434.2C289.456 432.535 289.149 430.967 288.535 429.48C287.92 428.009 287.08 426.733 286.013 425.65C284.946 424.583 283.637 423.726 282.118 423.096C280.582 422.482 278.95 422.158 277.204 422.158C275.443 422.158 273.794 422.482 272.275 423.096C270.739 423.726 269.446 424.583 268.379 425.65C267.313 426.733 266.472 428.009 265.858 429.48C265.244 430.967 264.937 432.535 264.937 434.2C264.937 435.865 265.227 437.433 265.842 438.903C266.456 440.39 267.296 441.651 268.363 442.718C269.43 443.785 270.723 444.641 272.242 445.255C273.762 445.87 275.41 446.177 277.172 446.177ZM277.204 442.12C274.942 442.12 273.067 441.376 271.612 439.873C270.157 438.37 269.43 436.495 269.43 434.232C269.43 431.969 270.157 430.078 271.628 428.543C273.099 427.007 274.958 426.231 277.204 426.231C279.435 426.231 281.277 427.007 282.748 428.543C284.219 430.078 284.963 431.969 284.963 434.232C284.963 436.495 284.219 438.37 282.764 439.873C281.31 441.376 279.451 442.12 277.204 442.12ZM319.034 422.546L314.218 439.647L309.304 422.546H304.956L300.043 439.647L295.226 422.546H290.668L297.602 445.854H302.176L307.138 428.995L312.084 445.854H316.659L323.592 422.546H319.034Z" fill="#FFFF00"/>
</svg>
