<?xml version="1.0" standalone="no"?>
<!DOCTYPE svg PUBLIC "-//W3C//DTD SVG 20010904//EN"
 "http://www.w3.org/TR/2001/REC-SVG-20010904/DTD/svg10.dtd">
<svg version="1.0" xmlns="http://www.w3.org/2000/svg"
 width="2000.000000pt" height="1803.000000pt" viewBox="0 0 2000.000000 1803.000000"
 preserveAspectRatio="xMidYMid meet">

<g transform="translate(0.000000,1803.000000) scale(0.100000,-0.100000)"
fill="#000000" stroke="none">
<path d="M7896 15995 c-10 -25 -36 -61 -59 -80 -56 -48 -233 -138 -256 -130
-23 7 -63 -10 -122 -52 -26 -18 -51 -33 -56 -33 -17 0 -43 -36 -43 -59 0 -13
7 -47 16 -77 17 -61 9 -90 -30 -100 -30 -7 -59 8 -113 57 -24 22 -52 39 -63
39 -14 0 -39 -26 -80 -81 -57 -77 -60 -84 -60 -139 0 -55 1 -58 28 -63 18 -4
33 -16 41 -33 11 -25 9 -29 -21 -56 -18 -16 -28 -31 -22 -34 56 -24 121 -74
136 -104 25 -51 22 -72 -14 -108 -39 -36 -85 -57 -150 -66 -26 -4 -50 -11 -53
-16 -3 -4 31 -44 75 -88 l79 -80 106 60 c93 54 105 64 105 88 0 18 8 33 25 44
22 15 25 23 25 81 0 73 11 82 50 40 30 -32 62 -32 128 2 53 27 54 29 48 65 -6
36 -6 37 59 73 36 20 65 40 65 45 0 5 -7 25 -17 44 -13 27 -23 36 -47 38 -40
4 -40 26 -1 48 20 11 34 30 43 58 10 29 35 61 87 111 40 38 78 78 84 89 6 11
36 95 66 187 l55 166 -35 46 c-19 25 -35 50 -35 54 0 5 -6 9 -12 9 -7 0 -21
-20 -32 -45z"/>
<path d="M11410 15896 c-60 -65 -103 -73 -268 -50 -64 9 -109 -3 -151 -42 -49
-44 -106 -48 -121 -9 -5 14 -17 25 -28 25 -10 0 -23 5 -29 11 -7 7 -23 1 -55
-20 -52 -35 -141 -61 -208 -61 -42 0 -50 -4 -99 -54 l-53 -53 21 -75 c27 -94
27 -183 0 -278 -11 -41 -18 -84 -15 -96 3 -12 38 -47 77 -79 59 -48 69 -59 55
-67 -25 -14 -45 -3 -120 67 l-70 65 24 106 c28 126 28 190 0 291 -15 54 -17
79 -10 93 5 10 10 41 10 69 0 39 -4 53 -21 65 -25 17 -39 13 -96 -27 -40 -29
-43 -33 -43 -78 0 -41 -4 -51 -26 -66 -39 -25 -58 -8 -64 58 -6 68 -31 109
-66 109 -15 0 -36 12 -54 32 -23 25 -40 33 -81 38 -47 6 -56 4 -98 -24 -44
-30 -46 -33 -49 -85 -3 -48 -8 -60 -47 -104 -48 -53 -60 -84 -70 -189 -8 -74
5 -110 45 -123 58 -18 -18 -75 -100 -75 -30 0 -68 5 -86 12 -27 10 -35 8 -62
-11 l-31 -22 40 -66 c33 -54 40 -72 35 -99 -8 -40 -57 -94 -85 -94 -30 0 -26
-17 22 -95 29 -49 57 -80 92 -103 52 -35 56 -43 71 -149 6 -38 4 -43 -13 -43
-10 0 -34 16 -53 35 -40 42 -52 43 -74 10 -21 -32 -27 -31 -78 5 -22 17 -46
30 -53 30 -6 0 -24 -13 -40 -30 -35 -36 -46 -37 -93 -5 -20 14 -40 25 -44 25
-14 0 -9 -37 12 -93 11 -30 22 -72 24 -95 3 -35 14 -52 75 -118 39 -42 71 -80
71 -85 0 -21 -36 -21 -75 0 -77 41 -130 106 -170 211 -20 52 -40 99 -45 104
-8 8 -90 -20 -90 -30 0 -1 10 -24 21 -51 14 -30 22 -71 23 -111 1 -49 5 -66
19 -73 30 -17 21 -55 -23 -89 -53 -42 -55 -82 -8 -122 32 -26 32 -28 15 -45
-14 -14 -21 -15 -36 -6 -22 14 -23 13 -65 -59 -25 -44 -26 -51 -15 -90 6 -24
20 -60 30 -80 10 -20 19 -52 19 -70 0 -67 34 -79 119 -43 48 20 66 23 81 15
39 -21 17 -66 -43 -89 -21 -8 -27 -17 -27 -41 0 -29 2 -30 44 -30 43 0 47 -3
91 -60 25 -33 44 -64 41 -69 -3 -5 -25 -8 -49 -7 -32 2 -45 7 -53 25 -6 12
-14 23 -17 24 -3 1 -22 -20 -42 -46 -61 -80 -72 -78 366 -75 374 3 378 3 406
25 58 46 77 53 119 41 21 -6 57 -28 79 -49 51 -47 86 -65 160 -78 130 -24 221
-4 294 63 25 24 64 53 86 64 22 11 96 78 165 147 190 193 316 265 464 265 57
0 65 3 113 43 41 32 53 48 53 70 0 39 43 102 121 178 l69 66 -54 39 -53 40
-122 -16 -121 -15 -51 -62 c-49 -61 -71 -74 -84 -53 -3 6 -24 10 -46 10 -29 0
-45 -6 -59 -22 -11 -13 -41 -47 -68 -76 l-48 -54 -58 29 c-49 24 -59 26 -66
13 -5 -8 -33 -51 -62 -95 l-53 -80 -95 -3 c-91 -3 -97 -1 -119 22 -24 25 -21
46 5 46 8 0 45 7 82 16 l67 15 37 63 c52 90 56 110 23 132 -25 16 -30 16 -137
-10 -60 -15 -112 -25 -115 -22 -22 21 60 80 165 119 91 34 126 34 168 2 l32
-24 27 55 c20 42 39 62 79 88 29 18 69 56 89 84 44 60 48 76 12 60 -32 -15
-41 -6 -26 29 20 49 29 136 20 193 -7 48 -6 57 12 76 11 12 24 38 30 58 9 34
18 40 150 106 116 59 139 74 139 93 0 39 46 122 86 155 21 17 90 55 155 83
l117 52 4 76 c3 49 11 88 22 107 18 30 18 32 -3 73 l-22 42 21 57 c12 31 30
66 41 78 25 26 35 84 20 112 -11 20 -19 22 -124 21 -62 0 -120 3 -129 6 -11 4
-27 -5 -48 -29z m-560 -391 l5 -30 23 33 c15 21 32 32 48 32 32 0 30 -10 -6
-45 l-29 -28 34 -47 c19 -26 35 -50 35 -54 0 -3 -11 -6 -24 -6 -17 0 -31 11
-46 35 -27 44 -38 44 -42 3 -2 -25 -8 -33 -23 -33 -18 0 -20 8 -23 74 -2 41 0
81 3 88 9 25 39 10 45 -22z m166 -5 c8 -50 18 -51 30 -2 6 27 15 38 31 40 18
3 23 -3 29 -35 10 -59 17 -62 29 -13 8 35 16 46 33 48 27 4 27 7 -4 -94 -20
-65 -29 -84 -44 -84 -20 0 -30 19 -30 55 0 13 -4 27 -10 30 -9 5 -15 -11 -22
-60 -2 -12 -12 -21 -25 -23 -18 -3 -24 4 -32 35 -6 21 -17 59 -25 85 -15 50
-13 58 16 58 13 0 19 -10 24 -40z m-313 -519 c69 -30 139 -100 173 -174 34
-76 38 -165 10 -245 -24 -70 -100 -153 -174 -189 -49 -24 -69 -28 -142 -28
-73 0 -93 4 -142 28 -114 56 -188 174 -188 302 0 150 92 272 243 321 55 18
159 11 220 -15z m-853 -721 c0 -83 -1 -90 -20 -90 -19 0 -20 7 -20 90 0 83 1
90 20 90 19 0 20 -7 20 -90z m76 37 c16 -65 21 -67 34 -16 17 67 18 69 40 69
25 0 25 -8 -8 -100 -21 -59 -31 -75 -47 -75 -16 0 -26 16 -47 75 -33 93 -34
102 -6 98 17 -2 25 -14 34 -51z"/>
<path d="M10506 14860 c-34 -11 -82 -54 -102 -92 -22 -42 -18 -136 9 -182 26
-47 94 -86 148 -86 55 0 119 28 119 51 0 23 -27 25 -54 4 -26 -19 -89 -19
-127 0 -92 48 -91 210 2 257 44 22 80 22 124 1 26 -13 38 -14 47 -5 16 16 -6
39 -51 52 -42 12 -75 12 -115 0z"/>
<path d="M6899 14635 c-35 -35 -110 -53 -210 -49 -68 3 -100 0 -107 -9 -5 -6
-17 -36 -26 -66 -15 -50 -15 -56 1 -73 11 -13 30 -18 65 -18 l50 0 26 -60 27
-60 98 0 98 0 -5 110 c-4 60 -11 121 -16 136 -9 22 -7 31 8 48 39 43 31 80 -9
41z"/>
<path d="M8387 14340 c-7 -3 -32 -18 -55 -35 -33 -23 -41 -35 -36 -50 19 -67
24 -99 24 -173 0 -123 -9 -122 -161 31 -36 36 -49 34 -49 -5 -1 -45 -16 -108
-30 -122 -8 -8 -20 0 -46 32 -20 23 -39 42 -44 42 -5 0 -13 -15 -19 -33 -7
-19 -25 -47 -41 -62 -22 -21 -30 -38 -30 -63 0 -29 13 -48 87 -129 95 -103
120 -114 138 -57 20 61 57 80 106 54 28 -15 27 -100 -1 -125 -39 -35 -18 -108
48 -167 66 -60 96 -71 172 -65 l66 5 38 -59 c21 -32 42 -59 46 -59 14 0 30 27
38 66 8 38 9 39 47 36 22 -2 43 -7 47 -10 4 -4 -14 -40 -39 -80 l-46 -73 19
-36 c11 -19 25 -38 33 -41 8 -3 43 10 79 28 63 33 64 33 57 69 -3 20 -8 43
-11 53 -3 11 18 35 71 78 41 34 75 68 75 76 0 8 -10 30 -22 49 -23 35 -24 35
-97 35 l-75 0 -41 44 c-36 40 -47 45 -90 48 -47 3 -50 5 -72 48 -13 25 -32 76
-43 114 l-20 70 31 48 c30 46 31 53 27 126 -4 58 -16 105 -48 190 l-43 112
-38 -2 c-22 -2 -45 -5 -52 -8z"/>
<path d="M11760 14234 c-19 -13 -56 -31 -81 -38 -73 -22 -122 -51 -166 -99
-46 -50 -63 -79 -87 -153 -9 -28 -27 -60 -39 -71 -31 -29 -144 -84 -165 -81
-12 2 -22 -12 -37 -52 -12 -30 -29 -72 -40 -93 -18 -36 -18 -39 -2 -85 9 -26
17 -66 17 -89 0 -38 -6 -47 -66 -107 -64 -63 -69 -66 -115 -66 -51 0 -66 13
-26 24 36 10 110 69 140 113 l27 40 -21 48 c-26 58 -21 97 21 199 16 38 28 71
26 73 -4 5 -107 -32 -146 -52 -18 -9 -91 -74 -162 -143 -239 -234 -393 -338
-514 -349 -99 -8 -240 34 -304 92 -14 12 -40 31 -58 41 l-34 19 -31 -38 c-44
-51 -74 -55 -462 -56 -262 -1 -329 -4 -370 -17 -27 -9 -68 -21 -89 -28 -38
-12 -40 -14 -41 -56 -1 -44 14 -64 98 -130 44 -35 36 -63 -25 -89 l-52 -22
-56 56 c-44 44 -62 55 -88 55 -29 0 -34 -5 -62 -60 -18 -35 -30 -75 -30 -98 0
-26 -7 -45 -20 -57 -20 -18 -26 -45 -14 -58 4 -3 28 5 55 19 39 19 54 22 69
14 35 -19 19 -91 -33 -147 -25 -28 -37 -28 -87 -3 -24 12 -59 20 -90 20 -46 0
-55 -4 -92 -40 -23 -22 -46 -40 -51 -40 -4 0 -7 -12 -5 -27 3 -27 5 -28 78
-33 58 -4 86 -11 123 -33 l48 -28 52 31 c28 17 59 36 68 42 13 9 30 4 83 -27
83 -49 89 -74 19 -76 -27 -1 -52 -1 -56 0 -15 2 -19 -30 -7 -59 20 -49 3 -60
-81 -53 -38 3 -69 3 -69 -1 0 -4 7 -20 15 -36 15 -28 19 -30 78 -30 72 0 79
-4 96 -47 8 -18 16 -33 20 -33 4 0 36 29 71 65 62 63 67 66 109 63 25 -1 46 2
48 8 2 5 16 32 32 60 25 44 36 53 74 63 25 7 75 11 112 9 l67 -3 52 88 51 88
40 -7 c110 -17 177 -23 248 -24 50 0 89 -6 107 -15 17 -9 30 -17 30 -18 0 -1
24 -72 54 -157 l54 -155 43 -3 c27 -2 53 -12 71 -27 30 -26 58 -33 151 -38 65
-5 87 -19 117 -81 26 -55 25 -68 -5 -105 -25 -29 -25 -31 -10 -68 9 -21 25
-48 37 -60 27 -29 122 -65 152 -57 26 6 72 -14 166 -75 68 -44 143 -66 200
-58 88 11 182 77 380 263 12 12 12 23 -5 89 -17 70 -17 77 -2 126 10 28 17 71
17 95 0 40 -3 45 -45 74 -25 17 -45 35 -45 41 0 5 14 39 30 76 41 91 46 130
21 170 -11 18 -32 35 -46 39 -28 7 -32 25 -10 44 29 24 75 -7 102 -67 28 -62
28 -75 -13 -186 l-29 -78 43 -35 c38 -32 42 -40 42 -80 0 -24 -9 -67 -20 -96
-25 -67 -25 -85 1 -99 19 -10 21 -18 17 -85 -3 -73 -3 -74 22 -74 14 1 36 7
50 15 14 8 43 14 65 15 22 0 54 8 70 17 17 9 55 29 85 44 l55 27 50 -19 c28
-10 52 -19 54 -19 2 0 37 34 78 75 40 41 87 82 103 90 16 8 32 25 36 37 4 13
20 42 36 66 40 58 47 106 19 121 -27 15 -27 51 0 85 17 21 29 26 65 26 41 0
44 2 44 28 0 21 19 46 85 112 47 47 85 93 85 103 0 17 -5 19 -47 12 -92 -13
-132 -27 -173 -62 -57 -50 -189 -123 -220 -123 -32 0 -40 6 -77 60 -23 33 -32
60 -36 103 -8 81 -31 116 -99 150 l-57 29 -65 -47 -66 -46 -82 9 c-84 11 -135
1 -152 -27 -4 -6 -14 -11 -23 -11 -12 0 -14 6 -8 28 12 51 26 57 149 58 l114
2 56 42 c48 36 61 41 89 36 51 -9 121 -58 166 -116 36 -46 41 -58 41 -105 0
-38 6 -60 21 -79 33 -42 75 -32 160 40 50 42 165 99 223 109 30 6 52 22 95 67
68 73 83 102 105 198 12 53 31 99 66 156 49 80 50 82 50 165 l0 84 94 62 94
61 22 73 c15 49 20 87 17 118 -13 114 -31 192 -60 266 -30 75 -35 81 -72 93
-24 8 -84 13 -151 13 -104 0 -115 -3 -169 -31 -35 -19 -72 -30 -97 -30 -44 0
-161 31 -353 95 -177 59 -183 59 -225 29z m-654 -1009 c62 -30 138 -109 167
-173 32 -72 30 -189 -5 -264 -32 -68 -99 -136 -165 -169 -39 -19 -65 -23 -138
-23 -79 -1 -97 3 -146 27 -186 91 -244 316 -127 492 36 54 118 112 186 132 65
18 164 8 228 -22z"/>
<path d="M10837 13114 c-4 -4 -7 -86 -7 -182 l0 -174 109 4 c100 3 112 5 135
27 21 20 26 34 26 72 0 40 -4 50 -27 67 l-26 19 21 21 c31 31 29 86 -3 117
-22 23 -32 25 -109 25 -46 0 -91 2 -98 5 -8 3 -17 2 -21 -1z m184 -78 c17 -36
-3 -63 -50 -71 -65 -11 -81 -1 -81 51 l0 44 60 0 c54 0 62 -3 71 -24z m-3
-132 c26 -18 29 -56 6 -79 -12 -12 -31 -15 -73 -13 l-56 3 -3 39 c-2 21 -1 44
2 52 7 20 95 18 124 -2z"/>
<path d="M6672 14188 c4 -78 20 -85 72 -32 44 45 45 60 6 69 -16 4 -32 11 -35
16 -4 5 -15 9 -26 9 -18 0 -20 -6 -17 -62z"/>
<path d="M6585 14033 c-14 -21 -16 -37 -10 -87 12 -87 11 -232 -2 -295 -10
-51 -9 -56 13 -78 44 -44 60 -32 98 76 23 65 24 79 14 113 -11 36 -10 40 17
68 26 27 27 31 17 72 -6 24 -14 62 -18 86 -5 37 -11 44 -41 57 -50 21 -68 19
-88 -12z"/>
<path d="M6463 13467 c-42 -20 -43 -22 -43 -69 0 -56 9 -59 63 -23 32 22 37
31 37 65 0 21 -3 41 -7 43 -5 3 -27 -5 -50 -16z"/>
<path d="M7553 13368 c-34 -21 -40 -32 -23 -43 6 -4 17 -23 26 -43 18 -45 52
-82 73 -82 9 0 26 18 39 41 26 45 29 39 -42 117 -34 37 -31 36 -73 10z"/>
<path d="M7766 13159 c-38 -30 -37 -95 3 -133 l28 -27 26 30 c14 17 31 47 38
68 11 35 10 38 -17 60 -36 28 -44 28 -78 2z"/>
<path d="M9521 12540 c-33 -54 -38 -66 -29 -86 9 -19 8 -28 -7 -44 -15 -16
-31 -20 -82 -20 -87 0 -163 -37 -163 -79 0 -16 -7 -34 -15 -41 -22 -18 -19
-33 15 -65 36 -35 40 -65 8 -66 -13 0 -45 -8 -73 -17 l-50 -17 -5 -55 -5 -55
-67 -35 c-36 -19 -69 -38 -73 -41 -3 -4 6 -34 21 -68 l27 -62 -46 -47 c-26
-26 -47 -52 -47 -58 0 -5 16 -25 35 -44 25 -24 32 -37 26 -49 -5 -9 -14 -42
-20 -73 -7 -31 -23 -74 -37 -94 -18 -26 -22 -40 -15 -47 18 -18 13 -35 -39
-113 -27 -41 -50 -79 -50 -82 0 -4 16 -18 35 -31 19 -13 35 -27 35 -30 0 -4
-20 -37 -44 -73 l-44 -66 39 -17 c55 -25 53 -56 -7 -111 -67 -62 -55 -77 44
-60 41 8 42 7 41 -21 0 -23 -15 -40 -83 -96 -78 -63 -84 -70 -84 -106 0 -21
-10 -65 -21 -99 -12 -34 -21 -87 -21 -118 0 -54 -15 -100 -110 -333 -10 -25
-16 -51 -13 -58 8 -19 77 -16 158 7 38 11 80 20 93 20 23 0 33 16 46 76 6 27
2 38 -23 67 -17 19 -31 39 -31 45 0 5 18 17 40 26 l40 16 0 67 c0 55 4 71 22
90 18 19 22 36 23 101 2 66 7 88 38 152 22 47 34 83 31 96 -8 29 19 78 61 111
32 25 35 33 35 78 0 28 -6 59 -14 70 -31 45 -85 162 -87 190 -7 89 10 115 75
115 35 0 48 6 77 36 18 20 46 42 61 50 28 14 98 20 98 7 0 -4 -24 -41 -52 -82
-48 -69 -54 -84 -65 -161 -19 -138 -17 -175 14 -222 l27 -41 13 32 c14 34 20
122 9 139 -8 13 25 102 38 102 5 0 20 -9 32 -21 l22 -21 31 23 c17 12 33 20
36 18 3 -3 18 -37 33 -75 28 -67 30 -69 66 -72 61 -5 76 16 76 110 0 59 6 93
23 136 22 55 23 65 17 247 -3 105 -3 210 2 235 4 25 33 95 63 155 32 65 57
130 61 160 10 72 59 120 134 130 120 16 122 24 54 228 -45 134 -60 168 -77
174 -12 4 -69 8 -127 8 -58 0 -128 4 -157 9 l-52 8 -40 -62z"/>
<path d="M8367 12432 c-56 -28 -75 -44 -103 -88 -19 -29 -34 -59 -34 -67 0 -7
16 -32 35 -54 34 -40 36 -41 72 -31 47 13 128 4 161 -18 l26 -17 -23 -18 c-13
-11 -35 -19 -50 -19 -14 0 -37 -6 -50 -13 -30 -15 -72 -94 -69 -127 3 -27 20
-30 81 -15 23 6 27 4 27 -13 0 -33 -40 -52 -86 -41 -122 32 -115 32 -156 -14
-21 -23 -38 -45 -38 -49 0 -12 54 -44 95 -55 112 -31 144 -34 188 -14 23 11
73 33 110 50 38 17 72 31 77 31 5 0 22 -11 38 -25 17 -14 43 -28 59 -31 25 -5
34 0 56 26 33 39 52 99 42 137 -9 36 -7 38 35 38 35 0 35 1 38 47 3 47 -16 98
-59 159 -18 26 -20 26 -59 13 -22 -8 -65 -15 -96 -16 l-57 -3 -38 95 c-31 75
-48 103 -81 132 -24 21 -50 37 -58 37 -8 -1 -46 -18 -83 -37z"/>
<path d="M11665 11876 c-121 -48 -218 -59 -291 -31 -46 17 -46 17 -72 -8 -15
-14 -38 -28 -51 -32 -13 -4 -52 -33 -86 -65 -59 -55 -66 -58 -136 -69 -105
-17 -99 -11 -99 -90 0 -68 -1 -72 -55 -152 -30 -45 -54 -83 -53 -84 2 -1 27
-19 57 -39 55 -37 75 -42 100 -27 10 7 33 0 73 -20 63 -32 93 -35 201 -18 70
11 74 13 139 76 60 57 71 64 97 58 27 -6 34 0 101 79 40 47 75 86 79 86 4 0
26 -14 49 -31 51 -37 79 -34 114 12 54 72 85 98 126 105 34 5 41 10 44 35 3
15 0 42 -6 60 -10 28 -20 35 -77 54 -88 29 -139 68 -139 106 0 15 -3 30 -7 32
-5 2 -53 -14 -108 -37z"/>
<path d="M10107 11833 c-3 -5 -7 -44 -8 -88 -3 -69 -1 -80 14 -83 13 -3 17 4
17 32 0 33 2 35 38 38 52 4 51 32 -1 36 -30 3 -37 7 -35 20 2 12 14 17 40 17
41 1 54 8 43 24 -7 12 -101 15 -108 4z"/>
<path d="M10245 11827 c-3 -7 -5 -47 -3 -88 2 -61 6 -74 21 -77 14 -3 17 4 17
32 0 45 12 45 47 1 15 -19 36 -35 46 -35 23 0 22 6 -13 50 -37 47 -38 63 -3
90 20 16 24 23 15 32 -9 9 -21 3 -51 -26 l-40 -39 -3 33 c-3 35 -24 52 -33 27z"/>
<path d="M7635 11732 c-51 -38 -125 -127 -125 -149 0 -9 19 -13 63 -13 54 1
66 5 96 30 19 16 43 51 53 77 16 42 16 49 3 70 -21 31 -32 29 -90 -15z"/>
<path d="M8770 11514 c-54 -43 -210 -158 -246 -181 -18 -10 -16 -14 19 -43 51
-43 48 -64 -11 -94 -59 -30 -68 -40 -93 -108 -28 -76 -25 -102 17 -147 l35
-40 34 16 c30 15 34 21 37 62 3 41 6 47 47 70 41 24 45 31 66 101 26 90 39
116 98 196 25 34 53 76 62 93 17 34 17 113 0 117 -5 1 -35 -18 -65 -42z"/>
<path d="M10012 11367 c-31 -33 -31 -105 1 -135 24 -23 44 -26 96 -16 30 6 32
9 29 48 -3 34 -7 42 -27 44 -34 5 -48 -13 -21 -28 17 -9 19 -14 9 -26 -17 -20
-57 -17 -69 5 -32 60 29 135 70 86 15 -19 40 -20 40 -2 0 47 -91 63 -128 24z"/>
<path d="M8265 11193 c-22 -7 -65 -39 -96 -69 -52 -51 -59 -55 -90 -49 l-34 6
-59 -119 c-32 -66 -56 -124 -52 -130 4 -6 -3 -37 -14 -69 -39 -112 -22 -120
74 -32 64 59 66 62 66 109 0 41 3 49 23 54 33 9 35 8 47 -14 8 -15 4 -31 -17
-74 l-27 -56 42 -36 42 -35 -25 -37 c-30 -44 -31 -63 -7 -85 17 -16 24 -15
105 10 86 26 86 27 89 62 3 38 1 37 68 25 18 -3 30 2 43 20 16 23 16 28 2 62
-8 19 -38 70 -66 112 -53 79 -54 83 -30 162 36 124 36 117 7 160 -29 44 -32
44 -91 23z"/>
<path d="M11160 10915 c0 -47 3 -85 8 -86 4 0 27 -2 52 -4 44 -4 75 9 64 26
-3 5 -25 9 -50 9 -37 0 -44 3 -44 20 0 17 7 20 41 20 33 0 40 3 37 18 -2 10
-13 18 -28 19 -14 0 -31 1 -37 2 -7 1 -13 8 -13 15 0 11 14 16 48 18 68 4 58
22 -15 26 l-63 3 0 -86z"/>
<path d="M11310 10915 c0 -78 2 -85 20 -85 16 0 20 7 20 35 0 34 2 35 36 35
33 0 36 -2 31 -23 -7 -27 6 -52 25 -45 10 4 13 24 11 79 -1 41 -3 78 -3 82 0
5 -8 7 -17 5 -12 -2 -18 -13 -18 -33 0 -27 -3 -30 -30 -30 -27 0 -30 4 -33 33
-2 24 -8 32 -23 32 -17 0 -19 -8 -19 -85z"/>
<path d="M9214 10732 c-63 -35 -122 -85 -140 -118 -16 -30 -17 -40 -6 -91 7
-32 8 -59 3 -61 -4 -1 -15 -8 -24 -15 -15 -11 -15 -16 3 -56 11 -24 20 -53 20
-65 0 -30 31 -58 113 -100 47 -25 82 -36 110 -36 63 0 72 10 57 56 -12 36 -11
39 14 61 15 12 33 41 41 63 14 40 14 41 -18 78 -76 86 -77 88 -77 181 -1 119
-23 143 -96 103z"/>
<path d="M10608 10563 c-2 -43 -2 -84 0 -91 9 -28 27 -3 32 44 6 51 9 48 25
-32 8 -37 37 -27 50 18 15 55 25 57 25 5 0 -35 4 -47 15 -47 12 0 15 17 15 90
0 71 -3 90 -14 90 -29 0 -46 -13 -46 -34 -1 -11 -7 -34 -14 -51 l-13 -30 -8
30 c-16 67 -22 80 -42 83 -20 3 -22 -2 -25 -75z"/>
<path d="M10809 10636 c-3 -3 -3 -135 0 -168 1 -5 15 -8 31 -8 17 0 30 -2 30
-5 0 -2 -15 -33 -34 -67 -19 -35 -40 -91 -47 -125 -32 -155 54 -318 209 -395
60 -31 72 -33 161 -33 90 0 100 2 159 34 107 58 163 126 198 240 33 108 3 235
-76 331 -40 47 -66 67 -125 95 -68 33 -83 36 -160 36 -81 1 -91 -2 -170 -41
-53 -26 -94 -40 -112 -38 -28 3 -28 4 -31 76 -2 50 -7 72 -16 72 -7 0 -15 -2
-17 -4z m471 -123 c228 -93 281 -407 94 -562 -72 -59 -120 -75 -219 -75 -84
-1 -94 2 -153 33 -118 64 -177 163 -177 296 0 97 22 151 90 224 75 80 167 114
275 104 30 -3 71 -12 90 -20z"/>
<path d="M11102 10383 c-5 -15 -34 -89 -62 -163 -71 -186 -69 -172 -29 -168
29 3 36 8 45 38 l12 35 78 3 79 2 17 -40 c14 -34 21 -40 47 -40 17 0 31 1 31
3 0 2 -31 81 -68 177 l-68 175 -35 3 c-32 3 -37 -1 -47 -25z m76 -125 c12 -35
22 -66 22 -70 0 -5 -22 -8 -50 -8 -56 0 -59 5 -36 67 8 21 17 46 20 56 10 31
22 18 44 -45z"/>
<path d="M11797 10533 c-14 -13 -6 -23 18 -23 23 0 24 -3 27 -72 2 -57 6 -73
18 -73 12 0 16 16 18 73 3 69 4 72 27 72 16 0 25 6 25 15 0 12 -14 15 -63 15
-35 0 -67 -3 -70 -7z"/>
<path d="M11954 10527 c-3 -8 -4 -47 -2 -88 l3 -74 48 1 c64 1 89 25 89 89 1
39 -3 52 -21 67 -28 22 -109 25 -117 5z m100 -49 c14 -39 -6 -78 -39 -78 -24
0 -25 3 -25 56 0 54 0 55 27 52 20 -2 30 -11 37 -30z"/>
<path d="M9939 10328 c-2 -105 -1 -119 4 -124 12 -12 27 8 27 37 0 39 20 37
49 -6 22 -33 40 -43 54 -29 4 4 -7 25 -23 47 -36 50 -37 62 -5 83 27 17 34 44
12 44 -7 0 -26 -13 -42 -30 -16 -16 -32 -30 -37 -30 -4 0 -8 14 -8 30 0 20 -5
30 -15 30 -11 0 -15 -13 -16 -52z"/>
<path d="M10154 10363 c-3 -10 -9 -27 -14 -38 -21 -51 -40 -106 -40 -115 0
-18 29 -10 40 10 7 13 21 20 40 20 20 0 31 -6 35 -20 7 -21 30 -27 40 -10 4 6
2 16 -3 23 -5 7 -19 42 -31 80 -18 52 -27 67 -42 67 -11 0 -22 -8 -25 -17z
m36 -74 c0 -10 -7 -19 -15 -19 -16 0 -19 9 -9 34 8 20 24 11 24 -15z"/>
<path d="M7036 10172 c-29 -73 -40 -82 -84 -70 -20 6 -61 13 -90 15 -59 5
-102 -14 -102 -47 0 -10 -4 -22 -10 -25 -24 -15 -6 -122 37 -212 8 -18 13 -43
9 -56 -6 -25 -66 -107 -78 -107 -17 0 -39 62 -32 93 18 88 16 121 -13 184
l-28 63 -122 -1 c-67 -1 -126 2 -132 6 -6 3 -25 -7 -42 -24 -17 -17 -34 -31
-38 -31 -4 0 -20 13 -36 30 l-28 29 -41 -29 c-23 -15 -48 -35 -55 -44 -8 -9
-29 -16 -50 -16 -43 -1 -61 -10 -129 -70 l-52 -45 0 -62 0 -63 -63 0 c-35 0
-66 -3 -69 -6 -4 -3 6 -29 22 -58 25 -49 43 -115 57 -208 6 -41 -9 -50 -46
-26 -38 23 -49 7 -68 -100 -3 -18 -9 -35 -14 -38 -5 -3 -9 -16 -9 -29 0 -21
-3 -23 -42 -18 -24 3 -51 10 -60 14 -28 15 -88 10 -116 -9 -15 -10 -44 -26
-65 -36 -56 -26 -100 -111 -67 -131 6 -3 10 -19 10 -35 0 -19 7 -33 19 -40 23
-12 158 -14 165 -2 13 22 75 11 118 -21 71 -52 84 -57 157 -57 39 0 72 -4 75
-9 3 -5 26 -12 51 -15 24 -4 47 -11 50 -15 13 -21 -24 -82 -89 -148 -59 -61
-76 -73 -103 -73 -17 0 -35 -4 -38 -10 -3 -5 -23 -10 -44 -10 -32 0 -51 -10
-115 -61 -42 -33 -76 -67 -76 -74 0 -7 9 -34 20 -60 11 -26 20 -56 20 -68 0
-36 -40 -147 -53 -147 -5 0 -32 16 -61 35 -46 31 -61 35 -115 35 -34 0 -70 -4
-80 -9 -14 -8 -31 3 -87 60 -37 38 -72 69 -76 69 -4 0 -19 -18 -33 -40 -31
-50 -91 -110 -128 -129 -27 -14 -29 -14 -93 50 -36 35 -77 88 -92 117 -14 28
-29 52 -33 52 -11 0 -128 -71 -135 -81 -12 -20 -42 -6 -94 45 l-55 53 -86 -7
c-47 -4 -94 -12 -105 -18 -10 -5 -39 -18 -64 -27 -25 -9 -53 -21 -62 -26 -10
-5 -25 -9 -33 -9 -8 0 -25 -5 -38 -12 -12 -6 -29 -14 -37 -18 -10 -5 -16 -25
-18 -59 -3 -51 -3 -51 70 -131 l73 -80 6 -92 c7 -123 -4 -172 -47 -205 -39
-29 -41 -39 -16 -82 17 -30 18 -31 97 -31 44 0 97 5 118 11 40 11 96 -2 130
-30 22 -18 21 -23 -3 -73 -11 -23 -20 -48 -20 -55 0 -8 -12 -13 -29 -13 -17 0
-32 -4 -35 -9 -6 -10 -49 -17 -166 -29 -77 -8 -100 -16 -100 -33 0 -5 -11 -27
-25 -49 -14 -22 -25 -44 -25 -50 0 -5 16 -34 35 -64 40 -63 43 -76 16 -76 -11
0 -23 -4 -26 -10 -3 -5 -17 -10 -30 -10 -13 0 -79 -22 -147 -49 -67 -26 -131
-51 -140 -54 -13 -5 -16 -19 -17 -68 0 -73 20 -129 46 -129 11 0 24 -5 30 -11
6 -6 50 -14 97 -16 48 -3 89 -10 92 -14 3 -5 25 -9 49 -9 24 0 47 -4 50 -10 3
-5 -3 -28 -15 -52 -11 -23 -20 -50 -20 -59 0 -10 23 -34 50 -54 l50 -37 66 32
c36 17 72 29 79 27 7 -3 27 -34 44 -69 25 -47 45 -72 83 -98 28 -19 65 -47 83
-62 41 -35 49 -35 72 3 l18 32 200 -1 200 -1 -3 -48 c-2 -27 -12 -57 -21 -68
-10 -11 -24 -31 -33 -45 -20 -33 -97 -60 -169 -60 -50 0 -64 -5 -118 -41 -73
-49 -87 -67 -96 -134 -6 -43 -14 -58 -63 -107 l-56 -57 32 -51 c18 -28 32 -54
32 -58 0 -3 -28 -33 -63 -67 -59 -57 -111 -133 -123 -179 -3 -15 -23 -29 -65
-45 -58 -22 -106 -67 -138 -128 -8 -16 -21 -23 -41 -23 -16 0 -32 -4 -35 -10
-3 -5 -22 -10 -41 -10 -27 0 -45 -9 -77 -39 -50 -47 -44 -59 31 -68 45 -5 59
-2 114 27 111 56 164 73 216 65 26 -3 106 -10 177 -14 72 -4 144 -14 162 -21
29 -13 36 -12 77 9 25 12 93 67 150 122 l105 100 15 -30 c9 -16 16 -37 16 -45
0 -8 -35 -40 -77 -71 -43 -30 -98 -71 -123 -89 -28 -22 -61 -37 -90 -41 -25
-4 -51 -12 -58 -17 -17 -14 -139 -13 -156 1 -15 13 -208 10 -293 -4 -41 -7
-43 -9 -43 -40 0 -31 -6 -37 -65 -73 -36 -21 -78 -57 -94 -79 -17 -23 -39 -44
-50 -48 -22 -7 -29 -39 -11 -50 23 -14 8 -44 -37 -73 -41 -27 -45 -32 -28 -38
56 -19 75 -30 75 -46 0 -12 -8 -18 -24 -18 -14 0 -28 -4 -31 -10 -3 -5 -23
-10 -44 -10 -31 0 -40 5 -49 25 -14 31 -27 31 -68 0 -32 -24 -87 -34 -98 -16
-6 8 -70 23 -115 26 -17 1 -45 -16 -83 -50 -33 -27 -80 -64 -106 -82 -81 -55
-171 -128 -171 -139 -1 -6 17 -24 39 -39 40 -28 48 -28 140 -11 88 17 131 18
170 2 83 -33 213 -15 332 45 10 5 30 9 45 9 29 0 93 -33 93 -49 0 -5 -17 -21
-37 -36 -21 -16 -51 -40 -68 -55 -16 -15 -59 -43 -95 -61 -36 -19 -66 -37 -68
-41 -2 -5 -37 -8 -77 -8 -94 0 -112 -7 -200 -82 -95 -79 -119 -127 -113 -227
5 -91 14 -101 77 -78 64 22 73 22 101 -8 13 -14 29 -25 35 -25 6 0 30 -9 53
-20 51 -25 53 -25 97 0 44 25 63 25 95 0 27 -21 65 -26 75 -10 3 6 17 10 30
10 24 0 93 34 147 71 27 20 62 26 56 10 -8 -24 -158 -122 -212 -138 -52 -16
-62 -24 -96 -73 -54 -78 -93 -113 -132 -116 -142 -11 -198 -28 -198 -61 0 -12
18 -14 103 -10 56 2 113 7 127 11 14 3 42 9 63 12 20 3 40 10 43 15 3 5 16 9
29 9 13 0 48 9 76 20 45 18 59 19 105 10 30 -6 55 -10 56 -8 2 1 20 -8 40 -20
38 -23 58 -22 58 2 0 8 7 27 15 42 8 16 15 37 15 46 0 11 13 23 33 31 29 12
35 12 60 -7 15 -11 34 -30 42 -42 14 -21 11 -25 -56 -78 -49 -39 -78 -56 -99
-56 -16 0 -32 -4 -35 -10 -3 -5 -42 -10 -86 -10 -70 0 -87 -4 -139 -31 -43
-22 -67 -43 -85 -72 l-24 -42 31 -32 c29 -30 37 -33 95 -33 52 0 71 5 101 25
43 29 58 31 101 9 18 -9 61 -17 95 -18 65 -2 74 3 132 80 l21 28 13 -25 c7
-13 27 -41 43 -61 l30 -38 86 0 86 0 43 65 c23 36 49 65 57 65 8 0 15 -3 15
-7 0 -5 22 -32 48 -62 l48 -54 74 27 c41 15 80 29 85 30 12 4 42 14 73 27 12
5 32 24 43 43 16 28 27 35 62 39 117 15 146 24 198 62 62 44 269 244 269 260
0 6 -16 34 -35 64 -19 29 -35 56 -35 61 0 4 12 10 28 13 38 7 155 -36 221 -81
30 -20 68 -47 86 -59 l32 -22 30 32 c54 58 103 124 103 139 0 7 4 18 8 23 5 6
17 31 26 58 10 26 22 47 27 47 5 0 31 -11 57 -24 72 -37 70 -38 194 17 36 15
48 46 48 122 l0 63 66 46 c62 44 68 46 102 36 20 -5 93 -10 162 -10 l125 0 55
36 c56 37 65 39 135 36 36 -2 43 -7 70 -52 17 -27 36 -50 43 -50 7 0 27 20 44
45 19 27 62 65 108 95 72 47 114 60 136 42 5 -4 36 -16 69 -26 33 -10 70 -22
83 -27 13 -5 55 -9 95 -9 l72 0 53 69 c28 37 52 74 52 81 0 12 -34 62 -63 92
-7 7 -23 28 -37 47 -20 29 -21 35 -9 45 8 6 41 31 73 56 32 25 72 55 88 67 41
30 53 49 67 113 7 30 17 75 22 100 6 25 13 94 16 154 l5 109 63 74 c39 45 65
86 68 106 8 44 24 113 38 167 15 55 15 189 0 290 -6 41 -11 84 -11 95 0 11 3
78 6 149 3 76 2 138 -4 150 -6 12 -20 46 -32 76 -12 30 -30 73 -40 95 -33 74
-34 87 -1 135 25 37 31 55 31 102 0 31 -4 60 -10 63 -5 3 -10 33 -10 65 0 32
-4 62 -10 65 -5 3 -10 32 -10 63 0 51 -6 68 -62 167 -34 60 -66 130 -70 155
-5 25 -13 69 -19 98 -5 28 -14 78 -20 110 -6 31 -13 99 -16 150 -3 73 -7 92
-20 92 -26 0 -8 25 19 26 14 1 47 15 72 32 26 18 54 32 63 32 9 0 38 -14 64
-31 40 -25 60 -31 110 -32 59 -2 62 -1 78 28 115 211 126 225 228 304 l43 33
29 -21 c30 -21 76 -28 85 -12 3 4 19 11 35 14 40 8 71 61 71 121 0 47 0 47
-49 69 -45 20 -50 26 -55 63 -4 22 -2 53 4 68 5 15 10 49 10 76 0 46 -3 51
-50 92 -27 24 -50 48 -50 54 0 11 42 54 52 54 4 0 29 -31 56 -68 41 -57 51
-78 55 -123 9 -87 22 -163 30 -176 5 -7 24 -13 43 -13 l34 0 -3 148 c-1 89 -6
155 -13 163 -6 8 -19 34 -28 58 -10 25 -25 56 -35 70 -9 14 -24 46 -31 71 -8
25 -19 48 -25 52 -5 4 -34 8 -64 8 -56 0 -89 -15 -164 -74 -37 -29 -39 -30
-65 -14 -15 9 -28 23 -30 31 -5 25 42 84 78 97 37 14 160 125 160 145 0 24
-76 95 -103 95 -21 0 -32 12 -67 78 -23 42 -64 103 -91 134 -45 52 -49 61 -49
108 0 48 -2 52 -32 64 -27 12 -34 23 -46 67 -8 30 -17 96 -19 148 -3 73 -8 98
-21 108 -21 15 -74 17 -88 3 -19 -19 -97 -13 -144 11 -37 18 -67 23 -167 27
-120 5 -123 4 -157 -22 -19 -14 -40 -26 -46 -26 -14 0 -107 -47 -142 -71 -34
-24 -60 -24 -83 1 -19 21 -55 27 -55 10 0 -5 -7 -10 -15 -10 -17 0 -20 16 -5
25 18 11 11 30 -42 121 -28 49 -57 100 -64 112 -12 24 -164 122 -187 122 -7 0
-21 -21 -31 -48z m311 -356 c-3 -7 -9 -50 -12 -94 l-7 -80 -32 -5 c-17 -3 -41
-8 -53 -12 -15 -5 -23 -3 -23 4 0 6 7 11 15 11 8 0 15 4 15 8 0 5 11 14 25 20
23 11 25 17 25 75 0 36 5 68 12 75 16 16 41 15 35 -2z m-189 -192 c29 -9 -2
-24 -49 -24 -34 0 -49 4 -49 13 0 8 3 16 6 20 6 5 64 0 92 -9z m-180 -217 c1
-50 3 -108 5 -127 2 -33 0 -34 -40 -41 -23 -4 -53 -15 -67 -25 -14 -9 -26 -12
-26 -7 0 18 68 63 95 63 15 0 21 40 8 54 -6 6 -31 89 -33 108 0 5 49 68 53 68
1 0 3 -42 5 -93z m-268 -307 c0 -5 -7 -10 -15 -10 -8 0 -15 -4 -15 -8 0 -11
-66 -42 -90 -42 -11 0 -20 5 -20 10 0 6 6 10 13 10 8 0 36 11 63 25 54 27 64
30 64 15z m-256 -101 c-6 -33 -3 -44 16 -64 28 -30 20 -44 -15 -25 -22 12 -25
20 -25 70 0 31 3 60 6 63 15 15 24 -7 18 -44z m1590 -78 c118 -58 181 -161
181 -296 0 -66 -5 -90 -27 -137 -65 -140 -221 -220 -365 -189 -76 17 -119 40
-172 93 -67 66 -95 135 -95 233 0 116 46 209 135 271 105 73 228 82 343 25z
m-1489 -41 c3 -5 -1 -10 -9 -10 -9 0 -16 5 -16 10 0 6 4 10 9 10 6 0 13 -4 16
-10z m15 -58 c0 -20 -105 -78 -170 -94 -19 -5 -50 -13 -69 -18 -43 -11 -44
-12 -69 -93 -30 -92 -28 -117 8 -152 55 -53 34 -61 -35 -13 -49 35 -55 54 -31
110 46 106 57 128 64 128 4 0 14 13 23 29 17 29 29 33 134 47 24 3 59 19 85
39 52 39 60 41 60 17z m740 -369 c-1 -10 -13 -43 -29 -73 -26 -52 -29 -55 -62
-52 -37 4 -62 19 -54 32 3 5 21 6 40 3 33 -5 35 -4 61 51 26 56 44 72 44 39z
m70 -4 c0 -5 -7 -9 -15 -9 -15 0 -20 12 -9 23 8 8 24 -1 24 -14z m71 -56 c30
-35 52 -73 41 -73 -5 0 -18 10 -29 23 -30 33 -57 77 -46 77 5 0 20 -12 34 -27z
m-1101 -63 c0 -5 -4 -10 -10 -10 -5 0 -10 5 -10 10 0 6 5 10 10 10 6 0 10 -4
10 -10z m20 -46 c0 -25 30 -74 44 -74 25 0 100 -43 156 -90 85 -71 119 -92
164 -103 62 -14 207 -20 230 -9 31 15 76 24 76 15 0 -5 -10 -20 -23 -35 -22
-27 -25 -27 -142 -29 l-120 -2 -77 40 c-56 29 -89 55 -122 94 -56 67 -67 75
-88 71 -10 -2 -18 1 -18 7 0 6 -9 11 -19 11 -11 0 -23 5 -26 10 -3 6 -15 10
-26 10 -12 0 -19 7 -19 20 0 11 -5 29 -12 39 -13 21 -4 56 12 46 5 -3 10 -13
10 -21z m800 -69 c0 -8 -4 -15 -10 -15 -5 0 -10 7 -10 15 0 8 5 15 10 15 6 0
10 -7 10 -15z m425 -67 c43 -61 56 -73 98 -86 l47 -15 0 -65 c0 -59 4 -71 37
-119 20 -29 42 -53 50 -53 7 0 13 -4 13 -10 0 -5 -10 -10 -22 -10 -13 0 -32
-3 -44 -6 -17 -4 -23 2 -34 38 -7 24 -17 47 -22 53 -4 5 -8 42 -8 82 l0 73
-47 1 -48 0 -37 77 c-21 42 -40 85 -44 95 -13 37 13 13 61 -55z m-703 -1226
c65 -32 125 -94 156 -160 36 -76 38 -202 5 -274 -30 -66 -96 -133 -162 -165
-49 -24 -68 -28 -146 -28 -79 0 -97 4 -143 28 -29 15 -70 45 -92 67 -161 161
-110 436 100 535 49 23 65 25 145 23 70 -2 101 -8 137 -26z"/>
<path d="M7849 8801 c-80 -16 -138 -91 -139 -179 0 -129 134 -218 254 -168 39
16 53 33 37 49 -7 7 -20 5 -44 -8 -49 -26 -119 -17 -158 21 -41 39 -56 92 -40
146 27 87 102 125 186 93 25 -9 49 -14 55 -10 45 28 -72 72 -151 56z"/>
<path d="M6663 6775 c-79 -48 -106 -158 -60 -246 31 -58 84 -89 155 -89 59 0
122 24 122 46 0 24 -26 26 -61 5 -42 -26 -62 -26 -116 -2 -47 22 -83 79 -83
131 0 44 35 107 70 125 38 20 110 19 139 -1 21 -15 24 -15 38 -1 14 14 13 18
-18 36 -49 30 -131 28 -186 -4z"/>
<path d="M13100 10021 c-99 -31 -179 -100 -226 -197 -35 -73 -36 -78 -32 -172
4 -111 23 -161 90 -237 160 -181 456 -159 587 45 100 154 75 349 -60 474 -77
72 -142 96 -252 95 -45 0 -93 -4 -107 -8z m245 -55 c72 -33 129 -87 162 -154
25 -50 28 -68 28 -152 0 -80 -4 -102 -23 -138 -101 -189 -321 -247 -495 -131
-89 59 -139 158 -139 276 -1 239 249 399 467 299z"/>
<path d="M13197 9883 c-14 -22 -167 -356 -167 -364 0 -5 11 -9 24 -9 18 0 30
11 48 42 l23 41 75 1 75 0 20 -42 c16 -35 24 -42 47 -42 16 0 28 4 28 8 0 4
-30 73 -66 153 -36 79 -70 158 -76 174 -13 36 -24 50 -31 38z m31 -171 c12
-27 22 -51 22 -55 0 -4 -22 -7 -50 -7 -27 0 -50 3 -50 7 0 13 44 103 50 103 4
0 16 -22 28 -48z"/>
<path d="M12399 9838 c0 -2 -2 -40 -4 -86 -3 -68 -1 -84 12 -89 23 -9 33 17
27 67 -6 40 -5 43 10 31 9 -7 16 -19 16 -25 0 -7 13 -27 29 -46 41 -49 53 -33
49 66 -2 62 -6 79 -18 79 -11 0 -15 -12 -16 -45 -1 -25 -2 -49 -3 -55 0 -5
-16 15 -34 45 -17 30 -40 56 -50 58 -9 2 -17 2 -18 0z"/>
<path d="M12582 9831 c-9 -5 -12 -30 -10 -87 l3 -79 65 0 c51 0 65 3 65 15 0
11 -13 16 -47 18 -40 3 -48 6 -48 23 0 16 7 19 40 19 54 0 56 27 3 32 -52 4
-53 33 -1 33 40 0 54 8 43 24 -7 13 -94 14 -113 2z"/>
<path d="M10610 9657 c-56 -28 -64 -117 -13 -157 28 -21 68 -27 78 -10 4 6 15
8 26 5 17 -6 19 -1 19 39 0 46 0 46 -35 46 -24 0 -35 -5 -35 -15 0 -8 9 -15
20 -15 27 0 25 -14 -4 -28 -53 -24 -93 60 -48 101 24 22 34 21 64 -3 26 -20
38 -18 38 6 0 14 -50 44 -72 44 -7 0 -24 -6 -38 -13z"/>
<path d="M10400 9576 l0 -84 28 -7 c82 -18 145 78 98 149 -14 23 -24 26 -71
26 l-55 0 0 -84z m98 42 c32 -32 1 -102 -42 -96 -18 3 -21 11 -24 56 -3 51 -3
52 25 52 16 0 34 -5 41 -12z"/>
<path d="M12593 9123 c-9 -3 -13 -31 -13 -89 l0 -84 54 0 c49 0 57 3 75 29 24
33 27 87 7 113 -22 30 -87 46 -123 31z m95 -76 c4 -45 -11 -67 -44 -67 -22 0
-24 4 -24 56 l0 55 33 -3 c29 -3 32 -6 35 -41z"/>
<path d="M12755 9117 c-3 -7 -5 -47 -3 -88 2 -60 6 -74 20 -77 13 -2 17 5 20
35 3 35 5 38 33 38 28 0 30 -3 33 -38 3 -30 7 -37 20 -35 13 3 18 17 20 68 4
75 -4 113 -21 107 -7 -2 -14 -17 -17 -33 -4 -24 -10 -29 -35 -29 -25 0 -31 5
-35 29 -5 32 -27 46 -35 23z"/>
<path d="M13087 9110 c-46 -37 -29 -82 36 -94 29 -5 37 -11 35 -24 -4 -22 -41
-27 -58 -7 -17 20 -42 19 -38 -2 4 -24 63 -56 88 -48 30 9 50 33 50 59 0 29
-20 47 -63 55 -38 8 -51 41 -16 41 12 0 31 -7 41 -16 16 -16 18 -15 24 0 8 21
-12 42 -46 51 -18 4 -34 0 -53 -15z"/>
<path d="M13230 9036 c0 -49 4 -88 11 -91 15 -10 23 2 24 33 0 23 4 27 30 27
25 0 31 -5 35 -30 3 -18 11 -30 20 -30 18 0 25 38 12 61 -6 11 -5 27 1 45 17
44 -12 69 -80 69 l-53 0 0 -84z m95 29 c0 -15 -6 -19 -24 -17 -31 3 -35 7 -27
27 9 24 51 15 51 -10z"/>
<path d="M11469 8921 c-31 -25 -34 -108 -5 -140 39 -43 141 -13 122 35 -6 15
-9 15 -29 -5 -40 -37 -77 -21 -77 32 0 58 40 88 70 52 14 -16 50 -21 50 -6 0
18 -53 51 -80 51 -15 0 -38 -9 -51 -19z"/>
<path d="M11669 8913 c-57 -147 -58 -153 -34 -153 8 0 19 9 25 20 14 26 55 26
74 -1 9 -13 21 -19 30 -16 13 5 11 16 -11 79 -15 40 -31 79 -36 86 -16 20 -37
14 -48 -15z m41 -57 c0 -8 -4 -17 -9 -21 -12 -7 -24 12 -16 25 9 15 25 12 25
-4z"/>
<path d="M13356 8637 c-14 -15 -26 -30 -26 -34 1 -20 29 -42 68 -54 45 -13 50
-20 27 -39 -12 -10 -20 -9 -40 4 -26 17 -55 21 -55 8 0 -19 48 -52 76 -52 50
0 96 65 62 87 -7 4 -31 15 -52 23 -22 8 -41 20 -43 26 -6 19 29 25 53 9 40
-26 57 -16 32 18 -7 9 -27 20 -45 23 -26 5 -37 1 -57 -19z"/>
<path d="M13182 8638 c3 -7 14 -14 26 -16 20 -3 22 -9 22 -71 0 -72 4 -83 26
-74 10 4 14 24 14 73 0 66 1 69 25 72 55 7 27 23 -43 26 -57 2 -73 0 -70 -10z"/>
<path d="M12515 8548 c-3 -8 -5 -48 -3 -89 l3 -74 34 -3 c52 -5 79 6 96 38 20
38 19 80 -3 108 -22 29 -118 44 -127 20z m101 -53 c10 -39 -3 -74 -31 -81 -36
-9 -45 2 -45 57 l0 49 35 0 c29 0 36 -4 41 -25z"/>
<path d="M12685 8547 c-3 -7 -5 -47 -3 -88 l3 -74 59 0 c71 0 91 22 24 27
l-43 3 -5 69 c-5 66 -22 98 -35 63z"/>
<path d="M9160 8494 c-39 -21 -49 -34 -68 -84 -30 -75 -52 -103 -116 -144 -78
-50 -95 -84 -113 -227 -14 -108 -14 -122 0 -136 11 -12 19 -12 35 -4 32 17 63
13 89 -11 l23 -21 44 31 c24 18 50 32 58 32 37 0 81 43 110 108 17 37 52 92
78 122 71 83 81 103 77 146 -3 27 -13 45 -35 63 -22 19 -29 30 -23 41 5 8 12
36 15 63 l7 47 -68 0 c-54 0 -77 -6 -113 -26z"/>
<path d="M11715 8050 c-6 -9 -10 -118 -6 -157 1 -9 19 -13 57 -13 47 0 55 3
52 18 -2 12 -14 18 -41 20 l-37 3 0 64 c0 60 -11 88 -25 65z"/>
<path d="M11901 8046 c-7 -8 -20 -37 -30 -65 -10 -28 -21 -54 -24 -58 -4 -3
-7 -15 -7 -25 0 -24 27 -23 42 2 7 11 23 20 35 20 13 0 28 -9 35 -20 14 -22
53 -28 45 -7 -2 7 -15 43 -28 81 -24 71 -48 96 -68 72z m29 -77 c0 -10 -7 -19
-15 -19 -16 0 -19 9 -9 34 8 20 24 11 24 -15z"/>
<path d="M13620 7796 c0 -8 11 -34 25 -57 14 -24 25 -59 25 -76 0 -23 5 -33
15 -33 15 0 19 11 16 38 -1 7 12 38 29 69 21 41 27 60 19 67 -10 11 -29 -6
-55 -50 -10 -17 -13 -15 -29 19 -17 36 -45 51 -45 23z"/>
<path d="M13806 7785 c-20 -18 -26 -34 -26 -64 0 -111 144 -134 164 -27 18 94
-72 153 -138 91z m88 -21 c19 -18 21 -75 4 -92 -17 -17 -65 -15 -72 4 -10 26
-7 79 6 92 17 17 44 15 62 -4z"/>
<path d="M12953 7783 c-32 -6 -63 -50 -63 -89 0 -44 42 -94 80 -94 16 0 31 4
34 9 3 5 15 7 27 4 18 -5 20 -2 17 38 -3 42 -5 44 -35 47 -39 4 -47 -22 -10
-32 22 -6 22 -7 3 -21 -25 -19 -41 -19 -60 1 -19 18 -21 75 -4 92 16 16 49 15
72 -3 25 -19 36 -19 36 -2 0 31 -54 58 -97 50z"/>
<path d="M12722 7693 c2 -70 6 -88 18 -88 10 0 16 12 18 38 3 33 6 37 32 37
26 0 29 -4 32 -37 2 -26 8 -38 18 -38 12 0 16 18 18 88 3 81 1 88 -15 85 -12
-2 -19 -14 -21 -36 -3 -29 -6 -33 -30 -30 -22 2 -28 9 -30 36 -3 24 -8 32 -23
32 -18 0 -20 -6 -17 -87z"/>
<path d="M12204 7707 c-3 -8 -4 -47 -2 -88 l3 -74 45 -3 c25 -1 56 4 70 11 28
14 38 51 20 73 -9 10 -10 17 -1 28 14 17 5 43 -20 56 -27 15 -109 12 -115 -3z
m103 -33 c5 -14 -48 -26 -61 -14 -4 4 -5 13 -1 20 9 14 57 9 62 -6z m1 -76
c-2 -18 -10 -23 -33 -23 -23 0 -31 5 -33 23 -3 19 1 22 33 22 32 0 36 -3 33
-22z"/>
<path d="M12377 7707 c-7 -20 -3 -141 6 -154 9 -14 57 -17 93 -7 50 13 66 122
24 156 -26 21 -115 25 -123 5z m101 -29 c13 -13 16 -67 4 -84 -4 -6 -15 -13
-24 -17 -34 -12 -43 1 -41 56 0 28 2 53 2 55 3 7 49 0 59 -10z"/>
<path d="M10553 7413 c-20 -7 -18 -173 1 -173 9 0 16 12 18 33 3 28 7 33 37
37 48 7 53 30 7 30 -24 0 -39 5 -43 15 -8 22 1 28 44 29 27 1 38 6 38 16 0 11
-12 15 -45 16 -25 1 -51 -1 -57 -3z"/>
<path d="M10685 7410 c-4 -6 4 -27 16 -47 13 -21 26 -55 29 -78 7 -52 33 -55
40 -5 3 19 15 54 28 78 12 23 20 47 17 52 -10 16 -33 0 -45 -31 -16 -38 -23
-37 -43 6 -17 35 -31 43 -42 25z"/>
<path d="M11998 7353 c-2 -16 -1 -56 0 -90 l4 -63 53 0 c71 0 83 13 82 90 0
73 -17 90 -89 90 -44 0 -47 -2 -50 -27z m100 -25 c-3 -7 -17 -13 -33 -13 -16
0 -30 6 -32 13 -3 8 7 12 32 12 25 0 35 -4 33 -12z m-3 -73 c0 -22 -40 -34
-57 -17 -18 18 -1 41 29 39 21 -2 28 -8 28 -22z"/>
<path d="M12174 7367 c-3 -8 -4 -47 -2 -88 l3 -74 57 -3 c52 -3 58 -1 74 23
14 22 15 31 6 46 -7 11 -9 31 -6 45 10 40 -19 64 -78 64 -31 0 -50 -5 -54 -13z
m94 -40 c3 -13 -4 -17 -26 -17 -34 0 -45 9 -32 25 14 17 54 11 58 -8z m5 -56
c14 -2 7 -29 -9 -35 -31 -12 -54 -6 -54 12 0 25 6 29 32 26 13 -1 26 -3 31 -3z"/>
<path d="M10860 7321 c0 -20 5 -21 143 -21 78 0 206 -3 284 -7 128 -5 143 -4
149 11 4 9 4 19 1 22 -2 3 -133 7 -291 10 -285 6 -286 6 -286 -15z"/>
<path d="M11580 7236 c0 -49 4 -88 11 -91 14 -9 22 0 24 27 1 17 10 24 33 29
44 9 62 26 62 60 0 41 -24 59 -81 59 l-49 0 0 -84z m88 27 c3 -19 -1 -23 -21
-23 -26 0 -38 15 -29 38 8 22 47 10 50 -15z"/>
<path d="M11744 7307 c-3 -8 -4 -47 -2 -88 2 -60 6 -74 20 -77 12 -2 17 5 20
30 2 28 7 33 28 33 20 0 26 -6 30 -30 3 -19 12 -31 24 -33 17 -4 18 1 13 47
-3 28 -2 53 4 56 15 10 10 41 -9 58 -23 21 -120 24 -128 4z m101 -42 c0 -15
-8 -21 -32 -23 -30 -3 -33 -1 -33 23 0 24 3 26 33 23 24 -2 32 -8 32 -23z"/>
<path d="M12944 7287 c-3 -8 -4 -47 -2 -88 l3 -74 60 0 c47 0 60 3 60 15 0 10
-13 16 -42 18 l-43 3 0 70 c0 55 -3 69 -15 69 -9 0 -18 -6 -21 -13z"/>
<path d="M13095 7280 c-30 -33 -13 -68 41 -82 31 -9 44 -17 42 -28 -4 -21 -42
-24 -58 -5 -15 19 -40 20 -40 2 0 -43 92 -64 123 -29 35 38 8 85 -54 94 -33 4
-39 38 -6 38 14 0 30 -7 37 -15 17 -20 30 -19 30 3 0 28 -20 42 -60 42 -24 0
-43 -7 -55 -20z"/>
<path d="M14227 7194 c-4 -4 -7 -45 -7 -91 0 -75 2 -84 18 -81 12 2 18 14 20
41 3 36 5 38 35 35 29 -3 32 -6 32 -38 0 -25 5 -36 18 -38 15 -3 17 6 17 82 0
49 -4 88 -11 91 -15 10 -23 -2 -24 -33 0 -23 -5 -27 -32 -30 -29 -3 -32 -1
-35 29 -3 32 -17 46 -31 33z"/>
<path d="M14397 7194 c-10 -11 -8 -109 3 -138 12 -33 64 -48 102 -30 22 12 28
23 33 67 9 70 4 101 -17 105 -16 3 -18 -5 -18 -61 0 -47 -4 -68 -16 -78 -29
-24 -48 1 -54 71 -5 59 -16 81 -33 64z"/>
<path d="M12360 7070 c0 -82 2 -91 18 -88 12 2 18 14 20 41 3 33 6 37 32 37
26 0 29 -4 32 -37 2 -26 8 -38 18 -38 12 0 16 18 18 88 3 81 1 88 -15 85 -12
-2 -19 -14 -21 -36 -3 -29 -6 -33 -30 -30 -21 2 -28 10 -32 33 -3 18 -12 31
-23 33 -15 3 -17 -6 -17 -88z"/>
<path d="M12530 7154 c0 -4 10 -23 22 -42 l22 -35 -22 -38 c-12 -21 -22 -43
-22 -48 0 -21 31 -11 42 14 6 14 17 25 23 25 6 0 17 -11 23 -25 11 -24 36 -33
46 -17 3 5 -6 25 -19 45 -30 43 -30 45 -5 77 11 14 20 31 20 38 0 22 -28 13
-48 -15 l-20 -28 -13 28 c-10 23 -49 40 -49 21z"/>
<path d="M10590 7021 c0 -24 40 -155 51 -165 14 -15 39 19 39 53 0 14 4 32 9
40 10 15 13 7 26 -56 7 -36 22 -50 36 -36 13 13 53 162 46 170 -16 15 -35 -10
-42 -52 -8 -54 -20 -50 -33 10 -6 30 -13 40 -27 40 -15 0 -21 -10 -28 -42 -10
-55 -24 -55 -34 -1 -6 28 -15 44 -26 46 -9 2 -17 -1 -17 -7z"/>
<path d="M10826 6993 c-9 -55 -7 -116 4 -133 15 -24 28 0 32 55 l3 50 20 -34
c11 -18 30 -45 42 -60 33 -39 44 -18 41 75 -2 62 -6 79 -18 79 -11 0 -16 -14
-20 -50 l-5 -50 -16 25 c-9 14 -23 37 -33 53 -23 38 -42 34 -50 -10z"/>
<path d="M12976 6971 c-4 -5 -2 -20 3 -33 17 -46 31 -95 31 -110 0 -17 26 -32
40 -23 5 3 11 23 15 46 8 49 28 47 36 -4 12 -76 39 -62 68 37 24 83 21 102
-10 86 -14 -8 -19 -21 -19 -50 0 -52 -18 -52 -26 0 -7 42 -29 70 -43 54 -5 -5
-14 -26 -21 -47 -14 -44 -21 -42 -29 10 -6 37 -32 56 -45 34z"/>
<path d="M13215 6968 c-7 -17 0 -157 8 -164 14 -15 37 7 37 35 0 26 4 30 32
33 22 2 34 9 36 21 3 14 -4 17 -32 17 -29 0 -36 4 -36 20 0 16 6 19 38 17 27
-1 37 2 37 13 0 20 -113 28 -120 8z"/>
<path d="M12598 6871 c-1 -39 -2 -79 -2 -88 -1 -12 6 -18 19 -18 16 0 20 7 20
30 0 27 4 30 33 33 31 3 32 2 32 -32 0 -30 4 -36 20 -36 20 0 21 5 18 82 -3
70 -6 83 -20 86 -14 3 -18 -3 -18 -27 0 -29 -3 -31 -34 -31 -32 0 -35 3 -38
32 -2 17 -9 33 -15 36 -10 3 -13 -16 -15 -67z"/>
<path d="M12777 6934 c-4 -4 -7 -45 -7 -91 l0 -83 53 0 c64 0 82 15 92 76 5
35 3 45 -17 67 -23 26 -105 47 -121 31z m91 -46 c16 -16 15 -60 -1 -82 -8 -11
-23 -17 -38 -14 -21 3 -24 8 -24 48 0 25 1 48 3 53 5 11 47 8 60 -5z"/>
<path d="M11024 6919 c-11 -18 5 -25 131 -64 66 -20 154 -47 195 -60 41 -13
109 -34 150 -46 85 -24 185 -55 248 -75 56 -18 72 -18 72 4 0 12 -14 21 -42
30 -24 7 -92 28 -153 47 -60 19 -155 48 -210 64 -55 17 -160 48 -234 71 -148
45 -147 44 -157 29z"/>
<path d="M11922 6891 c-9 -5 -12 -30 -10 -87 l3 -79 57 -3 c52 -3 58 -1 74 23
14 22 15 31 6 46 -6 10 -9 31 -6 47 5 23 1 33 -17 46 -25 17 -85 21 -107 7z
m88 -46 c0 -10 -10 -15 -30 -15 -20 0 -30 5 -30 15 0 10 10 15 30 15 20 0 30
-5 30 -15z m-2 -72 c-2 -12 -12 -18 -28 -18 -16 0 -26 6 -28 18 -3 13 3 17 28
17 25 0 31 -4 28 -17z"/>
<path d="M12095 6891 c-6 -6 -9 -46 -7 -90 l4 -81 59 0 c46 0 59 3 59 15 0 16
-8 18 -52 15 l-28 -2 0 76 c0 75 -9 93 -35 67z"/>
<path d="M12346 6794 c-21 -22 -26 -36 -26 -75 0 -39 4 -51 26 -68 38 -30 80
-27 115 8 31 31 36 61 19 107 -23 59 -89 73 -134 28z m88 -20 c22 -22 20 -77
-3 -98 -25 -23 -59 -13 -72 21 -23 61 33 120 75 77z"/>
<path d="M12524 6812 c-6 -4 -12 -42 -13 -89 l-1 -83 66 0 c48 0 65 3 62 13
-3 6 -22 14 -44 17 l-39 5 -3 65 c-3 68 -10 84 -28 72z"/>
<path d="M13630 6641 c0 -97 4 -103 60 -97 14 2 30 4 37 5 29 3 53 45 53 92 0
66 -25 89 -97 89 l-53 0 0 -89z m104 27 c17 -28 -4 -72 -37 -76 -26 -3 -27 -2
-27 48 0 50 1 51 26 48 15 -2 32 -11 38 -20z"/>
<path d="M13800 6641 c0 -91 9 -113 35 -91 10 9 13 24 8 56 -3 24 -3 44 0 44
3 0 15 -17 28 -37 60 -101 79 -94 79 28 0 82 -1 89 -20 89 -21 0 -23 -6 -20
-57 2 -45 -11 -41 -39 12 -18 34 -30 45 -47 45 -23 0 -24 -2 -24 -89z"/>
<path d="M10922 6613 l3 -88 58 -3 c45 -2 57 0 57 12 0 10 -13 16 -42 18 l-43
3 -3 73 c-2 56 -6 72 -18 72 -12 0 -14 -15 -12 -87z"/>
<path d="M12097 6643 c-3 -5 -6 -44 -8 -88 -4 -75 -3 -80 16 -80 18 0 20 6 17
45 -4 52 11 46 25 -10 12 -45 40 -52 48 -13 14 61 24 70 24 21 1 -41 4 -48 21
-48 18 0 20 7 20 79 0 57 -4 82 -15 91 -24 20 -41 5 -54 -44 -11 -46 -31 -63
-31 -27 0 37 -22 81 -40 81 -11 0 -21 -3 -23 -7z"/>
<path d="M11082 6593 c3 -16 21 -18 191 -21 182 -2 187 -2 187 18 0 19 -6 20
-191 20 -176 0 -190 -1 -187 -17z"/>
<path d="M9733 6520 l-43 -19 0 -80 c0 -44 -4 -82 -9 -85 -5 -3 2 -26 15 -52
17 -34 22 -57 18 -88 -4 -31 1 -50 18 -81 22 -38 26 -40 71 -40 51 0 63 -10
74 -57 3 -16 12 -28 20 -28 7 0 44 30 81 66 37 37 80 71 95 76 15 6 34 23 42
38 8 15 29 33 47 40 42 17 78 49 78 70 0 16 -35 32 -97 45 -25 5 -39 18 -63
56 -16 27 -30 57 -30 67 -1 9 -25 34 -55 55 -52 36 -57 37 -137 37 -60 0 -95
-6 -125 -20z"/>
<path d="M11660 6443 c1 -10 7 -36 15 -58 8 -22 15 -47 15 -56 0 -8 7 -24 15
-35 15 -19 15 -19 30 0 8 11 15 34 15 52 0 52 17 48 30 -6 20 -82 41 -79 66
11 28 96 29 111 8 107 -13 -2 -22 -16 -28 -46 -5 -23 -12 -42 -16 -42 -3 0
-10 19 -16 43 -7 32 -14 42 -29 42 -15 0 -21 -10 -28 -42 -10 -54 -22 -55 -33
-1 -6 28 -15 44 -27 46 -11 2 -17 -3 -17 -15z"/>
<path d="M11910 6403 c-12 -32 -26 -69 -31 -82 -15 -36 7 -53 31 -23 23 27 61
29 78 2 13 -22 42 -27 42 -7 -1 15 -42 138 -53 155 -19 29 -45 12 -67 -45z
m58 -26 c2 -12 -3 -17 -17 -17 -23 0 -24 1 -15 25 8 19 28 15 32 -8z"/>
<path d="M12990 6420 c-11 -11 -20 -24 -20 -29 0 -21 38 -53 70 -60 21 -4 35
-13 35 -21 0 -22 -44 -24 -66 -4 -15 13 -22 15 -31 6 -21 -21 19 -52 68 -52
36 0 47 5 61 26 24 37 13 53 -61 86 -16 7 -29 18 -29 23 -1 18 34 17 54 -1 15
-13 22 -15 31 -6 9 9 7 16 -7 32 -24 26 -78 27 -105 0z"/>
<path d="M12312 6285 c-17 -13 -22 -25 -20 -48 3 -29 8 -34 51 -46 53 -16 64
-41 18 -41 -17 0 -33 5 -36 10 -11 17 -35 11 -35 -9 0 -23 50 -46 85 -37 13 3
32 17 41 31 21 33 7 56 -47 75 -23 8 -44 20 -46 26 -6 19 29 25 53 9 29 -19
44 -19 44 -1 0 36 -72 56 -108 31z"/>
<path d="M12450 6206 c0 -63 4 -85 14 -89 20 -8 26 2 26 40 0 18 3 33 6 33 4
0 23 -19 44 -42 27 -31 41 -40 49 -32 8 7 3 21 -19 50 -36 48 -37 54 -5 84 14
13 25 27 25 32 0 19 -36 6 -67 -24 l-33 -32 0 32 c0 25 -4 32 -20 32 -18 0
-20 -7 -20 -84z"/>
<path d="M14192 6158 l3 -93 60 0 c53 0 60 2 60 20 0 17 -7 20 -40 20 l-40 0
-3 73 c-3 64 -5 72 -23 72 -18 0 -20 -6 -17 -92z"/>
<path d="M14338 6183 c-4 -80 3 -118 23 -118 9 0 16 16 19 49 l5 50 33 -53
c22 -36 38 -51 50 -49 15 3 17 16 17 93 0 83 -1 90 -20 90 -16 0 -21 -8 -25
-45 l-5 -45 -25 45 c-16 28 -33 46 -47 48 -20 3 -22 -2 -25 -65z"/>
<path d="M14815 6216 c-58 -18 -87 -36 -137 -82 -63 -58 -83 -89 -107 -168
-39 -127 -22 -232 55 -337 93 -127 284 -179 436 -120 80 31 159 106 200 189
30 61 33 75 33 157 0 77 -4 99 -29 152 -36 78 -112 153 -198 193 -53 25 -75
30 -138 29 -41 0 -93 -6 -115 -13z m260 -62 c64 -31 122 -92 157 -162 35 -70
33 -196 -3 -273 -34 -73 -96 -134 -168 -167 -80 -38 -192 -38 -273 0 -147 68
-228 239 -184 390 31 109 118 199 225 233 70 23 175 13 246 -21z"/>
<path d="M14905 5983 c-21 -49 -60 -132 -87 -187 -26 -54 -48 -100 -48 -102 0
-2 14 -4 30 -4 27 0 33 6 50 45 l20 46 77 -3 78 -3 19 -42 c16 -36 24 -43 48
-43 15 0 28 3 28 7 0 13 -164 373 -170 373 -3 0 -23 -39 -45 -87z m71 -90 c11
-27 21 -51 22 -55 2 -5 -19 -8 -47 -8 -28 0 -51 4 -51 9 0 16 41 101 49 101 5
0 17 -21 27 -47z"/>
<path d="M11275 6177 c-18 -15 -28 -36 -32 -64 -5 -37 -2 -45 25 -73 17 -16
41 -30 54 -30 32 0 68 27 68 51 0 24 -6 24 -37 -1 -30 -24 -59 -13 -69 26 -14
56 42 100 76 59 17 -21 30 -19 30 4 0 24 -36 51 -67 51 -12 0 -34 -10 -48 -23z"/>
<path d="M11536 6189 c-3 -8 -6 -25 -8 -39 -2 -20 -8 -25 -33 -25 -27 0 -30 4
-33 33 -3 25 -8 32 -20 30 -14 -3 -18 -17 -20 -77 -2 -45 2 -78 9 -87 17 -20
29 -7 29 32 0 32 2 34 34 34 33 0 35 -2 38 -37 2 -21 8 -37 13 -36 13 4 19
163 6 176 -7 7 -12 6 -15 -4z"/>
<path d="M11740 6092 c-15 -12 -24 -33 -27 -65 -5 -43 -3 -49 27 -77 18 -16
40 -30 50 -30 23 0 70 37 70 56 0 18 -24 18 -40 -1 -15 -18 -42 -19 -58 -3
-20 20 -15 86 8 98 22 12 55 0 62 -22 3 -7 12 -9 22 -5 37 14 -20 67 -74 67
-10 0 -28 -8 -40 -18z"/>
<path d="M11884 6097 c-9 -23 40 -162 59 -165 11 -2 18 5 22 22 3 14 7 38 10
52 7 33 17 24 30 -29 14 -60 38 -60 58 0 22 70 29 111 22 123 -11 18 -35 -9
-35 -39 0 -29 -15 -58 -22 -45 -3 5 -8 26 -12 47 -6 32 -11 38 -29 35 -16 -2
-23 -13 -30 -46 -10 -50 -23 -47 -32 7 -6 39 -31 62 -41 38z"/>
<path d="M10507 5893 c-4 -3 -7 -43 -7 -89 l0 -82 51 -7 c33 -5 55 -3 62 4 16
16 -1 29 -43 33 l-35 3 -3 65 c-3 63 -11 87 -25 73z"/>
<path d="M10647 5892 c-8 -14 -5 -162 3 -167 15 -10 96 -13 109 -5 23 14 1 30
-40 30 l-39 0 0 69 c0 51 -4 70 -15 74 -8 4 -16 3 -18 -1z"/>
<path d="M13710 5833 c-40 -15 -60 -46 -60 -95 0 -65 34 -103 83 -94 18 3 43
7 57 9 21 2 25 7 26 39 1 50 -7 60 -47 56 -40 -4 -56 -38 -19 -38 19 0 20 -2
10 -15 -16 -19 -35 -19 -54 1 -24 23 -20 70 6 88 20 14 25 14 45 1 12 -8 29
-15 38 -15 26 0 16 30 -17 50 -34 21 -43 22 -68 13z"/>
<path d="M13482 5738 c2 -75 6 -93 18 -93 11 0 16 15 20 55 l5 55 27 -51 c15
-28 33 -54 41 -57 30 -12 38 8 35 94 -3 76 -5 84 -23 84 -17 0 -20 -6 -18 -42
1 -24 -2 -43 -7 -43 -5 0 -19 19 -32 43 -15 27 -31 43 -46 45 -22 3 -23 2 -20
-90z"/>
<path d="M12751 5696 c-7 -8 -10 -44 -9 -92 l3 -79 51 -3 c62 -4 92 17 101 70
9 58 -3 87 -42 104 -43 18 -89 18 -104 0z m103 -61 c10 -38 -10 -75 -39 -75
-23 0 -25 3 -25 48 0 27 2 51 5 54 13 13 54 -6 59 -27z"/>
<path d="M12924 5696 c-3 -7 -4 -48 -2 -92 l3 -79 68 -3 c61 -3 67 -1 67 17 0
17 -8 20 -47 23 -35 2 -48 7 -48 18 0 11 13 16 43 18 34 3 43 7 40 20 -2 12
-15 18 -46 20 -28 2 -42 7 -39 15 2 8 20 11 45 9 32 -3 44 0 48 13 9 24 0 28
-66 31 -43 3 -62 0 -66 -10z"/>
<path d="M12207 5652 c-35 -38 -8 -85 54 -94 13 -1 24 -10 24 -18 0 -21 -39
-24 -55 -5 -18 21 -40 19 -40 -5 0 -24 28 -40 73 -40 38 0 67 25 67 57 0 27
-17 40 -62 48 -28 5 -38 12 -38 26 0 23 48 27 56 4 9 -22 34 -18 34 5 0 39
-83 55 -113 22z"/>
<path d="M12345 5660 c-9 -14 3 -27 30 -32 18 -3 20 -11 20 -68 0 -58 2 -65
20 -65 18 0 20 8 23 67 3 60 5 67 25 70 12 2 22 10 22 18 0 12 -15 16 -67 18
-41 2 -69 -1 -73 -8z"/>
<path d="M9935 5286 c-112 -37 -191 -104 -239 -206 -28 -58 -31 -75 -31 -155
0 -81 4 -97 33 -157 112 -231 416 -284 597 -103 85 84 128 214 107 318 -25
128 -95 220 -209 278 -56 29 -79 34 -142 36 -43 2 -94 -3 -116 -11z m253 -66
c118 -62 177 -161 176 -295 0 -103 -31 -172 -110 -244 -166 -152 -427 -98
-522 108 -66 142 -26 303 100 404 95 76 243 88 356 27z"/>
<path d="M9962 5068 c-11 -29 -41 -106 -66 -171 -25 -66 -46 -123 -46 -129 0
-5 14 -8 32 -6 26 2 33 9 43 38 l12 35 77 3 77 3 16 -41 c14 -36 20 -40 50
-40 18 0 33 1 33 3 0 1 -31 81 -68 177 l-68 175 -36 3 c-35 3 -37 2 -56 -50z
m85 -100 c12 -34 19 -66 17 -70 -3 -4 -25 -8 -50 -8 -55 0 -55 1 -9 128 9 24
20 11 42 -50z"/>
<path d="M11760 5265 c0 -9 9 -15 25 -15 24 0 25 -2 25 -69 0 -50 4 -70 14
-74 22 -9 26 2 26 75 0 66 1 68 25 68 16 0 25 6 25 15 0 12 -14 15 -70 15 -56
0 -70 -3 -70 -15z"/>
<path d="M11924 5267 c-3 -8 -4 -47 -2 -88 2 -58 6 -74 18 -74 10 0 16 12 18
37 3 34 5 37 39 40 53 4 56 28 4 28 -34 0 -41 3 -41 20 0 17 7 20 40 20 29 0
40 4 40 15 0 20 -108 22 -116 2z"/>
<path d="M15902 5193 c2 -58 7 -88 16 -91 9 -3 12 12 12 52 0 31 3 56 8 56 4
-1 21 -24 37 -53 45 -78 59 -70 63 36 3 81 1 88 -15 85 -14 -3 -18 -13 -17
-46 0 -23 -3 -42 -7 -42 -4 0 -19 20 -33 45 -18 30 -34 45 -47 45 -18 0 -20
-6 -17 -87z"/>
<path d="M16074 5267 c-3 -8 -4 -47 -2 -88 2 -58 6 -74 18 -74 10 0 16 12 18
33 3 28 7 32 33 32 22 0 29 -5 29 -19 0 -31 11 -51 27 -51 13 0 15 9 10 47 -3
26 0 57 6 70 17 38 -14 63 -80 63 -36 0 -55 -4 -59 -13z m101 -37 c0 -10 -12
-16 -32 -18 -28 -3 -33 0 -33 18 0 18 5 21 33 18 20 -2 32 -8 32 -18z"/>
<path d="M14520 5120 c0 -74 3 -92 16 -97 19 -7 35 14 31 42 -2 16 5 21 33 23
46 5 60 18 60 58 0 43 -30 64 -92 64 l-48 0 0 -90z m95 30 c0 -18 -33 -26 -47
-12 -6 6 -7 15 -3 22 10 16 50 8 50 -10z"/>
<path d="M14687 5203 c-12 -12 -8 -158 5 -171 12 -12 95 -16 122 -6 43 16 -1
50 -55 42 -16 -2 -25 3 -27 14 -3 13 6 17 40 20 30 2 43 7 43 18 0 10 -13 16
-42 18 -29 2 -43 8 -43 18 0 10 12 14 45 14 38 0 45 3 45 20 0 18 -7 20 -63
20 -35 0 -67 -3 -70 -7z"/>
<path d="M13407 5183 c-5 -7 -10 -130 -8 -171 1 -20 126 -12 126 8 0 10 -13
16 -42 18 l-42 3 -3 71 c-3 65 -16 95 -31 71z"/>
<path d="M13544 5177 c-3 -8 -4 -49 -2 -93 l3 -79 68 -3 c62 -3 67 -1 67 18 0
17 -6 20 -43 20 -48 0 -58 5 -50 26 3 9 20 14 45 14 32 0 39 3 36 18 -2 11
-15 19 -41 22 -49 7 -48 25 2 25 44 0 56 7 48 30 -8 20 -125 22 -133 2z"/>
<path d="M12625 5160 c-72 -29 -52 -85 38 -104 15 -4 27 -13 27 -21 0 -22 -38
-28 -65 -11 -46 30 -64 10 -22 -25 31 -26 79 -24 105 4 12 13 22 28 22 33 0
16 -42 51 -74 61 -41 13 -45 33 -7 33 17 0 31 -4 31 -10 0 -5 9 -10 20 -10 25
0 25 11 0 38 -22 23 -41 26 -75 12z"/>
<path d="M12350 5154 c0 -16 44 -151 53 -162 15 -19 34 3 42 49 9 50 23 50 31
-1 7 -46 26 -67 41 -48 9 11 53 146 53 162 0 3 -9 6 -19 6 -15 0 -22 -12 -32
-51 -14 -54 -17 -52 -33 24 -10 44 -43 36 -53 -14 -8 -41 -26 -54 -31 -22 -8
53 -13 63 -32 63 -11 0 -20 -3 -20 -6z"/>
<path d="M10946 5114 c-19 -19 -21 -60 -3 -71 6 -4 28 -13 47 -18 19 -6 35
-17 35 -25 0 -21 -49 -25 -65 -6 -17 22 -30 20 -30 -4 0 -13 12 -26 33 -36 31
-15 37 -15 64 0 58 30 43 90 -27 105 -21 4 -35 13 -35 21 0 21 46 26 57 6 11
-20 38 -21 38 -2 0 38 -84 60 -114 30z"/>
<path d="M11090 5115 c0 -9 11 -33 25 -55 14 -23 25 -54 25 -75 0 -24 5 -35
15 -35 10 0 15 10 15 31 0 16 11 51 26 76 26 47 26 77 0 67 -8 -3 -20 -20 -26
-37 -11 -31 -12 -31 -26 -13 -7 11 -14 25 -14 32 0 6 -7 15 -16 18 -22 9 -24
8 -24 -9z"/>
<path d="M12151 4976 c-7 -8 -15 -30 -18 -50 -8 -48 -17 -45 -29 7 -7 32 -14
42 -29 42 -14 0 -21 -9 -26 -31 -13 -68 -21 -72 -34 -19 -9 39 -15 50 -31 50
-21 0 -21 2 7 -94 10 -36 24 -69 29 -75 15 -15 40 20 40 55 0 41 17 44 24 6 3
-19 13 -42 21 -53 12 -17 15 -17 27 -4 20 22 52 160 41 171 -6 6 -14 4 -22 -5z"/>
<path d="M12200 4967 c0 -25 43 -142 57 -157 13 -13 16 -13 27 2 18 25 61 156
54 164 -16 16 -36 -8 -48 -55 -13 -57 -27 -65 -36 -23 -11 50 -26 82 -40 82
-8 0 -14 -6 -14 -13z"/>
<path d="M11983 4663 l-33 -4 0 -84 0 -84 35 -7 c69 -13 124 47 110 120 -6 32
-40 67 -64 64 -9 0 -31 -3 -48 -5z m75 -77 c4 -45 -13 -68 -47 -64 -23 3 -25
7 -26 53 -1 56 6 66 44 56 21 -6 27 -14 29 -45z"/>
<path d="M12120 4655 c0 -9 11 -33 25 -55 14 -22 25 -55 25 -73 0 -19 3 -37 7
-40 12 -13 33 16 33 46 0 17 11 50 26 74 14 24 22 48 19 53 -10 16 -44 -8 -51
-35 -7 -30 -20 -32 -29 -5 -13 39 -55 66 -55 35z"/>
<path d="M12483 4643 c-9 -3 -13 -31 -13 -88 0 -66 3 -84 16 -89 28 -11 79 -6
101 9 18 13 21 25 21 80 0 56 -3 66 -24 80 -22 14 -75 19 -101 8z m92 -48 c0
-5 -17 -11 -37 -13 -36 -3 -47 5 -31 22 11 10 68 3 68 -9z m0 -75 c0 -10 -12
-16 -32 -18 -28 -3 -33 0 -33 18 0 18 5 21 33 18 20 -2 32 -8 32 -18z"/>
<path d="M12939 4581 c-41 -41 -40 -91 1 -133 26 -25 36 -29 63 -24 32 6 57
29 57 53 0 18 -29 16 -36 -2 -8 -19 -48 -19 -63 -1 -19 22 -9 77 16 93 19 13
24 12 42 -6 26 -26 41 -27 41 -2 0 22 -40 51 -70 51 -12 0 -35 -13 -51 -29z"/>
<path d="M13086 4601 c-3 -5 7 -44 23 -87 33 -93 53 -105 77 -47 29 68 42 121
33 134 -11 19 -32 -10 -47 -68 -12 -43 -32 -51 -32 -12 0 11 -7 35 -14 54 -15
34 -29 44 -40 26z"/>
<path d="M15807 4503 c-4 -3 -7 -44 -7 -90 0 -75 2 -84 18 -81 14 3 17 16 20
79 2 55 -1 79 -11 87 -8 7 -17 9 -20 5z"/>
<path d="M15872 4493 c-5 -10 -8 -49 -7 -88 1 -56 4 -71 17 -73 12 -2 18 5 20
25 3 24 9 29 42 34 41 7 56 21 56 56 0 49 -107 87 -128 46z m83 -48 c0 -14 -8
-21 -27 -23 -24 -3 -28 0 -28 23 0 23 4 26 28 23 19 -2 27 -9 27 -23z"/>
<path d="M13517 4483 c-4 -3 -7 -44 -7 -90 0 -67 3 -85 16 -90 23 -9 34 16 27
60 -8 51 7 46 40 -14 19 -35 33 -49 45 -47 15 3 17 16 17 93 0 76 -3 90 -17
93 -14 3 -17 -6 -20 -49 l-3 -53 -32 52 c-30 48 -50 62 -66 45z"/>
<path d="M13688 4408 c-4 -96 -1 -110 21 -106 11 2 17 18 21 53 l5 50 22 -41
c26 -49 48 -68 68 -60 12 4 15 23 15 83 0 84 -9 109 -34 100 -12 -5 -16 -20
-16 -54 l-1 -48 -24 40 c-31 52 -43 65 -60 65 -10 0 -14 -21 -17 -82z"/>
<path d="M12000 4240 c0 -15 37 -148 45 -160 3 -5 13 -10 20 -10 14 0 20 15
27 64 5 36 24 27 34 -16 9 -43 39 -65 48 -36 2 7 11 37 20 67 9 29 16 64 16
77 0 31 -28 32 -34 2 -16 -81 -18 -84 -26 -63 -5 11 -11 33 -15 48 -6 31 -33
47 -45 27 -4 -7 -11 -31 -14 -54 -8 -47 -21 -36 -31 26 -5 29 -12 38 -26 38
-10 0 -19 -5 -19 -10z"/>
<path d="M12245 4238 c-3 -8 -5 -48 -3 -89 2 -60 6 -74 20 -77 12 -2 17 5 20
30 2 28 7 33 28 33 20 0 26 -6 30 -30 4 -22 11 -30 25 -30 14 0 19 6 18 20 -6
42 -5 71 1 90 12 36 -15 58 -77 63 -44 3 -58 1 -62 -10z m103 -47 c-2 -10 -15
-17 -36 -19 -26 -3 -32 0 -32 16 0 26 5 29 40 24 22 -3 30 -9 28 -21z"/>
<path d="M14815 4238 c-33 -19 -44 -41 -45 -86 0 -50 33 -92 73 -92 29 0 77
35 77 56 0 19 -27 18 -38 -2 -6 -10 -19 -14 -38 -12 -24 2 -30 8 -32 32 -6 49
6 76 32 76 13 0 29 -7 36 -15 16 -19 40 -19 40 -1 0 18 -47 56 -69 56 -9 0
-25 -6 -36 -12z"/>
<path d="M10682 4155 l3 -88 45 1 c67 0 72 1 68 15 -3 6 -22 14 -44 17 l-38 5
-1 65 c0 54 -3 65 -18 68 -16 3 -18 -4 -15 -83z"/>
<path d="M10820 4155 l0 -85 53 0 c68 0 92 22 92 85 0 63 -24 85 -92 85 l-53
0 0 -85z m98 43 c7 -7 12 -26 12 -43 0 -37 -16 -55 -47 -55 -21 0 -23 4 -23
55 0 51 2 55 23 55 13 0 28 -5 35 -12z"/>
<path d="M14950 4155 l0 -85 58 0 c32 0 63 5 70 12 15 15 16 60 1 75 -8 8 -8
13 0 17 16 10 14 32 -5 50 -10 11 -34 16 -70 16 l-54 0 0 -85z m100 41 c0 -20
-38 -30 -55 -16 -21 17 -9 30 26 30 18 0 29 -5 29 -14z m5 -76 c0 -10 -12 -16
-37 -18 -33 -3 -38 0 -38 18 0 18 5 21 38 18 25 -2 37 -8 37 -18z"/>
<path d="M16225 4152 c-101 -35 -182 -109 -228 -209 -18 -39 -22 -66 -22 -148
0 -89 3 -106 27 -156 116 -235 419 -286 604 -101 67 66 97 139 102 241 4 97
-15 167 -68 240 -89 123 -272 181 -415 133z m256 -54 c253 -117 256 -478 5
-601 -175 -86 -388 -1 -456 181 -68 180 29 377 215 439 61 20 170 11 236 -19z"/>
<path d="M16312 3968 c-60 -134 -136 -295 -145 -306 -7 -9 -7 -16 0 -23 20
-20 47 -4 71 39 l23 42 78 0 78 0 19 -42 c15 -34 24 -43 44 -43 14 0 25 5 25
10 0 17 -159 365 -167 365 -4 0 -16 -19 -26 -42z m57 -140 c11 -25 17 -49 14
-52 -4 -3 -26 -6 -50 -6 -50 0 -52 7 -22 75 23 52 29 51 58 -17z"/>
<path d="M11402 4035 c3 -85 20 -118 26 -50 3 33 6 35 38 35 32 0 34 -2 34
-34 0 -39 12 -52 29 -32 7 9 11 42 9 87 -2 61 -6 74 -20 77 -14 3 -18 -3 -18
-27 0 -29 -3 -31 -35 -31 -32 0 -35 2 -35 30 0 20 -5 30 -15 30 -13 0 -15 -14
-13 -85z"/>
<path d="M11570 4037 c0 -46 3 -86 6 -90 14 -13 34 7 34 35 0 26 3 29 28 26
20 -2 28 -9 31 -28 3 -25 19 -42 32 -34 4 2 7 38 7 79 0 88 -7 95 -87 95 l-51
0 0 -83z m98 31 c3 -14 -3 -18 -27 -18 -25 0 -31 4 -31 21 0 16 5 20 27 17 17
-2 29 -10 31 -20z"/>
<path d="M13814 4087 c-3 -8 -4 -47 -2 -88 2 -60 6 -74 20 -77 14 -3 17 6 20
45 l4 48 13 -47 c17 -60 47 -67 57 -13 3 19 10 35 15 35 5 0 9 -16 9 -35 0
-24 5 -35 15 -35 12 0 15 17 15 90 0 81 -2 90 -19 90 -26 0 -38 -18 -46 -67
-7 -42 -25 -60 -25 -25 0 9 -5 34 -11 55 -8 30 -15 37 -35 37 -13 0 -27 -6
-30 -13z"/>
<path d="M14020 4010 c0 -82 2 -91 18 -88 11 2 18 14 20 36 2 17 6 32 9 32 3
0 20 -16 37 -36 20 -23 38 -35 50 -33 15 4 13 10 -19 52 l-37 49 33 34 c28 29
30 34 15 40 -12 5 -28 -3 -50 -25 -39 -38 -45 -39 -43 -4 1 19 -3 28 -15 31
-16 3 -18 -6 -18 -88z"/>
<path d="M14340 3870 c-11 -11 -20 -27 -20 -35 0 -21 35 -49 68 -55 15 -3 28
-13 30 -23 5 -23 -46 -23 -64 1 -9 12 -16 14 -24 6 -16 -16 -2 -41 31 -53 53
-18 107 18 95 64 -5 19 -16 27 -52 36 -32 8 -44 16 -42 28 5 23 37 26 52 5 9
-11 19 -15 31 -10 17 6 16 8 -5 31 -29 31 -72 33 -100 5z"/>
<path d="M14506 3859 c-33 -39 -34 -88 -3 -124 23 -27 37 -30 107 -23 31 3 35
7 38 36 4 40 -12 62 -44 62 -30 0 -41 -20 -20 -36 23 -16 12 -34 -19 -34 -44
0 -59 60 -26 101 20 24 20 24 51 7 38 -22 50 -22 50 -4 0 22 -40 46 -76 46
-24 0 -39 -8 -58 -31z"/>
<path d="M15423 3878 c-31 -15 -56 -72 -48 -108 8 -35 48 -70 82 -70 30 0 80
47 65 62 -7 7 -19 4 -37 -10 -21 -17 -31 -19 -47 -11 -15 8 -18 19 -16 57 3
43 5 47 31 50 18 2 29 -2 33 -12 3 -9 15 -16 26 -16 14 0 18 5 14 16 -3 9 -6
17 -6 20 0 5 -57 34 -67 33 -4 0 -18 -5 -30 -11z"/>
<path d="M15580 3862 c-40 -41 -42 -101 -4 -139 22 -22 32 -25 66 -20 25 3 46
13 52 24 44 73 20 145 -52 159 -26 5 -36 1 -62 -24z m88 -24 c17 -17 15 -74
-4 -92 -18 -19 -45 -21 -62 -4 -16 16 -16 95 1 101 22 10 53 7 65 -5z"/>
<path d="M9617 3862 c-36 -40 -12 -80 56 -96 16 -4 27 -12 24 -19 -6 -18 -52
-20 -67 -3 -17 21 -30 20 -30 -3 0 -24 19 -39 58 -47 25 -5 36 -1 56 19 14 15
26 30 26 35 0 19 -28 44 -65 56 -22 8 -40 20 -40 28 0 19 39 22 55 3 16 -19
40 -20 40 -1 0 21 -39 46 -71 46 -14 0 -33 -8 -42 -18z"/>
<path d="M9787 3793 c-15 -43 -27 -81 -27 -85 0 -16 26 -7 38 12 7 11 23 20
37 20 14 0 29 -8 35 -20 12 -23 40 -27 40 -6 0 7 -11 44 -25 82 -14 38 -25 70
-25 71 0 2 -10 3 -23 3 -20 0 -27 -11 -50 -77z m63 -4 c0 -10 -7 -19 -15 -19
-16 0 -19 9 -9 34 8 20 24 11 24 -15z"/>
<path d="M13852 3673 l3 -88 58 -1 c50 -2 57 0 57 17 0 16 -7 19 -42 19 l-43
0 0 67 c0 57 -3 68 -18 71 -16 3 -18 -4 -15 -85z"/>
<path d="M13997 3754 c-11 -12 -8 -111 4 -138 7 -13 25 -30 41 -37 25 -10 33
-9 56 8 25 18 27 27 30 97 2 63 0 76 -13 76 -17 0 -17 -4 -15 -70 1 -56 -20
-90 -47 -74 -13 8 -19 28 -23 74 -5 59 -16 81 -33 64z"/>
<path d="M12290 3687 c-15 -7 -30 -28 -38 -51 -11 -34 -10 -43 5 -75 20 -39
59 -59 89 -46 11 5 28 9 39 9 16 1 21 9 23 39 3 32 0 38 -24 47 -19 8 -30 7
-41 -2 -12 -10 -11 -14 9 -29 20 -16 21 -19 6 -24 -52 -20 -94 27 -70 80 9 18
19 25 41 25 16 0 33 -4 36 -10 9 -15 35 -12 35 5 0 15 -48 45 -72 45 -7 0 -24
-6 -38 -13z"/>
<path d="M12447 3694 c-4 -4 -7 -45 -7 -91 l0 -83 60 0 c46 0 60 3 60 14 0 10
-14 16 -42 18 l-43 3 -3 65 c-3 63 -11 87 -25 74z"/>
<path d="M13009 3657 c-70 -54 -39 -171 46 -171 29 0 43 7 61 28 52 59 14 155
-61 155 -16 0 -37 -5 -46 -12z m75 -33 c32 -31 10 -114 -30 -114 -41 0 -63 98
-26 119 24 15 38 13 56 -5z"/>
<path d="M13160 3654 c0 -9 9 -29 21 -45 l20 -29 -25 -37 c-31 -45 -32 -53 -6
-53 12 0 25 10 32 25 6 14 14 25 18 25 4 0 13 -11 20 -25 14 -26 50 -35 50
-12 0 6 -9 23 -20 37 -11 14 -20 32 -20 40 0 8 9 26 20 40 11 14 20 31 20 38
0 21 -28 13 -50 -15 -14 -19 -23 -24 -27 -15 -7 17 -33 42 -44 42 -5 0 -9 -7
-9 -16z"/>
<path d="M15019 3551 c-31 -25 -34 -108 -5 -140 33 -36 126 -18 126 25 0 18
-24 18 -40 -1 -30 -36 -70 -10 -70 45 0 59 39 80 73 40 18 -22 37 -19 37 5 0
20 -40 45 -71 45 -15 0 -37 -9 -50 -19z"/>
<path d="M15177 3564 c-4 -4 -7 -45 -7 -91 0 -67 3 -83 15 -83 16 0 18 7 15
59 -2 39 15 35 23 -6 4 -16 11 -34 16 -42 13 -21 41 -5 41 23 0 38 18 41 22 4
2 -21 8 -33 18 -33 12 0 15 16 15 85 0 84 0 85 -25 85 -21 0 -26 -6 -34 -40
-15 -70 -18 -72 -36 -15 -12 39 -23 56 -37 58 -10 2 -22 0 -26 -4z"/>
<path d="M14272 3548 c-5 -7 -17 -35 -26 -63 -9 -27 -22 -60 -28 -73 -9 -17
-9 -25 1 -35 10 -9 17 -6 33 16 25 34 53 35 74 2 16 -25 44 -34 44 -14 0 6
-12 45 -26 87 -31 89 -48 108 -72 80z m32 -64 c9 -25 7 -34 -8 -34 -19 0 -28
14 -20 34 8 20 20 20 28 0z"/>
<path d="M14397 3543 c-9 -8 -9 -120 -1 -150 5 -20 13 -23 53 -23 43 0 71 12
71 31 0 5 -19 9 -42 11 l-43 3 -3 68 c-3 63 -14 82 -35 60z"/>
<path d="M13700 3370 c0 -82 2 -91 18 -88 12 2 18 14 20 40 3 33 6 36 30 34
22 -3 28 -9 32 -37 3 -22 11 -35 23 -37 15 -3 17 6 17 88 0 82 -2 91 -17 88
-11 -2 -20 -15 -23 -33 -4 -23 -11 -31 -32 -33 -24 -3 -27 1 -30 30 -2 22 -9
34 -20 36 -16 3 -18 -6 -18 -88z"/>
<path d="M13882 3373 c2 -70 6 -88 18 -88 9 0 15 9 15 25 0 19 7 26 33 31 44
9 62 26 62 60 0 37 -33 59 -88 59 l-43 0 3 -87z m93 27 c0 -23 -59 -20 -63 3
-3 15 2 18 30 15 21 -2 33 -8 33 -18z"/>
<path d="M11174 3437 c-3 -8 -4 -47 -2 -88 2 -58 6 -74 18 -74 11 0 15 12 14
48 0 26 3 47 7 47 4 0 21 -23 38 -51 22 -34 37 -49 49 -47 14 3 17 16 17 88 0
72 -3 85 -17 88 -14 3 -17 -6 -20 -50 l-3 -53 -33 53 c-33 51 -58 65 -68 39z"/>
<path d="M11349 3438 c-3 -39 0 -160 5 -165 12 -13 36 8 36 32 0 21 5 25 28
25 55 0 83 68 44 103 -23 21 -111 24 -113 5z m88 -29 c18 -18 3 -39 -28 -39
-21 0 -29 5 -29 18 0 10 3 22 7 25 10 11 38 8 50 -4z"/>
<path d="M11544 3437 c-3 -8 -4 -47 -2 -88 2 -61 6 -74 21 -77 14 -3 17 4 17
47 0 28 5 51 10 51 6 0 10 -5 10 -10 0 -18 52 -90 66 -90 9 0 13 23 16 81 2
45 0 86 -3 91 -13 21 -29 -5 -29 -48 0 -24 -4 -44 -10 -44 -5 0 -10 5 -10 10
0 6 -12 28 -26 50 -27 41 -50 51 -60 27z"/>
<path d="M11727 3443 c-4 -3 -7 -44 -7 -90 0 -67 3 -83 15 -83 8 0 16 6 16 13
1 6 2 19 3 27 0 8 12 16 26 18 48 6 70 23 70 57 0 42 -27 65 -77 65 -22 0 -43
-3 -46 -7z m80 -34 c18 -18 3 -39 -28 -39 -21 0 -29 5 -29 18 0 10 3 22 7 25
10 11 38 8 50 -4z"/>
<path d="M11860 3435 c0 -9 9 -15 25 -15 24 0 25 -2 25 -70 0 -54 4 -72 15
-77 24 -9 29 2 29 75 1 66 1 67 29 70 16 2 27 8 24 15 -2 7 -32 13 -75 15 -60
2 -72 0 -72 -13z"/>
<path d="M11474 3288 c3 -13 6 -29 6 -37 0 -11 3 -11 15 -1 24 20 19 60 -6 60
-17 0 -20 -4 -15 -22z"/>
<path d="M10638 3225 c-57 -32 -54 -129 5 -165 28 -17 33 -18 61 -3 33 17 46
31 46 51 0 18 -18 15 -47 -8 -36 -28 -63 -12 -63 38 0 57 40 83 70 47 16 -19
40 -19 40 -1 0 17 -51 56 -72 56 -7 -1 -25 -7 -40 -15z"/>
<path d="M10780 3146 c0 -47 4 -87 9 -90 11 -7 33 18 30 36 -4 31 2 38 36 38
50 0 48 28 -2 32 -55 4 -52 32 5 36 28 2 42 8 42 18 0 11 -14 14 -60 14 l-60
0 0 -84z"/>
<path d="M15290 3180 c-39 -39 -17 -78 53 -96 19 -4 27 -12 25 -23 -4 -21 -42
-26 -58 -6 -16 19 -40 20 -40 0 0 -23 45 -47 81 -43 24 2 38 11 49 30 20 37 6
59 -48 76 -23 8 -42 20 -42 28 0 19 39 18 62 -2 16 -16 18 -15 24 1 5 12 0 24
-15 37 -30 24 -66 23 -91 -2z"/>
<path d="M15455 3176 c-36 -36 -22 -67 38 -85 52 -16 61 -37 20 -47 -18 -5
-30 -2 -38 10 -14 18 -31 21 -40 7 -10 -17 37 -51 70 -51 38 0 65 26 65 62 0
26 -21 41 -72 52 -38 9 -37 36 1 36 17 0 33 -4 36 -10 9 -15 35 -12 35 5 0 16
-49 45 -75 45 -9 0 -27 -11 -40 -24z"/>
<path d="M13776 3036 c-27 -26 -31 -42 -18 -62 11 -16 48 -34 71 -34 14 0 21
-6 21 -20 0 -24 -41 -28 -60 -5 -15 19 -40 20 -40 2 0 -25 40 -51 76 -50 44 1
64 18 64 54 0 31 -9 39 -60 54 -19 6 -35 17 -35 25 0 22 34 24 56 4 15 -14 22
-15 31 -6 16 16 -15 48 -54 57 -21 5 -33 1 -52 -19z"/>
<path d="M13920 2960 l0 -90 60 0 c46 0 60 3 60 14 0 10 -14 16 -42 18 l-43 3
-1 60 c-1 82 -2 85 -19 85 -12 0 -15 -17 -15 -90z"/>
<path d="M12357 2932 c-35 -39 -15 -79 46 -91 43 -9 51 -41 9 -41 -17 0 -32 6
-36 15 -8 22 -36 18 -36 -5 0 -41 92 -56 125 -20 30 33 13 67 -43 82 -53 15
-64 41 -19 46 18 2 29 -2 33 -12 8 -21 34 -21 34 0 0 41 -83 60 -113 26z"/>
<path d="M12504 2937 c-3 -8 -4 -47 -2 -88 2 -60 6 -74 20 -77 14 -3 17 6 20
50 l3 53 34 -53 c49 -77 61 -70 61 38 0 73 -3 90 -15 90 -11 0 -15 -12 -15
-50 0 -27 -4 -50 -10 -50 -5 0 -10 5 -10 10 0 6 -12 28 -26 50 -27 41 -50 51
-60 27z"/>
<path d="M11465 2863 c-29 -8 -30 -13 -25 -99 l5 -79 49 -3 c72 -5 105 34 76
89 -7 13 -7 19 0 19 5 0 10 10 10 23 0 39 -58 64 -115 50z m70 -53 c0 -9 -11
-15 -27 -17 -22 -1 -28 3 -28 18 0 16 6 20 28 17 16 -2 27 -9 27 -18z m5 -69
c0 -12 -9 -20 -25 -23 -29 -6 -35 -2 -35 24 0 13 8 18 30 18 23 0 30 -5 30
-19z"/>
<path d="M11625 2845 c-14 -13 -25 -28 -25 -33 0 -19 28 -44 65 -56 22 -8 40
-20 40 -28 0 -19 -54 -23 -61 -4 -8 20 -44 21 -44 2 0 -43 95 -61 130 -26 36
36 19 69 -47 88 -47 14 -53 26 -24 41 14 8 24 6 42 -10 16 -14 26 -16 33 -9 8
8 3 18 -17 36 -36 31 -61 30 -92 -1z"/>
<path d="M13187 2843 c-4 -3 -7 -44 -7 -90 0 -75 2 -83 19 -83 15 0 21 8 23
33 2 27 7 32 28 32 20 0 26 -6 30 -30 6 -33 36 -46 46 -20 4 9 2 27 -4 40 -8
17 -8 32 1 55 11 29 10 33 -13 50 -25 19 -109 28 -123 13z m101 -50 c-2 -12
-14 -19 -36 -21 -27 -3 -32 0 -32 17 0 17 6 21 36 21 28 0 35 -3 32 -17z"/>
<path d="M13376 2824 c-52 -53 -21 -158 46 -155 63 3 88 7 88 14 0 4 0 22 0
41 0 29 -4 34 -27 39 -37 7 -54 -10 -29 -28 22 -17 13 -35 -18 -35 -31 0 -46
18 -46 56 0 52 43 82 70 49 13 -16 50 -21 50 -7 0 5 -10 18 -23 30 -32 30 -78
29 -111 -4z"/>
<path d="M15434 2689 c-7 -13 -12 -129 -6 -157 4 -21 9 -23 66 -20 46 2 61 7
61 18 0 10 -14 17 -45 20 -59 7 -63 33 -5 40 57 7 55 34 -3 38 -56 4 -51 26 7
30 33 3 42 7 39 20 -3 13 -15 17 -56 18 -29 1 -55 -3 -58 -7z"/>
<path d="M15228 2614 c-2 -41 1 -82 5 -90 16 -27 27 -13 27 33 0 52 13 49 27
-7 13 -48 33 -44 52 10 l16 45 5 -45 c3 -31 10 -45 20 -45 12 0 16 18 18 88
l3 87 -29 0 c-26 0 -30 -5 -42 -50 -14 -53 -30 -66 -30 -25 0 41 -21 75 -46
75 -21 0 -23 -5 -26 -76z"/>
<path d="M9515 2671 c-97 -26 -193 -105 -242 -201 -25 -50 -28 -65 -28 -160 0
-125 17 -171 90 -249 60 -64 114 -96 197 -115 164 -38 341 52 416 212 23 49
27 70 27 152 0 87 -3 101 -32 161 -63 128 -176 201 -318 205 -44 2 -93 0 -110
-5z m240 -61 c61 -30 125 -94 156 -157 20 -40 24 -64 24 -143 0 -111 -21 -167
-90 -235 -63 -62 -126 -89 -220 -93 -98 -5 -171 19 -237 77 -187 165 -127 479
107 566 64 23 198 16 260 -15z"/>
<path d="M9555 2480 c-23 -38 -133 -346 -126 -353 19 -19 54 -2 65 30 6 17 14
34 18 38 5 5 104 9 144 6 6 -1 18 -19 27 -41 12 -32 20 -40 41 -40 28 0 42 15
29 33 -5 7 -22 46 -37 87 -45 119 -89 235 -92 239 -7 9 -64 10 -69 1z m63
-150 c13 -33 21 -64 17 -70 -10 -16 -95 -13 -95 4 0 11 12 50 35 114 9 24 20
11 43 -48z"/>
<path d="M15949 2550 c-43 -25 -48 -119 -9 -155 37 -34 120 -12 120 32 0 18
-25 17 -40 -2 -30 -36 -70 -10 -70 45 0 55 40 81 70 45 16 -19 40 -19 40 -1 0
35 -73 58 -111 36z"/>
<path d="M16080 2546 c0 -8 10 -16 23 -18 20 -3 22 -9 25 -76 2 -63 5 -73 20
-70 14 3 18 17 20 76 3 69 4 72 27 72 16 0 25 6 25 15 0 12 -14 15 -70 15 -54
0 -70 -3 -70 -14z"/>
<path d="M11867 2483 c-4 -3 -7 -44 -7 -90 l0 -83 58 0 c44 0 63 5 75 18 20
22 22 43 5 60 -10 10 -10 17 0 32 11 18 9 24 -12 45 -19 19 -36 25 -69 25 -24
0 -47 -3 -50 -7z m93 -48 c0 -10 -10 -15 -30 -15 -20 0 -30 5 -30 15 0 10 10
15 30 15 20 0 30 -5 30 -15z m-1 -54 c23 -15 5 -41 -29 -41 -22 0 -30 5 -30
18 0 32 28 42 59 23z"/>
<path d="M12092 2478 c-13 -17 -62 -138 -62 -155 0 -20 28 -15 40 7 8 16 17
19 38 13 15 -3 32 -13 38 -21 6 -9 18 -13 27 -9 14 5 12 17 -16 88 -33 84 -46
100 -65 77z m28 -79 c0 -20 -15 -26 -25 -9 -9 15 3 43 15 35 5 -3 10 -15 10
-26z"/>
<path d="M13689 2401 c-32 -33 -37 -67 -14 -110 18 -36 65 -57 93 -42 11 6 28
8 36 5 9 -3 17 -2 17 2 10 67 0 94 -36 94 -31 0 -43 -20 -21 -36 23 -16 12
-34 -19 -34 -45 0 -61 72 -24 106 20 18 22 18 51 1 16 -9 34 -17 39 -17 17 0
9 29 -13 44 -35 25 -76 20 -109 -13z"/>
<path d="M13867 2423 c-4 -3 -7 -37 -7 -74 0 -73 11 -94 57 -105 17 -5 33 0
51 13 25 19 27 26 27 94 0 59 -3 74 -15 74 -11 0 -16 -17 -20 -70 -4 -59 -8
-70 -24 -73 -28 -6 -43 20 -39 65 5 62 -9 98 -30 76z"/>
<path d="M14270 2259 c0 -81 2 -90 18 -87 11 2 17 13 17 33 1 26 4 30 30 30
25 0 31 -5 35 -30 3 -17 12 -31 22 -33 14 -3 16 8 16 78 -1 94 -6 100 -87 100
l-51 0 0 -91z m98 49 c16 -16 -3 -38 -33 -38 -23 0 -40 24 -29 41 8 13 48 11
62 -3z"/>
<path d="M14444 2337 c-3 -8 -4 -47 -2 -88 2 -58 6 -74 18 -74 10 0 17 13 20
35 4 31 8 35 35 35 27 0 30 -3 33 -37 2 -25 8 -38 18 -38 11 0 14 18 14 90 0
72 -3 90 -14 90 -9 0 -16 -12 -18 -32 -3 -29 -6 -33 -33 -33 -27 0 -30 4 -33
33 -3 33 -28 45 -38 19z"/>
<path d="M10964 2289 c-8 -13 5 -26 31 -31 18 -3 20 -11 20 -68 0 -54 3 -65
18 -68 15 -3 17 5 17 67 0 64 2 70 22 73 13 2 24 11 26 21 3 15 -5 17 -62 17
-36 0 -68 -5 -72 -11z"/>
<path d="M11155 2290 c-7 -12 -45 -118 -52 -147 -7 -29 17 -31 34 -4 6 10 23
19 38 19 15 0 30 -8 36 -19 11 -21 39 -26 39 -6 -1 16 -35 120 -50 146 -11 22
-35 28 -45 11z m35 -81 c0 -10 -7 -19 -15 -19 -16 0 -19 9 -9 34 8 20 24 11
24 -15z"/>
<path d="M15095 2260 c-3 -6 1 -12 9 -15 9 -3 23 -7 31 -10 11 -3 15 -20 15
-70 0 -51 3 -65 15 -65 12 0 15 14 15 70 0 68 1 70 25 70 16 0 25 6 25 15 0
12 -14 15 -64 15 -36 0 -68 -5 -71 -10z"/>
<path d="M15257 2263 c-4 -3 -7 -42 -7 -85 0 -70 2 -79 18 -76 13 3 17 13 17
46 0 23 5 41 10 40 6 -1 22 -22 38 -46 17 -28 33 -42 44 -40 9 2 16 6 15 11
-1 4 -2 41 -2 82 0 59 -3 75 -14 75 -11 0 -16 -15 -18 -52 l-3 -53 -33 53
c-32 49 -49 61 -65 45z"/>
<path d="M12457 2182 c-33 -36 -11 -74 51 -87 23 -5 32 -12 30 -23 -4 -22 -41
-27 -58 -7 -16 19 -40 20 -40 1 0 -21 40 -46 72 -46 30 0 68 31 68 55 0 21
-35 49 -68 55 -36 7 -43 40 -9 40 14 0 30 -7 37 -15 17 -21 30 -19 30 5 0 39
-83 55 -113 22z"/>
<path d="M12609 2195 c-4 -29 0 -155 5 -164 13 -20 25 -11 28 22 3 27 7 32 33
35 61 7 87 65 43 96 -20 15 -107 23 -109 11z m86 -50 c0 -22 -31 -33 -47 -17
-17 17 -1 44 24 40 15 -2 23 -10 23 -23z"/>
<path d="M13032 2148 c-46 -23 -32 -98 19 -98 27 0 49 -11 49 -25 0 -20 -25
-25 -55 -9 -35 18 -45 18 -45 -1 0 -25 46 -48 82 -41 86 17 77 89 -14 110 -35
8 -37 36 -4 36 14 0 28 -4 31 -10 9 -15 35 -12 35 4 0 31 -60 52 -98 34z"/>
<path d="M13205 2148 c-32 -19 -44 -40 -45 -81 0 -51 24 -85 66 -93 70 -13
121 61 89 129 -23 49 -69 68 -110 45z m75 -47 c15 -30 12 -59 -10 -81 -40 -40
-93 15 -71 73 13 34 64 38 81 8z"/>
<path d="M15260 2061 c-88 -19 -195 -87 -233 -148 -150 -239 -33 -527 237
-583 80 -16 152 -5 236 36 75 38 125 88 168 169 25 45 27 60 27 160 0 101 -2
114 -28 163 -61 116 -181 197 -307 206 -36 3 -81 1 -100 -3z m216 -66 c70 -34
147 -119 170 -187 40 -118 15 -242 -67 -333 -30 -32 -73 -65 -107 -82 -49 -24
-69 -28 -142 -28 -74 1 -93 5 -143 30 -199 99 -250 359 -103 522 43 47 110 89
170 104 56 15 165 2 222 -26z"/>
<path d="M15331 1909 c-8 -21 -45 -101 -136 -292 -18 -40 -24 -62 -17 -69 18
-18 49 1 67 42 l18 40 78 0 79 0 20 -40 c22 -43 40 -56 64 -47 11 5 -4 48 -69
192 -46 103 -86 189 -89 192 -3 3 -10 -5 -15 -18z m39 -156 c11 -26 19 -52 16
-59 -4 -10 -82 -12 -92 -1 -5 4 44 107 51 107 2 0 13 -21 25 -47z"/>
<path d="M10051 1996 c-8 -9 -11 -41 -9 -88 l3 -73 63 -3 c51 -2 62 0 62 13 0
11 -11 15 -45 15 -38 0 -45 3 -45 19 0 16 8 20 37 23 26 2 39 8 41 20 3 13 -6
17 -40 20 -56 4 -51 22 7 26 37 3 46 7 43 20 -4 23 -99 30 -117 8z"/>
<path d="M10204 1999 c-3 -6 3 -24 15 -40 26 -35 26 -46 1 -84 -25 -37 -25
-45 -2 -45 11 0 24 12 31 27 l13 28 20 -28 c20 -28 48 -37 48 -14 0 6 -9 23
-20 37 -11 14 -20 30 -20 35 0 6 9 21 20 35 21 27 26 60 10 60 -5 0 -19 -14
-32 -30 l-22 -30 -19 30 c-20 32 -32 37 -43 19z"/>
<path d="M14414 1857 c-3 -8 -4 -47 -2 -88 l3 -74 42 -3 c55 -4 93 20 93 59 0
15 -4 31 -10 34 -6 4 -5 13 2 25 10 15 9 23 -6 39 -23 25 -113 30 -122 8z m96
-32 c0 -10 -11 -15 -35 -15 -33 0 -43 8 -28 23 13 14 63 7 63 -8z m-5 -58 c24
-18 11 -37 -26 -37 -33 0 -51 26 -28 41 19 12 32 11 54 -4z"/>
<path d="M14586 1833 c-10 -65 -7 -120 9 -133 18 -15 23 -4 27 60 l3 45 38
-58 c21 -32 43 -57 50 -54 8 2 13 33 15 90 3 81 1 87 -17 87 -17 0 -20 -8 -23
-52 l-3 -53 -29 53 c-36 64 -61 69 -70 15z"/>
<path d="M13691 1834 c-27 -22 -31 -33 -31 -73 0 -37 5 -52 23 -69 52 -49 137
-10 137 63 0 47 -14 71 -50 90 -39 20 -43 19 -79 -11z m78 -28 c29 -35 9 -106
-30 -106 -41 0 -63 56 -39 101 12 22 52 25 69 5z"/>
<path d="M13505 1827 c-3 -12 -5 -52 -3 -87 2 -50 7 -65 18 -65 8 0 17 11 19
25 4 28 17 40 47 40 32 0 56 33 48 64 -8 33 -31 46 -83 46 -34 0 -42 -4 -46
-23z m84 -16 c21 -13 5 -41 -24 -41 -18 0 -25 5 -25 18 0 31 21 41 49 23z"/>
<path d="M12308 1748 c-2 -7 -2 -46 0 -85 l4 -73 59 0 c54 0 61 2 71 25 8 18
8 32 1 48 -8 16 -8 29 0 42 8 15 5 22 -13 37 -26 21 -116 26 -122 6z m100 -35
c2 -9 -8 -13 -32 -13 -34 0 -44 8 -29 24 11 11 56 2 61 -11z m2 -73 c0 -16 -7
-20 -35 -20 -28 0 -35 4 -35 20 0 16 7 20 35 20 28 0 35 -4 35 -20z"/>
<path d="M12480 1676 c0 -79 2 -86 20 -86 16 0 20 7 20 35 0 32 2 35 30 35 28
0 30 -3 30 -35 0 -28 4 -35 20 -35 18 0 20 7 20 86 0 76 -2 85 -17 82 -11 -2
-19 -14 -21 -31 -3 -22 -8 -27 -32 -27 -24 0 -29 5 -32 27 -2 17 -10 29 -20
31 -16 3 -18 -6 -18 -82z"/>
<path d="M11647 1733 c-4 -3 -7 -42 -7 -85 l0 -78 53 0 c68 0 92 22 92 85 0
60 -25 85 -85 85 -26 0 -50 -3 -53 -7z m99 -49 c11 -42 -7 -78 -39 -82 -27 -3
-27 -2 -27 52 0 55 0 56 30 56 24 0 31 -5 36 -26z"/>
<path d="M11800 1725 c0 -9 9 -15 25 -15 23 0 24 -3 27 -67 2 -55 6 -68 21
-71 15 -3 17 5 17 67 0 69 1 71 25 71 16 0 25 6 25 15 0 12 -14 15 -70 15 -56
0 -70 -3 -70 -15z"/>
<path d="M13035 1496 c-116 -62 -146 -86 -108 -86 10 -1 38 -11 63 -23 40 -20
46 -26 50 -62 6 -47 32 -55 40 -12 l5 27 55 -37 c31 -21 57 -42 58 -48 2 -5
-24 -15 -58 -21 -120 -25 -216 -101 -268 -212 -24 -50 -27 -70 -27 -157 0 -89
3 -106 27 -156 36 -72 105 -141 176 -176 79 -39 210 -45 294 -13 64 24 147 92
185 153 73 116 71 278 -6 399 -36 57 -115 120 -178 144 -26 9 -52 21 -57 26
-10 8 117 138 135 138 5 0 12 12 15 26 6 21 -1 34 -42 75 -39 40 -55 49 -84
49 -19 1 -46 7 -60 15 -48 27 -89 18 -215 -49z m320 -328 c60 -31 124 -96 156
-158 21 -39 24 -59 24 -145 0 -84 -4 -107 -22 -140 -38 -71 -91 -123 -160
-157 -58 -28 -77 -33 -143 -33 -294 1 -444 353 -240 564 37 38 96 75 150 92
14 5 61 7 105 5 63 -2 91 -8 130 -28z"/>
<path d="M13134 1011 c-18 -11 -45 -36 -60 -57 -25 -33 -29 -46 -29 -104 0
-54 5 -73 25 -103 35 -50 86 -77 150 -77 56 0 120 24 120 46 0 18 -19 28 -33
16 -7 -6 -30 -15 -53 -22 -36 -11 -47 -10 -88 8 -37 17 -51 30 -66 64 -11 24
-20 54 -20 67 0 39 37 105 69 124 36 21 109 22 139 1 18 -12 26 -13 37 -4 22
18 19 24 -20 43 -49 23 -132 22 -171 -2z"/>
<path d="M9384 1377 c-3 -8 -4 -45 -2 -83 2 -56 6 -69 21 -72 13 -3 17 3 17
27 0 28 3 31 33 31 20 0 41 8 50 18 20 22 22 63 5 80 -17 17 -117 16 -124 -1z
m80 -13 c23 -9 20 -41 -4 -49 -25 -8 -40 1 -40 24 0 29 14 37 44 25z"/>
<path d="M9547 1383 c-6 -12 -7 -126 -1 -145 4 -14 17 -18 59 -18 50 0 76 12
60 28 -3 4 -23 7 -43 7 l-37 0 -3 68 c-2 49 -7 67 -17 67 -8 0 -16 -3 -18 -7z"/>
<path d="M10205 1219 c-10 -15 5 -24 48 -28 5 -1 7 -27 6 -58 -4 -57 3 -83 21
-83 5 0 10 33 12 73 3 64 5 72 23 72 11 0 21 8 23 18 3 15 -5 17 -62 17 -36 0
-68 -5 -71 -11z"/>
<path d="M10393 1215 c-28 -20 -42 -63 -31 -102 13 -48 85 -92 103 -63 4 7 13
7 26 0 10 -6 19 -9 20 -8 0 2 3 33 5 71 5 61 3 69 -20 92 -29 28 -71 33 -103
10z m81 -37 c22 -31 20 -59 -4 -65 -11 -3 -20 -12 -20 -19 0 -16 -18 -18 -40
-5 -17 12 -17 75 0 96 18 22 47 18 64 -7z"/>
<path d="M8520 955 c0 -9 9 -15 25 -15 24 0 25 -2 25 -70 0 -63 2 -70 20 -70
18 0 20 7 20 69 0 62 2 70 20 73 47 7 21 23 -42 26 -56 2 -68 0 -68 -13z"/>
<path d="M8676 948 c-3 -13 -4 -50 -3 -83 2 -53 4 -60 22 -60 15 0 20 7 20 25
0 21 5 25 30 25 25 0 30 -4 31 -24 1 -24 22 -44 36 -35 11 7 10 42 -3 66 -8
14 -8 23 0 31 35 35 -6 77 -77 77 -45 0 -52 -3 -56 -22z m102 -30 c3 -15 -4
-18 -32 -18 -34 0 -47 15 -29 34 13 13 58 1 61 -16z"/>
</g>
</svg>
