<?xml version="1.0" standalone="no"?>
<!DOCTYPE svg PUBLIC "-//W3C//DTD SVG 20010904//EN"
 "http://www.w3.org/TR/2001/REC-SVG-20010904/DTD/svg10.dtd">
<svg version="1.0" xmlns="http://www.w3.org/2000/svg"
 width="1168.000000pt" height="1053.000000pt" viewBox="0 0 1168.000000 1053.000000"
 preserveAspectRatio="xMidYMid meet">

<g transform="translate(0.000000,1053.000000) scale(0.100000,-0.100000)"
fill="#000000" stroke="none">
<path d="M4222 9988 l3 -293 38 -3 37 -3 0 295 0 296 -40 0 -40 0 2 -292z"/>
<path d="M8363 10221 c-41 -26 -53 -49 -53 -103 0 -29 8 -55 24 -78 l23 -34
-44 -34 c-25 -19 -51 -50 -59 -68 -68 -161 125 -291 269 -180 l42 33 30 -34
c27 -32 34 -34 78 -31 l47 3 -48 60 -49 60 30 38 31 38 -27 27 -27 26 -30 -34
c-19 -23 -32 -31 -37 -24 -4 6 -26 32 -47 58 l-39 47 36 37 c65 67 69 129 12
182 -35 33 -118 39 -162 11z m111 -67 c24 -23 19 -47 -13 -78 -33 -31 -44 -29
-67 15 -14 28 -14 33 1 55 18 28 56 32 79 8z m-10 -275 l50 -62 -32 -28 c-44
-39 -102 -40 -137 -3 -37 40 -33 79 12 120 20 19 42 34 47 34 6 0 33 -28 60
-61z"/>
<path d="M9162 10227 c-44 -14 -116 -79 -148 -133 -16 -28 -28 -65 -31 -102
-16 -170 107 -305 275 -305 40 0 84 8 110 18 41 17 42 18 42 66 l0 48 -56 -30
c-60 -31 -101 -36 -155 -17 -86 29 -134 99 -133 193 1 70 18 109 68 152 68 60
149 66 234 18 l42 -24 0 48 c0 48 -1 49 -40 65 -46 18 -156 20 -208 3z"/>
<path d="M3320 9960 l0 -273 109 5 c92 4 117 8 165 32 69 34 112 84 133 155
29 102 3 209 -68 279 -57 55 -92 67 -221 70 l-118 4 0 -272z m180 190 c116
-22 181 -124 151 -237 -23 -87 -101 -142 -198 -143 l-53 0 0 188 c0 104 3 192
7 195 9 10 31 9 93 -3z"/>
<path d="M4406 10211 c-23 -26 -17 -63 14 -78 49 -24 92 37 54 78 -9 10 -25
19 -34 19 -9 0 -25 -9 -34 -19z"/>
<path d="M6190 10195 l0 -34 63 -3 62 -3 3 -232 2 -233 40 0 40 0 0 235 0 235
60 0 60 0 0 35 0 35 -165 0 -165 0 0 -35z"/>
<path d="M6596 10211 c-38 -42 13 -108 59 -77 26 17 31 59 10 80 -22 21 -48
20 -69 -3z"/>
<path d="M10220 10099 c0 -52 -3 -62 -20 -66 -15 -4 -20 -14 -20 -38 0 -24 5
-34 20 -38 19 -5 20 -14 20 -137 l0 -131 36 3 36 3 1 130 2 130 33 3 c29 3 32
6 32 37 0 31 -3 34 -32 37 -33 3 -33 3 -36 66 l-3 62 -34 0 -35 0 0 -61z"/>
<path d="M3886 10021 c-42 -28 -67 -73 -73 -134 -7 -68 8 -114 51 -156 55 -53
154 -62 215 -19 23 16 65 67 60 72 -2 2 -17 10 -34 19 -28 14 -30 14 -56 -14
-48 -51 -128 -34 -152 33 -6 16 5 18 116 20 l122 3 -2 47 c-1 56 -29 105 -71
131 -42 24 -138 23 -176 -2z m146 -68 c36 -33 23 -43 -57 -43 -41 0 -75 3 -75
7 0 4 10 17 22 30 26 28 82 31 110 6z"/>
<path d="M4986 10021 c-42 -28 -67 -73 -73 -134 -7 -68 8 -114 51 -156 55 -53
154 -62 215 -19 23 16 65 67 60 72 -2 2 -17 10 -34 19 -28 14 -30 14 -56 -14
-48 -51 -128 -34 -152 33 -6 16 5 18 116 20 l122 3 -2 47 c-1 56 -29 105 -71
131 -42 24 -138 23 -176 -2z m146 -68 c36 -33 23 -43 -57 -43 -41 0 -75 3 -75
7 0 4 10 17 22 30 26 28 82 31 110 6z"/>
<path d="M5423 10023 c-14 -9 -23 -11 -23 -4 0 6 -17 11 -40 11 l-40 0 2 -167
3 -168 38 -3 37 -3 0 94 c0 121 7 155 37 174 19 13 29 14 48 5 22 -10 26 -8
41 19 8 17 13 37 10 45 -7 19 -85 17 -113 -3z"/>
<path d="M6872 10024 c-12 -8 -22 -10 -22 -5 0 6 -18 11 -40 11 l-40 0 0 -170
0 -170 40 0 40 0 0 118 c0 134 10 162 60 162 16 0 32 -6 37 -12 4 -7 10 -69
13 -138 l5 -125 36 -3 36 -3 5 118 c5 138 14 163 62 163 47 0 56 -28 56 -165
l0 -115 40 0 40 0 0 124 c0 130 -7 166 -42 204 -30 31 -113 31 -152 1 l-27
-21 -23 21 c-27 25 -91 28 -124 5z"/>
<path d="M7414 10030 c-36 -14 -82 -76 -89 -120 -12 -69 2 -127 41 -170 56
-62 146 -73 220 -29 28 17 71 67 62 73 -2 1 -16 10 -32 20 l-29 18 -24 -31
c-21 -26 -31 -31 -67 -31 -45 0 -86 30 -86 63 0 14 16 17 118 19 l117 3 -1 46
c-4 96 -59 149 -154 148 -30 0 -64 -4 -76 -9z m136 -87 l22 -28 -41 -3 c-23
-2 -59 -2 -82 0 l-41 3 22 28 c17 21 30 27 60 27 30 0 43 -6 60 -27z"/>
<path d="M7759 10011 c-21 -21 -29 -39 -29 -64 0 -44 22 -71 85 -105 39 -21
50 -32 50 -52 0 -33 -46 -41 -71 -12 -14 17 -21 18 -43 9 -42 -18 -43 -23 -16
-55 50 -59 150 -62 195 -5 23 30 27 99 7 127 -7 10 -40 32 -72 49 -32 18 -61
38 -63 44 -6 19 28 28 50 14 16 -10 26 -10 49 -1 35 15 36 24 4 55 -37 37
-106 35 -146 -4z"/>
<path d="M9572 10023 c-18 -9 -45 -32 -60 -51 -23 -31 -27 -45 -27 -107 0 -63
3 -76 28 -108 46 -60 110 -83 186 -66 119 27 174 144 120 256 -40 82 -160 119
-247 76z m155 -77 c25 -21 28 -31 28 -81 0 -50 -3 -60 -28 -81 -20 -17 -40
-24 -72 -24 -58 0 -95 41 -95 105 0 64 37 105 95 105 32 0 52 -7 72 -24z"/>
<path d="M9949 10011 c-22 -23 -29 -39 -29 -69 0 -44 16 -63 88 -102 37 -20
47 -31 47 -50 0 -21 -5 -26 -32 -28 -23 -2 -34 2 -42 17 -10 17 -15 18 -41 9
-42 -14 -44 -22 -14 -57 48 -57 132 -62 185 -9 23 23 29 38 29 72 0 53 -11 67
-84 108 -33 18 -61 39 -64 45 -6 19 28 28 50 14 16 -10 26 -10 49 -1 35 15 36
24 4 55 -37 37 -106 35 -146 -4z"/>
<path d="M4400 9860 l0 -170 40 0 40 0 0 170 0 170 -40 0 -40 0 0 -170z"/>
<path d="M4542 10021 c16 -43 163 -341 168 -341 3 0 45 79 92 175 l87 175 -45
0 -45 0 -44 -92 -44 -93 -42 93 -43 92 -44 0 c-24 0 -42 -4 -40 -9z"/>
<path d="M5583 10023 c3 -5 37 -66 77 -137 l71 -128 -32 -62 c-17 -33 -47 -89
-66 -123 l-35 -63 46 0 45 0 54 103 c30 56 91 173 136 260 l81 157 -45 0 -45
0 -48 -97 -49 -96 -49 96 -49 97 -48 0 c-27 0 -46 -3 -44 -7z"/>
<path d="M6590 9860 l0 -170 40 0 40 0 0 170 0 170 -40 0 -40 0 0 -170z"/>
<path d="M2876 9342 c-26 -50 -137 -122 -188 -122 -28 0 -128 -65 -128 -83 0
-7 4 -28 10 -46 7 -24 6 -39 -1 -48 -17 -20 -32 -16 -74 17 -21 17 -41 30 -46
30 -4 0 -24 -21 -44 -46 -26 -35 -35 -57 -35 -85 0 -28 4 -39 15 -39 24 0 29
-28 10 -50 -16 -18 -15 -19 22 -38 24 -13 42 -31 49 -51 11 -27 9 -33 -13 -56
-15 -14 -43 -28 -65 -31 -21 -4 -41 -11 -44 -16 -4 -6 14 -30 38 -55 l45 -44
61 36 c41 23 62 42 62 54 0 11 7 21 15 25 10 3 15 19 15 46 0 42 9 50 30 25
27 -32 110 -1 103 39 -3 16 4 26 31 40 20 11 36 25 36 32 0 28 -14 44 -39 44
l-26 1 28 22 c15 13 27 29 27 37 0 8 23 38 51 66 45 46 56 65 85 154 l33 102
-23 35 -24 35 -16 -30z"/>
<path d="M4923 9281 c-19 -30 -83 -46 -124 -32 -48 17 -72 14 -113 -14 -41
-27 -76 -33 -76 -11 0 24 -38 24 -86 0 -27 -14 -65 -24 -89 -24 -33 0 -47 -6
-69 -29 l-28 -30 12 -65 c11 -54 11 -77 0 -137 l-14 -72 45 -38 c35 -30 40
-38 24 -38 -11 0 -37 16 -59 35 -37 35 -38 38 -30 83 12 71 7 300 -8 319 -15
17 -22 15 -57 -14 -21 -17 -31 -35 -31 -54 0 -27 -22 -46 -41 -34 -5 3 -9 20
-9 39 0 34 -21 65 -44 65 -7 0 -21 9 -31 20 -38 42 -125 13 -125 -42 0 -19
-11 -43 -29 -63 -22 -26 -30 -47 -36 -96 -7 -58 -6 -64 16 -82 23 -19 23 -19
4 -34 -15 -11 -36 -13 -77 -10 -76 7 -88 -7 -57 -61 20 -34 21 -44 11 -66 -6
-15 -23 -31 -37 -36 l-25 -10 31 -50 c17 -28 43 -57 59 -65 21 -11 29 -24 34
-55 9 -57 -1 -67 -35 -34 -27 26 -30 27 -42 10 -12 -17 -15 -17 -50 0 -35 17
-37 17 -57 -1 -20 -18 -22 -18 -50 -1 -36 21 -37 15 -11 -69 11 -35 34 -77 55
-102 41 -47 43 -53 18 -53 -35 0 -100 67 -122 127 -28 75 -27 74 -56 61 -17
-8 -23 -17 -18 -27 16 -40 25 -83 19 -100 -3 -12 0 -21 10 -25 22 -8 18 -25
-10 -48 -28 -22 -32 -50 -10 -68 22 -18 19 -43 -4 -35 -14 4 -24 -3 -40 -30
l-21 -37 20 -45 c11 -25 20 -56 20 -68 0 -31 24 -38 67 -20 27 12 39 12 50 4
11 -10 11 -15 -3 -30 -10 -11 -23 -19 -31 -19 -7 0 -13 -9 -13 -20 0 -15 7
-20 29 -20 21 0 36 -9 55 -34 14 -19 26 -37 26 -40 0 -14 -60 -5 -68 10 -8 14
-12 12 -30 -14 -12 -16 -19 -32 -15 -36 3 -3 103 -6 222 -6 201 0 218 2 250
21 38 23 95 20 105 -7 11 -30 94 -56 161 -52 76 5 109 26 259 169 112 105 168
138 256 148 68 8 104 34 114 82 3 17 27 51 54 78 l49 49 -29 22 c-26 19 -37
21 -101 15 -69 -7 -73 -9 -102 -46 -20 -28 -34 -37 -45 -33 -32 15 -59 5 -96
-35 -22 -25 -43 -40 -52 -36 -52 20 -58 17 -90 -34 l-31 -51 -65 0 c-47 0 -65
4 -70 15 -4 10 3 17 22 21 64 14 75 21 100 67 26 45 26 49 9 61 -15 11 -27 11
-78 -2 -64 -16 -86 -10 -54 15 56 42 164 68 180 43 11 -17 22 -11 35 20 7 16
27 39 44 49 27 17 76 71 76 85 0 2 -9 2 -20 -1 -19 -5 -20 -3 -10 23 6 16 10
54 9 86 -1 31 2 63 8 70 5 7 13 21 16 30 3 9 42 36 86 60 69 37 81 48 90 80
14 46 61 85 140 118 58 24 61 27 61 60 0 19 7 48 15 63 13 25 13 32 0 57 -13
25 -12 32 11 78 14 28 24 62 22 74 -3 22 -8 23 -83 26 -70 2 -82 0 -92 -17z
m-326 -216 c5 -14 8 -14 22 -1 9 7 29 14 44 14 23 0 29 -6 35 -32 l6 -31 6 30
c3 17 11 30 20 30 9 0 17 -13 21 -30 l5 -30 8 33 c4 17 12 32 17 32 12 0 11
-12 -2 -66 -11 -44 -39 -62 -39 -25 0 11 -4 23 -10 26 -6 4 -10 -5 -10 -19 0
-44 -28 -31 -41 19 -14 54 -21 60 -43 36 -15 -17 -15 -20 4 -44 24 -30 25 -37
6 -37 -7 0 -21 10 -29 23 l-16 22 0 -22 c-1 -14 -7 -23 -16 -23 -12 0 -15 13
-15 55 0 53 14 73 27 40z m-66 -327 c21 -12 51 -39 66 -61 24 -34 28 -50 28
-107 0 -57 -4 -73 -28 -107 -39 -56 -91 -83 -161 -83 -63 0 -98 14 -138 57
-88 92 -72 223 36 297 51 35 139 37 197 4z m-519 -370 c7 -20 -3 -88 -13 -88
-5 0 -9 23 -9 50 0 46 12 66 22 38z m44 -13 c3 -14 10 -25 14 -25 4 0 11 11
14 25 4 14 11 25 17 25 7 0 9 -10 5 -25 -21 -84 -46 -98 -64 -36 -15 47 -15
61 -2 61 5 0 12 -11 16 -25z"/>
<path d="M4359 8651 c-24 -24 -29 -38 -29 -76 0 -38 5 -52 29 -76 33 -33 92
-40 127 -15 27 20 14 28 -23 14 -86 -32 -149 76 -83 142 22 22 60 26 90 10 12
-6 21 -7 25 -1 8 15 -29 31 -70 31 -27 0 -44 -8 -66 -29z"/>
<path d="M7272 8932 c-45 -98 -82 -181 -82 -184 0 -9 37 -16 46 -9 5 3 17 23
26 44 l18 37 78 0 79 0 19 -42 c15 -34 24 -43 44 -42 16 0 24 5 22 15 -5 23
-156 359 -162 359 -3 0 -42 -80 -88 -178z m113 6 c13 -28 22 -55 19 -60 -6
-10 -94 -11 -94 0 0 9 44 112 48 112 2 0 14 -23 27 -52z"/>
<path d="M8160 8970 l0 -140 25 0 c24 0 25 3 25 60 l0 60 55 0 c48 0 55 2 55
20 0 18 -7 20 -55 20 l-55 0 0 40 0 40 65 0 c58 0 65 2 65 20 0 19 -7 20 -90
20 l-90 0 0 -140z"/>
<path d="M8380 8970 l0 -140 25 0 c24 0 25 3 25 55 0 71 15 71 66 0 33 -47 44
-55 72 -55 l32 0 -44 57 -45 56 32 16 c42 21 57 70 33 106 -23 34 -54 45 -132
45 l-64 0 0 -140z m144 84 c21 -20 20 -37 -3 -58 -12 -11 -31 -16 -53 -14 -31
3 -33 5 -36 46 l-3 42 40 0 c23 0 46 -7 55 -16z"/>
<path d="M8640 8970 l0 -140 95 0 c88 0 95 2 95 20 0 17 -8 19 -67 22 l-68 3
-3 37 -3 37 58 3 c45 2 59 7 61 20 3 14 -6 17 -55 20 l-58 3 -3 38 -3 37 65 0
c59 0 66 2 66 20 0 19 -7 20 -90 20 l-90 0 0 -140z"/>
<path d="M8880 8970 l0 -140 95 0 c88 0 95 2 95 20 0 17 -8 19 -67 22 l-68 3
-3 37 -3 37 58 3 c45 2 59 7 61 20 3 14 -6 17 -55 20 l-58 3 -3 38 -3 37 65 0
c59 0 66 2 66 20 0 19 -7 20 -90 20 l-90 0 0 -140z"/>
<path d="M9210 8970 l0 -140 25 0 c24 0 24 1 27 98 l3 97 68 -97 c55 -78 73
-98 93 -98 l24 0 0 140 0 140 -25 0 c-25 0 -25 0 -25 -97 l0 -97 -67 97 c-58
84 -71 97 -95 97 l-28 0 0 -140z"/>
<path d="M9510 8970 l0 -140 95 0 c88 0 95 2 95 20 0 17 -8 19 -67 22 l-68 3
-3 37 -3 37 58 3 c45 2 59 7 61 20 3 14 -6 17 -55 20 l-58 3 -3 38 -3 37 65 0
c59 0 66 2 66 20 0 19 -7 20 -90 20 l-90 0 0 -140z"/>
<path d="M9739 9093 c5 -10 25 -40 45 -67 l35 -49 -50 -73 -50 -74 31 0 c25 0
35 8 62 50 18 27 35 50 38 50 3 0 20 -23 38 -50 27 -42 37 -50 62 -50 l31 0
-50 73 -49 73 44 60 c24 32 43 62 44 67 0 4 -12 7 -27 7 -22 0 -34 -10 -56
-45 -16 -25 -32 -45 -35 -45 -4 0 -20 20 -35 45 -24 37 -34 45 -58 45 -25 0
-28 -3 -20 -17z"/>
<path d="M9990 9090 c0 -17 7 -20 45 -20 l45 0 0 -120 0 -120 25 0 25 0 0 120
0 120 45 0 c38 0 45 3 45 20 0 19 -7 20 -115 20 -108 0 -115 -1 -115 -20z"/>
<path d="M10330 8970 l0 -140 68 0 c122 1 182 47 182 142 0 55 -30 105 -75
124 -19 8 -66 14 -105 14 l-70 0 0 -140z m177 65 c32 -36 31 -98 0 -129 -24
-24 -97 -43 -117 -31 -11 7 -14 178 -2 189 4 4 27 6 52 3 32 -4 51 -13 67 -32z"/>
<path d="M10696 9102 c-3 -5 -19 -45 -35 -88 -16 -44 -38 -103 -50 -131 l-21
-53 26 0 c19 0 29 7 37 30 11 29 14 30 73 30 60 0 62 -1 73 -30 7 -23 16 -30
35 -30 l26 0 -20 53 c-78 208 -85 222 -112 225 -14 2 -29 -1 -32 -6z m55 -117
c9 -24 14 -46 11 -49 -3 -4 -20 -6 -39 -6 -38 0 -41 10 -17 70 19 47 22 46 45
-15z"/>
<path d="M10880 9103 c0 -5 20 -42 45 -83 39 -65 45 -82 45 -132 0 -55 1 -58
25 -58 24 0 25 3 25 57 0 48 6 67 45 134 25 43 45 81 45 84 0 3 -11 5 -25 5
-20 0 -31 -11 -56 -55 -17 -30 -32 -55 -34 -55 -2 0 -17 25 -34 55 -25 44 -36
55 -56 55 -14 0 -25 -3 -25 -7z"/>
<path d="M8720 8610 l0 -140 68 0 c122 1 182 47 182 142 0 55 -30 105 -75 124
-19 8 -66 14 -105 14 l-70 0 0 -140z m177 65 c32 -36 31 -98 0 -129 -24 -24
-97 -43 -117 -31 -11 7 -14 178 -2 189 4 4 27 6 52 3 32 -4 51 -13 67 -32z"/>
<path d="M9020 8610 l0 -140 95 0 c88 0 95 2 95 20 0 17 -8 19 -67 22 l-68 3
-3 37 -3 37 58 3 c45 2 59 7 61 20 3 14 -6 17 -55 20 l-58 3 -3 38 -3 37 65 0
c59 0 66 2 66 20 0 19 -7 20 -90 20 l-90 0 0 -140z"/>
<path d="M9250 8610 l0 -140 90 0 c83 0 90 2 90 20 0 16 -8 19 -62 22 l-63 3
-3 118 -3 117 -24 0 -25 0 0 -140z"/>
<path d="M9470 8610 l0 -140 25 0 25 0 0 140 0 140 -25 0 -25 0 0 -140z"/>
<path d="M9614 8610 c48 -132 53 -140 77 -140 25 0 30 8 72 123 25 67 49 130
53 140 6 16 2 18 -21 15 -26 -3 -31 -11 -66 -108 -33 -94 -38 -102 -46 -80 -6
14 -23 62 -39 108 -26 75 -31 82 -55 82 l-27 0 52 -140z"/>
<path d="M9850 8610 l0 -140 95 0 c88 0 95 2 95 20 0 17 -8 19 -67 22 l-68 3
-3 37 -3 37 58 3 c45 2 59 7 61 20 3 14 -6 17 -55 20 l-58 3 -3 38 -3 37 65 0
c59 0 66 2 66 20 0 19 -7 20 -90 20 l-90 0 0 -140z"/>
<path d="M10090 8610 l0 -140 25 0 c24 0 25 3 25 55 0 71 15 71 66 0 33 -47
44 -55 72 -55 l32 0 -44 57 -45 56 32 16 c42 21 57 70 33 106 -23 34 -54 45
-132 45 l-64 0 0 -140z m144 84 c21 -20 20 -37 -3 -58 -12 -11 -31 -16 -53
-14 -31 3 -33 5 -36 46 l-3 42 40 0 c23 0 46 -7 55 -16z"/>
<path d="M10320 8743 c0 -5 20 -42 45 -83 39 -65 45 -82 45 -132 0 -55 1 -58
25 -58 24 0 25 3 25 57 0 48 6 67 45 134 25 43 45 81 45 84 0 3 -11 5 -25 5
-20 0 -31 -11 -56 -55 -17 -30 -32 -55 -34 -55 -2 0 -17 25 -34 55 -25 44 -36
55 -56 55 -14 0 -25 -3 -25 -7z"/>
<path d="M2287 8543 c-12 -12 -41 -19 -99 -23 l-83 -5 -11 -35 c-14 -43 -3
-60 38 -60 24 0 32 -6 44 -35 14 -34 16 -35 70 -35 l56 0 -3 83 c-1 45 1 90 6
100 11 25 2 30 -18 10z"/>
<path d="M3133 8358 c-23 -18 -28 -27 -22 -43 11 -28 11 -145 0 -145 -5 0 -30
20 -55 45 -26 25 -49 45 -51 45 -3 0 -5 -11 -5 -24 0 -14 -5 -37 -11 -53 l-10
-28 -21 28 c-21 29 -38 35 -38 15 0 -7 -11 -26 -24 -41 -13 -15 -23 -34 -22
-41 3 -19 98 -126 112 -126 7 0 19 12 26 28 19 39 62 38 66 -2 2 -16 -1 -33
-7 -39 -6 -6 -11 -23 -11 -37 0 -57 76 -116 138 -107 34 6 39 3 60 -29 19 -29
26 -33 38 -24 8 7 14 21 14 31 0 14 7 19 25 19 31 0 31 -10 3 -59 -19 -33 -20
-43 -10 -65 l12 -27 42 22 c24 12 44 23 46 24 1 1 -2 14 -7 28 -9 24 -6 30 37
67 45 40 46 42 31 68 -12 23 -22 27 -66 30 -42 2 -54 8 -68 28 -13 20 -23 25
-41 21 -31 -5 -50 20 -68 91 -12 44 -12 51 5 73 26 34 24 82 -8 172 -25 69
-30 77 -53 77 -15 0 -40 -10 -57 -22z"/>
<path d="M5133 8314 c-10 -7 -40 -21 -66 -30 -50 -17 -112 -71 -122 -108 -17
-58 -30 -78 -66 -97 -21 -10 -46 -19 -56 -19 -26 0 -68 -112 -53 -139 20 -39
12 -75 -27 -113 -21 -20 -50 -39 -65 -42 -37 -6 -35 4 7 31 54 36 69 65 55
108 -11 35 -7 58 25 137 7 16 4 16 -41 1 -36 -12 -73 -40 -144 -108 -109 -105
-158 -144 -217 -174 -74 -37 -166 -25 -251 34 l-50 34 -23 -25 c-22 -24 -23
-24 -233 -24 -180 -1 -219 -3 -266 -20 -46 -15 -56 -23 -58 -45 -3 -20 5 -34
34 -59 42 -36 42 -61 -1 -72 -21 -5 -33 0 -59 25 -17 17 -39 31 -49 31 -18 0
-47 -48 -47 -78 0 -11 -7 -32 -15 -48 -18 -35 -12 -41 19 -24 53 28 75 -17 32
-67 -21 -25 -26 -26 -50 -15 -42 19 -88 14 -118 -13 -40 -35 -37 -54 10 -53
21 0 54 -8 72 -17 33 -17 35 -17 76 5 l41 23 37 -22 c41 -26 46 -41 14 -41
-33 0 -45 -12 -44 -40 1 -22 -3 -25 -34 -26 -50 -1 -52 -2 -40 -24 8 -15 21
-20 51 -20 32 0 42 -4 46 -20 7 -27 14 -25 53 15 22 23 43 35 60 35 20 0 33
10 51 38 23 35 27 37 86 40 l62 3 30 49 30 49 108 -6 c59 -3 115 -10 125 -14
9 -5 30 -51 48 -104 29 -86 34 -95 56 -95 14 0 35 -7 48 -15 12 -8 45 -18 72
-21 32 -4 55 -14 66 -28 20 -24 23 -67 7 -83 -21 -21 9 -73 54 -93 22 -10 46
-16 53 -13 6 2 47 -14 89 -36 44 -24 90 -41 108 -41 49 1 105 33 180 102 l67
63 -11 39 c-7 26 -8 52 -1 80 14 61 12 75 -19 97 l-28 20 20 46 c25 59 22 105
-9 118 -25 11 -24 30 3 30 23 0 57 -45 57 -76 0 -13 -8 -44 -18 -69 l-17 -46
26 -26 c32 -32 32 -39 11 -102 -15 -44 -15 -48 1 -60 13 -9 16 -22 13 -50 -5
-42 -12 -40 77 -21 17 4 47 16 68 27 29 15 49 19 79 14 38 -6 43 -4 97 46 31
29 66 68 78 86 27 39 40 82 24 82 -15 0 -14 43 1 58 7 7 22 12 35 12 13 0 23
6 23 13 0 7 23 35 50 62 62 61 65 79 13 69 -51 -9 -70 -18 -127 -59 -54 -39
-92 -52 -113 -39 -21 13 -41 54 -48 97 -12 73 -72 105 -126 66 -26 -18 -47
-23 -98 -24 -36 0 -74 -4 -83 -9 -13 -6 -15 -4 -11 13 6 23 36 31 105 30 36
-1 54 4 81 25 30 23 38 25 63 16 49 -19 104 -80 104 -115 0 -17 7 -41 16 -53
19 -28 39 -23 100 23 24 18 67 41 96 50 81 27 129 80 143 160 3 22 19 60 33
85 17 28 29 65 32 100 5 53 7 56 60 93 45 31 57 46 68 84 12 40 11 57 -3 127
-27 135 -45 153 -157 155 -41 1 -67 -5 -90 -19 -43 -26 -69 -25 -169 6 -213
65 -206 63 -226 48z m-384 -594 c170 -86 130 -333 -60 -365 -109 -19 -218 77
-219 193 0 70 56 155 120 181 42 17 118 13 159 -9z"/>
<path d="M4590 7555 l0 -105 55 0 c46 0 60 4 80 25 29 28 31 42 10 65 -12 13
-13 22 -2 49 11 30 10 34 -12 52 -16 13 -39 19 -77 19 l-54 0 0 -105z m105 45
c0 -22 -5 -25 -37 -28 -36 -3 -38 -2 -38 28 0 30 2 31 38 28 32 -3 37 -6 37
-28z m11 -75 c10 -24 -15 -45 -52 -45 -31 0 -34 3 -34 30 0 28 2 30 40 30 27
0 43 -5 46 -15z"/>
<path d="M2160 8285 c0 -41 17 -46 46 -14 18 20 18 21 -1 35 -32 23 -45 17
-45 -21z"/>
<path d="M7270 8250 c-228 -39 -402 -234 -417 -465 -7 -100 8 -175 53 -265 97
-193 315 -306 524 -271 344 56 528 412 378 730 -90 190 -324 308 -538 271z
m232 -182 c72 -33 136 -97 174 -174 25 -51 29 -70 29 -144 0 -74 -4 -93 -29
-144 -37 -76 -101 -140 -174 -174 -78 -37 -211 -39 -286 -4 -84 38 -131 85
-173 169 -34 68 -38 85 -38 152 1 155 99 287 250 338 63 21 179 12 247 -19z"/>
<path d="M7220 7736 l0 -196 100 0 c141 0 190 29 190 113 0 30 -7 45 -29 66
-29 27 -29 28 -11 44 43 36 37 104 -13 141 -23 17 -46 21 -132 24 l-105 4 0
-196z m191 115 c20 -16 22 -23 14 -47 -10 -27 -14 -29 -73 -32 l-62 -3 0 51 0
50 49 0 c33 0 56 -6 72 -19z m13 -157 c9 -8 16 -26 16 -39 0 -40 -25 -55 -91
-55 l-59 0 0 55 0 55 59 0 c41 0 65 -5 75 -16z"/>
<path d="M2108 8198 c-2 -7 -4 -71 -3 -143 1 -123 2 -130 21 -133 17 -2 25 6
38 43 11 27 15 56 11 72 -4 16 -1 31 9 42 11 13 13 26 5 65 -11 58 -8 54 -46
62 -21 4 -32 2 -35 -8z"/>
<path d="M2038 7864 c-29 -15 -40 -64 -15 -64 27 0 49 26 45 52 -3 25 -4 26
-30 12z"/>
<path d="M8422 7860 c-28 -12 -55 -71 -46 -104 7 -28 35 -56 70 -71 l24 -10
-25 -37 c-31 -46 -31 -48 0 -48 21 0 35 15 75 76 67 102 67 158 3 192 -25 14
-69 15 -101 2z m79 -40 c22 -12 26 -59 7 -78 -7 -7 -25 -12 -40 -12 -38 0 -56
41 -33 76 17 26 35 30 66 14z"/>
<path d="M8652 7860 c-28 -12 -55 -71 -46 -104 7 -28 35 -56 70 -71 l24 -10
-25 -37 c-31 -46 -31 -48 0 -48 21 0 35 15 75 76 67 102 67 158 3 192 -25 14
-69 15 -101 2z m79 -40 c22 -12 26 -59 7 -78 -7 -7 -25 -12 -40 -12 -38 0 -56
41 -33 76 17 26 35 30 66 14z"/>
<path d="M8940 7730 l0 -140 68 0 c122 1 182 47 182 142 0 55 -30 105 -75 124
-19 8 -66 14 -105 14 l-70 0 0 -140z m177 65 c32 -36 31 -98 0 -129 -24 -24
-97 -43 -117 -31 -11 7 -14 178 -2 189 4 4 27 6 52 3 32 -4 51 -13 67 -32z"/>
<path d="M9240 7730 l0 -140 95 0 c88 0 95 2 95 20 0 17 -8 19 -67 22 l-68 3
-3 37 -3 37 58 3 c45 2 59 7 61 20 3 14 -6 17 -55 20 l-58 3 -3 38 -3 37 65 0
c59 0 66 2 66 20 0 19 -7 20 -90 20 l-90 0 0 -140z"/>
<path d="M9480 7730 l0 -140 90 0 c83 0 90 2 90 20 0 16 -8 19 -62 22 l-63 3
-3 118 -3 117 -24 0 -25 0 0 -140z"/>
<path d="M9700 7730 l0 -140 25 0 25 0 0 140 0 140 -25 0 -25 0 0 -140z"/>
<path d="M9834 7730 c48 -132 53 -140 77 -140 25 0 30 8 72 123 25 67 49 130
53 140 6 16 2 18 -21 15 -26 -3 -31 -11 -66 -108 -33 -94 -38 -102 -46 -80 -6
14 -23 62 -39 108 -26 75 -31 82 -55 82 l-27 0 52 -140z"/>
<path d="M10080 7730 l0 -140 95 0 c88 0 95 2 95 20 0 17 -8 19 -67 22 l-68 3
-3 37 -3 37 58 3 c45 2 59 7 61 20 3 14 -6 17 -55 20 l-58 3 -3 38 -3 37 65 0
c59 0 66 2 66 20 0 19 -7 20 -90 20 l-90 0 0 -140z"/>
<path d="M10310 7730 l0 -140 25 0 c24 0 25 3 25 55 0 71 15 71 66 0 33 -47
44 -55 72 -55 l32 0 -44 57 -45 56 32 16 c42 21 57 70 33 106 -23 34 -54 45
-132 45 l-64 0 0 -140z m144 84 c21 -20 20 -37 -3 -58 -12 -11 -31 -16 -53
-14 -31 3 -33 5 -36 46 l-3 42 40 0 c23 0 46 -7 55 -16z"/>
<path d="M10550 7863 c0 -5 20 -42 45 -83 39 -65 45 -82 45 -132 0 -55 1 -58
25 -58 24 0 25 3 25 57 0 48 6 67 45 134 25 43 45 81 45 84 0 3 -11 5 -25 5
-20 0 -31 -11 -56 -55 -17 -30 -32 -55 -34 -55 -2 0 -17 25 -34 55 -25 44 -36
55 -56 55 -14 0 -25 -3 -25 -7z"/>
<path d="M8173 7849 c-26 -14 -47 -61 -40 -89 3 -13 0 -20 -9 -20 -8 0 -14 -9
-14 -20 0 -13 7 -20 20 -20 14 0 20 -7 20 -24 0 -35 -10 -56 -26 -56 -8 0 -14
-9 -14 -20 0 -18 7 -20 80 -20 73 0 83 3 105 25 14 13 25 31 25 40 0 22 -33
19 -48 -5 -16 -26 -88 -30 -78 -4 3 9 6 27 6 40 0 19 5 24 25 24 18 0 25 5 25
20 0 15 -7 20 -29 20 -35 0 -45 12 -37 46 5 19 13 24 36 24 16 0 33 -7 38 -15
9 -18 42 -10 42 10 0 36 -84 65 -127 44z"/>
<path d="M2676 7807 c-17 -13 -17 -15 3 -55 24 -47 42 -53 64 -19 14 21 13 25
-14 55 -33 37 -30 36 -53 19z"/>
<path d="M2798 7686 c-23 -17 -23 -59 1 -80 21 -19 32 -11 50 36 8 21 6 29 -8
42 -21 19 -21 19 -43 2z"/>
<path d="M9630 7345 c0 -57 4 -95 10 -95 6 0 10 14 10 32 l0 32 35 -34 c41
-40 57 -35 22 6 l-25 29 20 27 c25 36 12 36 -24 1 l-28 -27 0 62 c0 35 -4 62
-10 62 -6 0 -10 -38 -10 -95z"/>
<path d="M8130 7369 c0 -59 11 -96 34 -111 19 -13 60 -9 84 8 19 13 22 24 22
90 0 43 -4 74 -10 74 -6 0 -10 -29 -10 -68 0 -72 -10 -92 -45 -92 -35 0 -45
20 -45 92 0 54 -3 68 -15 68 -12 0 -15 -13 -15 -61z"/>
<path d="M8838 7419 c-22 -12 -24 -31 -3 -23 13 5 15 -6 15 -70 0 -61 3 -76
15 -76 12 0 15 17 15 90 0 93 -4 101 -42 79z"/>
<path d="M8947 7412 c-22 -24 -23 -110 -1 -140 17 -25 51 -29 78 -9 27 20 34
108 12 142 -20 30 -65 34 -89 7z m67 -14 c18 -26 21 -80 6 -109 -12 -21 -40
-25 -58 -7 -18 18 -15 103 4 122 21 21 30 20 48 -6z"/>
<path d="M9140 7423 c0 -28 53 -174 62 -171 6 2 20 33 29 67 10 35 20 66 23
68 2 3 14 -27 26 -67 12 -39 26 -70 32 -68 10 4 58 140 58 166 0 6 -4 12 -9
12 -5 0 -17 -29 -26 -65 -10 -36 -21 -65 -25 -65 -4 0 -15 29 -25 65 -9 36
-23 65 -30 65 -6 0 -21 -32 -32 -72 -22 -77 -23 -77 -48 15 -9 31 -21 57 -26
57 -5 0 -9 -3 -9 -7z"/>
<path d="M10200 7339 l0 -92 52 5 c93 9 129 88 69 149 -24 24 -38 29 -75 29
l-46 0 0 -91z m109 45 c12 -15 21 -35 21 -46 0 -30 -45 -68 -80 -68 l-30 0 0
70 0 70 34 0 c25 0 40 -7 55 -26z"/>
<path d="M8550 7400 c0 -11 -7 -23 -16 -27 -15 -5 -15 -7 0 -15 11 -6 16 -23
16 -58 0 -28 5 -50 10 -50 6 0 10 24 10 54 0 44 4 55 18 59 16 4 16 5 0 6 -11
1 -18 9 -18 20 0 11 -4 23 -10 26 -5 3 -10 -3 -10 -15z"/>
<path d="M9760 7410 c0 -5 5 -10 10 -10 6 0 10 5 10 10 0 6 -4 10 -10 10 -5 0
-10 -4 -10 -10z"/>
<path d="M8351 7371 c-8 -5 -20 -7 -28 -4 -10 4 -13 -14 -13 -86 0 -54 4 -91
10 -91 6 0 10 16 10 35 0 33 1 34 30 28 76 -15 99 99 25 121 -11 3 -26 2 -34
-3z m47 -23 c7 -7 12 -22 12 -34 0 -51 -72 -61 -78 -11 -6 47 36 75 66 45z"/>
<path d="M8652 7369 c-53 -20 -51 -101 3 -115 59 -15 104 41 72 90 -18 28 -44
36 -75 25z m53 -33 c21 -32 5 -66 -30 -66 -35 0 -51 34 -30 66 8 13 22 24 30
24 8 0 22 -11 30 -24z"/>
<path d="M9422 7369 c-53 -20 -51 -101 3 -115 59 -15 104 41 72 90 -18 28 -44
36 -75 25z m53 -33 c21 -32 5 -66 -30 -66 -35 0 -51 34 -30 66 8 13 22 24 30
24 8 0 22 -11 30 -24z"/>
<path d="M9581 7370 c-8 -4 -20 -6 -28 -3 -10 4 -13 -9 -13 -56 0 -34 4 -61
10 -61 6 0 10 20 10 44 0 34 5 47 23 59 23 16 21 32 -2 17z"/>
<path d="M9865 7370 c-11 -4 -26 -5 -32 -3 -10 4 -13 -11 -13 -56 0 -71 17
-83 22 -15 3 50 22 72 52 61 12 -5 16 -19 16 -57 0 -27 5 -50 10 -50 11 0 13
90 2 106 -11 16 -35 22 -57 14z"/>
<path d="M10003 7369 c-71 -26 -41 -130 34 -116 20 4 24 1 21 -17 -2 -16 -11
-21 -38 -23 -54 -2 -56 -3 -40 -13 23 -15 67 -12 84 6 21 20 24 168 4 161 -7
-2 -20 -1 -28 3 -8 4 -25 4 -37 -1z m45 -18 c8 -5 12 -22 10 -42 -2 -29 -7
-34 -30 -37 -22 -3 -30 2 -40 22 -9 22 -8 29 7 46 20 22 33 24 53 11z"/>
<path d="M10413 7369 c-23 -8 -43 -38 -43 -63 0 -32 37 -56 82 -54 l43 2 -3
59 c-3 38 -8 57 -15 54 -7 -2 -19 -1 -27 3 -8 4 -25 4 -37 -1z m45 -18 c8 -5
12 -22 10 -42 -2 -29 -7 -34 -30 -37 -22 -3 -30 2 -40 22 -9 22 -8 29 7 46 20
22 33 24 53 11z"/>
<path d="M10692 7369 c-33 -13 -29 -48 8 -60 41 -15 41 -43 0 -37 -38 6 -51
-9 -16 -18 64 -16 97 43 35 65 -37 13 -34 37 5 34 14 -1 26 2 26 6 0 13 -34
19 -58 10z"/>
<path d="M9760 7310 c0 -33 4 -60 10 -60 6 0 10 27 10 60 0 33 -4 60 -10 60
-6 0 -10 -27 -10 -60z"/>
<path d="M10530 7365 c0 -3 11 -28 25 -55 24 -47 24 -52 10 -80 -17 -34 -18
-40 -6 -40 7 0 81 158 81 174 0 3 -4 6 -8 6 -5 0 -17 -19 -26 -42 l-18 -43
-21 43 c-18 36 -37 55 -37 37z"/>
<path d="M3825 7327 c-10 -17 -18 -42 -19 -56 -1 -23 -6 -27 -46 -32 -58 -7
-100 -28 -100 -49 0 -9 -5 -21 -12 -28 -9 -9 -6 -17 12 -37 27 -29 28 -28 -27
-43 -37 -11 -42 -16 -45 -45 -2 -26 -11 -36 -45 -55 l-43 -23 15 -36 c15 -35
14 -37 -10 -63 -30 -31 -31 -38 -6 -64 18 -21 18 -22 -1 -76 -11 -30 -20 -66
-22 -80 -1 -14 -15 -44 -30 -67 l-29 -43 23 -18 23 -19 -27 -39 c-26 -38 -26
-39 -6 -48 27 -12 25 -44 -5 -67 -34 -28 -23 -50 18 -38 40 11 37 12 37 -5 0
-8 -21 -33 -47 -56 -50 -44 -54 -53 -72 -175 -5 -33 -25 -100 -45 -149 -20
-49 -36 -92 -36 -97 0 -13 33 -11 105 7 75 19 90 45 56 93 l-20 28 24 11 c20
9 25 19 25 51 0 22 6 44 15 51 10 8 15 30 15 62 0 30 8 65 21 89 11 23 18 48
15 56 -4 9 7 28 26 47 39 39 38 69 -5 156 -39 79 -33 123 16 125 13 1 39 13
59 28 19 15 47 27 62 27 l26 0 -34 -52 c-29 -44 -36 -66 -41 -128 -6 -68 -5
-77 13 -94 20 -18 21 -17 27 18 4 20 5 43 1 51 -6 16 12 65 24 65 3 0 11 -5
18 -12 9 -9 15 -9 24 0 19 19 26 15 46 -31 14 -31 25 -43 38 -42 35 2 44 15
44 66 0 28 5 60 11 72 8 13 11 71 10 156 l-2 136 35 72 c19 40 38 88 42 108 8
42 45 75 85 75 33 0 63 26 54 49 -4 9 -17 51 -31 93 -14 42 -30 81 -37 86 -7
5 -55 12 -108 14 l-96 5 -18 -30z"/>
<path d="M3144 7258 c-23 -12 -48 -34 -59 -54 -16 -31 -17 -35 -2 -58 14 -21
23 -24 72 -23 39 1 60 -4 72 -15 15 -16 13 -18 -29 -28 -47 -12 -68 -37 -68
-81 0 -18 4 -20 30 -14 31 7 39 -2 19 -22 -7 -7 -23 -8 -47 -2 -57 13 -68 11
-87 -18 -17 -25 -17 -27 0 -39 10 -7 42 -18 72 -24 51 -11 57 -10 119 19 l65
31 29 -22 c16 -12 36 -18 45 -14 21 8 48 72 40 97 -5 15 -1 19 19 19 22 0 26
4 26 31 0 39 -36 99 -58 99 -10 0 -33 -4 -51 -10 -43 -12 -52 -5 -75 59 -17
49 -56 92 -80 90 -6 0 -29 -9 -52 -21z"/>
<path d="M7270 7160 c-124 -21 -251 -101 -325 -205 -74 -103 -89 -151 -89
-290 -1 -136 13 -193 70 -282 69 -108 190 -195 313 -223 77 -18 231 -8 301 19
128 51 240 164 291 296 76 194 18 429 -139 565 -115 100 -275 145 -422 120z
m232 -188 c70 -35 130 -93 163 -158 24 -49 30 -74 33 -146 4 -81 2 -93 -26
-152 -36 -77 -98 -140 -172 -175 -76 -36 -209 -37 -287 -2 -67 30 -153 120
-179 186 -30 78 -27 204 7 275 38 81 81 125 162 165 69 35 76 36 162 33 69 -2
101 -8 137 -26z"/>
<path d="M7274 6831 c-45 -21 -85 -67 -103 -120 -30 -90 12 -187 100 -231 52
-27 137 -27 189 0 45 23 48 30 20 55 -18 16 -22 17 -54 1 -81 -38 -162 -2
-186 83 -30 109 80 203 180 154 l39 -20 21 22 c11 12 20 25 20 29 0 4 -19 16
-42 26 -54 25 -131 25 -184 1z"/>
<path d="M5070 6935 c-60 -26 -138 -32 -172 -14 -17 9 -24 8 -33 -5 -7 -9 -17
-16 -24 -16 -6 0 -30 -17 -52 -37 -30 -27 -56 -41 -93 -48 l-51 -10 -5 -50
c-3 -31 -16 -65 -32 -89 l-27 -40 35 -23 c22 -16 42 -22 55 -18 12 4 31 0 46
-10 21 -14 39 -16 91 -11 58 5 70 10 102 41 20 19 45 35 57 35 13 0 37 19 63
50 41 49 43 50 66 35 36 -23 59 -18 89 20 16 21 39 38 56 42 23 4 29 11 29 32
0 34 -10 47 -40 54 -44 11 -90 46 -90 67 0 24 -1 24 -70 -5z"/>
<path d="M4160 6860 c0 -27 5 -50 10 -50 6 0 10 9 10 20 0 13 7 20 20 20 11 0
20 5 20 10 0 6 -9 10 -20 10 -11 0 -20 6 -20 14 0 9 7 13 20 11 11 -2 22 0 25
6 4 5 -10 9 -29 9 l-36 0 0 -50z"/>
<path d="M4248 6904 c-11 -10 -10 -94 1 -94 5 0 12 10 15 23 l6 22 19 -22 c29
-34 46 -28 21 8 -21 29 -21 31 -5 50 10 10 13 19 8 19 -6 0 -16 -7 -23 -15
-16 -19 -28 -19 -32 1 -2 9 -6 12 -10 8z"/>
<path d="M2701 6831 c-67 -65 -67 -76 -1 -71 51 4 97 77 67 107 -12 13 -21 8
-66 -36z"/>
<path d="M8465 6740 c-50 -24 -75 -65 -75 -120 0 -83 56 -140 140 -140 90 0
146 63 138 152 -6 55 -33 92 -85 114 -44 19 -71 18 -118 -6z m129 -56 c35 -35
36 -92 2 -131 -32 -37 -93 -39 -130 -4 -36 34 -37 101 -1 136 34 35 93 34 129
-1z"/>
<path d="M3337 6689 c-43 -32 -86 -63 -95 -68 -15 -9 -15 -12 6 -26 31 -22 28
-40 -12 -63 -25 -15 -38 -32 -45 -59 -14 -50 -14 -54 8 -82 25 -33 61 -21 61
19 0 21 7 32 26 42 19 9 33 30 49 74 12 34 38 84 58 112 24 32 37 61 37 81 0
17 -3 31 -7 30 -5 0 -43 -27 -86 -60z"/>
<path d="M8100 6615 l0 -135 25 0 c25 0 25 1 25 91 0 108 1 108 80 -11 46 -68
59 -80 82 -80 l28 0 0 135 0 135 -25 0 c-24 0 -24 -2 -27 -92 l-3 -93 -65 93
c-55 79 -68 92 -92 92 l-28 0 0 -135z"/>
<path d="M8690 6730 c0 -17 7 -20 40 -20 l40 0 0 -115 0 -115 25 0 25 0 0 115
0 115 45 0 c38 0 45 3 45 20 0 19 -7 20 -110 20 -103 0 -110 -1 -110 -20z"/>
<path d="M9063 6668 c-17 -46 -40 -107 -52 -135 l-21 -53 26 0 c19 0 28 7 35
30 11 29 13 30 70 30 58 0 60 -1 70 -30 8 -22 17 -30 36 -30 28 0 31 -10 -31
150 -42 108 -46 115 -74 118 -28 3 -30 0 -59 -80z m96 -75 c1 -9 -13 -13 -39
-13 -22 0 -40 2 -40 4 0 2 6 19 14 37 7 19 16 43 20 54 7 17 11 13 26 -25 11
-25 19 -51 19 -57z"/>
<path d="M9260 6741 c0 -5 21 -66 46 -135 44 -117 49 -126 73 -126 24 0 29 9
70 123 24 67 46 128 49 135 2 7 -5 12 -21 12 -22 0 -28 -9 -57 -92 -18 -51
-36 -96 -39 -100 -4 -4 -22 37 -41 92 -30 87 -38 100 -57 100 -13 0 -23 -4
-23 -9z"/>
<path d="M9563 6668 c-17 -46 -40 -107 -52 -135 l-21 -53 26 0 c19 0 28 7 35
30 11 29 13 30 70 30 58 0 60 -1 70 -30 8 -22 17 -30 36 -30 28 0 31 -10 -31
150 -42 108 -46 115 -74 118 -28 3 -30 0 -59 -80z m96 -75 c1 -9 -13 -13 -39
-13 -22 0 -40 2 -40 4 0 2 6 19 14 37 7 19 16 43 20 54 7 17 11 13 26 -25 11
-25 19 -51 19 -57z"/>
<path d="M9790 6615 l0 -135 25 0 25 0 0 135 0 135 -25 0 -25 0 0 -135z"/>
<path d="M9900 6615 l0 -135 116 0 115 0 10 30 c11 29 13 30 70 30 58 0 60 -1
70 -30 8 -22 17 -30 36 -30 28 0 31 -10 -31 150 -41 108 -46 115 -73 118 -29
3 -30 1 -79 -129 -27 -72 -50 -124 -52 -115 -3 13 -16 16 -68 16 l-64 0 0 115
0 115 -25 0 -25 0 0 -135z m349 -22 c1 -9 -13 -13 -39 -13 -22 0 -40 2 -40 4
0 2 6 19 14 37 7 19 16 43 20 54 7 17 11 13 26 -25 11 -25 19 -51 19 -57z"/>
<path d="M10380 6614 l0 -136 84 3 c65 3 89 8 105 23 28 25 28 79 1 104 -18
17 -19 20 -5 32 8 7 15 27 15 46 0 49 -28 64 -122 64 l-78 0 0 -136z m145 61
c0 -29 -2 -30 -47 -33 l-48 -3 0 36 0 36 48 -3 c45 -3 47 -4 47 -33z m-1 -81
c19 -7 21 -45 4 -62 -7 -7 -31 -12 -55 -12 l-43 0 0 40 c0 40 0 40 39 40 22 0
46 -3 55 -6z"/>
<path d="M10640 6615 l0 -135 90 0 c83 0 90 1 90 20 0 18 -7 20 -65 20 l-65 0
0 115 0 115 -25 0 -25 0 0 -135z"/>
<path d="M10850 6615 l0 -135 90 0 c83 0 90 1 90 20 0 18 -7 20 -65 20 l-65 0
0 40 0 40 55 0 c48 0 55 2 55 20 0 18 -7 20 -55 20 l-55 0 0 35 0 35 65 0 c58
0 65 2 65 20 0 19 -7 20 -90 20 l-90 0 0 -135z"/>
<path d="M4104 6625 c-14 -21 -15 -31 -6 -50 10 -21 18 -25 52 -23 35 1 40 4
40 25 0 18 -5 23 -27 23 -25 0 -25 -1 -9 -13 18 -13 18 -14 1 -21 -19 -7 -45
9 -45 28 0 7 6 21 14 31 12 17 16 17 30 6 18 -15 32 -9 21 8 -12 20 -54 12
-71 -14z"/>
<path d="M3085 6536 c-16 -8 -43 -27 -58 -44 -18 -19 -35 -28 -47 -25 -15 4
-26 -9 -54 -65 -19 -38 -33 -71 -31 -74 2 -2 -2 -25 -10 -51 -8 -26 -10 -47
-5 -47 6 0 28 16 50 36 28 26 40 44 40 64 0 31 27 49 37 25 3 -9 0 -29 -7 -46
-11 -27 -10 -32 9 -53 21 -23 22 -26 7 -49 -15 -22 -15 -25 -1 -37 24 -20 109
8 113 37 2 16 10 21 35 19 45 -2 46 24 3 94 -41 66 -42 70 -20 133 14 42 14
48 -1 71 -20 30 -20 30 -60 12z"/>
<path d="M11090 6460 c0 -42 3 -50 19 -50 22 0 31 19 31 66 0 30 -3 34 -25 34
-23 0 -25 -3 -25 -50z"/>
<path d="M4780 6370 l0 -50 35 0 c19 0 35 5 35 10 0 6 -11 10 -25 10 -16 0
-25 6 -25 15 0 9 10 15 26 15 15 0 23 4 18 11 -3 6 -15 9 -25 6 -12 -3 -19 0
-19 8 0 8 12 16 28 18 22 3 20 4 -10 6 l-38 1 0 -50z"/>
<path d="M4870 6369 c0 -31 4 -48 10 -44 6 3 10 15 10 26 0 12 7 19 20 19 15
0 20 -7 20 -26 0 -14 4 -23 10 -19 12 8 13 95 1 95 -5 0 -11 -9 -14 -20 -6
-23 -37 -17 -37 6 0 8 -4 14 -10 14 -5 0 -10 -23 -10 -51z"/>
<path d="M8300 6200 l0 -140 25 0 c24 0 24 1 27 98 l3 97 68 -97 c55 -78 73
-98 93 -98 l24 0 0 140 0 140 -25 0 c-25 0 -25 0 -25 -97 l0 -97 -67 97 c-58
84 -71 97 -95 97 l-28 0 0 -140z"/>
<path d="M8653 6320 c-91 -55 -82 -206 14 -247 78 -32 161 -3 199 69 30 58 6
145 -50 179 -42 25 -121 25 -163 -1z m122 -32 c72 -33 71 -139 -2 -173 -65
-31 -133 13 -133 85 0 76 67 119 135 88z"/>
<path d="M9020 6200 l0 -140 68 0 c122 1 182 47 182 142 0 55 -30 105 -75 124
-19 8 -66 14 -105 14 l-70 0 0 -140z m177 65 c32 -36 31 -98 0 -129 -24 -24
-97 -43 -117 -31 -11 7 -14 178 -2 189 4 4 27 6 52 3 32 -4 51 -13 67 -32z"/>
<path d="M9320 6200 l0 -140 95 0 c88 0 95 2 95 20 0 17 -8 19 -67 22 l-68 3
-3 37 -3 37 58 3 c45 2 59 7 61 20 3 14 -6 17 -55 20 l-58 3 -3 38 -3 37 65 0
c59 0 66 2 66 20 0 19 -7 20 -90 20 l-90 0 0 -140z"/>
<path d="M9560 6200 l0 -140 90 0 c83 0 90 2 90 20 0 16 -8 19 -62 22 l-63 3
-3 118 -3 117 -24 0 -25 0 0 -140z"/>
<path d="M9770 6200 l0 -140 25 0 25 0 0 140 0 140 -25 0 -25 0 0 -140z"/>
<path d="M9914 6200 c48 -132 53 -140 77 -140 25 0 30 8 72 123 25 67 49 130
53 140 6 16 2 18 -21 15 -26 -3 -31 -11 -66 -108 -33 -94 -38 -102 -46 -80 -6
14 -23 62 -39 108 -26 75 -31 82 -55 82 l-27 0 52 -140z"/>
<path d="M10150 6200 l0 -140 95 0 c88 0 95 2 95 20 0 17 -8 19 -67 22 l-68 3
-3 37 -3 37 58 3 c45 2 59 7 61 20 3 14 -6 17 -55 20 l-58 3 -3 38 -3 37 65 0
c59 0 66 2 66 20 0 19 -7 20 -90 20 l-90 0 0 -140z"/>
<path d="M10390 6200 l0 -140 25 0 c24 0 25 3 25 55 0 71 15 71 66 0 33 -47
44 -55 72 -55 l32 0 -44 57 -45 56 32 16 c42 21 57 70 33 106 -23 34 -54 45
-132 45 l-64 0 0 -140z m144 84 c21 -20 20 -37 -3 -58 -12 -11 -31 -16 -53
-14 -31 3 -33 5 -36 46 l-3 42 40 0 c23 0 46 -7 55 -16z"/>
<path d="M10620 6333 c0 -5 20 -42 45 -83 39 -65 45 -82 45 -132 0 -55 1 -58
25 -58 24 0 25 3 25 57 0 48 6 67 45 134 25 43 45 81 45 84 0 3 -11 5 -25 5
-20 0 -31 -11 -56 -55 -17 -30 -32 -55 -34 -55 -2 0 -17 25 -34 55 -25 44 -36
55 -56 55 -14 0 -25 -3 -25 -7z"/>
<path d="M3617 6250 c-57 -36 -74 -66 -59 -107 8 -23 7 -32 -5 -39 -13 -8 -13
-15 -1 -53 11 -36 22 -48 63 -72 31 -18 61 -28 80 -27 27 3 30 6 27 34 -2 20
2 33 11 37 8 3 17 17 21 32 5 20 0 34 -24 63 -24 29 -30 46 -30 83 0 88 -11
95 -83 49z"/>
<path d="M4458 6164 c-4 -52 9 -71 15 -22 l3 33 9 -33 c9 -37 26 -38 36 -1 7
24 7 24 8 -3 2 -50 21 -29 21 22 0 61 -23 69 -37 13 l-10 -38 -8 38 c-10 53
-32 48 -37 -9z"/>
<path d="M4570 6160 c0 -43 3 -50 20 -50 11 0 20 -1 20 -2 0 -2 -11 -25 -25
-52 -39 -77 -31 -162 21 -232 31 -42 116 -84 169 -84 60 0 143 45 180 98 27
40 30 51 30 122 0 72 -3 82 -31 122 -63 86 -180 116 -276 69 -24 -11 -54 -21
-66 -21 -19 0 -22 6 -22 40 0 22 -4 40 -10 40 -5 0 -10 -22 -10 -50z m283 -24
c191 -82 131 -369 -78 -370 -106 0 -195 89 -195 196 0 64 55 147 115 174 39
17 117 18 158 0z"/>
<path d="M4732 6028 c-11 -29 -29 -77 -41 -105 -20 -50 -20 -53 -2 -53 10 0
23 11 29 25 10 21 19 25 52 25 33 0 42 -4 52 -25 6 -14 19 -25 30 -25 10 0 18
1 18 3 0 1 -17 47 -38 102 -30 79 -42 101 -59 103 -17 3 -25 -6 -41 -50z m67
-70 c1 -5 -12 -8 -29 -8 -35 0 -34 -3 -14 46 l17 39 13 -35 c7 -19 13 -38 13
-42z"/>
<path d="M5163 6143 c13 -3 17 -15 17 -49 0 -28 4 -43 10 -39 6 3 10 24 10 45
0 28 5 40 18 43 9 3 -3 5 -28 5 -25 0 -37 -2 -27 -5z"/>
<path d="M5240 6101 c0 -47 2 -51 23 -51 39 0 59 22 55 60 -3 32 -6 35 -40 38
l-38 3 0 -50z m55 4 c0 -20 -6 -31 -17 -33 -15 -3 -18 4 -18 33 0 29 3 36 18
33 11 -2 17 -13 17 -33z"/>
<path d="M4068 6054 c-11 -10 -10 -94 1 -94 5 0 12 10 15 23 l6 22 19 -22 c28
-33 46 -28 22 5 -19 27 -19 30 -4 45 26 26 6 33 -21 8 l-24 -23 -4 22 c-2 12
-6 18 -10 14z"/>
<path d="M4178 6013 c-9 -26 -14 -50 -11 -53 3 -3 8 1 10 8 3 6 15 12 28 12
13 0 25 -6 28 -12 2 -7 7 -10 11 -7 9 9 -24 99 -38 99 -6 0 -19 -21 -28 -47z
m36 2 c3 -9 0 -15 -9 -15 -9 0 -12 6 -9 15 4 8 7 15 9 15 2 0 5 -7 9 -15z"/>
<path d="M2366 5932 l-18 -39 -43 10 c-93 21 -125 -22 -91 -128 20 -65 20 -75
-5 -104 -19 -23 -20 -23 -33 -6 -10 14 -11 28 -3 56 7 31 5 48 -9 84 l-19 45
-80 -1 c-56 -1 -85 -6 -97 -17 -16 -14 -20 -13 -38 3 -19 17 -21 17 -54 -9
-19 -14 -43 -26 -54 -26 -10 0 -37 -14 -60 -32 -36 -28 -42 -37 -42 -70 0 -38
0 -38 -41 -38 -35 0 -40 -2 -34 -17 22 -50 44 -121 45 -140 0 -17 -5 -21 -27
-20 -24 2 -28 -3 -40 -54 l-14 -55 -53 9 c-48 9 -58 7 -97 -14 -52 -29 -68
-63 -48 -105 16 -33 54 -42 112 -26 29 8 38 6 72 -19 28 -21 50 -29 80 -29 54
0 105 -18 105 -36 0 -8 -21 -37 -46 -64 -37 -40 -54 -50 -90 -56 -27 -4 -60
-19 -89 -41 -51 -40 -49 -36 -34 -78 12 -31 7 -87 -10 -113 -6 -10 -15 -9 -44
8 -26 15 -49 21 -82 19 -40 -3 -49 1 -83 34 -21 20 -40 37 -43 37 -3 0 -20
-20 -37 -44 -45 -63 -65 -67 -112 -21 -22 21 -44 51 -51 66 -6 16 -14 29 -16
29 -3 0 -27 -12 -54 -27 l-48 -28 -34 33 c-24 23 -42 32 -67 32 -38 0 -211
-58 -222 -74 -18 -26 -6 -60 36 -107 39 -44 45 -55 48 -105 4 -64 -5 -93 -33
-115 -18 -13 -19 -18 -7 -43 l12 -29 81 7 c103 8 123 -3 106 -56 -10 -31 -17
-36 -62 -46 -28 -7 -65 -12 -82 -12 -39 0 -48 -6 -72 -47 -18 -30 -18 -32 4
-69 22 -37 18 -53 -16 -54 -7 0 -51 -14 -98 -32 l-85 -32 0 -46 c0 -25 4 -50
8 -56 9 -14 67 -30 145 -39 63 -7 60 -3 41 -64 -4 -13 3 -25 26 -41 31 -22 33
-22 66 -6 47 22 51 21 71 -18 10 -19 42 -53 72 -77 55 -42 55 -42 69 -21 13
21 23 22 132 22 l117 0 -5 -27 c-12 -63 -64 -103 -134 -103 -49 0 -106 -44
-119 -94 -6 -22 -24 -55 -41 -73 l-30 -31 18 -31 18 -30 -45 -48 c-25 -26 -51
-63 -58 -80 -9 -22 -24 -36 -47 -45 -19 -7 -45 -28 -60 -49 -20 -29 -35 -39
-65 -44 -38 -7 -89 -38 -89 -55 0 -5 14 -11 31 -15 24 -5 47 1 100 25 37 17
76 31 86 31 57 -2 200 -19 215 -25 23 -11 67 15 137 80 l60 55 7 -27 c4 -16 3
-29 -3 -31 -6 -2 -37 -23 -69 -47 -70 -52 -151 -78 -197 -65 -36 10 -150 10
-187 0 -15 -4 -26 -15 -28 -28 -2 -12 -12 -25 -23 -28 -11 -4 -40 -26 -64 -51
-35 -34 -44 -49 -40 -67 5 -18 0 -26 -19 -37 -33 -17 -33 -26 -1 -34 35 -9 31
-21 -10 -33 -30 -10 -36 -8 -48 10 -13 19 -14 19 -40 3 -23 -16 -32 -16 -81
-5 l-55 12 -48 -39 c-26 -22 -72 -57 -101 -79 -28 -21 -52 -42 -52 -46 0 -4
11 -14 25 -23 22 -15 34 -15 85 -5 44 8 67 8 91 0 47 -16 84 -14 160 11 59 19
72 20 96 9 l28 -13 -35 -30 c-63 -53 -121 -82 -182 -89 -48 -6 -66 -14 -107
-48 -26 -22 -54 -54 -61 -71 -11 -28 -9 -104 3 -117 3 -3 21 1 41 8 30 11 38
10 53 -2 36 -31 81 -42 112 -29 22 9 34 9 51 0 26 -14 59 -7 124 26 26 14 50
23 52 21 7 -7 -99 -76 -129 -83 -15 -3 -32 -16 -38 -28 -27 -51 -60 -75 -118
-82 -56 -6 -81 -18 -81 -37 0 -16 127 -1 217 26 89 26 79 26 189 -13 0 0 6 18
13 39 12 43 33 56 61 41 33 -18 31 -38 -11 -71 -32 -25 -51 -32 -102 -36 -80
-6 -134 -29 -153 -66 -14 -26 -14 -31 2 -48 22 -24 76 -25 114 -2 24 14 34 15
55 5 14 -7 44 -12 66 -12 34 0 43 5 57 30 9 16 20 30 23 30 4 0 17 -16 30 -35
22 -32 28 -35 74 -35 48 0 51 2 75 40 14 22 28 40 31 40 4 0 20 -16 36 -36
l29 -37 70 23 c38 12 78 32 89 45 13 15 36 26 67 30 58 9 114 45 192 124 l59
59 -22 38 c-17 28 -19 39 -10 45 17 10 102 -24 156 -63 l44 -32 39 44 c21 25
44 62 51 83 7 21 16 40 20 43 4 2 24 -3 43 -13 33 -15 37 -15 78 3 53 23 58
29 58 80 0 34 5 44 33 64 29 23 40 24 130 21 87 -2 102 0 140 21 47 26 92 26
107 0 27 -47 27 -47 72 -1 70 72 86 77 167 51 37 -12 85 -22 108 -22 36 0 43
4 72 45 l33 46 -36 46 c-20 26 -36 49 -36 52 0 3 27 26 61 51 70 52 87 92 96
225 5 73 9 84 41 124 51 62 76 175 66 291 -4 47 -6 124 -5 171 3 77 0 93 -28
158 -36 85 -36 90 -15 128 15 26 15 38 2 138 -13 92 -21 120 -51 170 -27 46
-39 82 -51 156 -9 53 -16 117 -16 143 0 29 -4 46 -12 46 -7 0 11 12 40 26 l52
26 34 -21 c18 -12 49 -21 67 -21 32 0 36 5 67 65 40 76 115 151 140 139 9 -4
32 -8 51 -8 41 1 70 34 71 80 0 25 -6 34 -29 44 -32 13 -42 35 -30 65 17 43
10 76 -23 105 -26 24 -29 31 -18 44 18 22 22 20 51 -22 17 -24 29 -57 34 -97
8 -66 18 -85 46 -85 17 0 19 8 16 88 -3 74 -8 97 -35 153 -18 36 -32 71 -32
76 0 6 -7 14 -16 17 -32 12 -62 5 -106 -24 -27 -18 -52 -28 -62 -24 -31 12
-15 49 33 74 20 10 49 32 64 48 28 29 28 31 12 56 -10 14 -28 29 -40 32 -12 3
-32 24 -45 47 -13 23 -36 58 -52 77 -18 22 -28 46 -28 67 0 22 -6 33 -18 38
-24 7 -42 66 -42 133 0 45 -3 52 -22 57 -13 3 -36 1 -53 -3 -20 -6 -41 -4 -64
5 -18 8 -64 17 -100 20 -64 5 -70 4 -149 -38 -74 -38 -84 -41 -106 -30 -13 8
-29 10 -35 7 -6 -4 -9 -1 -5 7 3 8 -13 44 -34 82 -30 52 -51 74 -88 96 -27 16
-52 29 -55 29 -3 0 -14 -17 -23 -38z m179 -251 c-4 -32 -12 -51 -20 -51 -7 0
-22 -3 -32 -6 -10 -3 -6 3 10 12 21 15 27 26 27 55 0 34 8 54 18 45 2 -3 1
-28 -3 -55z m-95 -67 c0 -2 -16 -4 -36 -4 -19 0 -33 4 -30 8 5 8 66 4 66 -4z
m-115 -106 c0 -24 3 -58 7 -75 6 -27 5 -33 -10 -33 -9 0 -30 -7 -47 -15 l-30
-15 24 20 c13 11 29 20 37 20 17 0 18 16 3 59 -9 25 -9 38 1 57 8 13 14 24 14
24 1 0 1 -19 1 -42z m-155 -193 c0 -7 -57 -35 -72 -35 -7 0 5 9 27 19 48 23
45 22 45 16z m-148 -60 c-2 -14 1 -32 8 -40 11 -13 10 -14 -4 -9 -17 6 -24 74
-7 74 4 0 6 -11 3 -25z m926 -44 c123 -63 148 -215 51 -312 -48 -48 -125 -68
-185 -49 -151 48 -192 224 -77 332 15 15 39 31 53 37 42 16 118 13 158 -8z
m-858 -60 c0 -9 -100 -55 -144 -65 -26 -6 -28 -5 -17 8 7 8 32 18 56 21 23 4
55 15 71 26 33 22 34 22 34 10z m-180 -115 c-15 -40 -12 -77 7 -98 21 -24 4
-23 -24 1 -28 23 -28 27 -3 87 21 49 38 57 20 10z m596 -134 c-15 -33 -22 -38
-42 -34 -13 2 -24 8 -24 12 0 4 10 5 23 3 18 -4 25 2 36 32 7 20 15 34 18 31
4 -3 -2 -23 -11 -44z m116 -26 c10 -19 10 -20 -6 -7 -9 8 -22 24 -28 35 -10
19 -10 20 6 7 9 -8 22 -24 28 -35z m-606 -90 c14 -4 24 -9 22 -12 -6 -6 -68
16 -68 24 0 4 -3 18 -5 32 -4 21 -3 20 9 -6 9 -20 25 -34 42 -38z m672 -30
c17 -24 43 -47 57 -50 21 -5 25 -12 25 -45 0 -35 25 -82 53 -102 5 -4 -2 -8
-16 -11 -21 -4 -26 0 -36 32 -6 21 -11 54 -11 74 0 33 -2 36 -28 36 -24 0 -32
8 -55 55 -15 30 -25 55 -24 55 2 0 18 -20 35 -44z m-544 -54 c33 -23 49 -27
110 -27 39 0 82 4 96 9 l25 8 -20 -20 c-16 -16 -34 -21 -85 -23 -80 -2 -151
30 -196 88 l-29 38 30 -23 c17 -12 48 -35 69 -50z m135 -662 c138 -70 147
-254 17 -334 -125 -78 -282 1 -294 147 -3 40 1 63 16 93 23 45 66 89 102 103
42 17 118 13 159 -9z"/>
<path d="M2799 5111 c-24 -24 -29 -38 -29 -76 0 -38 5 -52 29 -76 33 -33 92
-40 127 -15 27 20 14 28 -23 14 -86 -32 -149 76 -83 142 22 22 60 26 90 10 12
-6 21 -7 25 -1 8 15 -29 31 -70 31 -27 0 -44 -8 -66 -29z"/>
<path d="M2139 3941 c-24 -24 -29 -38 -29 -76 0 -38 5 -52 29 -76 33 -33 92
-40 127 -15 27 20 14 28 -23 14 -86 -32 -149 76 -83 142 22 22 60 26 90 10 12
-6 21 -7 25 -1 8 15 -29 31 -70 31 -27 0 -44 -8 -66 -29z"/>
<path d="M5890 5845 c-46 -21 -87 -61 -112 -109 -30 -58 -23 -159 15 -212 43
-63 89 -88 167 -92 53 -3 75 0 107 16 153 79 165 284 22 379 -51 34 -145 42
-199 18z m174 -30 c140 -67 135 -281 -9 -346 -163 -74 -331 93 -256 256 47
102 159 140 265 90z"/>
<path d="M5917 5668 c-26 -57 -47 -106 -47 -110 0 -19 31 -5 40 17 8 22 15 25
58 25 42 0 50 -3 60 -25 11 -25 49 -37 39 -12 -31 78 -92 207 -97 207 -3 0
-27 -46 -53 -102z m67 3 c17 -33 13 -41 -22 -41 -19 0 -23 4 -17 18 4 9 10 25
12 35 7 23 10 22 27 -12z"/>
<path d="M5500 5690 c0 -27 5 -50 10 -50 6 0 10 17 10 38 l0 37 22 -37 c12
-21 26 -38 30 -38 4 0 8 23 8 50 0 53 -16 69 -22 23 l-4 -28 -14 28 c-22 44
-40 34 -40 -23z"/>
<path d="M5602 5693 c3 -48 3 -48 41 -51 21 -2 37 1 37 7 0 6 -13 11 -30 11
-40 0 -42 30 -2 31 25 1 26 1 4 7 -33 10 -31 26 4 33 25 6 24 7 -14 8 l-43 1
3 -47z"/>
<path d="M4450 5630 c-39 -39 -18 -92 36 -88 30 2 34 5 34 29 0 18 -5 27 -15
25 -18 -3 -32 -16 -17 -16 7 0 12 -4 12 -10 0 -13 -37 -13 -45 1 -12 19 4 59
24 59 11 0 21 -6 24 -12 2 -7 8 -9 13 -5 9 8 -21 37 -38 37 -4 0 -17 -9 -28
-20z"/>
<path d="M4330 5590 c0 -49 1 -50 29 -50 35 0 61 23 61 54 0 31 -19 46 -57 46
-33 0 -33 0 -33 -50z m63 18 c14 -22 1 -48 -23 -48 -15 0 -20 7 -20 28 0 44
22 54 43 20z"/>
<path d="M5610 5275 l0 -54 33 6 c37 7 47 18 47 55 0 29 -23 48 -59 48 -19 0
-21 -6 -21 -55z m58 3 c-2 -22 -9 -34 -20 -36 -15 -3 -18 4 -18 32 0 30 4 36
21 36 17 0 20 -5 17 -32z"/>
<path d="M5710 5280 c0 -27 5 -50 10 -50 6 0 10 9 10 20 0 13 7 20 20 20 13 0
20 -7 20 -20 0 -11 5 -20 10 -20 6 0 10 23 10 50 0 28 -4 50 -10 50 -5 0 -10
-9 -10 -20 0 -13 -7 -20 -20 -20 -13 0 -20 7 -20 20 0 11 -4 20 -10 20 -5 0
-10 -22 -10 -50z"/>
<path d="M5902 5318 c-20 -20 -13 -39 18 -49 17 -6 30 -15 30 -20 0 -13 -34
-11 -48 3 -9 9 -12 8 -12 -5 0 -24 47 -34 67 -14 20 19 10 47 -16 47 -21 0
-37 17 -27 28 4 3 16 1 26 -6 16 -10 20 -10 20 2 0 8 -7 17 -16 20 -22 8 -28
8 -42 -6z"/>
<path d="M5990 5274 c0 -34 4 -53 10 -49 6 3 10 13 10 21 0 21 27 17 33 -6 10
-37 25 -21 25 25 -1 50 -5 55 -48 60 l-30 4 0 -55z m53 21 c1 -5 -6 -11 -15
-13 -11 -2 -18 3 -18 13 0 17 30 18 33 0z"/>
<path d="M4963 5212 c-24 -15 -26 -59 -4 -81 12 -12 25 -21 29 -21 15 0 47 28
40 36 -4 4 -15 1 -23 -6 -22 -18 -50 9 -40 39 7 23 34 28 53 9 7 -7 12 -8 12
-2 0 27 -41 43 -67 26z"/>
<path d="M5065 5175 c-9 -26 -14 -49 -10 -53 4 -4 10 -1 12 6 5 14 43 16 43 2
0 -5 7 -10 15 -10 13 0 12 7 -3 47 -9 25 -22 48 -28 50 -6 2 -19 -17 -29 -42z
m35 -5 c0 -5 -5 -10 -11 -10 -5 0 -7 5 -4 10 3 6 8 10 11 10 2 0 4 -4 4 -10z"/>
<path d="M5973 5039 c11 -7 17 -22 17 -49 0 -22 5 -40 10 -40 6 0 10 20 10 44
0 34 4 46 18 49 9 3 -3 5 -28 6 -35 0 -41 -2 -27 -10z"/>
<path d="M6053 5034 c-7 -18 20 -44 44 -44 7 0 13 -5 13 -11 0 -7 -11 -9 -31
-5 -22 4 -29 2 -26 -7 2 -6 19 -12 38 -12 27 0 35 4 37 21 2 17 -5 24 -29 33
-25 9 -30 14 -21 23 9 9 15 9 24 0 17 -17 29 -15 22 3 -8 21 -63 20 -71 -1z"/>
<path d="M5570 4944 l0 -56 32 6 c37 7 48 20 48 58 0 29 -23 48 -59 48 -19 0
-21 -6 -21 -56z m55 1 c0 -20 -6 -31 -17 -33 -15 -3 -18 4 -18 33 0 29 3 36
18 33 11 -2 17 -13 17 -33z"/>
<path d="M5670 4946 c0 -55 0 -56 29 -56 17 0 33 5 36 10 4 6 -5 10 -19 10
-24 0 -26 4 -26 39 0 22 -4 43 -10 46 -6 4 -10 -15 -10 -49z"/>
<path d="M3615 4964 c-20 -10 -37 -31 -49 -61 -12 -29 -33 -55 -57 -72 -49
-34 -66 -71 -71 -151 l-3 -65 28 3 c16 2 35 -2 42 -8 23 -19 119 31 135 70 7
18 33 57 57 88 47 61 53 90 24 116 -15 14 -17 24 -11 51 4 19 5 36 2 39 -10
11 -67 5 -97 -10z"/>
<path d="M5100 4650 c0 -49 1 -50 29 -50 17 0 33 5 36 10 4 6 -5 10 -19 10
-24 0 -26 4 -26 40 0 22 -4 40 -10 40 -5 0 -10 -22 -10 -50z"/>
<path d="M5195 4664 c-23 -55 -20 -68 9 -49 21 14 25 14 36 0 23 -28 28 -15
12 35 -9 28 -22 50 -29 50 -7 0 -20 -16 -28 -36z m31 -21 c-10 -10 -19 5 -10
18 6 11 8 11 12 0 2 -7 1 -15 -2 -18z"/>
<path d="M6210 4553 c0 -5 7 -17 15 -27 8 -11 15 -30 15 -43 0 -13 5 -23 10
-23 6 0 10 8 10 18 0 10 7 27 15 38 8 10 15 25 15 32 0 20 -16 14 -27 -10
l-10 -23 -12 23 c-11 21 -31 31 -31 15z"/>
<path d="M6322 4548 c-26 -26 -4 -98 29 -98 29 0 49 22 49 53 0 38 -15 57 -45
57 -12 0 -26 -5 -33 -12z m61 -28 c7 -26 -16 -55 -37 -47 -16 6 -22 47 -9 60
13 14 41 6 46 -13z"/>
<path d="M5812 4534 c-24 -16 -28 -44 -12 -75 16 -28 80 -23 80 7 0 23 -25 40
-35 24 -4 -6 -1 -10 4 -10 6 0 11 -5 11 -11 0 -6 -10 -9 -22 -7 -17 2 -24 11
-26 31 -4 32 20 46 43 27 9 -7 19 -10 23 -6 6 7 -24 36 -38 36 -3 0 -16 -7
-28 -16z"/>
<path d="M5690 4490 c0 -27 5 -50 10 -50 6 0 10 11 10 25 0 18 5 25 20 25 15
0 20 -7 20 -25 0 -14 5 -25 10 -25 6 0 10 23 10 50 0 28 -4 50 -10 50 -5 0
-10 -9 -10 -20 0 -13 -7 -20 -20 -20 -13 0 -20 7 -20 20 0 11 -4 20 -10 20 -5
0 -10 -22 -10 -50z"/>
<path d="M5390 4459 l0 -50 38 3 c35 3 37 5 38 38 1 45 -11 60 -47 60 -28 0
-29 -2 -29 -51z m60 21 c0 -5 -9 -10 -20 -10 -11 0 -20 5 -20 10 0 6 9 10 20
10 11 0 20 -4 20 -10z m0 -45 c0 -8 -9 -15 -20 -15 -11 0 -20 7 -20 15 0 8 9
15 20 15 11 0 20 -7 20 -15z"/>
<path d="M5490 4460 l0 -51 36 3 c27 2 39 9 45 24 12 34 -11 68 -49 72 l-32 3
0 -51z m64 14 c8 -20 -11 -54 -29 -54 -10 0 -15 11 -15 35 0 28 4 35 19 35 10
0 22 -7 25 -16z"/>
<path d="M4420 4280 c0 -27 5 -50 10 -50 6 0 10 9 10 20 0 13 7 20 20 20 11 0
20 5 20 10 0 6 -9 10 -20 10 -11 0 -20 5 -20 10 0 6 9 10 19 10 11 0 23 5 26
10 4 6 -8 10 -29 10 l-36 0 0 -50z"/>
<path d="M4505 4313 c5 -10 13 -33 19 -50 11 -35 26 -44 26 -18 0 9 7 30 16
46 18 36 9 53 -12 24 -14 -19 -16 -19 -25 -2 -6 9 -15 17 -21 17 -6 0 -7 -7
-3 -17z"/>
<path d="M5270 4259 l0 -50 38 3 c35 3 37 5 38 38 1 45 -11 60 -47 60 -28 0
-29 -2 -29 -51z m60 21 c0 -5 -9 -10 -20 -10 -11 0 -20 5 -20 10 0 6 9 10 20
10 11 0 20 -4 20 -10z m0 -45 c0 -8 -9 -15 -20 -15 -11 0 -20 7 -20 15 0 8 9
15 20 15 11 0 20 -7 20 -15z"/>
<path d="M5370 4259 l0 -50 38 3 c35 3 37 5 38 38 1 45 -11 60 -47 60 -28 0
-29 -2 -29 -51z m60 21 c0 -5 -9 -10 -20 -10 -11 0 -20 5 -20 10 0 6 9 10 20
10 11 0 20 -4 20 -10z m0 -45 c0 -8 -9 -15 -20 -15 -11 0 -20 7 -20 15 0 8 9
15 20 15 11 0 20 -7 20 -15z"/>
<path d="M4608 4285 c-4 -4 -5 -12 -2 -16 8 -13 334 -11 334 1 0 6 -31 10 -72
10 -40 0 -113 3 -163 6 -49 4 -93 3 -97 -1z"/>
<path d="M5020 4226 c0 -25 5 -48 10 -51 6 -3 10 3 10 14 0 14 8 21 28 23 21
2 27 8 27 28 0 22 -5 25 -37 28 l-38 3 0 -45z m58 16 c2 -7 -6 -12 -17 -12
-21 0 -27 11 -14 24 9 9 26 2 31 -12z"/>
<path d="M5120 4221 c0 -28 5 -51 10 -51 6 0 10 9 10 20 0 13 7 20 20 20 13 0
20 -7 20 -20 0 -11 4 -20 10 -20 5 0 8 21 7 48 -2 47 -2 47 -39 50 l-38 3 0
-50z m60 24 c0 -8 -9 -15 -20 -15 -11 0 -20 7 -20 15 0 8 9 15 20 15 11 0 20
-7 20 -15z"/>
<path d="M5820 4210 l0 -50 35 0 c19 0 35 5 35 10 0 6 -11 10 -25 10 -22 0
-25 4 -25 40 0 22 -4 40 -10 40 -5 0 -10 -22 -10 -50z"/>
<path d="M5903 4244 c-7 -18 20 -44 44 -44 7 0 13 -4 13 -9 0 -17 -21 -23 -36
-10 -17 14 -33 4 -17 -12 19 -19 68 -7 71 17 2 16 -4 24 -27 32 -17 6 -31 16
-31 21 0 14 27 14 35 1 10 -16 25 -12 19 5 -8 21 -63 20 -71 -1z"/>
<path d="M6564 4155 c0 -25 6 -45 11 -45 6 0 10 8 10 18 0 27 38 21 46 -8 9
-31 10 -27 14 33 3 48 -8 64 -18 26 -7 -25 -43 -22 -41 4 1 9 -4 17 -11 17 -9
0 -12 -14 -11 -45z"/>
<path d="M6672 4153 c3 -42 6 -48 27 -51 31 -5 51 21 51 65 0 45 -18 42 -22
-4 -2 -27 -8 -39 -20 -41 -15 -3 -18 4 -18 37 0 23 -5 41 -11 41 -6 0 -9 -19
-7 -47z"/>
<path d="M5480 4130 c0 -27 5 -50 10 -50 6 0 10 9 10 20 0 13 7 20 20 20 13 0
20 -7 20 -20 0 -11 5 -20 10 -20 6 0 10 23 10 50 0 28 -4 50 -10 50 -5 0 -10
-9 -10 -20 0 -13 -7 -20 -20 -20 -13 0 -20 7 -20 20 0 11 -4 20 -10 20 -5 0
-10 -22 -10 -50z"/>
<path d="M5580 4172 c0 -4 5 -13 12 -20 9 -9 9 -18 -1 -38 -15 -33 -6 -45 13
-18 14 18 15 18 21 2 4 -10 14 -18 21 -18 12 0 12 4 -1 24 -13 20 -14 29 -5
46 15 28 4 39 -13 15 -13 -16 -14 -16 -20 -1 -6 16 -27 23 -27 8z"/>
<path d="M4450 4094 c0 -25 22 -94 31 -94 9 0 19 26 20 53 0 16 4 13 13 -13 7
-19 17 -34 21 -33 11 2 36 85 29 92 -8 8 -24 -21 -25 -44 0 -14 -4 -10 -12 12
-14 39 -31 43 -35 8 -4 -28 -22 -24 -22 5 0 10 -4 22 -10 25 -5 3 -10 -1 -10
-11z"/>
<path d="M4587 4103 c-11 -10 -8 -91 2 -98 6 -3 11 12 13 32 l3 38 23 -38 c12
-21 27 -35 32 -32 13 8 13 95 0 95 -5 0 -10 -11 -10 -25 0 -29 -16 -33 -25 -6
-7 23 -29 43 -38 34z"/>
<path d="M5844 4045 c12 -49 26 -76 36 -70 5 3 10 15 10 26 0 10 5 19 10 19 6
0 10 -9 10 -19 0 -31 19 -35 30 -6 18 47 22 75 12 75 -5 0 -13 -15 -17 -32
l-8 -33 -6 29 c-8 39 -27 43 -39 9 l-10 -28 -7 28 c-4 15 -12 27 -17 27 -6 0
-7 -11 -4 -25z"/>
<path d="M5980 4020 c0 -27 5 -50 10 -50 6 0 10 9 10 20 0 13 7 20 19 20 11 0
23 5 26 10 4 6 -5 10 -19 10 -35 0 -34 27 2 33 22 3 20 4 -10 6 l-38 1 0 -50z"/>
<path d="M4700 4038 c0 -8 77 -36 217 -78 259 -78 243 -74 243 -62 0 11 -78
39 -290 102 -74 22 -143 43 -152 46 -11 3 -18 0 -18 -8z"/>
<path d="M5620 4001 c0 -28 5 -51 10 -51 6 0 10 9 10 20 0 13 7 20 20 20 13 0
20 -7 20 -20 0 -11 5 -20 10 -20 6 0 10 20 10 44 0 25 -4 48 -10 51 -5 3 -10
-3 -10 -14 0 -14 -6 -21 -20 -21 -11 0 -20 6 -20 14 0 8 -4 18 -10 21 -6 4
-10 -13 -10 -44z"/>
<path d="M5720 4000 c0 -48 1 -50 28 -50 35 0 52 16 52 50 0 34 -17 50 -52 50
-27 0 -28 -2 -28 -50z m58 -2 c-2 -22 -9 -34 -20 -36 -15 -3 -18 4 -18 32 0
30 4 36 21 36 17 0 20 -5 17 -32z"/>
<path d="M5218 4006 c-3 -13 -3 -37 0 -54 3 -26 7 -29 34 -26 42 5 47 10 45
47 -3 44 -14 57 -46 57 -22 0 -30 -5 -33 -24z m62 -6 c0 -5 -9 -10 -20 -10
-11 0 -20 5 -20 10 0 6 9 10 20 10 11 0 20 -4 20 -10z m-7 -45 c1 -5 -6 -11
-15 -13 -11 -2 -18 3 -18 13 0 17 30 18 33 0z"/>
<path d="M5327 4019 c-5 -9 -7 -34 -5 -55 2 -32 7 -40 27 -42 13 -2 28 1 34 7
8 8 4 11 -15 11 -25 0 -27 4 -30 48 -2 32 -6 42 -11 31z"/>
<path d="M5472 3968 c-20 -20 -15 -76 7 -88 11 -5 24 -10 30 -10 19 0 41 32
41 59 0 32 -16 51 -45 51 -12 0 -26 -5 -33 -12z m53 -43 c0 -23 -4 -30 -20
-30 -15 0 -21 8 -23 33 -3 30 -1 33 20 30 18 -2 23 -9 23 -33z"/>
<path d="M5570 3930 l0 -50 38 1 c32 1 33 2 12 8 -21 6 -26 14 -28 49 -4 59
-22 53 -22 -8z"/>
<path d="M6220 3875 c0 -54 1 -55 28 -55 32 0 62 27 62 54 0 36 -20 56 -55 56
l-35 0 0 -55z m58 2 c3 -21 -1 -27 -16 -27 -15 0 -18 6 -16 28 3 35 2 34 17
30 6 -3 13 -17 15 -31z"/>
<path d="M6320 3875 c0 -59 17 -76 22 -22 l3 32 20 -33 c11 -18 24 -31 30 -29
5 2 11 27 13 55 2 42 0 52 -12 52 -11 0 -16 -9 -16 -27 l-1 -28 -17 28 c-27
44 -42 34 -42 -28z"/>
<path d="M4640 3860 l0 -50 35 0 c19 0 35 5 35 10 0 6 -11 10 -25 10 -22 0
-25 4 -25 40 0 22 -4 40 -10 40 -5 0 -10 -22 -10 -50z"/>
<path d="M5320 3830 c0 -51 19 -72 21 -22 l1 27 10 -27 c5 -16 13 -28 18 -28
5 0 13 12 18 28 l10 27 1 -27 c2 -50 21 -29 21 22 0 37 -4 50 -15 50 -8 0 -17
-11 -21 -25 -3 -14 -10 -25 -14 -25 -4 0 -11 11 -14 25 -4 14 -13 25 -21 25
-11 0 -15 -13 -15 -50z"/>
<path d="M4730 3850 c0 -6 43 -10 110 -10 67 0 110 4 110 10 0 6 -43 10 -110
10 -67 0 -110 -4 -110 -10z"/>
<path d="M3941 3803 c-24 -21 -31 -100 -12 -146 6 -16 9 -32 6 -37 -3 -4 0
-22 6 -39 9 -26 16 -31 45 -31 28 0 35 -4 40 -25 8 -32 19 -32 53 3 34 33 95
82 130 103 41 25 39 46 -7 58 -30 9 -43 19 -58 48 -32 63 -61 82 -125 83 -40
0 -63 -5 -78 -17z"/>
<path d="M5076 3743 c12 -49 23 -73 34 -73 5 0 10 11 10 24 0 36 17 40 24 6 8
-43 22 -37 35 14 13 55 13 56 1 56 -5 0 -10 -9 -10 -19 0 -28 -18 -36 -22 -9
-5 34 -25 32 -34 -4 l-7 -33 -9 33 c-10 39 -31 44 -22 5z"/>
<path d="M5220 3745 c-19 -49 -22 -75 -11 -75 6 0 11 5 11 10 0 6 9 10 19 10
11 0 23 -4 26 -10 17 -28 21 -4 7 40 -17 55 -37 64 -52 25z m30 -20 c0 -8 -4
-15 -10 -15 -5 0 -10 7 -10 15 0 8 5 15 10 15 6 0 10 -7 10 -15z"/>
<path d="M5844 3746 c-9 -24 3 -46 25 -46 11 0 23 -5 26 -10 10 -16 -23 -24
-40 -10 -10 8 -15 9 -15 2 0 -18 33 -30 58 -21 31 12 27 39 -8 52 -37 14 -40
32 -4 23 19 -5 25 -3 22 6 -7 20 -57 22 -64 4z"/>
<path d="M5453 3673 c-25 -9 -14 -44 17 -56 39 -15 39 -31 -1 -23 -22 4 -29 2
-27 -7 7 -18 53 -20 68 -3 16 20 1 41 -37 51 -20 5 -23 9 -14 18 9 9 16 9 31
-1 22 -13 27 -3 8 16 -13 13 -24 14 -45 5z"/>
<path d="M5530 3626 c0 -25 5 -48 10 -51 6 -3 10 3 10 14 0 26 12 27 35 1 28
-31 39 -23 15 11 -21 29 -21 31 -5 50 16 16 16 19 3 19 -9 0 -18 -7 -22 -15
-3 -8 -10 -15 -16 -15 -5 0 -10 7 -10 15 0 8 -4 15 -10 15 -5 0 -10 -20 -10
-44z"/>
<path d="M6544 3636 c-3 -8 -4 -31 -2 -52 3 -37 5 -39 42 -42 28 -3 37 0 34
10 -3 7 -13 13 -24 13 -15 0 -20 8 -22 43 -3 41 -17 56 -28 28z"/>
<path d="M6630 3594 c0 -39 4 -54 12 -52 7 3 15 15 19 29 l6 24 13 -27 c22
-47 40 -35 40 28 0 39 -4 54 -12 52 -7 -3 -15 -15 -18 -28 l-5 -23 -12 27 c-7
14 -19 26 -28 26 -12 0 -15 -13 -15 -56z"/>
<path d="M6908 3630 c-45 -13 -109 -71 -129 -114 -11 -25 -19 -64 -19 -99 0
-99 52 -172 147 -202 94 -31 190 2 248 83 27 40 30 51 30 122 0 71 -3 82 -30
122 -53 76 -160 114 -247 88z m163 -42 c128 -72 132 -254 6 -332 -105 -64
-233 -21 -281 96 -37 87 -1 184 89 239 43 27 135 26 186 -3z"/>
<path d="M6937 3438 c-26 -57 -47 -106 -47 -110 0 -19 31 -5 40 17 8 22 15 25
58 25 42 0 50 -3 60 -25 11 -25 49 -37 39 -12 -31 78 -92 207 -97 207 -3 0
-27 -46 -53 -102z m67 3 c17 -33 13 -41 -22 -41 -19 0 -23 4 -17 18 4 9 10 25
12 35 7 23 10 22 27 -12z"/>
<path d="M4845 3604 c-20 -21 -16 -73 8 -88 19 -12 47 0 56 25 4 12 2 12 -12
0 -23 -19 -47 -7 -47 24 0 30 24 43 45 25 12 -10 15 -10 15 3 0 14 -20 27 -40
27 -5 0 -16 -7 -25 -16z"/>
<path d="M4938 3614 c-12 -11 -10 -92 2 -99 6 -4 10 5 10 19 0 19 5 26 20 26
13 0 20 -7 20 -19 0 -11 5 -23 10 -26 6 -4 10 15 10 50 0 35 -4 54 -10 50 -5
-3 -10 -13 -10 -21 0 -23 -38 -17 -42 7 -2 11 -6 17 -10 13z"/>
<path d="M5117 3552 c-10 -10 -17 -28 -17 -40 0 -23 24 -52 44 -52 18 0 52 27
44 36 -4 4 -14 1 -23 -6 -21 -18 -45 -5 -45 25 0 30 24 43 45 25 9 -7 19 -10
23 -6 8 8 -25 36 -43 36 -7 0 -19 -8 -28 -18z"/>
<path d="M5206 3533 c13 -52 24 -74 34 -68 5 3 10 15 10 25 0 10 5 22 10 25 6
3 10 -2 10 -12 0 -10 4 -24 9 -32 7 -11 11 -10 19 5 17 32 25 84 13 84 -6 0
-11 -9 -11 -19 0 -28 -18 -36 -22 -9 -5 32 -26 33 -34 1 l-7 -28 -10 28 c-11
35 -29 35 -21 0z"/>
<path d="M4390 3390 l0 -50 35 0 c19 0 35 5 35 10 0 6 -11 10 -25 10 -22 0
-25 4 -25 40 0 22 -4 40 -10 40 -5 0 -10 -22 -10 -50z"/>
<path d="M4480 3390 l0 -50 36 0 c21 0 33 4 29 10 -3 6 -15 10 -26 10 -16 0
-19 7 -19 40 0 22 -4 40 -10 40 -5 0 -10 -22 -10 -50z"/>
<path d="M6252 3394 c-51 -35 -12 -109 51 -97 23 5 28 10 25 32 -2 18 -10 27
-25 29 -25 4 -33 -22 -10 -31 6 -3 2 -6 -10 -6 -23 -1 -32 14 -25 42 4 15 11
18 41 13 l36 -6 -24 20 c-28 24 -30 24 -59 4z"/>
<path d="M6130 3350 c0 -38 4 -50 15 -50 10 0 15 10 15 28 l1 27 15 -27 c24
-46 44 -36 44 22 0 38 -4 50 -15 50 -10 0 -15 -10 -15 -27 l-1 -28 -15 28
c-24 45 -44 35 -44 -23z"/>
<path d="M5700 3280 c0 -57 14 -69 59 -54 20 7 27 17 29 42 4 43 -12 62 -54
62 l-34 0 0 -50z m65 0 c0 -16 -6 -26 -17 -28 -14 -3 -18 3 -18 28 0 25 4 31
18 28 11 -2 17 -12 17 -28z"/>
<path d="M5810 3274 l0 -55 35 3 c41 3 48 21 10 26 -32 4 -33 22 0 22 14 0 25
5 25 10 0 6 -11 10 -25 10 -14 0 -25 5 -25 10 0 6 11 10 25 10 14 0 25 5 25
10 0 6 -16 10 -35 10 l-35 0 0 -56z"/>
<path d="M5392 3298 c-20 -20 -14 -35 18 -47 34 -11 40 -31 10 -31 -11 0 -20
5 -20 10 0 6 -4 10 -10 10 -17 0 -11 -19 10 -30 14 -8 26 -8 40 0 29 16 24 40
-10 53 -17 6 -28 16 -26 22 4 11 10 11 41 -1 18 -7 18 -6 6 9 -16 20 -42 22
-59 5z"/>
<path d="M5470 3300 c0 -5 7 -10 15 -10 11 0 15 -11 15 -40 0 -22 5 -40 10
-40 6 0 10 18 10 40 0 29 4 40 15 40 8 0 15 5 15 10 0 6 -18 10 -40 10 -22 0
-40 -4 -40 -10z"/>
<path d="M4080 3091 c-174 -35 -236 -249 -107 -368 53 -49 103 -67 167 -61
144 14 237 166 181 294 -12 27 -32 59 -44 72 -46 50 -130 76 -197 63z m130
-41 c49 -25 85 -72 100 -131 17 -66 -1 -122 -54 -175 -89 -90 -215 -80 -292
22 -26 33 -29 46 -29 109 0 61 4 78 27 112 51 77 164 106 248 63z"/>
<path d="M4072 2938 c-11 -29 -29 -77 -41 -105 -20 -50 -20 -53 -2 -53 10 0
23 11 29 25 10 21 19 25 52 25 33 0 42 -4 52 -25 6 -14 19 -25 30 -25 10 0 18
1 18 3 0 1 -17 47 -38 102 -30 79 -42 101 -59 103 -17 3 -25 -6 -41 -50z m67
-70 c1 -5 -12 -8 -29 -8 -35 0 -34 -3 -14 46 l17 39 13 -35 c7 -19 13 -38 13
-42z"/>
<path d="M5143 3073 c13 -3 17 -15 17 -49 0 -24 5 -44 10 -44 6 0 10 20 10 44
0 34 4 46 18 49 9 3 -3 5 -28 5 -25 0 -37 -2 -27 -5z"/>
<path d="M5220 3030 c0 -27 5 -50 10 -50 6 0 10 9 10 20 0 13 7 20 19 20 29 0
35 18 9 22 -29 4 -26 21 4 30 18 5 15 6 -14 7 l-38 1 0 -50z"/>
<path d="M7540 3036 c0 -25 5 -48 10 -51 6 -4 10 7 10 24 0 40 14 40 30 1 11
-26 33 -39 31 -17 -1 4 -2 26 -2 50 -2 29 -3 34 -6 15 -5 -35 -16 -36 -31 -3
-19 42 -42 32 -42 -19z"/>
<path d="M7648 3030 c2 -27 8 -47 13 -44 5 3 9 12 9 20 0 21 27 17 33 -6 9
-36 22 -21 22 28 l0 47 -40 3 -40 3 3 -51z m60 23 c2 -8 -5 -13 -17 -13 -21 0
-35 13 -24 24 10 10 36 3 41 -11z"/>
<path d="M6740 2986 c0 -55 16 -77 27 -37 3 11 16 22 30 26 19 4 24 11 21 33
-3 23 -8 27 -40 30 l-38 3 0 -55z m52 19 c0 -5 -5 -11 -11 -13 -6 -2 -11 4
-11 13 0 9 5 15 11 13 6 -2 11 -8 11 -13z"/>
<path d="M6832 2988 l3 -53 38 0 c42 0 52 18 12 23 -32 4 -33 22 0 22 14 0 25
5 25 10 0 6 -11 10 -25 10 -14 0 -25 5 -25 10 0 6 11 10 24 10 14 0 28 5 31
10 4 6 -12 10 -40 10 l-46 0 3 -52z"/>
<path d="M6087 3023 c-4 -3 -7 -28 -7 -55 l0 -48 40 0 c22 0 40 5 40 10 0 6
-11 10 -25 10 -23 0 -25 4 -25 45 0 42 -7 54 -23 38z"/>
<path d="M6170 2975 l0 -55 40 0 c22 0 40 5 40 10 0 6 -11 10 -24 10 -14 0
-28 5 -31 10 -4 6 5 10 19 10 36 0 35 30 -1 31 l-28 1 29 7 c47 10 45 31 -3
31 l-41 0 0 -55z"/>
<path d="M5628 3009 c-27 -15 -21 -39 12 -50 41 -15 39 -33 -2 -25 -30 6 -32
5 -16 -10 22 -23 68 -11 68 17 0 13 -10 24 -30 30 -16 6 -30 15 -30 20 0 13
24 11 38 -3 17 -17 28 -2 12 17 -14 17 -28 19 -52 4z"/>
<path d="M5480 2998 c0 -27 21 -88 30 -88 5 0 14 15 19 33 l9 32 7 -33 c10
-43 25 -36 41 19 16 53 16 49 4 49 -5 0 -13 -15 -18 -32 l-9 -33 -7 33 c-9 36
-29 38 -34 4 -4 -27 -22 -19 -22 9 0 10 -4 19 -10 19 -5 0 -10 -6 -10 -12z"/>
<path d="M4656 2984 c-23 -23 -20 -34 14 -45 40 -14 39 -33 -1 -25 -28 5 -30
4 -19 -10 8 -8 25 -14 39 -12 36 4 37 49 2 58 -14 3 -26 11 -29 18 -5 16 35
16 41 0 2 -7 8 -9 13 -5 5 5 1 15 -10 23 -25 18 -31 18 -50 -2z"/>
<path d="M4745 2973 c4 -10 14 -34 21 -53 7 -19 14 -33 14 -30 1 3 4 16 6 30
2 13 11 35 19 47 13 20 14 23 1 23 -8 0 -18 -10 -22 -22 l-7 -23 -10 23 c-12
26 -33 31 -22 5z"/>
<path d="M5250 2904 c0 -15 24 -90 31 -98 5 -5 11 -2 14 7 16 51 17 53 24 28
10 -39 29 -36 40 6 14 48 14 66 1 58 -5 -3 -10 -15 -10 -26 0 -26 -18 -24 -22
3 -5 34 -24 32 -35 -4 l-10 -33 -7 33 c-4 17 -12 32 -17 32 -5 0 -9 -3 -9 -6z"/>
<path d="M5399 2858 c10 -29 22 -53 27 -53 11 0 43 87 36 99 -3 6 -13 -8 -23
-30 l-16 -39 -10 34 c-5 19 -14 36 -21 39 -7 2 -5 -15 7 -50z"/>
<path d="M5240 2671 c0 -49 1 -51 29 -51 37 0 53 20 49 62 -3 30 -6 33 -40 36
l-38 3 0 -50z m58 23 c13 -24 3 -54 -19 -54 -15 0 -19 7 -19 35 0 38 22 48 38
19z"/>
<path d="M5340 2712 c0 -4 6 -17 14 -28 8 -11 16 -31 18 -44 4 -23 5 -24 12
-5 4 11 14 35 22 53 14 33 3 45 -16 15 -10 -17 -10 -17 -20 0 -11 17 -30 23
-30 9z"/>
<path d="M5540 2661 l0 -51 34 0 c43 0 56 16 47 60 -6 32 -10 35 -44 38 l-37
3 0 -50z m65 19 c-3 -5 -15 -10 -26 -10 -10 0 -19 5 -19 10 0 6 12 10 26 10
14 0 23 -4 19 -10z m5 -39 c0 -12 -29 -23 -41 -15 -18 10 -9 24 16 24 14 0 25
-4 25 -9z"/>
<path d="M5816 2674 c-22 -21 -20 -57 4 -79 17 -15 24 -16 45 -7 14 6 25 16
25 22 0 13 -6 13 -30 -2 -17 -11 -22 -10 -30 2 -15 23 -7 54 14 58 10 2 22 -2
27 -9 4 -7 11 -10 15 -6 10 10 -16 37 -37 37 -9 0 -25 -7 -33 -16z"/>
<path d="M5900 2687 c0 -21 35 -97 44 -97 12 0 36 61 36 89 0 23 -18 1 -25
-29 -8 -36 -20 -32 -28 10 -4 16 -11 30 -17 30 -5 0 -10 -1 -10 -3z"/>
<path d="M7490 2581 c0 -28 5 -51 10 -51 6 0 10 20 10 44 0 25 -4 48 -10 51
-6 4 -10 -13 -10 -44z"/>
<path d="M7527 2623 c-11 -10 -8 -93 3 -93 6 0 10 6 10 14 0 7 14 16 30 20 23
4 30 11 30 30 0 13 -7 27 -16 30 -21 8 -49 8 -57 -1z m53 -28 c0 -8 -9 -15
-20 -15 -11 0 -20 7 -20 15 0 8 9 15 20 15 11 0 20 -7 20 -15z"/>
<path d="M6150 2564 c0 -39 4 -54 12 -52 7 3 15 15 18 27 l5 23 14 -26 c24
-44 41 -33 41 29 0 42 -3 55 -15 55 -10 0 -15 -10 -15 -27 l-1 -28 -15 28
c-25 47 -44 35 -44 -29z"/>
<path d="M6250 2564 c0 -40 3 -55 13 -52 6 3 14 18 17 34 l5 29 14 -32 c22
-53 41 -42 41 23 0 39 -4 54 -12 52 -7 -3 -15 -15 -18 -28 l-5 -23 -12 27 c-7
14 -19 26 -28 26 -12 0 -15 -13 -15 -56z"/>
<path d="M4500 2426 c0 -55 0 -56 29 -56 17 0 33 5 36 10 4 6 -5 10 -19 10
-24 0 -26 4 -26 39 0 22 -4 43 -10 46 -6 4 -10 -15 -10 -49z"/>
<path d="M4584 2466 c-3 -8 -4 -31 -2 -52 2 -31 7 -40 25 -42 24 -4 63 29 63
53 0 38 -73 74 -86 41z m60 -22 c8 -20 -11 -54 -29 -54 -10 0 -15 11 -15 35 0
28 4 35 19 35 10 0 22 -7 25 -16z"/>
<path d="M5274 2458 c4 -13 9 -35 12 -50 7 -32 34 -38 34 -9 0 28 18 36 22 9
5 -36 24 -31 36 10 15 48 15 62 2 62 -5 0 -10 -11 -10 -25 0 -31 -17 -33 -22
-3 -5 34 -24 32 -35 -4 l-10 -33 -7 33 c-4 17 -12 32 -18 32 -6 0 -8 -10 -4
-22z"/>
<path d="M5410 2431 c0 -28 5 -51 10 -51 6 0 10 9 10 20 0 12 7 20 16 20 9 0
18 -9 21 -20 10 -37 22 -20 20 28 -2 47 -2 47 -39 50 l-38 3 0 -50z m60 14 c0
-8 -9 -15 -20 -15 -11 0 -20 7 -20 15 0 8 9 15 20 15 11 0 20 -7 20 -15z"/>
<path d="M6900 2465 c-27 -33 -7 -95 30 -95 21 0 46 27 35 38 -4 4 -10 1 -12
-5 -3 -7 -13 -13 -24 -13 -15 0 -19 7 -19 35 0 28 4 35 19 35 11 0 21 -6 24
-12 2 -7 8 -10 12 -6 11 11 -14 38 -35 38 -10 0 -23 -7 -30 -15z"/>
<path d="M6990 2430 c0 -57 15 -70 55 -52 19 9 23 18 22 44 -3 46 -13 58 -48
58 -28 0 -29 -1 -29 -50z m60 20 c0 -5 -9 -10 -20 -10 -11 0 -20 5 -20 10 0 6
9 10 20 10 11 0 20 -4 20 -10z m0 -45 c0 -8 -9 -15 -20 -15 -11 0 -20 7 -20
15 0 8 9 15 20 15 11 0 20 -7 20 -15z"/>
<path d="M7720 2419 c-172 -69 -182 -311 -17 -394 66 -32 125 -33 194 0 91 42
141 151 113 249 -16 57 -63 114 -114 137 -45 20 -135 24 -176 8z m189 -42 c75
-50 108 -167 68 -243 -31 -60 -114 -114 -177 -114 -65 0 -152 58 -176 117 -24
57 -18 133 15 184 57 91 179 116 270 56z"/>
<path d="M7747 2238 c-26 -57 -47 -106 -47 -110 0 -18 28 -6 38 17 10 22 18
25 60 25 42 0 50 -3 60 -25 11 -25 49 -37 39 -12 -31 78 -92 207 -97 207 -3 0
-27 -46 -53 -102z m70 3 c13 -34 9 -41 -24 -41 -27 0 -26 -2 -12 39 14 39 22
39 36 2z"/>
<path d="M4920 2355 c0 -35 4 -54 10 -50 6 3 10 15 10 26 0 12 7 19 20 19 15
0 20 -7 20 -26 0 -14 4 -23 10 -19 6 3 10 26 10 50 0 24 -4 47 -10 50 -5 3
-10 -3 -10 -14 0 -14 -6 -21 -20 -21 -11 0 -20 6 -20 14 0 8 -4 18 -10 21 -6
4 -10 -15 -10 -50z"/>
<path d="M5020 2354 c0 -34 4 -53 10 -49 6 3 10 13 10 21 0 8 9 14 20 14 14 0
20 -7 20 -21 0 -11 4 -18 9 -15 12 8 10 77 -2 94 -5 6 -22 12 -38 12 -28 0
-29 -1 -29 -56z m53 21 c1 -5 -6 -11 -15 -13 -11 -2 -18 3 -18 13 0 17 30 18
33 0z"/>
<path d="M6330 2340 c0 -51 19 -72 21 -22 1 27 1 27 8 3 9 -33 27 -37 36 -9
l8 23 4 -23 c7 -37 23 -14 23 34 0 37 -3 44 -20 44 -15 0 -20 -7 -20 -24 0
-37 -17 -41 -25 -6 -11 51 -35 37 -35 -20z"/>
<path d="M6450 2340 c0 -27 5 -50 10 -50 6 0 10 9 10 20 0 11 3 20 8 20 4 0
13 -9 20 -20 20 -32 35 -23 16 10 -17 28 -17 30 1 50 23 25 1 28 -27 3 -17
-15 -18 -15 -18 0 0 10 -4 17 -10 17 -5 0 -10 -22 -10 -50z"/>
<path d="M6630 2255 c-16 -19 3 -45 31 -45 11 0 19 -7 19 -15 0 -17 -21 -20
-37 -4 -7 7 -13 7 -17 0 -11 -17 31 -33 54 -21 31 17 25 47 -10 55 -16 4 -30
10 -30 15 0 12 29 20 35 10 4 -6 11 -10 17 -10 7 0 6 6 -2 15 -7 8 -20 15 -30
15 -10 0 -23 -7 -30 -15z"/>
<path d="M6732 2258 c-13 -13 -16 -57 -4 -75 8 -12 24 -16 60 -14 30 1 33 51
2 51 -11 0 -20 -4 -20 -10 0 -5 5 -10 12 -10 9 0 9 -3 1 -11 -20 -20 -45 -2
-41 28 3 25 7 28 36 26 27 -1 31 1 21 13 -14 17 -51 18 -67 2z"/>
<path d="M7256 2254 c-23 -23 -20 -71 4 -84 26 -14 60 -4 60 17 0 13 -3 13
-15 3 -21 -18 -45 -5 -45 25 0 30 24 43 45 25 22 -18 29 -6 10 14 -21 20 -39
20 -59 0z"/>
<path d="M7357 2252 c-32 -35 -11 -92 33 -92 20 0 50 35 50 57 0 17 -36 53
-53 53 -8 0 -21 -8 -30 -18z m58 -21 c9 -29 -5 -52 -29 -49 -37 5 -34 68 3 68
11 0 22 -8 26 -19z"/>
<path d="M3877 2254 c-18 -18 -6 -45 23 -50 17 -4 30 -10 30 -14 0 -14 -27
-19 -39 -7 -13 13 -26 3 -16 -12 9 -16 51 -13 65 4 16 19 -3 45 -31 45 -11 0
-19 7 -19 15 0 18 21 20 39 3 11 -11 13 -10 9 2 -5 16 -49 26 -61 14z"/>
<path d="M3977 2213 c-9 -25 -14 -49 -11 -52 4 -3 9 0 11 7 3 6 15 12 28 12
13 0 25 -6 28 -12 2 -7 7 -10 11 -7 10 9 -24 99 -38 99 -6 0 -19 -21 -29 -47z
m37 2 c3 -9 0 -15 -9 -15 -9 0 -12 6 -9 15 4 8 7 15 9 15 2 0 5 -7 9 -15z"/>
<path d="M6350 2146 l0 -56 35 0 c19 0 35 5 35 10 0 6 -11 10 -25 10 -22 0
-25 4 -25 39 0 22 -4 43 -10 46 -6 4 -10 -15 -10 -49z"/>
<path d="M6438 2194 c-11 -11 -10 -62 2 -85 12 -21 40 -25 58 -7 15 15 16 102
2 93 -5 -3 -10 -24 -10 -46 0 -33 -3 -40 -17 -37 -13 2 -19 16 -23 47 -3 23
-8 39 -12 35z"/>
<path d="M5426 2138 c-20 -29 -20 -41 2 -67 23 -29 80 -20 78 12 -1 22 -36 38
-36 18 0 -6 5 -11 11 -11 5 0 7 -4 4 -10 -10 -17 -43 -11 -50 9 -13 41 24 68
53 39 7 -7 12 -8 12 -2 0 16 -22 34 -41 34 -10 0 -25 -10 -33 -22z"/>
<path d="M5527 2149 c-5 -9 -7 -34 -5 -55 3 -36 6 -39 36 -42 18 -2 32 1 32 7
0 6 -11 11 -24 11 -22 0 -25 5 -28 48 -2 32 -6 42 -11 31z"/>
<path d="M5852 2128 c-7 -7 -12 -27 -12 -45 0 -40 32 -59 65 -38 23 14 32 60
14 81 -14 17 -51 18 -67 2z m58 -45 c0 -31 -29 -42 -46 -18 -18 24 -17 30 2
50 21 20 44 3 44 -32z"/>
<path d="M5955 2114 c15 -23 15 -27 0 -50 -13 -20 -13 -24 -1 -24 7 0 17 7 20
17 6 14 8 14 20 -3 19 -25 31 -12 14 15 -11 17 -11 25 0 42 17 26 5 41 -13 16
-11 -15 -14 -15 -25 -2 -21 25 -33 17 -15 -11z"/>
<path d="M6586 2048 c-23 -55 -28 -78 -18 -78 6 0 12 6 15 14 7 18 35 15 47
-4 18 -30 21 1 5 45 -23 59 -32 64 -49 23z m28 -30 c-9 -14 -23 2 -17 18 4 12
8 13 14 3 4 -7 5 -17 3 -21z"/>
<path d="M7020 2060 c-26 -49 30 -104 68 -66 16 15 15 16 -14 10 -36 -7 -51
14 -34 47 12 22 21 24 38 7 13 -13 27 -5 17 11 -11 19 -63 13 -75 -9z"/>
<path d="M7120 2030 c0 -51 19 -72 21 -22 1 27 1 27 8 3 9 -35 25 -36 38 -4
l11 28 1 -28 c2 -46 21 -20 21 29 0 37 -3 44 -20 44 -15 0 -20 -7 -20 -24 0
-36 -17 -40 -24 -6 -3 18 -12 30 -21 30 -11 0 -15 -12 -15 -50z"/>
<path d="M6670 2020 c0 -49 1 -50 29 -50 17 0 33 5 36 10 4 6 -5 10 -19 10
-24 0 -26 4 -26 40 0 22 -4 40 -10 40 -5 0 -10 -22 -10 -50z"/>
<path d="M6260 1970 c0 -27 5 -50 10 -50 6 0 10 9 10 20 0 13 7 20 20 20 13 0
20 -7 20 -20 0 -11 5 -20 10 -20 6 0 10 23 10 50 0 28 -4 50 -10 50 -5 0 -10
-9 -10 -20 0 -13 -7 -20 -20 -20 -13 0 -20 7 -20 20 0 11 -4 20 -10 20 -5 0
-10 -22 -10 -50z"/>
<path d="M6369 2016 c-8 -8 3 -96 12 -96 5 0 9 6 9 14 0 8 11 17 25 20 29 7
35 50 9 60 -18 7 -49 8 -55 2z m51 -31 c0 -8 -7 -15 -15 -15 -8 0 -15 7 -15
15 0 8 7 15 15 15 8 0 15 -7 15 -15z"/>
<path d="M4790 1959 c0 -34 4 -48 11 -43 6 3 9 17 6 30 -6 33 5 30 25 -6 25
-44 38 -37 38 20 0 28 -4 50 -10 50 -5 0 -10 -11 -10 -25 0 -14 -4 -25 -8 -25
-5 0 -14 11 -20 25 -18 40 -32 29 -32 -26z"/>
<path d="M4890 1961 c0 -28 5 -51 10 -51 6 0 10 9 10 20 0 15 7 20 26 20 22 0
25 4 22 28 -2 22 -8 28 -35 30 l-33 3 0 -50z m55 19 c0 -8 -8 -16 -17 -18 -13
-2 -18 3 -18 18 0 15 5 20 18 18 9 -2 17 -10 17 -18z"/>
<path d="M5000 1960 c0 -55 17 -69 22 -17 l3 32 20 -32 c10 -18 23 -33 27 -33
4 0 7 24 7 53 -1 46 -2 48 -8 17 l-6 -35 -20 33 c-29 48 -45 41 -45 -18z"/>
<path d="M5104 1963 c0 -26 6 -47 11 -45 6 1 10 7 10 14 0 7 11 15 25 18 18 4
25 13 25 30 0 21 -5 25 -36 28 l-37 3 2 -48z m52 26 c10 -17 -13 -36 -27 -22
-12 12 -4 33 11 33 5 0 12 -5 16 -11z"/>
<path d="M5203 1999 c11 -7 17 -22 17 -49 0 -22 5 -40 10 -40 6 0 10 18 10 40
0 27 6 42 18 49 13 8 7 10 -28 10 -35 0 -41 -2 -27 -10z"/>
<path d="M4963 1911 c0 -11 5 -17 9 -15 11 7 10 34 -1 34 -6 0 -9 -9 -8 -19z"/>
<path d="M4467 1872 c-10 -10 -17 -28 -17 -40 0 -23 24 -52 44 -52 18 0 52 27
44 36 -4 4 -14 1 -23 -6 -21 -18 -45 -5 -45 25 0 30 24 43 45 25 9 -7 19 -10
23 -6 8 8 -25 36 -43 36 -7 0 -19 -8 -28 -18z"/>
<path d="M4560 1834 c0 -34 4 -53 10 -49 6 3 10 15 10 25 0 11 9 20 23 23 l22
4 -22 2 c-33 2 -30 31 3 31 14 0 23 4 19 10 -3 6 -19 10 -36 10 -29 0 -29 -1
-29 -56z"/>
<path d="M7190 1855 c-17 -20 -6 -43 25 -51 36 -9 32 -28 -6 -20 -22 4 -29 2
-27 -7 7 -18 53 -20 68 -3 16 20 -2 46 -31 46 -11 0 -19 7 -19 15 0 18 21 20
38 3 7 -7 12 -8 12 -2 0 14 -21 34 -36 34 -6 0 -17 -7 -24 -15z"/>
<path d="M7286 1855 c-20 -20 -11 -42 20 -49 14 -4 23 -12 21 -19 -5 -13 -10
-13 -42 -1 -18 7 -19 6 -6 -10 9 -10 25 -16 40 -14 20 2 26 9 26 28 0 17 -6
26 -20 28 -30 6 -41 20 -21 28 11 4 21 1 26 -7 5 -7 13 -10 17 -5 4 4 -1 14
-11 22 -25 18 -31 18 -50 -1z"/>
<path d="M6300 1765 c-15 -17 -6 -33 26 -45 13 -5 24 -14 24 -20 0 -13 -27
-13 -35 0 -8 13 -25 13 -25 0 0 -18 39 -31 60 -20 29 16 24 40 -10 53 -39 15
-39 31 1 23 27 -5 30 -4 19 9 -16 19 -44 19 -60 0z"/>
<path d="M6390 1730 l0 -50 38 1 c30 2 32 3 10 6 -26 4 -28 8 -28 49 0 24 -4
44 -10 44 -5 0 -10 -22 -10 -50z"/>
<path d="M5477 1714 c-17 -17 -5 -43 25 -53 25 -9 29 -14 20 -23 -10 -10 -17
-10 -33 1 -18 10 -20 10 -17 -1 7 -21 64 -22 72 -1 7 18 -16 43 -41 43 -7 0
-13 4 -13 8 0 17 13 21 32 11 16 -9 19 -8 16 3 -5 14 -49 23 -61 12z"/>
<path d="M5560 1670 c0 -55 17 -69 22 -17 l3 32 18 -32 c25 -47 37 -41 35 20
-1 35 -2 42 -5 20 -5 -41 -17 -42 -33 -3 -20 48 -40 38 -40 -20z"/>
<path d="M4940 1620 l0 -51 38 3 c37 3 37 3 37 48 0 45 0 45 -37 48 l-38 3 0
-51z m60 20 c0 -5 -9 -10 -20 -10 -11 0 -20 5 -20 10 0 6 9 10 20 10 11 0 20
-4 20 -10z m-2 -42 c-3 -7 -11 -13 -18 -13 -7 0 -15 6 -17 13 -3 7 4 12 17 12
13 0 20 -5 18 -12z"/>
<path d="M5047 1663 c-17 -16 -5 -42 23 -52 34 -11 40 -31 10 -31 -11 0 -20 5
-20 10 0 6 -4 10 -10 10 -19 0 -10 -21 13 -29 26 -10 57 3 57 25 0 9 -14 21
-30 27 -17 6 -28 16 -26 22 4 11 10 11 41 -1 18 -7 18 -6 6 9 -13 17 -52 23
-64 10z"/>
<path d="M5960 1611 c0 -28 5 -51 10 -51 6 0 10 9 10 20 0 13 7 20 20 20 13 0
20 -7 20 -20 0 -11 4 -20 10 -20 5 0 8 21 7 48 -2 47 -2 47 -39 50 l-38 3 0
-50z m60 20 c0 -11 -26 -22 -34 -14 -12 12 -5 23 14 23 11 0 20 -4 20 -9z"/>
<path d="M6072 1648 c-16 -16 -15 -63 2 -77 7 -6 28 -10 45 -9 25 2 31 7 31
25 0 17 -6 23 -22 23 -18 0 -20 -2 -8 -10 11 -7 12 -12 3 -21 -19 -19 -43 -3
-43 30 0 31 26 49 44 31 16 -16 30 -12 16 5 -15 18 -51 20 -68 3z"/>
<path d="M3821 1560 c-94 -22 -161 -111 -161 -214 1 -175 192 -272 341 -174
46 31 89 117 89 178 0 95 -69 183 -165 209 -45 12 -56 12 -104 1z m166 -56
c46 -37 83 -105 83 -154 0 -20 -12 -60 -26 -88 -85 -172 -343 -124 -362 67 -6
62 10 109 51 151 46 47 82 61 154 57 52 -2 69 -8 100 -33z"/>
<path d="M3822 1398 c-11 -29 -29 -77 -41 -105 -20 -50 -20 -53 -2 -53 10 0
23 11 29 25 10 21 19 25 52 25 33 0 42 -4 52 -25 6 -14 19 -25 30 -25 10 0 18
1 18 3 0 1 -17 47 -38 102 -30 79 -42 101 -59 103 -17 3 -25 -6 -41 -50z m67
-70 c1 -5 -12 -8 -29 -8 -35 0 -34 -3 -14 46 l17 39 13 -35 c7 -19 13 -38 13
-42z"/>
<path d="M7150 1520 c0 -51 19 -72 21 -22 l1 27 11 -27 c6 -16 14 -28 18 -28
4 0 12 12 17 28 l10 27 1 -27 c2 -50 21 -29 21 22 0 59 -24 70 -38 18 -10 -33
-11 -32 -27 17 -2 8 -11 15 -20 15 -11 0 -15 -12 -15 -50z"/>
<path d="M7270 1520 l0 -50 35 0 c19 0 35 5 35 10 0 6 -11 10 -25 10 -14 0
-25 5 -25 10 0 6 9 10 19 10 11 0 23 5 26 10 4 6 -5 10 -19 10 -14 0 -26 5
-26 10 0 6 11 10 25 10 14 0 25 5 25 10 0 6 -16 10 -35 10 l-35 0 0 -50z"/>
<path d="M7558 1465 c-24 -53 36 -103 72 -60 15 18 -1 20 -18 3 -14 -14 -42 6
-42 32 0 26 28 46 42 32 17 -17 33 -15 18 3 -20 24 -59 19 -72 -10z"/>
<path d="M7663 1479 c11 -7 17 -22 17 -49 0 -22 5 -40 10 -40 6 0 10 20 10 44
0 34 4 46 18 49 9 3 -3 5 -28 6 -35 0 -41 -2 -27 -10z"/>
<path d="M5190 1400 l0 -51 38 3 c37 3 37 3 37 48 0 45 0 45 -37 48 l-38 3 0
-51z m60 20 c0 -5 -9 -10 -20 -10 -11 0 -20 5 -20 10 0 6 9 10 20 10 11 0 20
-4 20 -10z m-2 -42 c-7 -19 -38 -22 -38 -4 0 10 9 16 21 16 12 0 19 -5 17 -12z"/>
<path d="M5310 1425 c-19 -49 -22 -75 -11 -75 6 0 11 5 11 10 0 6 9 10 20 10
11 0 20 -4 20 -10 0 -5 7 -10 15 -10 12 0 12 7 -4 47 -22 56 -37 64 -51 28z
m30 -20 c0 -8 -4 -15 -10 -15 -5 0 -10 7 -10 15 0 8 5 15 10 15 6 0 10 -7 10
-15z"/>
<path d="M6257 1402 c-34 -37 -7 -100 37 -88 12 3 24 6 29 6 4 0 7 11 7 25 0
18 -5 25 -20 25 -11 0 -20 -4 -20 -10 0 -5 5 -10 10 -10 6 0 10 -5 10 -11 0
-6 -10 -9 -22 -7 -18 2 -23 10 -23 33 0 28 3 30 33 28 27 -1 31 1 21 13 -16
19 -43 18 -62 -4z"/>
<path d="M6358 1414 c-23 -23 2 -104 32 -104 31 0 40 14 40 62 0 30 -4 47 -10
43 -5 -3 -10 -24 -10 -46 0 -33 -3 -40 -17 -37 -13 2 -19 16 -23 47 -3 23 -8
39 -12 35z"/>
<path d="M6590 1320 c0 -27 5 -50 10 -50 6 0 10 9 10 20 0 13 7 20 20 20 13 0
20 -7 20 -20 0 -37 18 -20 22 20 4 48 -5 60 -49 60 -33 0 -33 0 -33 -50z m60
20 c0 -5 -9 -10 -20 -10 -11 0 -20 5 -20 10 0 6 9 10 20 10 11 0 20 -4 20 -10z"/>
<path d="M6690 1320 c0 -27 5 -50 10 -50 6 0 10 9 10 20 0 30 47 28 53 -2 2
-13 5 2 5 32 1 42 -1 50 -8 33 -12 -28 -40 -30 -47 -3 -10 37 -23 20 -23 -30z"/>
<path d="M4673 1326 c11 -8 17 -27 17 -50 0 -20 5 -36 10 -36 6 0 10 18 10 40
0 29 4 40 15 40 8 0 15 5 15 10 0 6 -19 10 -42 10 -38 -1 -41 -2 -25 -14z"/>
<path d="M4776 1331 c-15 -24 -34 -91 -26 -91 5 0 12 5 15 10 9 14 42 12 48
-2 2 -7 8 -10 12 -6 9 9 -18 91 -32 95 -6 2 -14 0 -17 -6z m24 -42 c0 -5 -4
-9 -10 -9 -5 0 -10 7 -10 16 0 8 5 12 10 9 6 -3 10 -10 10 -16z"/>
<path d="M7074 1319 c-2 -4 6 -9 17 -12 17 -5 20 -12 18 -41 -2 -19 0 -38 4
-42 4 -4 7 14 7 39 0 35 4 47 15 47 8 0 15 4 15 9 0 10 -69 10 -76 0z"/>
<path d="M7170 1277 c0 -32 4 -56 9 -53 4 3 6 17 3 31 -6 34 10 32 32 -5 9
-17 22 -28 27 -25 12 8 12 92 -1 100 -6 4 -10 -7 -10 -27 l-1 -33 -29 35 -29
35 -1 -58z"/>
<path d="M5547 1279 c-26 -15 -20 -40 13 -52 39 -15 39 -31 -1 -23 -22 4 -29
2 -27 -7 7 -18 53 -20 67 -3 15 18 7 34 -25 46 -25 10 -33 30 -11 30 7 0 18
-5 25 -12 9 -9 12 -9 12 0 0 18 -33 32 -53 21z"/>
<path d="M5620 1236 c0 -25 5 -48 10 -51 6 -3 10 3 10 14 0 14 8 21 28 23 21
2 27 8 27 28 0 22 -5 25 -37 28 l-38 3 0 -45z m58 16 c2 -7 -6 -12 -17 -12
-21 0 -27 11 -14 24 9 9 26 2 31 -12z"/>
<path d="M5866 1247 c-22 -16 -12 -45 17 -49 11 -2 23 -9 25 -17 4 -11 -2 -13
-27 -8 -36 7 -40 2 -11 -13 28 -15 60 -3 60 21 0 13 -10 24 -30 30 -40 14 -39
33 1 25 27 -5 30 -4 19 9 -15 18 -31 19 -54 2z"/>
<path d="M5968 1249 c-25 -14 -24 -75 1 -89 27 -14 37 -13 55 6 29 29 10 95
-27 94 -7 0 -20 -5 -29 -11z m47 -44 c0 -23 -5 -31 -22 -33 -14 -2 -23 3 -25
15 -7 33 3 54 26 51 16 -2 21 -10 21 -33z"/>
<path d="M7160 1201 c-102 -31 -162 -110 -162 -211 1 -133 117 -235 245 -216
136 21 223 170 172 294 -42 99 -161 161 -255 133z m133 -35 c18 -7 47 -29 64
-49 145 -165 -47 -396 -244 -294 -124 65 -121 270 4 336 45 24 129 27 176 7z"/>
<path d="M7167 1018 c-26 -57 -47 -106 -47 -110 0 -19 31 -5 40 17 8 22 15 25
58 25 42 0 50 -3 60 -25 11 -25 49 -37 39 -12 -31 78 -92 207 -97 207 -3 0
-27 -46 -53 -102z m68 2 c20 -39 20 -40 -16 -40 -26 0 -30 3 -24 18 4 9 10 25
12 35 7 23 10 22 28 -13z"/>
<path d="M4130 1120 l0 -50 38 1 c30 2 32 3 10 6 -32 5 -38 33 -8 33 11 0 20
5 20 10 0 6 -9 10 -20 10 -11 0 -20 5 -20 10 0 6 11 10 25 10 14 0 25 5 25 10
0 6 -16 10 -35 10 l-35 0 0 -50z"/>
<path d="M4220 1165 c0 -3 5 -14 12 -24 9 -15 9 -25 0 -45 -13 -29 1 -36 17
-8 9 16 10 16 16 0 4 -10 14 -18 21 -18 12 0 12 4 -2 25 -15 23 -15 27 0 50
18 27 6 35 -15 9 -11 -14 -13 -14 -21 0 -8 15 -28 22 -28 11z"/>
<path d="M8453 1146 c4 -10 0 -12 -16 -8 -19 5 -20 3 -10 -10 10 -11 10 -17 0
-27 -10 -11 -8 -12 10 -6 18 5 22 3 17 -9 -3 -9 -1 -16 5 -16 6 0 11 6 11 14
0 9 8 13 23 10 19 -4 20 -3 5 8 -15 11 -15 13 0 26 15 12 15 13 -5 9 -15 -4
-23 0 -23 9 0 8 -5 14 -11 14 -6 0 -9 -6 -6 -14z"/>
<path d="M8652 1108 c-11 -29 -29 -77 -41 -105 -20 -50 -20 -53 -2 -53 10 0
23 11 29 25 10 21 19 25 52 25 33 0 42 -4 52 -25 6 -14 19 -25 30 -25 10 0 18
1 18 3 0 1 -17 47 -38 102 -30 79 -42 101 -59 103 -17 3 -25 -6 -41 -50z m67
-70 c1 -5 -12 -8 -29 -8 -35 0 -34 -3 -14 46 l17 39 13 -35 c7 -19 13 -38 13
-42z"/>
<path d="M9382 1108 c-11 -29 -29 -77 -41 -105 -20 -50 -20 -53 -2 -53 10 0
23 11 29 25 10 21 19 25 52 25 33 0 42 -4 52 -25 6 -14 19 -25 30 -25 10 0 18
1 18 3 0 1 -17 47 -38 102 -30 79 -42 101 -59 103 -17 3 -25 -6 -41 -50z m67
-70 c1 -5 -12 -8 -29 -8 -35 0 -34 -3 -14 46 l17 39 13 -35 c7 -19 13 -38 13
-42z"/>
<path d="M9830 1040 c0 -53 4 -90 10 -90 6 0 10 18 10 40 0 39 1 40 35 40 19
0 35 5 35 10 0 6 -16 10 -35 10 -32 0 -35 2 -35 30 0 28 2 30 40 30 22 0 40 5
40 10 0 6 -22 10 -50 10 l-50 0 0 -90z"/>
<path d="M10400 1040 c0 -53 4 -90 10 -90 6 0 10 31 10 72 l0 71 50 -71 c28
-40 55 -72 60 -72 6 0 10 38 10 90 0 105 -18 123 -22 23 l-3 -68 -48 68 c-27
37 -53 67 -58 67 -5 0 -9 -40 -9 -90z"/>
<path d="M11000 1039 l0 -92 52 5 c93 9 129 88 69 149 -24 24 -38 29 -75 29
l-46 0 0 -91z m109 45 c12 -15 21 -35 21 -46 0 -30 -45 -68 -80 -68 l-30 0 0
70 0 70 34 0 c25 0 40 -7 55 -26z"/>
<path d="M10860 1100 c0 -11 -7 -23 -16 -27 -15 -5 -15 -7 0 -15 11 -6 16 -23
16 -58 0 -28 5 -50 10 -50 6 0 10 24 10 54 0 44 4 55 18 59 16 4 16 5 0 6 -11
1 -18 9 -18 20 0 11 -4 23 -10 26 -5 3 -10 -3 -10 -15z"/>
<path d="M8887 1093 c-4 -3 -20 -6 -37 -5 l-30 1 0 -70 c0 -62 2 -69 20 -69
17 0 20 7 20 51 0 42 3 52 20 56 11 3 20 14 20 24 0 20 -3 23 -13 12z"/>
<path d="M8953 1085 c-52 -22 -54 -98 -3 -125 24 -13 56 -13 81 1 16 8 18 13
8 25 -8 10 -15 11 -25 3 -16 -13 -56 -8 -62 9 -3 8 12 12 52 12 58 0 62 3 47
43 -13 34 -58 48 -98 32z m57 -30 c11 -13 7 -15 -26 -15 -36 1 -38 2 -20 15
25 19 31 19 46 0z"/>
<path d="M9120 1084 c-39 -17 -50 -66 -22 -103 16 -22 27 -26 76 -27 l56 -1 0
67 0 68 -41 4 c-22 2 -53 -2 -69 -8z m70 -59 c0 -39 -21 -55 -49 -38 -37 24
-25 73 19 73 28 0 30 -3 30 -35z"/>
<path d="M6680 1041 c0 -49 1 -51 29 -51 39 0 51 18 42 60 -6 30 -11 35 -39
38 l-32 3 0 -50z m55 30 c3 -5 1 -13 -5 -16 -15 -9 -43 3 -35 15 8 13 32 13
40 1z m3 -48 c2 -8 -6 -13 -22 -13 -25 0 -33 10 -19 24 10 10 36 3 41 -11z"/>
<path d="M6780 1040 c0 -27 5 -50 10 -50 6 0 10 15 10 33 l0 32 21 -32 c12
-18 25 -33 30 -33 5 0 9 23 9 50 0 28 -4 50 -10 50 -5 0 -10 -15 -10 -32 l0
-33 -21 33 c-12 17 -25 32 -30 32 -5 0 -9 -22 -9 -50z"/>
<path d="M6150 1030 c0 -27 5 -50 10 -50 6 0 10 6 10 14 0 8 11 17 25 20 29 7
35 50 9 60 -43 17 -54 8 -54 -44z m50 15 c0 -8 -7 -15 -15 -15 -8 0 -15 7 -15
15 0 8 7 15 15 15 8 0 15 -7 15 -15z"/>
<path d="M6253 1068 c-33 -43 -15 -92 31 -86 38 4 53 29 40 65 -10 31 -53 44
-71 21z m57 -45 c0 -31 -29 -42 -46 -18 -18 24 -17 30 2 50 21 20 44 3 44 -32z"/>
<path d="M10001 1070 c-8 -4 -20 -6 -28 -3 -10 4 -13 -9 -13 -56 0 -34 4 -61
10 -61 6 0 10 20 10 44 0 34 5 47 23 59 23 16 21 32 -2 17z"/>
<path d="M10055 1056 c-14 -14 -25 -34 -25 -46 0 -46 72 -79 100 -45 10 12 6
13 -23 8 -29 -4 -37 -1 -46 16 -11 20 -10 21 39 21 52 0 62 11 38 42 -24 30
-56 31 -83 4z m63 -13 c2 -9 -7 -13 -27 -13 -31 0 -42 14 -18 23 19 8 40 3 45
-10z"/>
<path d="M10195 1056 c-14 -14 -25 -34 -25 -46 0 -46 72 -79 100 -45 10 12 6
13 -23 8 -29 -4 -37 -1 -46 16 -11 20 -10 21 39 21 52 0 62 11 38 42 -24 30
-56 31 -83 4z m63 -13 c2 -9 -7 -13 -27 -13 -31 0 -42 14 -18 23 19 8 40 3 45
-10z"/>
<path d="M10595 1056 c-14 -14 -25 -34 -25 -46 0 -46 72 -79 100 -45 10 12 6
13 -23 8 -29 -4 -37 -1 -46 16 -11 20 -10 21 39 21 52 0 62 11 38 42 -24 30
-56 31 -83 4z m63 -13 c2 -9 -7 -13 -27 -13 -31 0 -42 14 -18 23 19 8 40 3 45
-10z"/>
<path d="M11213 1069 c-23 -8 -43 -38 -43 -63 0 -32 37 -56 82 -54 l43 2 -3
59 c-3 38 -8 57 -15 54 -7 -2 -19 -1 -27 3 -8 4 -25 4 -37 -1z m45 -18 c8 -5
12 -22 10 -42 -2 -29 -7 -34 -30 -37 -22 -3 -30 2 -40 22 -9 22 -8 29 7 46 20
22 33 24 53 11z"/>
<path d="M10720 1063 c0 -5 7 -17 15 -27 13 -17 12 -23 -6 -53 -24 -39 -9 -45
18 -7 l19 25 14 -25 c7 -14 20 -26 27 -26 11 0 8 9 -8 32 -21 30 -22 32 -6 60
19 32 5 38 -17 7 l-14 -21 -11 21 c-11 20 -31 29 -31 14z"/>
<path d="M11330 1065 c0 -3 11 -28 25 -55 24 -47 24 -52 10 -80 -17 -34 -18
-40 -6 -40 7 0 81 158 81 174 0 3 -4 6 -8 6 -5 0 -17 -19 -26 -42 l-18 -43
-21 43 c-18 36 -37 55 -37 37z"/>
<path d="M5450 979 l0 -50 38 3 c35 3 37 5 38 38 1 45 -11 60 -47 60 -28 0
-29 -2 -29 -51z m60 21 c0 -5 -9 -10 -20 -10 -11 0 -20 5 -20 10 0 6 9 10 20
10 11 0 20 -4 20 -10z m-2 -42 c-7 -19 -38 -22 -38 -4 0 10 9 16 21 16 12 0
19 -5 17 -12z"/>
<path d="M5550 980 c0 -27 5 -50 10 -50 6 0 10 9 10 20 0 13 7 20 20 20 13 0
20 -7 20 -20 0 -11 5 -20 10 -20 6 0 10 23 10 50 0 28 -4 50 -10 50 -5 0 -10
-9 -10 -20 0 -13 -7 -20 -20 -20 -13 0 -20 7 -20 20 0 11 -4 20 -10 20 -5 0
-10 -22 -10 -50z"/>
<path d="M9610 1020 c0 -5 23 -10 50 -10 28 0 50 5 50 10 0 6 -22 10 -50 10
-27 0 -50 -4 -50 -10z"/>
<path d="M5067 1013 c-4 -3 -7 -26 -7 -50 l0 -44 38 3 c34 3 37 6 40 38 3 24
-2 38 -14 47 -19 14 -47 17 -57 6z m51 -45 c-2 -22 -9 -34 -20 -36 -15 -3 -18
4 -18 32 0 30 4 36 21 36 17 0 20 -5 17 -32z"/>
<path d="M5155 1010 c-3 -5 1 -10 9 -10 12 0 16 -10 16 -40 0 -22 5 -40 10
-40 6 0 10 18 10 40 0 29 4 40 15 40 8 0 15 5 15 10 0 6 -15 10 -34 10 -19 0
-38 -4 -41 -10z"/>
<path d="M5866 870 l-69 -38 39 -19 c26 -12 40 -26 42 -41 4 -25 22 -30 22 -6
0 14 5 13 32 -5 46 -28 45 -37 -2 -44 -50 -6 -106 -44 -140 -93 -34 -52 -40
-154 -12 -210 40 -78 113 -124 197 -124 233 0 297 319 84 415 -21 10 -39 21
-39 26 0 4 20 25 45 47 25 22 45 44 45 49 0 18 -56 60 -96 71 -60 17 -72 15
-148 -28z m189 -189 c140 -63 152 -253 22 -339 -33 -22 -52 -27 -103 -27 -53
0 -69 4 -106 30 -80 56 -108 155 -69 240 46 100 157 141 256 96z"/>
<path d="M5909 571 c-24 -24 -29 -38 -29 -76 0 -38 5 -52 29 -76 33 -33 92
-40 127 -15 27 20 14 28 -23 14 -86 -32 -149 76 -83 142 22 22 60 26 90 10 12
-6 21 -7 25 -1 8 15 -29 31 -70 31 -27 0 -44 -8 -66 -29z"/>
<path d="M9450 725 c0 -57 4 -95 10 -95 6 0 10 38 10 95 0 57 -4 95 -10 95 -6
0 -10 -38 -10 -95z"/>
<path d="M10740 725 c0 -57 4 -95 10 -95 6 0 10 38 10 95 0 57 -4 95 -10 95
-6 0 -10 -38 -10 -95z"/>
<path d="M11408 814 c-5 -4 -8 -22 -8 -41 0 -29 -2 -32 -17 -25 -35 18 -83
-18 -83 -62 0 -32 37 -56 82 -54 l43 2 -3 66 c-4 104 -7 122 -14 114z m-20
-83 c8 -5 12 -22 10 -42 -2 -29 -7 -34 -30 -37 -22 -3 -30 2 -40 22 -9 22 -8
29 7 46 20 22 33 24 53 11z"/>
<path d="M3740 766 c0 -25 5 -48 10 -51 6 -3 10 3 10 14 0 14 8 21 28 23 21 2
27 8 27 28 0 22 -5 25 -37 28 l-38 3 0 -45z m58 16 c2 -7 -6 -12 -17 -12 -21
0 -27 11 -14 24 9 9 26 2 31 -12z"/>
<path d="M3840 760 c0 -49 1 -50 29 -50 17 0 33 5 36 10 4 6 -5 10 -19 10 -24
0 -26 4 -26 40 0 22 -4 40 -10 40 -5 0 -10 -22 -10 -50z"/>
<path d="M9130 719 l0 -92 52 5 c93 9 129 88 69 149 -24 24 -38 29 -75 29
l-46 0 0 -91z m109 45 c12 -15 21 -35 21 -46 0 -30 -45 -68 -80 -68 l-30 0 0
70 0 70 34 0 c25 0 40 -7 55 -26z"/>
<path d="M9510 790 c0 -5 5 -10 10 -10 6 0 10 5 10 10 0 6 -4 10 -10 10 -5 0
-10 -4 -10 -10z"/>
<path d="M11100 780 c0 -11 -7 -23 -16 -27 -15 -5 -15 -7 0 -15 11 -6 16 -23
16 -58 0 -28 5 -50 10 -50 6 0 10 24 10 54 0 44 4 55 18 59 16 4 16 5 0 6 -11
1 -18 9 -18 20 0 11 -4 23 -10 26 -5 3 -10 -3 -10 -15z"/>
<path d="M9325 736 c-14 -14 -25 -34 -25 -46 0 -46 72 -79 100 -45 10 12 6 13
-23 8 -29 -4 -37 -1 -46 16 -11 20 -10 21 39 21 52 0 62 11 38 42 -24 30 -56
31 -83 4z m63 -13 c2 -9 -7 -13 -27 -13 -31 0 -42 14 -18 23 19 8 40 3 45 -10z"/>
<path d="M9715 736 c-14 -14 -25 -34 -25 -46 0 -46 72 -79 100 -45 10 12 6 13
-23 8 -29 -4 -37 -1 -46 16 -11 20 -10 21 39 21 52 0 62 11 38 42 -24 30 -56
31 -83 4z m63 -13 c2 -9 -7 -13 -27 -13 -31 0 -42 14 -18 23 19 8 40 3 45 -10z"/>
<path d="M9881 750 c-8 -4 -20 -6 -28 -3 -10 4 -13 -9 -13 -56 0 -34 4 -61 10
-61 6 0 10 20 10 44 0 34 5 47 23 59 23 16 21 32 -2 17z"/>
<path d="M10152 749 c-53 -20 -51 -101 3 -115 59 -15 104 41 72 90 -18 28 -44
36 -75 25z m53 -33 c21 -32 5 -66 -30 -66 -35 0 -51 34 -30 66 8 13 22 24 30
24 8 0 22 -11 30 -24z"/>
<path d="M10315 750 c-11 -4 -26 -5 -32 -3 -10 4 -13 -11 -13 -56 0 -71 17
-83 22 -15 3 50 22 72 52 61 12 -5 16 -19 16 -57 0 -27 5 -50 10 -50 11 0 13
90 2 106 -11 16 -35 22 -57 14z"/>
<path d="M10512 749 c-33 -13 -29 -48 8 -60 41 -15 41 -43 0 -37 -38 6 -51 -9
-16 -18 64 -16 97 43 35 65 -37 13 -34 37 5 34 14 -1 26 2 26 6 0 13 -34 19
-58 10z"/>
<path d="M10615 736 c-14 -14 -25 -34 -25 -46 0 -46 72 -79 100 -45 10 12 6
13 -23 8 -29 -4 -37 -1 -46 16 -11 20 -10 21 39 21 52 0 62 11 38 42 -24 30
-56 31 -83 4z m63 -13 c2 -9 -7 -13 -27 -13 -31 0 -42 14 -18 23 19 8 40 3 45
-10z"/>
<path d="M10825 736 c-14 -14 -25 -34 -25 -46 0 -46 72 -79 100 -45 10 12 6
13 -23 8 -29 -4 -37 -1 -46 16 -11 20 -10 21 39 21 52 0 62 11 38 42 -24 30
-56 31 -83 4z m63 -13 c2 -9 -7 -13 -27 -13 -31 0 -42 14 -18 23 19 8 40 3 45
-10z"/>
<path d="M10983 749 c-75 -28 -36 -135 41 -115 39 10 31 26 -9 19 -30 -5 -36
-2 -46 21 -11 24 -10 30 9 49 19 19 25 20 43 9 22 -14 35 -10 25 6 -9 15 -39
20 -63 11z"/>
<path d="M11185 736 c-14 -14 -25 -34 -25 -46 0 -46 72 -79 100 -45 10 12 6
13 -23 8 -29 -4 -37 -1 -46 16 -11 20 -10 21 39 21 52 0 62 11 38 42 -24 30
-56 31 -83 4z m63 -13 c2 -9 -7 -13 -27 -13 -31 0 -42 14 -18 23 19 8 40 3 45
-10z"/>
<path d="M9510 690 c0 -33 4 -60 10 -60 6 0 10 27 10 60 0 33 -4 60 -10 60 -6
0 -10 -27 -10 -60z"/>
<path d="M9560 746 c0 -20 46 -116 55 -116 11 0 55 89 55 111 0 24 -18 4 -30
-32 -8 -22 -17 -42 -21 -45 -4 -2 -15 16 -25 41 -9 25 -21 45 -25 45 -5 0 -9
-2 -9 -4z"/>
<path d="M9920 745 c0 -3 11 -28 25 -55 24 -47 24 -52 10 -80 -17 -34 -18 -40
-6 -40 7 0 81 158 81 174 0 3 -4 6 -8 6 -5 0 -17 -19 -26 -42 l-18 -43 -21 43
c-18 36 -37 55 -37 37z"/>
<path d="M4225 710 c-3 -5 1 -10 9 -10 12 0 16 -10 16 -39 0 -22 5 -43 10 -46
6 -4 10 12 10 39 0 34 4 46 15 46 8 0 15 5 15 10 0 6 -15 10 -34 10 -19 0 -38
-4 -41 -10z"/>
<path d="M4327 702 c-22 -24 -22 -55 1 -75 18 -17 72 -18 72 -2 0 6 3 20 6 32
4 14 -1 28 -15 42 -26 26 -43 27 -64 3z m58 -22 c8 -24 -19 -55 -40 -46 -15 5
-21 47 -8 59 13 14 42 6 48 -13z"/>
<path d="M3245 560 c-3 -5 1 -10 9 -10 12 0 16 -10 16 -40 0 -22 5 -40 10 -40
6 0 10 18 10 40 0 30 4 40 16 40 8 0 12 5 9 10 -3 6 -19 10 -35 10 -16 0 -32
-4 -35 -10z"/>
<path d="M3330 520 c0 -27 5 -50 10 -50 6 0 10 7 10 15 0 8 9 15 20 15 11 0
20 -6 20 -14 0 -8 4 -18 10 -21 13 -8 11 76 -3 93 -5 6 -22 12 -38 12 -28 0
-29 -2 -29 -50z m60 15 c0 -8 -9 -15 -20 -15 -11 0 -20 7 -20 15 0 8 9 15 20
15 11 0 20 -7 20 -15z"/>
<path d="M10278 494 c-5 -4 -8 -22 -8 -41 0 -29 -2 -32 -17 -25 -35 18 -83
-18 -83 -62 0 -32 37 -56 82 -54 l43 2 -3 66 c-4 104 -7 122 -14 114z m-20
-83 c8 -5 12 -22 10 -42 -2 -29 -7 -34 -30 -37 -22 -3 -30 2 -40 22 -9 22 -8
29 7 46 20 22 33 24 53 11z"/>
<path d="M10400 407 l0 -93 42 -1 c64 -3 93 35 72 92 -9 24 -51 37 -75 25 -17
-10 -19 -7 -19 30 0 22 -4 40 -10 40 -6 0 -10 -38 -10 -93z m88 1 c7 -7 12
-22 12 -34 0 -51 -72 -61 -78 -11 -6 47 36 75 66 45z"/>
<path d="M10760 405 c0 -57 4 -95 10 -95 6 0 10 38 10 95 0 57 -4 95 -10 95
-6 0 -10 -38 -10 -95z"/>
<path d="M10928 494 c-5 -4 -8 -22 -8 -41 0 -29 -2 -32 -17 -25 -35 18 -83
-18 -83 -62 0 -32 37 -56 82 -54 l43 2 -3 66 c-4 104 -7 122 -14 114z m-20
-83 c8 -5 12 -22 10 -42 -2 -29 -7 -34 -30 -37 -22 -3 -30 2 -40 22 -9 22 -8
29 7 46 20 22 33 24 53 11z"/>
<path d="M9370 470 c0 -5 5 -10 10 -10 6 0 10 5 10 10 0 6 -4 10 -10 10 -5 0
-10 -4 -10 -10z"/>
<path d="M10700 470 c0 -5 5 -10 10 -10 6 0 10 5 10 10 0 6 -4 10 -10 10 -5 0
-10 -4 -10 -10z"/>
<path d="M10980 470 c0 -5 5 -10 10 -10 6 0 10 5 10 10 0 6 -4 10 -10 10 -5 0
-10 -4 -10 -10z"/>
<path d="M9282 429 c-33 -13 -29 -48 8 -60 41 -15 41 -43 0 -37 -38 6 -51 -9
-16 -18 64 -16 97 43 35 65 -37 13 -34 37 5 34 14 -1 26 2 26 6 0 13 -34 19
-58 10z"/>
<path d="M9565 416 c-14 -14 -25 -34 -25 -46 0 -46 72 -79 100 -45 10 12 6 13
-23 8 -29 -4 -37 -1 -46 16 -11 20 -10 21 39 21 52 0 62 11 38 42 -24 30 -56
31 -83 4z m63 -13 c2 -9 -7 -13 -27 -13 -31 0 -42 14 -18 23 19 8 40 3 45 -10z"/>
<path d="M9712 429 c-33 -13 -29 -48 8 -60 41 -15 41 -43 0 -37 -38 6 -51 -9
-16 -18 64 -16 97 43 35 65 -37 13 -34 37 5 34 14 -1 26 2 26 6 0 13 -34 19
-58 10z"/>
<path d="M9903 429 c-23 -8 -43 -38 -43 -63 0 -32 37 -56 82 -54 l43 2 -3 59
c-3 38 -8 57 -15 54 -7 -2 -19 -1 -27 3 -8 4 -25 4 -37 -1z m45 -18 c8 -5 12
-22 10 -42 -2 -29 -7 -34 -30 -37 -22 -3 -30 2 -40 22 -9 22 -8 29 7 46 20 22
33 24 53 11z"/>
<path d="M10075 430 c-11 -4 -26 -5 -32 -3 -10 4 -13 -11 -13 -56 0 -71 17
-83 22 -15 3 50 22 72 52 61 12 -5 16 -19 16 -57 0 -27 5 -50 10 -50 11 0 13
90 2 106 -11 16 -35 22 -57 14z"/>
<path d="M11085 430 c-11 -4 -26 -5 -32 -3 -10 4 -13 -11 -13 -56 0 -71 17
-83 22 -15 3 50 22 72 52 61 12 -5 16 -19 16 -57 0 -27 5 -50 10 -50 11 0 13
90 2 106 -11 16 -35 22 -57 14z"/>
<path d="M11223 429 c-71 -26 -41 -130 34 -116 20 4 24 1 21 -17 -2 -16 -11
-21 -38 -23 -54 -2 -56 -3 -40 -13 23 -15 67 -12 84 6 21 20 24 168 4 161 -7
-2 -20 -1 -28 3 -8 4 -25 4 -37 -1z m45 -18 c8 -5 12 -22 10 -42 -2 -29 -7
-34 -30 -37 -22 -3 -30 2 -40 22 -9 22 -8 29 7 46 20 22 33 24 53 11z"/>
<path d="M11372 429 c-33 -13 -29 -48 8 -60 41 -15 41 -43 0 -37 -38 6 -51 -9
-16 -18 64 -16 97 43 35 65 -37 13 -34 37 5 34 14 -1 26 2 26 6 0 13 -34 19
-58 10z"/>
<path d="M9370 370 c0 -33 4 -60 10 -60 6 0 10 27 10 60 0 33 -4 60 -10 60 -6
0 -10 -27 -10 -60z"/>
<path d="M9454 421 l39 -6 -37 -43 c-20 -24 -36 -48 -36 -53 0 -5 23 -9 50 -9
57 0 68 17 14 22 l-35 3 35 42 c20 22 36 44 36 47 0 3 -24 5 -52 5 -51 -2 -51
-2 -14 -8z"/>
<path d="M10550 381 c0 -58 12 -71 68 -68 l42 1 0 58 c0 70 -18 78 -22 11 -3
-46 -4 -48 -33 -48 -29 0 -30 2 -33 48 -4 62 -22 61 -22 -2z"/>
<path d="M10700 370 c0 -33 4 -60 10 -60 6 0 10 27 10 60 0 33 -4 60 -10 60
-6 0 -10 -27 -10 -60z"/>
<path d="M10980 370 c0 -33 4 -60 10 -60 6 0 10 27 10 60 0 33 -4 60 -10 60
-6 0 -10 -27 -10 -60z"/>
</g>
</svg>
