<svg width="638" height="614" viewBox="0 0 638 614" fill="none" xmlns="http://www.w3.org/2000/svg">
<path d="M0.597617 11.6866C2.94504 3.31082 11.5387 -1.63106 19.9228 0.491311L20.3212 0.597756L90.29 20.2062L90.7978 20.3536C101.258 23.4775 109.306 31.8773 111.979 42.461L112.104 42.9747L125.761 101.177L606.512 107.756C625.71 108.019 639.977 125.463 636.602 144.218L636.428 145.111L591.492 359.541C585.09 390.092 558.196 412.004 526.944 412.004H178.3L178.097 411.999C176.346 411.954 172.531 412.595 168.043 414.786C163.697 416.908 159.946 419.892 157.544 423.271C151.415 431.891 150.5 438.391 150.5 445.5C150.5 451.388 152.657 458.351 157.19 464.25L157.524 464.679C161.004 469.061 165.248 472.201 169.35 474.247C173.784 476.459 177.248 477.004 178.504 477.004H542.5C542.503 477.007 542.504 477.223 542.504 493.004C542.504 508.673 542.503 508.997 542.5 509.004H513.188C525.648 519.998 533.508 536.085 533.508 554.008C533.508 587.145 506.645 614.008 473.508 614.008C440.371 614.008 413.508 587.145 413.508 554.008C413.508 536.085 421.367 519.998 433.827 509.004H257.188C269.648 519.998 277.508 536.085 277.508 554.008C277.508 587.145 250.645 614.008 217.508 614.008C184.371 614.008 157.508 587.145 157.508 554.008C157.508 536.081 165.37 519.992 177.834 508.997C164.488 508.747 145.544 501.063 132.447 484.556L131.817 483.749C123.093 472.397 118.5 458.612 118.5 445.5C118.5 433.609 120.53 420.109 131.464 404.73C137.593 396.108 145.936 389.969 154.004 386.03C155.696 385.204 157.434 384.447 159.198 383.769C147.068 332.071 132.529 270.106 120.608 219.3C114.023 191.235 108.237 166.575 104.097 148.931C102.027 140.109 100.368 133.04 99.2275 128.178C98.6571 125.747 98.2164 123.867 97.9179 122.595C97.7688 121.959 97.6543 121.475 97.5781 121.15C97.54 120.988 97.5114 120.864 97.4921 120.782C97.4826 120.742 97.4754 120.71 97.4707 120.69C97.4692 120.683 97.4654 120.67 97.4648 120.667C97.4643 120.665 97.4641 120.662 97.4638 120.661L113.04 117.004L97.4629 120.659L81.0859 50.8595L11.6865 31.4103L11.29 31.294C3.02419 28.7501 -1.74957 20.0624 0.597617 11.6866ZM217.508 526.008C202.044 526.008 189.508 538.544 189.508 554.008C189.508 569.472 202.044 582.008 217.508 582.008C232.972 582.008 245.508 569.472 245.508 554.008C245.508 538.544 232.972 526.008 217.508 526.008ZM473.508 526.008C458.044 526.008 445.508 538.544 445.508 554.008C445.508 569.472 458.044 582.008 473.508 582.008C488.972 582.008 501.508 569.472 501.508 554.008C501.508 538.544 488.972 526.008 473.508 526.008ZM542.504 477.004C551.34 477.004 558.504 484.168 558.504 493.004C558.504 501.841 551.34 509.004 542.504 509.004V477.004ZM135.251 141.621C139.391 159.265 145.177 183.925 151.762 211.99C163.956 263.963 178.892 327.613 191.185 380.004H526.944C543.015 380.004 556.869 368.744 560.173 352.978L604.858 139.735L133.294 133.281C133.896 135.848 134.55 138.635 135.251 141.621ZM369.311 265.489C392.727 265.097 409.327 271.186 428.135 284.239L428.878 284.76C443.886 295.361 453.19 307.629 461.602 322.456L462.427 323.923L462.58 324.207C465.718 330.19 463.529 337.619 457.593 340.927C451.657 344.235 444.188 342.19 440.75 336.373L440.589 336.094L439.873 334.819C432.716 322.198 425.743 313.279 414.971 305.547L413.881 304.777C398.974 294.431 387.525 290.309 370.49 290.475L368.824 290.505C352.089 290.929 341.765 293.948 329.464 303.376L328.267 304.309C318.477 312.059 311.789 321.332 304.155 334.801L303.413 336.118C300.039 342.141 292.421 344.288 286.398 340.914C280.376 337.54 278.229 329.922 281.603 323.9L282.403 322.477C290.69 307.851 299.289 295.364 312.749 284.708L313.581 284.056C331.017 270.5 346.782 266.055 368.191 265.513L369.311 265.489ZM295.008 183.008C309.091 183.008 320.508 194.425 320.508 208.508C320.508 222.591 309.091 234.008 295.008 234.008C280.924 234.008 269.508 222.591 269.508 208.508C269.508 194.425 280.925 183.008 295.008 183.008ZM451.008 183.008C465.091 183.008 476.508 194.425 476.508 208.508C476.508 222.591 465.091 234.008 451.008 234.008C436.924 234.008 425.508 222.591 425.508 208.508C425.508 194.425 436.925 183.008 451.008 183.008Z" fill="#3B333D" fill-opacity="0.3"/>
</svg>
