<svg width="1258" height="64" viewBox="0 0 1258 64" fill="none" xmlns="http://www.w3.org/2000/svg">
<g clip-path="url(#clip0_806_1225)">
<rect y="0.5" width="2176" height="123" rx="25" fill="#00FF6C"/>
<circle cx="625.5" cy="61" r="482.5" fill="#FFFFAA"/>
<path d="M284.107 18.6523H288.889V44H284.107V33.0137H272.734V44H267.953V18.6523H272.734V29.0059H284.107V18.6523ZM305.535 26.7207H310.211V44H305.852V42.3828C304.357 43.6836 302.529 44.3164 300.35 44.3164C298.205 44.3164 296.553 43.666 295.357 42.3301C294.162 41.0117 293.582 39.2363 293.582 37.0039V26.7207H298.258V36.5293C298.258 37.7422 298.539 38.6914 299.102 39.3594C299.664 40.0273 300.455 40.3613 301.457 40.3613C302.178 40.3613 302.916 40.1855 303.654 39.834C304.393 39.4824 305.008 39.0254 305.535 38.4277V26.7207ZM319.07 28.3203C319.773 27.6172 320.564 27.125 321.408 26.8438C322.252 26.5625 323.359 26.4043 324.713 26.4043V30.8516C324.361 30.7812 323.922 30.7285 323.412 30.7285C322.674 30.7285 321.953 30.9043 321.25 31.2383C320.547 31.5898 319.932 32.0645 319.404 32.6797V44H314.711V26.7207H319.07V28.3203ZM331.902 28.3203C332.605 27.6172 333.396 27.125 334.24 26.8438C335.084 26.5625 336.191 26.4043 337.545 26.4043V30.8516C337.193 30.7812 336.754 30.7285 336.244 30.7285C335.506 30.7285 334.785 30.9043 334.082 31.2383C333.379 31.5898 332.764 32.0645 332.236 32.6797V44H327.543V26.7207H331.902V28.3203ZM352.205 26.7207H357.25L346.176 52.0684H341.184L345.613 42.5059L338.16 26.7207H343.205L347.934 37.1094L352.205 26.7207ZM378.625 26.7207H383.301V44H378.941V42.3828C377.447 43.6836 375.619 44.3164 373.439 44.3164C371.295 44.3164 369.643 43.666 368.447 42.3301C367.252 41.0117 366.672 39.2363 366.672 37.0039V26.7207H371.348V36.5293C371.348 37.7422 371.629 38.6914 372.191 39.3594C372.754 40.0273 373.545 40.3613 374.547 40.3613C375.268 40.3613 376.006 40.1855 376.744 39.834C377.482 39.4824 378.098 39.0254 378.625 38.4277V26.7207ZM396.977 26.4043C398.523 26.4043 399.947 26.7734 401.266 27.4941C402.584 28.2324 403.656 29.2871 404.465 30.6582C405.273 32.0293 405.695 33.5938 405.695 35.3164C405.695 36.6523 405.449 37.9004 404.957 39.043C404.465 40.2031 403.832 41.1523 403.023 41.9258C402.215 42.6992 401.283 43.2969 400.229 43.7363C399.174 44.1758 398.102 44.3867 396.977 44.3867C395.201 44.3867 393.707 43.8594 392.494 42.8047V52.0684H387.801V26.7207H392.371V28.0566C393.725 26.9668 395.254 26.4043 396.977 26.4043ZM396.203 40.4141C397.539 40.4141 398.664 39.9746 399.596 39.0605C400.527 38.1641 401.002 36.916 401.002 35.3164C401.002 33.8047 400.527 32.5918 399.613 31.6953C398.682 30.8164 397.609 30.3594 396.379 30.3594C394.797 30.3594 393.479 30.957 392.424 32.1348V38.6914C393.461 39.8516 394.727 40.4141 396.203 40.4141ZM409.65 36.6699V18.6523H414.15V36.6699H409.65ZM409.475 39.3066H414.379V44H409.475V39.3066ZM439.709 44.3516C437.793 44.3516 436 44.0176 434.348 43.3496C432.695 42.6816 431.289 41.75 430.129 40.5898C428.969 39.4297 428.055 38.0586 427.387 36.4414C426.719 34.8418 426.402 33.1367 426.402 31.3262C426.402 29.5156 426.736 27.8105 427.404 26.1934C428.072 24.5938 428.986 23.2051 430.146 22.0273C431.307 20.8672 432.713 19.9355 434.383 19.25C436.035 18.582 437.828 18.2305 439.744 18.2305C441.643 18.2305 443.418 18.582 445.088 19.25C446.74 19.9355 448.164 20.8672 449.324 22.0273C450.484 23.2051 451.398 24.5938 452.066 26.1934C452.734 27.8105 453.068 29.5156 453.068 31.3262C453.068 33.1367 452.734 34.8418 452.066 36.4414C451.398 38.0586 450.484 39.4297 449.324 40.5898C448.164 41.75 446.74 42.6816 445.07 43.3496C443.4 44.0176 441.607 44.3516 439.709 44.3516ZM439.744 39.9395C442.188 39.9395 444.209 39.1309 445.791 37.4961C447.373 35.8613 448.182 33.8223 448.182 31.3613C448.182 28.9004 447.373 26.8438 445.773 25.1738C444.174 23.5039 442.17 22.6602 439.744 22.6602C437.301 22.6602 435.279 23.5039 433.68 25.1738C432.08 26.8438 431.289 28.9004 431.289 31.3613C431.289 33.8223 432.08 35.8613 433.662 37.4961C435.244 39.1309 437.283 39.9395 439.744 39.9395ZM468.449 26.7207H473.125V44H468.766V42.3828C467.271 43.6836 465.443 44.3164 463.264 44.3164C461.119 44.3164 459.467 43.666 458.271 42.3301C457.076 41.0117 456.496 39.2363 456.496 37.0039V26.7207H461.172V36.5293C461.172 37.7422 461.453 38.6914 462.016 39.3594C462.578 40.0273 463.369 40.3613 464.371 40.3613C465.092 40.3613 465.83 40.1855 466.568 39.834C467.307 39.4824 467.922 39.0254 468.449 38.4277V26.7207ZM481.984 28.3203C482.688 27.6172 483.479 27.125 484.322 26.8438C485.166 26.5625 486.273 26.4043 487.627 26.4043V30.8516C487.275 30.7812 486.836 30.7285 486.326 30.7285C485.588 30.7285 484.867 30.9043 484.164 31.2383C483.461 31.5898 482.846 32.0645 482.318 32.6797V44H477.625V26.7207H481.984V28.3203ZM510.25 30.7637C511.357 31.4316 512.236 32.293 512.887 33.3301C513.52 34.3848 513.854 35.5801 513.854 36.916C513.854 39.2012 513.027 41.0117 511.41 42.3477C509.775 43.6836 507.648 44.3516 505.012 44.3516C502.762 44.3516 500.898 43.8242 499.422 42.7695C497.945 41.7148 496.873 40.1855 496.205 38.1816L500.547 36.8809C501.145 39.0078 502.586 40.0625 504.871 40.0625C506.102 40.0625 507.104 39.7461 507.842 39.0957C508.58 38.4453 508.967 37.5664 508.967 36.4766C508.967 35.3516 508.58 34.4727 507.842 33.8398C507.086 33.207 506.084 32.873 504.854 32.873V32.3281V32.873H502.234V29.0059H504.854C505.996 29.0059 506.893 28.6895 507.543 28.0391C508.193 27.4062 508.527 26.5625 508.527 25.5254C508.527 24.6465 508.211 23.9258 507.613 23.3633C506.998 22.8008 506.172 22.5195 505.117 22.5195C503.113 22.5195 501.812 23.6094 501.18 25.7891L496.961 23.9961C497.559 22.1855 498.543 20.7793 499.914 19.7598C501.268 18.7402 503.025 18.2305 505.188 18.2305C507.613 18.2305 509.582 18.8457 511.076 20.0762C512.553 21.3066 513.309 22.959 513.309 25.0332C513.309 26.2285 513.027 27.3184 512.5 28.3027C511.955 29.2871 511.199 30.1133 510.25 30.7637ZM526.809 44.3516C523.732 44.3516 521.342 43.2441 519.654 40.9941C517.967 38.7617 517.123 35.5273 517.123 31.291C517.123 27.0723 517.967 23.8555 519.654 21.6055C521.342 19.3555 523.715 18.2305 526.773 18.2305C529.832 18.2305 532.188 19.3555 533.875 21.6055C535.545 23.8555 536.389 27.0898 536.389 31.3438C536.389 35.5801 535.545 38.8145 533.893 41.0293C532.223 43.2441 529.867 44.3516 526.809 44.3516ZM526.809 39.9395C528.338 39.9395 529.498 39.2715 530.307 37.918C531.098 36.5645 531.502 34.4023 531.502 31.4141C531.502 25.5781 529.92 22.6602 526.773 22.6602C523.592 22.6602 522.01 25.5605 522.01 31.3613C522.01 37.0918 523.609 39.9395 526.809 39.9395ZM544.598 30.6055C543.104 30.6055 541.838 30.0957 540.783 29.041C539.729 27.9863 539.201 26.7207 539.201 25.2266C539.201 23.75 539.729 22.4668 540.783 21.4121C541.838 20.3574 543.104 19.8301 544.598 19.8301C546.074 19.8301 547.34 20.3574 548.395 21.4121C549.449 22.4668 549.977 23.75 549.977 25.2266C549.977 26.7207 549.449 27.9863 548.395 29.041C547.34 30.0957 546.074 30.6055 544.598 30.6055ZM555.584 20.5156H559.926L546.197 41.9961H541.855L555.584 20.5156ZM544.598 27.125C545.125 27.125 545.564 26.9492 545.934 26.5801C546.303 26.2109 546.496 25.7539 546.496 25.2266C546.496 24.6992 546.303 24.2598 545.934 23.873C545.564 23.5039 545.125 23.3105 544.598 23.3105C544.07 23.3105 543.613 23.5039 543.244 23.873C542.857 24.2598 542.682 24.6992 542.682 25.2266C542.682 25.7539 542.857 26.2109 543.244 26.5801C543.613 26.9492 544.07 27.125 544.598 27.125ZM557.096 42.6992C555.602 42.6992 554.336 42.1895 553.281 41.1348C552.227 40.0801 551.717 38.8145 551.717 37.3203C551.717 35.8438 552.227 34.5781 553.281 33.5234C554.336 32.4688 555.602 31.9414 557.096 31.9414C558.572 31.9414 559.838 32.4688 560.893 33.5234C561.947 34.5781 562.475 35.8438 562.475 37.3203C562.475 38.8145 561.947 40.0801 560.893 41.1348C559.838 42.1895 558.572 42.6992 557.096 42.6992ZM557.096 39.2188C557.623 39.2188 558.062 39.043 558.449 38.6738C558.818 38.3047 559.012 37.8477 559.012 37.3203C559.012 36.793 558.818 36.3535 558.449 35.9668C558.062 35.5977 557.623 35.4043 557.096 35.4043C556.568 35.4043 556.111 35.5977 555.742 35.9668C555.373 36.3535 555.197 36.793 555.197 37.3203C555.197 37.8477 555.373 38.3047 555.742 38.6738C556.111 39.043 556.568 39.2188 557.096 39.2188ZM586.521 44.3516C584.605 44.3516 582.812 44.0176 581.16 43.3496C579.508 42.6816 578.102 41.75 576.941 40.5898C575.781 39.4297 574.867 38.0586 574.199 36.4414C573.531 34.8418 573.215 33.1367 573.215 31.3262C573.215 29.5156 573.549 27.8105 574.217 26.1934C574.885 24.5938 575.799 23.2051 576.959 22.0273C578.119 20.8672 579.525 19.9355 581.195 19.25C582.848 18.582 584.641 18.2305 586.557 18.2305C588.455 18.2305 590.23 18.582 591.9 19.25C593.553 19.9355 594.977 20.8672 596.137 22.0273C597.297 23.2051 598.211 24.5938 598.879 26.1934C599.547 27.8105 599.881 29.5156 599.881 31.3262C599.881 33.1367 599.547 34.8418 598.879 36.4414C598.211 38.0586 597.297 39.4297 596.137 40.5898C594.977 41.75 593.553 42.6816 591.883 43.3496C590.213 44.0176 588.42 44.3516 586.521 44.3516ZM586.557 39.9395C589 39.9395 591.021 39.1309 592.604 37.4961C594.186 35.8613 594.994 33.8223 594.994 31.3613C594.994 28.9004 594.186 26.8438 592.586 25.1738C590.986 23.5039 588.982 22.6602 586.557 22.6602C584.113 22.6602 582.092 23.5039 580.492 25.1738C578.893 26.8438 578.102 28.9004 578.102 31.3613C578.102 33.8223 578.893 35.8613 580.475 37.4961C582.057 39.1309 584.096 39.9395 586.557 39.9395ZM620.078 22.6602H609.004V29.5156H618.566V33.5234H609.004V44H604.223V18.6523H609.004H620.078V22.6602ZM639.941 22.6602H628.867V29.5156H638.43V33.5234H628.867V44H624.086V18.6523H628.867H639.941V22.6602ZM666.906 18.6523H671.951L662.67 44H657.59L648.291 18.6523H653.336L660.121 37.8477L666.906 18.6523ZM680.09 44.3516C678.385 44.3516 676.82 43.9824 675.414 43.2266C673.99 42.4707 672.865 41.3984 672.039 40.0273C671.213 38.6562 670.809 37.127 670.809 35.4219C670.809 33.7344 671.213 32.1875 672.039 30.7988C672.848 29.4277 673.973 28.3379 675.379 27.5645C676.785 26.791 678.35 26.4043 680.055 26.4043C682.656 26.4043 684.854 27.2656 686.646 28.9883C688.439 30.7109 689.336 32.8555 689.336 35.4219C689.336 38.0059 688.439 40.1328 686.664 41.8203C684.871 43.5078 682.691 44.3516 680.09 44.3516ZM680.055 40.3789C681.426 40.3789 682.533 39.9395 683.377 39.0254C684.221 38.1289 684.643 36.9512 684.643 35.4746C684.643 34.0332 684.221 32.8379 683.395 31.8535C682.568 30.8691 681.461 30.377 680.09 30.377C678.719 30.377 677.611 30.8691 676.768 31.8184C675.924 32.7852 675.502 33.998 675.502 35.4746C675.502 36.9512 675.906 38.1289 676.732 39.0254C677.559 39.9395 678.666 40.3789 680.055 40.3789ZM704.559 26.7207H709.234V44H704.875V42.3828C703.381 43.6836 701.553 44.3164 699.373 44.3164C697.229 44.3164 695.576 43.666 694.381 42.3301C693.186 41.0117 692.605 39.2363 692.605 37.0039V26.7207H697.281V36.5293C697.281 37.7422 697.562 38.6914 698.125 39.3594C698.688 40.0273 699.479 40.3613 700.48 40.3613C701.201 40.3613 701.939 40.1855 702.678 39.834C703.416 39.4824 704.031 39.0254 704.559 38.4277V26.7207ZM729.66 40.502C728.834 41.6973 727.744 42.6465 726.408 43.332C725.072 44.0176 723.596 44.3516 721.996 44.3516C720.291 44.3516 718.727 43.9824 717.32 43.2266C715.914 42.4707 714.789 41.3984 713.963 40.0273C713.119 38.6562 712.715 37.127 712.715 35.4219C712.715 33.7344 713.119 32.1875 713.945 30.7988C714.754 29.4277 715.879 28.3379 717.285 27.5645C718.691 26.791 720.256 26.4043 721.961 26.4043C725.371 26.4043 727.92 27.7051 729.643 30.3066L726.039 32.5566C725.02 31.1152 723.666 30.377 721.979 30.377C720.607 30.377 719.518 30.8691 718.674 31.8184C717.83 32.7676 717.408 33.998 717.408 35.4746C717.408 36.9512 717.812 38.1465 718.639 39.043C719.465 39.9395 720.572 40.3789 721.943 40.3789C723.701 40.3789 725.125 39.6758 726.215 38.2344L729.66 40.502ZM742.756 26.4043C744.953 26.4043 746.658 27.0723 747.854 28.4082C749.049 29.7441 749.646 31.5547 749.646 33.8398V44H744.953V34.1914C744.953 32.9961 744.654 32.0469 744.074 31.3789C743.477 30.7109 742.668 30.3594 741.648 30.3594C740.893 30.3594 740.137 30.5352 739.398 30.8867C738.66 31.2383 738.027 31.6953 737.518 32.293V44H732.824V18.1074H737.377V28.1797C738.836 27.002 740.629 26.4043 742.756 26.4043ZM757.539 36.5293C757.715 37.7949 758.207 38.7441 759.016 39.3945C759.824 40.0625 760.826 40.3789 762.057 40.3789C764.008 40.3789 765.572 39.5527 766.768 37.9004L769.721 40.5547C768.842 41.7852 767.734 42.7168 766.416 43.3672C765.098 44.0352 763.639 44.3516 762.057 44.3516C760.703 44.3516 759.455 44.123 758.312 43.6484C757.152 43.1914 756.186 42.5586 755.412 41.75C754.621 40.9414 754.006 39.9922 753.566 38.9023C753.127 37.8125 752.916 36.6523 752.916 35.4219C752.916 33.7695 753.285 32.2578 754.041 30.8867C754.797 29.5156 755.869 28.4258 757.275 27.6172C758.682 26.8086 760.264 26.4043 762.057 26.4043C764.658 26.4043 766.785 27.2656 768.42 28.9531C770.037 30.6582 770.863 32.9434 770.863 35.8086C770.863 36.0195 770.846 36.248 770.828 36.5293H757.539ZM762.162 30.2539C761.037 30.2539 760.105 30.5352 759.332 31.0801C758.559 31.625 758.031 32.3984 757.732 33.418H766.311C765.73 31.3086 764.342 30.2539 762.162 30.2539ZM778.457 28.3203C779.16 27.6172 779.951 27.125 780.795 26.8438C781.639 26.5625 782.746 26.4043 784.1 26.4043V30.8516C783.748 30.7812 783.309 30.7285 782.799 30.7285C782.061 30.7285 781.34 30.9043 780.637 31.2383C779.934 31.5898 779.318 32.0645 778.791 32.6797V44H774.098V26.7207H778.457V28.3203ZM797.863 36.5293C798.039 37.7949 798.531 38.7441 799.34 39.3945C800.148 40.0625 801.15 40.3789 802.381 40.3789C804.332 40.3789 805.896 39.5527 807.092 37.9004L810.045 40.5547C809.166 41.7852 808.059 42.7168 806.74 43.3672C805.422 44.0352 803.963 44.3516 802.381 44.3516C801.027 44.3516 799.779 44.123 798.637 43.6484C797.477 43.1914 796.51 42.5586 795.736 41.75C794.945 40.9414 794.33 39.9922 793.891 38.9023C793.451 37.8125 793.24 36.6523 793.24 35.4219C793.24 33.7695 793.609 32.2578 794.365 30.8867C795.121 29.5156 796.193 28.4258 797.6 27.6172C799.006 26.8086 800.588 26.4043 802.381 26.4043C804.982 26.4043 807.109 27.2656 808.744 28.9531C810.361 30.6582 811.188 32.9434 811.188 35.8086C811.188 36.0195 811.17 36.248 811.152 36.5293H797.863ZM802.486 30.2539C801.361 30.2539 800.43 30.5352 799.656 31.0801C798.883 31.625 798.355 32.3984 798.057 33.418H806.635C806.055 31.3086 804.666 30.2539 802.486 30.2539ZM824.354 26.4043C826.568 26.4043 828.256 27.0723 829.451 28.4082C830.646 29.7441 831.244 31.5547 831.244 33.8398V44H826.551V34.1914C826.551 32.9961 826.252 32.0469 825.689 31.3789C825.109 30.7109 824.301 30.3594 823.264 30.3594C822.508 30.3594 821.752 30.5352 821.014 30.8867C820.258 31.2383 819.625 31.7129 819.115 32.293V44H814.422V26.7207H818.781V28.3379C820.275 27.0547 822.139 26.4043 824.354 26.4043ZM852.848 44H848.365L847.943 42.5059C846.66 43.7188 845.078 44.3164 843.197 44.3164C841.65 44.3164 840.227 43.9473 838.908 43.209C837.59 42.4707 836.518 41.416 835.709 40.0273C834.9 38.6562 834.496 37.0918 834.496 35.3516C834.496 33.6113 834.9 32.0469 835.727 30.6406C836.553 29.252 837.625 28.1797 838.961 27.4414C840.279 26.7031 841.703 26.334 843.25 26.334C844.938 26.334 846.396 26.8438 847.627 27.8633V18.1074H852.303V41.5391L852.848 44ZM843.865 40.3613C845.43 40.3613 846.73 39.7812 847.785 38.6035V32.0469C846.748 30.8867 845.447 30.3066 843.883 30.3066C842.617 30.3066 841.51 30.7637 840.578 31.6602C839.646 32.5742 839.189 33.7871 839.189 35.334C839.189 36.8809 839.646 38.0938 840.578 39.0078C841.492 39.9219 842.6 40.3613 843.865 40.3613ZM870.285 38.7793C870.285 40.4316 869.617 41.75 868.281 42.7695C866.945 43.7891 865.135 44.2812 862.867 44.2812C861.426 44.2812 860.02 44.0879 858.666 43.6836C857.295 43.2793 856.205 42.7168 855.361 41.9785L857.787 38.5859C859.123 39.8164 860.846 40.4316 862.955 40.4316C864.713 40.4316 865.592 39.9746 865.592 39.0605C865.592 38.7617 865.451 38.498 865.188 38.252C864.924 38.0234 864.572 37.8301 864.15 37.6895C863.729 37.5488 863.236 37.3906 862.691 37.2148C862.129 37.0391 861.566 36.8809 861.004 36.7051C860.441 36.5469 859.879 36.3184 859.334 36.0371C858.771 35.7559 858.279 35.4395 857.857 35.0879C857.436 34.7363 857.084 34.2793 856.82 33.7168C856.557 33.1543 856.434 32.5039 856.434 31.7832C856.434 30.166 857.066 28.8828 858.35 27.916C859.633 26.9668 861.443 26.4746 863.781 26.4746C866.277 26.4746 868.404 27.0547 870.162 28.1797L867.824 31.5547C866.629 30.6934 865.24 30.2539 863.658 30.2539C862.779 30.2539 862.146 30.377 861.725 30.623C861.303 30.8691 861.109 31.168 861.109 31.5547C861.109 31.8711 861.268 32.1523 861.619 32.3984C861.953 32.6445 862.393 32.8379 862.938 33.0137C863.465 33.1895 864.062 33.3652 864.713 33.541C865.363 33.7344 866.014 33.9629 866.664 34.2266C867.314 34.5078 867.912 34.8242 868.457 35.1934C868.984 35.5625 869.424 36.0547 869.775 36.6699C870.109 37.2852 870.285 37.9883 870.285 38.7793ZM895.352 38.7793C895.352 40.4316 894.684 41.75 893.348 42.7695C892.012 43.7891 890.201 44.2812 887.934 44.2812C886.492 44.2812 885.086 44.0879 883.732 43.6836C882.361 43.2793 881.271 42.7168 880.428 41.9785L882.854 38.5859C884.189 39.8164 885.912 40.4316 888.021 40.4316C889.779 40.4316 890.658 39.9746 890.658 39.0605C890.658 38.7617 890.518 38.498 890.254 38.252C889.99 38.0234 889.639 37.8301 889.217 37.6895C888.795 37.5488 888.303 37.3906 887.758 37.2148C887.195 37.0391 886.633 36.8809 886.07 36.7051C885.508 36.5469 884.945 36.3184 884.4 36.0371C883.838 35.7559 883.346 35.4395 882.924 35.0879C882.502 34.7363 882.15 34.2793 881.887 33.7168C881.623 33.1543 881.5 32.5039 881.5 31.7832C881.5 30.166 882.133 28.8828 883.416 27.916C884.699 26.9668 886.51 26.4746 888.848 26.4746C891.344 26.4746 893.471 27.0547 895.229 28.1797L892.891 31.5547C891.695 30.6934 890.307 30.2539 888.725 30.2539C887.846 30.2539 887.213 30.377 886.791 30.623C886.369 30.8691 886.176 31.168 886.176 31.5547C886.176 31.8711 886.334 32.1523 886.686 32.3984C887.02 32.6445 887.459 32.8379 888.004 33.0137C888.531 33.1895 889.129 33.3652 889.779 33.541C890.43 33.7344 891.08 33.9629 891.73 34.2266C892.381 34.5078 892.979 34.8242 893.523 35.1934C894.051 35.5625 894.49 36.0547 894.842 36.6699C895.176 37.2852 895.352 37.9883 895.352 38.7793ZM907.094 44.3516C905.389 44.3516 903.824 43.9824 902.418 43.2266C900.994 42.4707 899.869 41.3984 899.043 40.0273C898.217 38.6562 897.812 37.127 897.812 35.4219C897.812 33.7344 898.217 32.1875 899.043 30.7988C899.852 29.4277 900.977 28.3379 902.383 27.5645C903.789 26.791 905.354 26.4043 907.059 26.4043C909.66 26.4043 911.857 27.2656 913.65 28.9883C915.443 30.7109 916.34 32.8555 916.34 35.4219C916.34 38.0059 915.443 40.1328 913.668 41.8203C911.875 43.5078 909.695 44.3516 907.094 44.3516ZM907.059 40.3789C908.43 40.3789 909.537 39.9395 910.381 39.0254C911.225 38.1289 911.646 36.9512 911.646 35.4746C911.646 34.0332 911.225 32.8379 910.398 31.8535C909.572 30.8691 908.465 30.377 907.094 30.377C905.723 30.377 904.615 30.8691 903.771 31.8184C902.928 32.7852 902.506 33.998 902.506 35.4746C902.506 36.9512 902.91 38.1289 903.736 39.0254C904.562 39.9395 905.67 40.3789 907.059 40.3789ZM928.082 44.3516C926.377 44.3516 924.812 43.9824 923.406 43.2266C921.982 42.4707 920.857 41.3984 920.031 40.0273C919.205 38.6562 918.801 37.127 918.801 35.4219C918.801 33.7344 919.205 32.1875 920.031 30.7988C920.84 29.4277 921.965 28.3379 923.371 27.5645C924.777 26.791 926.342 26.4043 928.047 26.4043C930.648 26.4043 932.846 27.2656 934.639 28.9883C936.432 30.7109 937.328 32.8555 937.328 35.4219C937.328 38.0059 936.432 40.1328 934.656 41.8203C932.863 43.5078 930.684 44.3516 928.082 44.3516ZM928.047 40.3789C929.418 40.3789 930.525 39.9395 931.369 39.0254C932.213 38.1289 932.635 36.9512 932.635 35.4746C932.635 34.0332 932.213 32.8379 931.387 31.8535C930.561 30.8691 929.453 30.377 928.082 30.377C926.711 30.377 925.604 30.8691 924.76 31.8184C923.916 32.7852 923.494 33.998 923.494 35.4746C923.494 36.9512 923.898 38.1289 924.725 39.0254C925.551 39.9395 926.658 40.3789 928.047 40.3789ZM950.74 26.4043C952.955 26.4043 954.643 27.0723 955.838 28.4082C957.033 29.7441 957.631 31.5547 957.631 33.8398V44H952.938V34.1914C952.938 32.9961 952.639 32.0469 952.076 31.3789C951.496 30.7109 950.688 30.3594 949.65 30.3594C948.895 30.3594 948.139 30.5352 947.4 30.8867C946.645 31.2383 946.012 31.7129 945.502 32.293V44H940.809V26.7207H945.168V28.3379C946.662 27.0547 948.525 26.4043 950.74 26.4043ZM961.709 39.5527H966.314V44H961.709V39.5527ZM970.428 39.5527H975.033V44H970.428V39.5527ZM979.146 39.5527H983.752V44H979.146V39.5527Z" fill="#3B333D"/>
</g>
<defs>
<clipPath id="clip0_806_1225">
<rect y="0.5" width="1258" height="63" rx="20" fill="white"/>
</clipPath>
</defs>
</svg>
