<svg width="50" height="50" viewBox="0 0 50 50" fill="none" xmlns="http://www.w3.org/2000/svg">
<path fill-rule="evenodd" clip-rule="evenodd" d="M15.0725 45.3836C14.8921 45.3711 14.7117 45.3613 14.5323 45.3452C13.5234 45.2506 12.5975 44.9211 11.776 44.3273C10.3591 43.3006 9.45282 41.9354 9.0921 40.2184C8.96108 39.576 8.91694 38.919 8.96085 38.2648C9.00963 37.4983 9.15913 36.7415 9.4055 36.0139C9.79746 34.8461 10.3876 33.7863 11.135 32.8095C11.6977 32.077 12.3347 31.4046 13.0359 30.8032C13.6893 30.2349 14.2957 29.6148 14.8492 28.9488C15.5528 28.114 16.1885 27.2291 16.818 26.3381C17.3734 25.5506 17.9198 24.7577 18.5091 23.997C18.9471 23.4188 19.426 22.8728 19.9421 22.3631C20.5939 21.7318 21.3135 21.1979 22.1617 20.8506C22.7926 20.5919 23.4658 20.4521 24.1475 20.4381C24.9223 20.419 25.6964 20.501 26.4501 20.6818C27.5881 20.9596 28.6318 21.5349 29.4742 22.3488C30.0653 22.9113 30.5653 23.5488 31.0296 24.2148C31.5234 24.922 31.976 25.655 32.443 26.3791C32.9698 27.1943 33.5144 27.997 34.1216 28.7559C34.7256 29.5114 35.3955 30.2118 36.1234 30.8488C37.005 31.6147 37.788 32.4872 38.4546 33.4461C39.0263 34.2663 39.4824 35.1613 39.81 36.1059C40.0652 36.8421 40.2166 37.6101 40.26 38.3881C40.3225 39.5773 40.1171 40.7148 39.5769 41.7845C39.0769 42.7756 38.3537 43.5729 37.4466 44.2041C36.7787 44.6693 36.0582 45.0229 35.2653 45.2193C34.9846 45.2903 34.699 45.3401 34.4109 45.3684C34.371 45.3726 34.3317 45.3785 34.293 45.3863C34.2555 45.4068 34.2144 45.3907 34.1742 45.3952C34.1412 45.4006 34.1073 45.3863 34.076 45.4059H33.3367C33.3073 45.3854 33.2742 45.3997 33.243 45.3961H33.0867C32.4564 45.3756 31.8448 45.2443 31.2341 45.1023C30.201 44.8613 29.1876 44.5443 28.1591 44.2827C27.3288 44.0649 26.4845 43.9044 25.6323 43.8023C25.0416 43.7398 24.4471 43.7213 23.8537 43.747C23.3805 43.7631 22.9091 43.8363 22.443 43.9229C21.5234 44.0961 20.6225 44.3425 19.7207 44.5889C18.7671 44.8514 17.8135 45.1113 16.8367 45.2711C16.4394 45.3354 16.0421 45.3907 15.6376 45.3872C15.5546 45.3854 15.4725 45.3979 15.3885 45.3961C15.2814 45.3898 15.1769 45.4086 15.0716 45.3845M33.2948 4.4827C34.6234 4.64252 35.6394 5.31842 36.4153 6.38359C36.9466 7.11395 37.2814 7.93359 37.4885 8.80949C37.6623 9.56137 37.7359 10.3329 37.7073 11.1041C37.6636 12.5124 37.3228 13.8956 36.7073 15.1631C36.2893 16.0493 35.7194 16.8555 35.0234 17.5452C34.3957 18.1595 33.6859 18.6506 32.8573 18.9568C32.2751 19.1711 31.6769 19.2782 31.0573 19.2407C29.9841 19.1791 29.0725 18.7523 28.3073 18.0077C27.6537 17.372 27.2091 16.6023 26.901 15.7515C26.6896 15.1578 26.5488 14.5414 26.4814 13.9148C26.4324 13.4863 26.4145 13.0549 26.4278 12.6238C26.46 11.6071 26.6415 10.6184 26.9725 9.6577C27.3131 8.63918 27.8296 7.6882 28.4984 6.84788C29.0698 6.13895 29.7367 5.53895 30.5367 5.09609C31.1181 4.7681 31.7593 4.55984 32.4225 4.48359C32.443 4.47199 32.4653 4.47734 32.4859 4.47556H32.5492C32.5805 4.47199 32.6126 4.48627 32.6403 4.46484H33.076C33.1037 4.48717 33.1359 4.47199 33.1662 4.47556H33.2305C33.251 4.47556 33.2734 4.47109 33.2948 4.4827ZM2.71889 20.1782C2.73943 19.7729 2.81264 19.3747 2.91889 18.9827C3.12603 18.2211 3.46353 17.5273 3.99032 16.9336C4.55658 16.2788 5.32626 15.8329 6.17603 15.6675C6.88318 15.5282 7.58139 15.5872 8.2671 15.7997C9.05639 16.0425 9.75371 16.4568 10.3742 16.9961C11.3367 17.8309 12.0278 18.8586 12.5055 20.0336C12.7555 20.6497 12.9284 21.2866 13.0242 21.9443C13.0707 22.2631 13.093 22.5836 13.1001 22.9068C13.1153 23.5153 13.0474 24.1229 12.8984 24.7131C12.6957 25.5032 12.3546 26.222 11.8117 26.8381C11.2135 27.5342 10.3866 27.9942 9.4796 28.1354C8.79567 28.2461 8.12335 28.1711 7.46621 27.9586C6.58228 27.672 5.82335 27.1791 5.1555 26.5407C4.51233 25.9215 3.98073 25.196 3.58407 24.3961C3.1877 23.6141 2.91769 22.7742 2.78407 21.9077L2.72157 21.4452C2.7055 21.3747 2.71264 21.3023 2.69478 21.2327C2.68675 21.2032 2.69121 21.1756 2.69032 21.1452C2.68496 21.1086 2.70193 21.0684 2.67871 21.0318V20.4657C2.71443 20.414 2.69657 20.3568 2.70014 20.3015C2.70371 20.2604 2.693 20.2157 2.71889 20.1782ZM12.0519 11.1095C12.0564 9.98627 12.2162 8.97467 12.5921 7.99967C12.8751 7.26306 13.2644 6.58984 13.8064 6.01038C14.3894 5.38359 15.0823 4.93538 15.918 4.72377C16.7537 4.51217 17.5751 4.57199 18.3823 4.86395C19.0939 5.12288 19.7144 5.52913 20.2662 6.04252C21.1457 6.86038 21.7751 7.84877 22.2242 8.95681C22.5094 9.66097 22.7073 10.3887 22.818 11.1398C22.8817 11.5654 22.918 11.994 22.9269 12.4256C22.9383 12.9687 22.9 13.5117 22.8126 14.0479C22.626 15.1693 22.2457 16.214 21.5671 17.1372C21.156 17.7107 20.6218 18.1851 20.0037 18.5256C19.3164 18.9028 18.5332 19.0692 17.7519 19.0041C17.0323 18.9497 16.368 18.714 15.7492 18.347C14.9421 17.8693 14.2885 17.2247 13.7439 16.4657C13.1085 15.5689 12.6442 14.5624 12.3742 13.497C12.2207 12.9121 12.1214 12.3144 12.0778 11.7113C12.0579 11.5113 12.0493 11.3104 12.0519 11.1095ZM47.3198 20.8372V20.9675C47.2707 22.0506 46.9805 23.0693 46.5135 24.0407C46.1492 24.7996 45.6704 25.4979 45.0939 26.1113C44.3484 26.9015 43.4832 27.5184 42.4537 27.8881C41.8441 28.1139 41.195 28.2141 40.5457 28.1827C39.603 28.1422 38.7064 27.7638 38.0198 27.1166C37.4323 26.5702 37.0457 25.8988 36.801 25.1434C36.5849 24.4696 36.4882 23.7631 36.5153 23.0559C36.5635 21.4916 37.0573 20.0702 37.9144 18.7693C38.2028 18.3299 38.5355 17.9212 38.9073 17.5497C39.6725 16.7872 40.5475 16.2015 41.5841 15.8684C42.1665 15.677 42.7805 15.6006 43.3921 15.6434C44.3116 15.7045 45.1805 16.0869 45.8466 16.7238C46.468 17.3104 46.8609 18.0345 47.0975 18.8488C47.2287 19.2979 47.3055 19.7577 47.3207 20.2265V20.3577C47.3159 20.5175 47.315 20.6774 47.3198 20.8372Z" fill="white"/>
</svg>
