<svg width="15" height="16" viewBox="0 0 15 16" fill="none" xmlns="http://www.w3.org/2000/svg">
<mask id="mask0_779_3652" style="mask-type:luminance" maskUnits="userSpaceOnUse" x="0" y="0" width="15" height="16">
<path d="M7.25 14.25C8.07091 14.251 8.88393 14.0898 9.64235 13.7757C10.4008 13.4615 11.0896 13.0006 11.6694 12.4194C12.2506 11.8396 12.7115 11.1508 13.0257 10.3924C13.3398 9.63393 13.501 8.82091 13.5 8C13.501 7.1791 13.3398 6.36608 13.0257 5.60766C12.7115 4.84924 12.2506 4.16037 11.6694 3.58063C11.0896 2.99943 10.4008 2.53851 9.64235 2.22435C8.88393 1.9102 8.07091 1.74899 7.25 1.75C6.4291 1.74899 5.61608 1.9102 4.85766 2.22435C4.09924 2.53851 3.41037 2.99943 2.83063 3.58063C2.24943 4.16037 1.78851 4.84924 1.47435 5.60766C1.1602 6.36608 0.998992 7.1791 1 8C0.998992 8.82091 1.1602 9.63393 1.47435 10.3924C1.78851 11.1508 2.24943 11.8396 2.83063 12.4194C3.41037 13.0006 4.09924 13.4615 4.85766 13.7757C5.61608 14.0898 6.4291 14.251 7.25 14.25Z" fill="white" stroke="white" stroke-width="2" stroke-linejoin="round"/>
<path d="M4.75 8L6.625 9.875L10.375 6.125" stroke="black" stroke-width="2" stroke-linecap="round" stroke-linejoin="round"/>
</mask>
<g mask="url(#mask0_779_3652)">
<path d="M0 0.75H15V15.75H0V0.75Z" fill="#00FE6C"/>
</g>
</svg>
