<svg width="93" height="84" viewBox="0 0 93 84" fill="none" xmlns="http://www.w3.org/2000/svg">
<ellipse cx="46.4153" cy="42.053" rx="46.3128" ry="41.5935" fill="white"/>
<path d="M53.1915 64.0001L43.8518 47.8105H43.7816V64.0001H28.1919V18.873H51.3657C55.3919 18.873 58.8328 19.5317 61.6886 20.8489C64.5444 22.1237 66.6745 23.8872 68.079 26.1393C69.5303 28.3489 70.2559 30.8559 70.2559 33.6604C70.2559 36.6774 69.3196 39.3544 67.4469 41.6915C65.6211 44.0286 62.976 45.7071 59.5117 46.7269L70.3261 64.0001H53.1915ZM43.7816 38.3771H49.9612C51.4594 38.3771 52.5829 38.0797 53.332 37.4848C54.081 36.8474 54.4556 35.8701 54.4556 34.5528C54.4556 33.363 54.0576 32.4282 53.2618 31.7483C52.5127 31.0684 51.4125 30.7285 49.9612 30.7285H43.7816V38.3771Z" fill="#EEEEEE"/>
</svg>
