<svg width="464" height="502" viewBox="0 0 464 502" fill="none" xmlns="http://www.w3.org/2000/svg">
<rect x="0.91748" y="0.730713" width="462.541" height="500.38" rx="7.55804" fill="#FFFF00"/>
<path d="M128.791 132.74H119.724V157.131H128.757C131.226 157.131 133.442 156.624 135.371 155.575C137.299 154.543 138.804 153.106 139.887 151.245C140.953 149.384 141.494 147.287 141.494 144.936C141.494 143.193 141.172 141.57 140.547 140.064C139.921 138.559 139.058 137.273 137.959 136.191C136.842 135.108 135.506 134.262 133.933 133.653C132.343 133.045 130.634 132.74 128.791 132.74ZM128.791 153.139H124.325V136.732H128.791C131.159 136.732 133.087 137.493 134.576 138.999C136.047 140.521 136.791 142.5 136.791 144.97C136.791 147.473 136.047 149.452 134.593 150.924C133.121 152.412 131.193 153.139 128.791 153.139ZM150.34 153.275V146.593H160.049V142.737H150.34V136.597H161.504V132.74H150.34H145.739V157.131H161.792V153.275H150.34ZM186.166 157.131L174.901 144.817L185.117 132.74H179.366L170.74 143.16V132.74H166.139V157.131H170.74V146.796L180.111 157.131H186.166ZM198.057 157.47C199.884 157.47 201.609 157.148 203.216 156.505C204.823 155.863 206.193 154.966 207.31 153.85C208.426 152.733 209.306 151.414 209.948 149.858C210.591 148.319 210.913 146.678 210.913 144.936C210.913 143.193 210.591 141.553 209.948 139.997C209.306 138.457 208.426 137.121 207.31 135.988C206.193 134.871 204.823 133.975 203.233 133.315C201.626 132.672 199.918 132.334 198.091 132.334C196.247 132.334 194.522 132.672 192.932 133.315C191.325 133.975 189.972 134.871 188.856 135.988C187.739 137.121 186.86 138.457 186.217 139.997C185.574 141.553 185.253 143.193 185.253 144.936C185.253 146.678 185.557 148.319 186.2 149.858C186.843 151.414 187.722 152.733 188.839 153.85C189.955 154.966 191.308 155.863 192.898 156.505C194.488 157.148 196.213 157.47 198.057 157.47ZM198.091 153.224C195.723 153.224 193.761 152.446 192.238 150.873C190.716 149.3 189.955 147.338 189.955 144.97C189.955 142.601 190.716 140.622 192.255 139.016C193.795 137.409 195.74 136.597 198.091 136.597C200.425 136.597 202.354 137.409 203.893 139.016C205.432 140.622 206.21 142.601 206.21 144.97C206.21 147.338 205.432 149.3 203.91 150.873C202.387 152.446 200.442 153.224 198.091 153.224ZM238.196 136.597V132.74H227.54H222.939V157.131H227.54V147.05H236.742V143.193H227.54V136.597H238.196ZM245.876 138.271H241.123V133.704H245.876V138.271ZM241.241 140.504V157.131H245.757V140.504H241.241ZM259.627 140.2C257.496 140.2 255.703 140.825 254.265 142.06V140.504H250.071V157.131H254.587V145.866C255.077 145.308 255.686 144.851 256.414 144.513C257.124 144.175 257.851 144.005 258.579 144.005C259.577 144.005 260.355 144.344 260.913 144.986C261.454 145.629 261.742 146.543 261.742 147.693V157.131H266.258V147.355C266.258 145.156 265.683 143.413 264.533 142.128C263.383 140.842 261.759 140.2 259.627 140.2ZM287.131 157.131L286.607 154.763V140.504H282.31V141.925C281.092 140.775 279.587 140.2 277.811 140.2C276.322 140.2 274.952 140.555 273.684 141.265C272.398 141.976 271.366 143.007 270.571 144.344C269.776 145.68 269.387 147.185 269.387 148.86C269.387 150.535 269.776 152.04 270.554 153.376C271.333 154.713 272.364 155.727 273.633 156.438C274.902 157.148 276.272 157.503 277.76 157.503C279.553 157.503 281.092 156.911 282.344 155.727L282.733 157.131H287.131ZM278.403 153.681C277.185 153.681 276.119 153.258 275.24 152.378C274.343 151.516 273.904 150.348 273.904 148.86C273.904 147.371 274.343 146.204 275.24 145.325C276.136 144.445 277.202 144.005 278.42 144.005C279.891 144.005 281.126 144.547 282.124 145.629V152.057C281.143 153.139 279.891 153.681 278.403 153.681ZM300.528 140.2C298.396 140.2 296.603 140.825 295.166 142.06V140.504H290.971V157.131H295.487V145.866C295.978 145.308 296.586 144.851 297.314 144.513C298.024 144.175 298.752 144.005 299.479 144.005C300.477 144.005 301.255 144.344 301.813 144.986C302.354 145.629 302.642 146.543 302.642 147.693V157.131H307.158V147.355C307.158 145.156 306.583 143.413 305.433 142.128C304.283 140.842 302.659 140.2 300.528 140.2ZM326.593 153.765L323.278 151.583C322.229 152.97 320.859 153.647 319.168 153.647C317.848 153.647 316.783 153.224 315.988 152.361C315.193 151.499 314.804 150.348 314.804 148.928C314.804 147.507 315.21 146.323 316.022 145.409C316.834 144.496 317.882 144.022 319.202 144.022C320.826 144.022 322.128 144.733 323.109 146.12L326.577 143.955C324.919 141.451 322.466 140.2 319.185 140.2C317.544 140.2 316.039 140.572 314.685 141.316C313.332 142.06 312.25 143.109 311.472 144.428C310.677 145.765 310.288 147.253 310.288 148.877C310.288 150.518 310.677 151.989 311.488 153.309C312.283 154.628 313.366 155.66 314.719 156.387C316.072 157.114 317.578 157.47 319.219 157.47C320.758 157.47 322.179 157.148 323.464 156.489C324.75 155.829 325.798 154.915 326.593 153.765ZM332.953 149.943H345.741C345.758 149.672 345.775 149.452 345.775 149.249C345.775 146.492 344.98 144.293 343.424 142.652C341.851 141.028 339.804 140.2 337.301 140.2C335.575 140.2 334.053 140.589 332.7 141.367C331.347 142.145 330.315 143.193 329.587 144.513C328.86 145.832 328.505 147.287 328.505 148.877C328.505 150.061 328.708 151.177 329.131 152.226C329.554 153.275 330.146 154.188 330.907 154.966C331.651 155.744 332.581 156.353 333.698 156.793C334.797 157.25 335.998 157.47 337.301 157.47C338.823 157.47 340.227 157.165 341.495 156.522C342.764 155.897 343.83 155 344.675 153.816L341.834 151.262C340.684 152.852 339.178 153.647 337.301 153.647C336.117 153.647 335.152 153.342 334.374 152.7C333.596 152.074 333.123 151.16 332.953 149.943ZM337.402 143.904C339.5 143.904 340.836 144.919 341.394 146.949H333.14C333.427 145.968 333.935 145.223 334.679 144.699C335.423 144.175 336.32 143.904 337.402 143.904ZM127.59 201.131H133.189L125.543 191.168C127.556 190.847 129.163 190.035 130.364 188.75C131.565 187.464 132.174 185.891 132.174 184.03C132.174 181.899 131.379 180.174 129.789 178.838C128.199 177.501 126.186 176.808 123.716 176.74H118.896H114.295V201.131H118.896V191.321H120.283L127.59 201.131ZM118.896 180.597H123.716C124.883 180.597 125.797 180.935 126.473 181.578C127.133 182.237 127.471 183.1 127.471 184.149C127.471 185.248 127.116 186.128 126.44 186.788C125.763 187.447 124.85 187.769 123.716 187.769H118.896V180.597ZM138.348 193.943H151.135C151.152 193.672 151.169 193.452 151.169 193.249C151.169 190.492 150.374 188.293 148.818 186.652C147.245 185.028 145.198 184.2 142.695 184.2C140.969 184.2 139.447 184.589 138.094 185.367C136.741 186.145 135.709 187.193 134.982 188.513C134.254 189.832 133.899 191.287 133.899 192.877C133.899 194.061 134.102 195.177 134.525 196.226C134.948 197.275 135.54 198.188 136.301 198.966C137.045 199.744 137.976 200.353 139.092 200.793C140.191 201.25 141.392 201.47 142.695 201.47C144.217 201.47 145.621 201.165 146.89 200.522C148.158 199.897 149.224 199 150.07 197.816L147.228 195.262C146.078 196.852 144.572 197.647 142.695 197.647C141.511 197.647 140.547 197.342 139.769 196.7C138.99 196.074 138.517 195.16 138.348 193.943ZM142.796 187.904C144.894 187.904 146.23 188.919 146.788 190.949H138.534C138.821 189.968 139.329 189.223 140.073 188.699C140.817 188.175 141.714 187.904 142.796 187.904ZM163.111 184.2C161.453 184.2 159.982 184.741 158.679 185.79V184.504H154.281V208.895H158.798V199.981C159.965 200.996 161.403 201.503 163.111 201.503C164.194 201.503 165.225 201.3 166.24 200.878C167.255 200.455 168.152 199.88 168.93 199.135C169.708 198.391 170.317 197.478 170.79 196.361C171.264 195.262 171.501 194.061 171.501 192.775C171.501 191.118 171.095 189.612 170.317 188.293C169.539 186.974 168.507 185.959 167.238 185.248C165.97 184.555 164.6 184.2 163.111 184.2ZM162.367 197.681C160.946 197.681 159.728 197.139 158.73 196.023V189.714C159.745 188.58 161.014 188.005 162.536 188.005C163.72 188.005 164.752 188.445 165.648 189.291C166.528 190.154 166.985 191.321 166.985 192.775C166.985 194.315 166.528 195.516 165.631 196.378C164.735 197.258 163.652 197.681 162.367 197.681ZM179.079 186.043V184.504H174.884V201.131H179.4V190.238C179.908 189.646 180.5 189.189 181.176 188.851C181.853 188.53 182.546 188.361 183.257 188.361C183.747 188.361 184.17 188.411 184.508 188.479V184.2C183.206 184.2 182.14 184.352 181.328 184.622C180.516 184.893 179.755 185.367 179.079 186.043ZM190.243 193.943H203.03C203.047 193.672 203.064 193.452 203.064 193.249C203.064 190.492 202.269 188.293 200.713 186.652C199.14 185.028 197.093 184.2 194.59 184.2C192.864 184.2 191.342 184.589 189.989 185.367C188.636 186.145 187.604 187.193 186.876 188.513C186.149 189.832 185.794 191.287 185.794 192.877C185.794 194.061 185.997 195.177 186.42 196.226C186.843 197.275 187.435 198.188 188.196 198.966C188.94 199.744 189.87 200.353 190.987 200.793C192.086 201.25 193.287 201.47 194.59 201.47C196.112 201.47 197.516 201.165 198.785 200.522C200.053 199.897 201.119 199 201.965 197.816L199.123 195.262C197.973 196.852 196.467 197.647 194.59 197.647C193.406 197.647 192.441 197.342 191.663 196.7C190.885 196.074 190.412 195.16 190.243 193.943ZM194.691 187.904C196.789 187.904 198.125 188.919 198.683 190.949H190.429C190.716 189.968 191.224 189.223 191.968 188.699C192.712 188.175 193.609 187.904 194.691 187.904ZM219.099 196.108C219.099 195.346 218.93 194.67 218.609 194.078C218.271 193.486 217.848 193.012 217.34 192.657C216.816 192.302 216.241 191.997 215.615 191.727C214.989 191.473 214.363 191.253 213.737 191.067C213.111 190.898 212.536 190.729 212.029 190.56C211.505 190.39 211.082 190.204 210.76 189.968C210.422 189.731 210.27 189.46 210.27 189.156C210.27 188.783 210.456 188.496 210.862 188.259C211.268 188.022 211.877 187.904 212.722 187.904C214.245 187.904 215.581 188.327 216.731 189.156L218.981 185.908C217.289 184.825 215.243 184.267 212.841 184.267C210.591 184.267 208.849 184.741 207.614 185.654C206.379 186.585 205.77 187.819 205.77 189.375C205.77 190.069 205.889 190.695 206.143 191.236C206.396 191.777 206.735 192.217 207.141 192.555C207.546 192.894 208.02 193.198 208.561 193.469C209.086 193.74 209.627 193.959 210.168 194.112C210.71 194.281 211.251 194.433 211.792 194.602C212.316 194.771 212.79 194.924 213.196 195.059C213.602 195.194 213.94 195.38 214.194 195.6C214.448 195.837 214.583 196.091 214.583 196.378C214.583 197.258 213.737 197.698 212.046 197.698C210.016 197.698 208.358 197.106 207.073 195.922L204.739 199.186C205.551 199.897 206.599 200.438 207.919 200.827C209.221 201.216 210.574 201.402 211.961 201.402C214.143 201.402 215.886 200.928 217.171 199.947C218.457 198.966 219.099 197.698 219.099 196.108ZM225.933 193.943H238.721C238.738 193.672 238.754 193.452 238.754 193.249C238.754 190.492 237.959 188.293 236.403 186.652C234.83 185.028 232.783 184.2 230.28 184.2C228.555 184.2 227.032 184.589 225.679 185.367C224.326 186.145 223.294 187.193 222.567 188.513C221.84 189.832 221.484 191.287 221.484 192.877C221.484 194.061 221.687 195.177 222.11 196.226C222.533 197.275 223.125 198.188 223.886 198.966C224.631 199.744 225.561 200.353 226.677 200.793C227.777 201.25 228.978 201.47 230.28 201.47C231.802 201.47 233.206 201.165 234.475 200.522C235.744 199.897 236.809 199 237.655 197.816L234.813 195.262C233.663 196.852 232.158 197.647 230.28 197.647C229.096 197.647 228.132 197.342 227.354 196.7C226.576 196.074 226.102 195.16 225.933 193.943ZM230.382 187.904C232.479 187.904 233.815 188.919 234.373 190.949H226.119C226.407 189.968 226.914 189.223 227.658 188.699C228.403 188.175 229.299 187.904 230.382 187.904ZM251.424 184.2C249.292 184.2 247.499 184.825 246.062 186.06V184.504H241.867V201.131H246.383V189.866C246.874 189.308 247.483 188.851 248.21 188.513C248.92 188.175 249.648 188.005 250.375 188.005C251.373 188.005 252.151 188.344 252.709 188.986C253.251 189.629 253.538 190.543 253.538 191.693V201.131H258.054V191.355C258.054 189.156 257.479 187.413 256.329 186.128C255.179 184.842 253.555 184.2 251.424 184.2ZM272.094 188.242V184.504H268.339V178.956H263.839V184.504H260.355V188.242H263.839V196.412L264.499 201.131H268.863L268.339 196.412V188.242H272.094ZM291.241 201.131L290.717 198.763V184.504H286.421V185.925C285.203 184.775 283.697 184.2 281.921 184.2C280.433 184.2 279.063 184.555 277.794 185.265C276.508 185.976 275.477 187.007 274.682 188.344C273.887 189.68 273.498 191.185 273.498 192.86C273.498 194.535 273.887 196.04 274.665 197.376C275.443 198.713 276.475 199.727 277.743 200.438C279.012 201.148 280.382 201.503 281.871 201.503C283.663 201.503 285.203 200.911 286.454 199.727L286.843 201.131H291.241ZM282.513 197.681C281.295 197.681 280.23 197.258 279.35 196.378C278.454 195.516 278.014 194.348 278.014 192.86C278.014 191.371 278.454 190.204 279.35 189.325C280.247 188.445 281.312 188.005 282.53 188.005C284.002 188.005 285.237 188.547 286.235 189.629V196.057C285.253 197.139 284.002 197.681 282.513 197.681ZM305.213 188.242V184.504H301.458V178.956H296.959V184.504H293.474V188.242H296.959V196.412L297.618 201.131H301.982L301.458 196.412V188.242H305.213ZM312.571 182.271H307.818V177.704H312.571V182.271ZM307.936 184.504V201.131H312.453V184.504H307.936ZM328.285 184.504L323.887 196.7L319.489 184.504H314.635L321.451 201.131H326.374L333.123 184.504H328.285ZM338.383 193.943H351.171C351.188 193.672 351.205 193.452 351.205 193.249C351.205 190.492 350.41 188.293 348.853 186.652C347.28 185.028 345.234 184.2 342.73 184.2C341.005 184.2 339.483 184.589 338.129 185.367C336.776 186.145 335.744 187.193 335.017 188.513C334.29 189.832 333.935 191.287 333.935 192.877C333.935 194.061 334.138 195.177 334.56 196.226C334.983 197.275 335.575 198.188 336.336 198.966C337.081 199.744 338.011 200.353 339.127 200.793C340.227 201.25 341.428 201.47 342.73 201.47C344.253 201.47 345.657 201.165 346.925 200.522C348.194 199.897 349.259 199 350.105 197.816L347.263 195.262C346.113 196.852 344.608 197.647 342.73 197.647C341.546 197.647 340.582 197.342 339.804 196.7C339.026 196.074 338.552 195.16 338.383 193.943ZM342.832 187.904C344.929 187.904 346.265 188.919 346.824 190.949H338.569C338.857 189.968 339.364 189.223 340.108 188.699C340.853 188.175 341.749 187.904 342.832 187.904ZM169.843 237.943H182.631C182.648 237.672 182.665 237.452 182.665 237.249C182.665 234.492 181.87 232.293 180.314 230.652C178.74 229.028 176.694 228.2 174.19 228.2C172.465 228.2 170.943 228.589 169.589 229.367C168.236 230.145 167.204 231.193 166.477 232.513C165.75 233.832 165.395 235.287 165.395 236.877C165.395 238.061 165.598 239.177 166.02 240.226C166.443 241.275 167.035 242.188 167.796 242.966C168.541 243.744 169.471 244.353 170.587 244.793C171.687 245.25 172.888 245.47 174.19 245.47C175.713 245.47 177.117 245.165 178.385 244.522C179.654 243.897 180.719 243 181.565 241.816L178.724 239.262C177.573 240.852 176.068 241.647 174.19 241.647C173.006 241.647 172.042 241.342 171.264 240.7C170.486 240.074 170.012 239.16 169.843 237.943ZM174.292 231.904C176.389 231.904 177.726 232.919 178.284 234.949H170.029C170.317 233.968 170.824 233.223 171.569 232.699C172.313 232.175 173.209 231.904 174.292 231.904ZM200.053 245.131L193.913 236.488L199.85 228.504H194.708L191.646 233.206L188.45 228.504H183.291L189.177 236.708L182.952 245.131H188.111L191.46 240.023L194.894 245.131H200.053ZM218.271 245.131L217.746 242.763V228.504H213.45V229.925C212.232 228.775 210.726 228.2 208.95 228.2C207.462 228.2 206.092 228.555 204.823 229.265C203.538 229.976 202.506 231.007 201.711 232.344C200.916 233.68 200.527 235.185 200.527 236.86C200.527 238.535 200.916 240.04 201.694 241.376C202.472 242.713 203.504 243.727 204.772 244.438C206.041 245.148 207.411 245.503 208.9 245.503C210.693 245.503 212.232 244.911 213.484 243.727L213.873 245.131H218.271ZM209.542 241.681C208.325 241.681 207.259 241.258 206.379 240.378C205.483 239.516 205.043 238.348 205.043 236.86C205.043 235.371 205.483 234.204 206.379 233.325C207.276 232.445 208.341 232.005 209.559 232.005C211.031 232.005 212.266 232.547 213.264 233.629V240.057C212.283 241.139 211.031 241.681 209.542 241.681ZM242.56 228.2C240.361 228.2 238.365 228.961 236.556 230.483C235.558 228.961 233.917 228.2 231.633 228.2C230.635 228.2 229.671 228.369 228.741 228.69C227.811 229.011 226.999 229.468 226.305 230.06V228.504H222.11V245.131H226.626V233.866C227.658 232.631 228.893 232.005 230.314 232.005C232.175 232.005 233.105 233.02 233.105 235.05V245.131H237.604V233.781C238.653 232.597 239.871 232.005 241.258 232.005C243.135 232.005 244.083 233.02 244.083 235.05V245.131H248.582V234.695C248.582 232.597 248.058 230.991 247.043 229.874C246.011 228.758 244.522 228.2 242.56 228.2ZM261.556 228.2C259.898 228.2 258.426 228.741 257.124 229.79V228.504H252.726V252.895H257.242V243.981C258.41 244.996 259.847 245.503 261.556 245.503C262.638 245.503 263.67 245.3 264.685 244.878C265.7 244.455 266.596 243.88 267.374 243.135C268.153 242.391 268.761 241.478 269.235 240.361C269.709 239.262 269.945 238.061 269.945 236.775C269.945 235.118 269.54 233.612 268.761 232.293C267.983 230.974 266.952 229.959 265.683 229.248C264.414 228.555 263.044 228.2 261.556 228.2ZM260.811 241.681C259.391 241.681 258.173 241.139 257.175 240.023V233.714C258.19 232.58 259.458 232.005 260.981 232.005C262.165 232.005 263.196 232.445 264.093 233.291C264.973 234.154 265.429 235.321 265.429 236.775C265.429 238.315 264.973 239.516 264.076 240.378C263.18 241.258 262.097 241.681 260.811 241.681ZM278.285 245.131L277.777 242.222V220.216H273.261V242.222L273.937 245.131H278.285ZM285.643 237.943H298.43C298.447 237.672 298.464 237.452 298.464 237.249C298.464 234.492 297.669 232.293 296.113 230.652C294.54 229.028 292.493 228.2 289.99 228.2C288.264 228.2 286.742 228.589 285.389 229.367C284.036 230.145 283.004 231.193 282.276 232.513C281.549 233.832 281.194 235.287 281.194 236.877C281.194 238.061 281.397 239.177 281.82 240.226C282.243 241.275 282.835 242.188 283.596 242.966C284.34 243.744 285.27 244.353 286.387 244.793C287.486 245.25 288.687 245.47 289.99 245.47C291.512 245.47 292.916 245.165 294.185 244.522C295.453 243.897 296.519 243 297.365 241.816L294.523 239.262C293.373 240.852 291.867 241.647 289.99 241.647C288.806 241.647 287.841 241.342 287.063 240.7C286.285 240.074 285.812 239.16 285.643 237.943ZM290.091 231.904C292.189 231.904 293.525 232.919 294.083 234.949H285.829C286.116 233.968 286.624 233.223 287.368 232.699C288.112 232.175 289.009 231.904 290.091 231.904Z" fill="#2D2432"/>
<path d="M89.6438 62.1182C89.6438 60.9229 89.4408 59.8403 89.08 58.8705C88.6966 57.9233 88.1778 57.1114 87.5464 56.4573C86.9149 55.8258 86.1706 55.2395 85.3587 54.7433C84.5468 54.2471 83.6672 53.8186 82.7651 53.4578C81.863 53.1195 80.9383 52.8037 80.0361 52.488C79.1115 52.1948 78.2319 51.9016 77.42 51.5858C76.6081 51.2927 75.8638 50.9769 75.2323 50.6161C74.6008 50.2552 74.0821 49.8267 73.7213 49.308C73.3378 48.8118 73.1574 48.2254 73.1574 47.5488C73.1574 46.4888 73.6085 45.6318 74.5332 44.9778C75.4353 44.3237 76.811 43.9854 78.6153 43.9854C80.0587 43.9854 81.5021 44.211 82.9455 44.6169C84.3664 45.0454 85.5617 45.6093 86.554 46.2858L89.1025 41.2565C86.1255 39.2944 82.6749 38.302 78.7506 38.302C75.1421 38.302 72.2778 39.1365 70.1353 40.8054C67.9927 42.4744 66.9327 44.8199 66.9327 47.842C66.9327 49.0824 67.1132 50.1875 67.4966 51.1573C67.8574 52.1271 68.3761 52.939 69.0076 53.5705C69.6391 54.202 70.3608 54.7658 71.1953 55.262C72.0072 55.7582 72.8868 56.1641 73.7889 56.4799C74.691 56.7956 75.5932 57.1114 76.4953 57.382C77.3974 57.6527 78.277 57.9458 79.1115 58.239C79.9234 58.5322 80.6676 58.848 81.2991 59.2088C81.9306 59.5697 82.4268 60.0207 82.8102 60.562C83.171 61.1033 83.374 61.7348 83.374 62.4565C83.374 63.6292 82.8778 64.5539 81.8855 65.1854C80.8932 65.8395 79.4047 66.1552 77.3974 66.1552C75.9089 66.1552 74.4655 65.9522 73.0447 65.5237C71.6013 65.0952 70.0225 64.3509 68.2859 63.2684L65.3766 68.1399C67.3613 69.4931 69.2332 70.4403 70.9923 70.9816C72.7515 71.5454 74.7136 71.8161 76.8336 71.8161C80.8932 71.8161 84.0506 70.9816 86.2834 69.2675C88.5161 67.5761 89.6438 65.1854 89.6438 62.1182ZM105.634 48.7893C103.424 48.7893 101.462 49.511 99.7251 50.9092V49.1952H93.8612V81.7169H99.8829V69.8314C101.439 71.1846 103.356 71.8612 105.634 71.8612C107.077 71.8612 108.453 71.5905 109.806 71.0267C111.16 70.4629 112.355 69.6961 113.392 68.7037C114.43 67.7114 115.242 66.4935 115.873 65.005C116.505 63.539 116.82 61.9378 116.82 60.2237C116.82 58.0135 116.279 56.0063 115.242 54.2471C114.204 52.488 112.828 51.1348 111.137 50.1875C109.445 49.2629 107.619 48.7893 105.634 48.7893ZM104.642 66.7641C102.747 66.7641 101.123 66.0424 99.7927 64.5539V56.1416C101.146 54.6305 102.837 53.8637 104.867 53.8637C106.446 53.8637 107.822 54.4501 109.017 55.5778C110.19 56.728 110.799 58.2841 110.799 60.2237C110.799 62.2761 110.19 63.8773 108.994 65.0275C107.799 66.2003 106.356 66.7641 104.642 66.7641ZM126.924 51.2475V49.1952H121.331V71.365H127.353V56.8407C128.029 56.0514 128.819 55.4424 129.721 54.9914C130.623 54.5629 131.548 54.3373 132.495 54.3373C133.149 54.3373 133.713 54.405 134.164 54.4952V48.7893C132.427 48.7893 131.006 48.9922 129.924 49.3531C128.841 49.7139 127.826 50.3454 126.924 51.2475ZM141.809 61.7799H158.86C158.882 61.419 158.905 61.1258 158.905 60.8552C158.905 57.179 157.845 54.2471 155.77 52.0595C153.672 49.8944 150.943 48.7893 147.605 48.7893C145.305 48.7893 143.275 49.308 141.471 50.3454C139.667 51.3829 138.291 52.7812 137.321 54.5403C136.351 56.2995 135.878 58.239 135.878 60.359C135.878 61.9378 136.148 63.4263 136.712 64.8246C137.276 66.2229 138.065 67.4407 139.08 68.4782C140.073 69.5156 141.313 70.3275 142.802 70.9139C144.268 71.5229 145.869 71.8161 147.605 71.8161C149.635 71.8161 151.507 71.4101 153.199 70.5531C154.89 69.7186 156.311 68.5233 157.439 66.9446L153.65 63.539C152.116 65.659 150.109 66.719 147.605 66.719C146.027 66.719 144.741 66.3131 143.704 65.4561C142.666 64.6216 142.035 63.4037 141.809 61.7799ZM147.741 53.7284C150.537 53.7284 152.319 55.0816 153.063 57.788H142.057C142.441 56.4799 143.117 55.4875 144.11 54.7884C145.102 54.0892 146.297 53.7284 147.741 53.7284ZM185.405 71.365L184.705 68.2075V49.1952H178.977V51.0897C177.353 49.5561 175.346 48.7893 172.978 48.7893C170.993 48.7893 169.166 49.2629 167.475 50.2101C165.761 51.1573 164.385 52.5331 163.325 54.3148C162.265 56.0965 161.746 58.1037 161.746 60.3365C161.746 62.5692 162.265 64.5765 163.303 66.3582C164.34 68.1399 165.716 69.4931 167.407 70.4403C169.099 71.3875 170.925 71.8612 172.91 71.8612C175.301 71.8612 177.353 71.0718 179.022 69.4931L179.541 71.365H185.405ZM173.767 66.7641C172.143 66.7641 170.723 66.2003 169.55 65.0275C168.354 63.8773 167.768 62.3212 167.768 60.3365C167.768 58.3518 168.354 56.7956 169.55 55.6229C170.745 54.4501 172.166 53.8637 173.79 53.8637C175.752 53.8637 177.398 54.5854 178.729 56.0288V64.599C177.421 66.0424 175.752 66.7641 173.767 66.7641ZM212.762 71.365L212.062 68.2075V38.1441H206.063V50.6612C204.485 49.3531 202.613 48.699 200.448 48.699C198.463 48.699 196.636 49.1727 194.945 50.1199C193.231 51.0671 191.855 52.4429 190.795 54.2246C189.735 56.0288 189.216 58.0361 189.216 60.2688C189.216 62.5016 189.735 64.5088 190.772 66.268C191.81 68.0497 193.185 69.4029 194.877 70.3501C196.568 71.2973 198.395 71.7709 200.38 71.7709C202.793 71.7709 204.823 71.0041 206.469 69.448L207.011 71.365H212.762ZM201.237 66.6965C199.613 66.6965 198.192 66.1327 197.02 64.9599C195.824 63.7871 195.238 62.2309 195.238 60.2463C195.238 58.2616 195.824 56.7054 197.02 55.5327C198.215 54.3824 199.636 53.7961 201.26 53.7961C203.267 53.7961 204.936 54.5403 206.266 56.0288V64.4412C204.913 65.9522 203.244 66.6965 201.237 66.6965ZM241.878 54.1795V49.1952H236.871V41.7978H230.872V49.1952H226.226V54.1795H230.872V65.0727L231.751 71.365H237.57L236.871 65.0727V54.1795H241.878ZM258.251 48.7893C255.522 48.7893 253.222 49.5561 251.35 51.0671V38.1441H245.509V71.365H251.531V56.3446C252.185 55.5778 252.997 54.9914 253.944 54.5403C254.891 54.0892 255.861 53.8637 256.831 53.8637C258.139 53.8637 259.176 54.3148 259.943 55.1718C260.687 56.0288 261.071 57.2467 261.071 58.7803V71.365H267.092V58.3292C267.092 55.3973 266.325 53.0744 264.792 51.3603C263.258 49.6463 261.071 48.7893 258.251 48.7893ZM277.219 61.7799H294.269C294.291 61.419 294.314 61.1258 294.314 60.8552C294.314 57.179 293.254 54.2471 291.179 52.0595C289.082 49.8944 286.353 48.7893 283.015 48.7893C280.714 48.7893 278.685 49.308 276.88 50.3454C275.076 51.3829 273.7 52.7812 272.731 54.5403C271.761 56.2995 271.287 58.239 271.287 60.359C271.287 61.9378 271.558 63.4263 272.122 64.8246C272.685 66.2229 273.475 67.4407 274.49 68.4782C275.482 69.5156 276.722 70.3275 278.211 70.9139C279.677 71.5229 281.278 71.8161 283.015 71.8161C285.045 71.8161 286.917 71.4101 288.608 70.5531C290.3 69.7186 291.72 68.5233 292.848 66.9446L289.059 63.539C287.525 65.659 285.518 66.719 283.015 66.719C281.436 66.719 280.151 66.3131 279.113 65.4561C278.076 64.6216 277.444 63.4037 277.219 61.7799ZM283.15 53.7284C285.947 53.7284 287.728 55.0816 288.473 57.788H277.467C277.85 56.4799 278.527 55.4875 279.519 54.7884C280.511 54.0892 281.707 53.7284 283.15 53.7284ZM329.362 66.8769L324.941 63.9675C323.543 65.8169 321.716 66.719 319.461 66.719C317.702 66.719 316.281 66.1552 315.221 65.005C314.161 63.8548 313.642 62.3212 313.642 60.4267C313.642 58.5322 314.183 56.9535 315.266 55.7356C316.348 54.5178 317.747 53.8863 319.506 53.8863C321.671 53.8863 323.408 54.8335 324.716 56.6829L329.339 53.7961C327.129 50.4582 323.859 48.7893 319.483 48.7893C317.296 48.7893 315.288 49.2854 313.484 50.2778C311.68 51.2701 310.237 52.6684 309.199 54.4275C308.139 56.2092 307.62 58.1939 307.62 60.359C307.62 62.5467 308.139 64.5088 309.222 66.268C310.282 68.0271 311.725 69.4029 313.529 70.3727C315.334 71.3424 317.341 71.8161 319.528 71.8161C321.581 71.8161 323.475 71.3875 325.189 70.508C326.903 69.6284 328.302 68.4105 329.362 66.8769ZM343.796 71.8161C347.134 71.8161 349.93 70.7335 352.231 68.5684C354.508 66.4033 355.659 63.6744 355.659 60.359C355.659 57.0663 354.508 54.3148 352.208 52.1046C349.908 49.8944 347.088 48.7893 343.751 48.7893C341.563 48.7893 339.556 49.2854 337.751 50.2778C335.947 51.2701 334.504 52.6684 333.466 54.4275C332.406 56.2092 331.888 58.1939 331.888 60.359C331.888 62.5467 332.406 64.5088 333.466 66.268C334.526 68.0271 335.97 69.4029 337.796 70.3727C339.601 71.3424 341.608 71.8161 343.796 71.8161ZM343.751 66.719C341.969 66.719 340.548 66.1552 339.488 64.9824C338.428 63.8322 337.909 62.3212 337.909 60.4267C337.909 58.5322 338.451 56.9761 339.533 55.7356C340.616 54.5178 342.036 53.8863 343.796 53.8863C345.555 53.8863 346.976 54.5178 348.036 55.7807C349.096 57.0437 349.637 58.5773 349.637 60.4267C349.637 62.3212 349.096 63.8322 348.013 64.9824C346.931 66.1552 345.51 66.719 343.751 66.719ZM377.129 64.6667C377.129 63.6518 376.904 62.7497 376.475 61.9603C376.024 61.1709 375.46 60.5395 374.784 60.0658C374.085 59.5922 373.318 59.1863 372.483 58.8254C371.649 58.4871 370.814 58.1939 369.98 57.9458C369.145 57.7203 368.379 57.4948 367.702 57.2692C367.003 57.0437 366.439 56.7956 366.011 56.4799C365.559 56.1641 365.357 55.8033 365.357 55.3973C365.357 54.9012 365.605 54.5178 366.146 54.202C366.687 53.8863 367.499 53.7284 368.627 53.7284C370.657 53.7284 372.438 54.2922 373.972 55.3973L376.971 51.0671C374.716 49.6237 371.987 48.8795 368.785 48.8795C365.785 48.8795 363.462 49.511 361.816 50.7288C360.169 51.9692 359.357 53.6156 359.357 55.6905C359.357 56.6152 359.515 57.4497 359.854 58.1714C360.192 58.8931 360.643 59.4795 361.184 59.9305C361.725 60.3816 362.357 60.7875 363.079 61.1484C363.778 61.5092 364.499 61.8024 365.221 62.0054C365.943 62.2309 366.665 62.4339 367.386 62.6595C368.085 62.885 368.717 63.088 369.258 63.2684C369.799 63.4488 370.251 63.6969 370.589 63.9901C370.927 64.3058 371.108 64.6441 371.108 65.0275C371.108 66.2003 369.98 66.7867 367.725 66.7867C365.018 66.7867 362.808 65.9973 361.094 64.4186L357.982 68.7714C359.064 69.7186 360.462 70.4403 362.222 70.959C363.958 71.4778 365.762 71.7258 367.612 71.7258C370.521 71.7258 372.844 71.0944 374.558 69.7863C376.272 68.4782 377.129 66.7867 377.129 64.6667ZM394.969 54.1795V49.1952H389.962V41.7978H383.963V49.1952H379.317V54.1795H383.963V65.0727L384.842 71.365H390.661L389.962 65.0727V54.1795H394.969ZM396.818 65.659V71.365H402.727V65.659H396.818Z" fill="#2D2432"/>
<path d="M156.031 305.949L150.635 308.604V313.323L155.337 311.125V330.34H159.921V305.949H156.031ZM182.655 320.648H179.576V305.949H174.806L163.338 321.273V324.606H174.992V330.34H179.576V324.606H182.655V320.648ZM168.751 320.648L174.992 312.393V320.648H168.751ZM185.869 326.06V330.34H190.3V326.06H185.869ZM202.107 305.864C200.416 305.864 198.91 306.219 197.591 306.896C196.254 307.589 195.206 308.57 194.462 309.822C193.717 311.074 193.345 312.512 193.345 314.118C193.345 315.319 193.548 316.436 193.988 317.485C194.411 318.533 194.986 319.396 195.713 320.106C196.441 320.817 197.286 321.375 198.234 321.781C199.181 322.187 200.179 322.373 201.211 322.373C201.532 322.373 201.887 322.356 202.293 322.288L196.474 330.61H201.684L208.619 320.36C210.142 318.093 210.903 315.962 210.937 313.966C210.92 311.615 210.074 309.67 208.416 308.148C206.759 306.625 204.644 305.864 202.107 305.864ZM197.963 314.102C197.963 312.833 198.335 311.801 199.096 311.006C199.857 310.228 200.855 309.822 202.107 309.822C203.342 309.822 204.34 310.228 205.101 311.006C205.845 311.784 206.234 312.816 206.234 314.085C206.234 315.387 205.845 316.453 205.084 317.265C204.306 318.093 203.308 318.499 202.09 318.499C200.838 318.499 199.84 318.093 199.096 317.248C198.335 316.419 197.963 315.37 197.963 314.102ZM218.498 317.451C219.918 317.451 221.136 316.96 222.151 315.945C223.166 314.93 223.674 313.713 223.674 312.275C223.674 310.854 223.166 309.619 222.151 308.604C221.136 307.589 219.918 307.082 218.498 307.082C217.06 307.082 215.842 307.589 214.827 308.604C213.812 309.619 213.305 310.854 213.305 312.275C213.305 313.713 213.812 314.93 214.827 315.945C215.842 316.96 217.06 317.451 218.498 317.451ZM229.069 307.742L215.859 328.412H220.037L233.247 307.742H229.069ZM218.498 314.102C217.99 314.102 217.55 313.932 217.195 313.577C216.823 313.222 216.654 312.782 216.654 312.275C216.654 311.767 216.823 311.344 217.195 310.972C217.55 310.617 217.99 310.431 218.498 310.431C219.005 310.431 219.428 310.617 219.783 310.972C220.138 311.344 220.324 311.767 220.324 312.275C220.324 312.782 220.138 313.222 219.783 313.577C219.428 313.932 219.005 314.102 218.498 314.102ZM230.524 329.088C231.945 329.088 233.163 328.598 234.178 327.583C235.193 326.568 235.7 325.35 235.7 323.912C235.7 322.491 235.193 321.273 234.178 320.259C233.163 319.244 231.945 318.736 230.524 318.736C229.086 318.736 227.868 319.244 226.854 320.259C225.839 321.273 225.348 322.491 225.348 323.912C225.348 325.35 225.839 326.568 226.854 327.583C227.868 328.598 229.086 329.088 230.524 329.088ZM230.524 325.739C230.017 325.739 229.577 325.57 229.222 325.215C228.866 324.859 228.697 324.42 228.697 323.912C228.697 323.405 228.866 322.982 229.222 322.61C229.577 322.255 230.017 322.068 230.524 322.068C231.031 322.068 231.454 322.255 231.826 322.61C232.182 322.982 232.368 323.405 232.368 323.912C232.368 324.42 232.182 324.859 231.826 325.215C231.454 325.57 231.031 325.739 230.524 325.739ZM263.491 330.34H268.244L258.907 305.949H254.002L244.665 330.34H249.418L251.38 325.181H261.529L263.491 330.34ZM256.438 311.412L260.091 321.324H252.818L256.438 311.412ZM280.558 305.949H275.636H271.035V330.34H275.636V321.02H280.558C283.011 321.02 285.024 320.326 286.597 318.922C288.153 317.535 288.948 315.725 288.948 313.493C288.948 311.26 288.153 309.45 286.597 308.046C285.024 306.659 283.011 305.949 280.558 305.949ZM280.558 317.18H275.636V309.805H280.558C281.708 309.805 282.605 310.127 283.282 310.769C283.958 311.412 284.296 312.309 284.313 313.459C284.313 314.575 283.975 315.489 283.298 316.165C282.605 316.842 281.692 317.18 280.558 317.18ZM305.846 330.34H311.445L303.799 320.377C305.812 320.056 307.419 319.244 308.62 317.958C309.821 316.673 310.43 315.1 310.43 313.239C310.43 311.108 309.635 309.382 308.045 308.046C306.455 306.71 304.442 306.016 301.973 305.949H297.152H292.551V330.34H297.152V320.529H298.539L305.846 330.34ZM297.152 309.805H301.973C303.14 309.805 304.053 310.143 304.73 310.786C305.389 311.446 305.728 312.309 305.728 313.357C305.728 314.457 305.372 315.336 304.696 315.996C304.019 316.656 303.106 316.977 301.973 316.977H297.152V309.805Z" fill="#2D2432"/>
<path d="M125.753 411.147C125.753 413.312 124.637 414.378 122.421 414.378H117.955C118.801 412.821 119.224 411.181 119.224 409.472C119.224 408.948 119.173 408.424 119.072 407.882H123.96V404.178H118.023C117.583 402.757 117.363 401.641 117.363 400.829C117.363 399.746 117.668 398.917 118.294 398.325C118.92 397.733 119.732 397.429 120.713 397.429C121.727 397.429 122.59 397.716 123.284 398.292C123.977 398.867 124.468 399.662 124.772 400.677L128.46 399.137C127.868 397.277 126.903 395.839 125.567 394.824C124.231 393.809 122.573 393.302 120.594 393.302C118.243 393.302 116.349 393.961 114.911 395.281C113.473 396.6 112.763 398.393 112.763 400.66C112.763 401.607 112.966 402.774 113.405 404.178H110.97V407.882H114.454C114.556 408.508 114.623 409.066 114.623 409.574C114.623 411.231 114.183 412.821 113.304 414.378H110.97V418.099H122.421C124.654 418.099 126.413 417.507 127.698 416.306C128.984 415.105 129.644 413.38 129.644 411.147H125.753ZM140.943 401.776C139.657 401.776 138.473 402.013 137.424 402.453L138.372 397.581H147.861V393.708H134.904L132.79 405.683L136.46 407.476C137.289 406.343 138.575 405.768 140.317 405.768C141.552 405.768 142.584 406.157 143.395 406.918C144.207 407.679 144.63 408.711 144.63 410.03C144.63 411.316 144.241 412.331 143.497 413.075C142.736 413.819 141.687 414.192 140.368 414.192C138.118 414.192 136.748 413.058 136.257 410.758L131.809 411.807C132.265 413.769 133.246 415.359 134.769 416.593C136.274 417.828 138.101 418.437 140.266 418.437C141.467 418.437 142.6 418.268 143.683 417.896C144.766 417.541 145.73 417.016 146.575 416.34C147.421 415.663 148.081 414.8 148.588 413.735C149.079 412.669 149.333 411.468 149.333 410.149C149.333 408.525 148.944 407.053 148.199 405.768C147.455 404.482 146.44 403.501 145.171 402.808C143.903 402.131 142.499 401.776 140.943 401.776ZM161.511 418.437C164.454 418.437 166.721 417.372 168.328 415.24C169.918 413.109 170.73 409.997 170.73 405.92C170.73 401.827 169.918 398.714 168.311 396.549C166.687 394.384 164.421 393.302 161.477 393.302C158.534 393.302 156.251 394.384 154.627 396.549C153.003 398.714 152.191 401.81 152.191 405.869C152.191 409.946 153.003 413.058 154.627 415.206C156.251 417.372 158.551 418.437 161.511 418.437ZM161.511 414.192C158.433 414.192 156.894 411.451 156.894 405.937C156.894 400.355 158.416 397.564 161.477 397.564C164.505 397.564 166.028 400.372 166.028 405.988C166.028 408.863 165.639 410.944 164.877 412.246C164.099 413.549 162.983 414.192 161.511 414.192ZM183.196 418.437C186.139 418.437 188.406 417.372 190.013 415.24C191.603 413.109 192.415 409.997 192.415 405.92C192.415 401.827 191.603 398.714 189.996 396.549C188.372 394.384 186.106 393.302 183.162 393.302C180.219 393.302 177.936 394.384 176.312 396.549C174.688 398.714 173.876 401.81 173.876 405.869C173.876 409.946 174.688 413.058 176.312 415.206C177.936 417.372 180.236 418.437 183.196 418.437ZM183.196 414.192C180.118 414.192 178.578 411.451 178.578 405.937C178.578 400.355 180.101 397.564 183.162 397.564C186.19 397.564 187.712 400.372 187.712 405.988C187.712 408.863 187.323 410.944 186.562 412.246C185.784 413.549 184.668 414.192 183.196 414.192ZM203.815 408.018V411.79H215.453V408.018H203.815ZM241.823 411.147C241.823 413.312 240.707 414.378 238.491 414.378H234.025C234.871 412.821 235.294 411.181 235.294 409.472C235.294 408.948 235.243 408.424 235.142 407.882H240.03V404.178H234.093C233.653 402.757 233.433 401.641 233.433 400.829C233.433 399.746 233.738 398.917 234.364 398.325C234.99 397.733 235.801 397.429 236.783 397.429C237.797 397.429 238.66 397.716 239.354 398.292C240.047 398.867 240.538 399.662 240.842 400.677L244.53 399.137C243.938 397.277 242.973 395.839 241.637 394.824C240.301 393.809 238.643 393.302 236.664 393.302C234.313 393.302 232.418 393.961 230.981 395.281C229.543 396.6 228.833 398.393 228.833 400.66C228.833 401.607 229.036 402.774 229.475 404.178H227.04V407.882H230.524C230.626 408.508 230.693 409.066 230.693 409.574C230.693 411.231 230.253 412.821 229.374 414.378H227.04V418.099H238.491C240.724 418.099 242.483 417.507 243.768 416.306C245.054 415.105 245.714 413.38 245.714 411.147H241.823ZM253.072 393.708L247.676 396.363V401.082L252.378 398.884V418.099H256.962V393.708H253.072ZM269.97 401.776C268.684 401.776 267.5 402.013 266.451 402.453L267.398 397.581H276.888V393.708H263.931L261.817 405.683L265.487 407.476C266.316 406.343 267.601 405.768 269.344 405.768C270.578 405.768 271.61 406.157 272.422 406.918C273.234 407.679 273.657 408.711 273.657 410.03C273.657 411.316 273.268 412.331 272.524 413.075C271.763 413.819 270.714 414.192 269.394 414.192C267.145 414.192 265.775 413.058 265.284 410.758L260.835 411.807C261.292 413.769 262.273 415.359 263.796 416.593C265.301 417.828 267.128 418.437 269.293 418.437C270.494 418.437 271.627 418.268 272.71 417.896C273.792 417.541 274.756 417.016 275.602 416.34C276.448 415.663 277.108 414.8 277.615 413.735C278.106 412.669 278.359 411.468 278.359 410.149C278.359 408.525 277.97 407.053 277.226 405.768C276.482 404.482 275.467 403.501 274.198 402.808C272.93 402.131 271.526 401.776 269.97 401.776ZM281.692 413.819V418.572L280.711 422.886H284.939L285.92 418.572V413.819H281.692ZM298.691 418.437C301.634 418.437 303.901 417.372 305.508 415.24C307.098 413.109 307.91 409.997 307.91 405.92C307.91 401.827 307.098 398.714 305.491 396.549C303.867 394.384 301.6 393.302 298.657 393.302C295.714 393.302 293.431 394.384 291.807 396.549C290.183 398.714 289.371 401.81 289.371 405.869C289.371 409.946 290.183 413.058 291.807 415.206C293.431 417.372 295.731 418.437 298.691 418.437ZM298.691 414.192C295.613 414.192 294.073 411.451 294.073 405.937C294.073 400.355 295.596 397.564 298.657 397.564C301.685 397.564 303.207 400.372 303.207 405.988C303.207 408.863 302.818 410.944 302.057 412.246C301.279 413.549 300.163 414.192 298.691 414.192ZM320.376 418.437C323.319 418.437 325.586 417.372 327.193 415.24C328.783 413.109 329.595 409.997 329.595 405.92C329.595 401.827 328.783 398.714 327.176 396.549C325.552 394.384 323.285 393.302 320.342 393.302C317.399 393.302 315.115 394.384 313.492 396.549C311.868 398.714 311.056 401.81 311.056 405.869C311.056 409.946 311.868 413.058 313.492 415.206C315.115 417.372 317.416 418.437 320.376 418.437ZM320.376 414.192C317.297 414.192 315.758 411.451 315.758 405.937C315.758 400.355 317.28 397.564 320.342 397.564C323.37 397.564 324.892 400.372 324.892 405.988C324.892 408.863 324.503 410.944 323.742 412.246C322.964 413.549 321.848 414.192 320.376 414.192ZM342.061 418.437C345.004 418.437 347.271 417.372 348.878 415.24C350.468 413.109 351.279 409.997 351.279 405.92C351.279 401.827 350.468 398.714 348.861 396.549C347.237 394.384 344.97 393.302 342.027 393.302C339.084 393.302 336.8 394.384 335.176 396.549C333.553 398.714 332.741 401.81 332.741 405.869C332.741 409.946 333.553 413.058 335.176 415.206C336.8 417.372 339.101 418.437 342.061 418.437ZM342.061 414.192C338.982 414.192 337.443 411.451 337.443 405.937C337.443 400.355 338.965 397.564 342.027 397.564C345.055 397.564 346.577 400.372 346.577 405.988C346.577 408.863 346.188 410.944 345.427 412.246C344.649 413.549 343.532 414.192 342.061 414.192Z" fill="#2D2432"/>
<path d="M204.342 343.831H205.425L203.187 341.043C203.774 341.043 204.261 340.872 204.658 340.524C205.05 340.177 205.249 339.73 205.249 339.18C205.249 338.639 205.05 338.192 204.658 337.845C204.261 337.502 203.774 337.326 203.187 337.326H201.681H200.833V343.831H201.681V341.043H202.163L204.342 343.831ZM201.681 338.084H203.187C203.553 338.084 203.841 338.192 204.053 338.404C204.261 338.616 204.369 338.882 204.369 339.207C204.369 339.532 204.261 339.803 204.053 340.015C203.841 340.227 203.553 340.33 203.187 340.33H201.681V338.084ZM206.697 341.769H210.08C210.089 341.715 210.093 341.661 210.093 341.616C210.093 340.921 209.904 340.366 209.529 339.947C209.15 339.527 208.654 339.315 208.032 339.315C207.391 339.315 206.872 339.532 206.467 339.96C206.061 340.393 205.862 340.948 205.862 341.625C205.862 342.306 206.061 342.861 206.462 343.285C206.863 343.709 207.382 343.921 208.023 343.921C208.835 343.921 209.462 343.564 209.908 342.843L209.281 342.446C208.974 342.933 208.555 343.177 208.032 343.186C207.635 343.19 207.319 343.064 207.084 342.811C206.85 342.559 206.719 342.211 206.697 341.769ZM208.041 340.051C208.343 340.051 208.596 340.136 208.794 340.308C208.992 340.479 209.128 340.727 209.2 341.048H206.769C206.854 340.736 207.008 340.493 207.229 340.317C207.45 340.141 207.72 340.051 208.041 340.051ZM213.345 339.315C212.759 339.315 212.285 339.527 211.933 339.942V339.397H211.131V345.901H211.961V343.325C212.285 343.718 212.727 343.912 213.291 343.912C213.589 343.912 213.878 343.853 214.153 343.736C214.428 343.619 214.667 343.456 214.87 343.253C215.068 343.05 215.231 342.802 215.353 342.513C215.47 342.225 215.533 341.918 215.533 341.593C215.533 340.953 215.321 340.416 214.897 339.974C214.473 339.536 213.959 339.315 213.345 339.315ZM213.196 343.204C212.935 343.204 212.691 343.14 212.475 343.014C212.254 342.888 212.078 342.716 211.942 342.495V340.741C212.078 340.515 212.258 340.339 212.484 340.213C212.709 340.087 212.953 340.024 213.214 340.024C213.634 340.024 213.986 340.177 214.265 340.475C214.545 340.772 214.685 341.151 214.685 341.602C214.685 342.062 214.541 342.446 214.252 342.748C213.963 343.055 213.611 343.204 213.196 343.204ZM217.427 339.857V339.397H216.615V343.831H217.445V340.732C217.77 340.312 218.167 340.1 218.645 340.1C218.772 340.1 218.884 340.109 218.984 340.123V339.315C218.618 339.315 218.325 339.356 218.104 339.433C217.883 339.509 217.657 339.649 217.427 339.857ZM220.219 341.769H223.602C223.611 341.715 223.616 341.661 223.616 341.616C223.616 340.921 223.427 340.366 223.052 339.947C222.673 339.527 222.177 339.315 221.555 339.315C220.914 339.315 220.395 339.532 219.989 339.96C219.583 340.393 219.385 340.948 219.385 341.625C219.385 342.306 219.583 342.861 219.985 343.285C220.386 343.709 220.905 343.921 221.546 343.921C222.358 343.921 222.984 343.564 223.431 342.843L222.804 342.446C222.497 342.933 222.078 343.177 221.555 343.186C221.158 343.19 220.842 343.064 220.607 342.811C220.373 342.559 220.242 342.211 220.219 341.769ZM221.564 340.051C221.866 340.051 222.118 340.136 222.317 340.308C222.515 340.479 222.651 340.727 222.723 341.048H220.292C220.377 340.736 220.531 340.493 220.752 340.317C220.973 340.141 221.243 340.051 221.564 340.051ZM227.707 342.518C227.707 342.315 227.662 342.139 227.572 341.986C227.482 341.832 227.369 341.715 227.229 341.629C227.085 341.544 226.931 341.467 226.76 341.404C226.589 341.341 226.417 341.282 226.246 341.237C226.074 341.192 225.916 341.142 225.777 341.088C225.632 341.034 225.519 340.966 225.429 340.881C225.339 340.799 225.298 340.696 225.298 340.578C225.298 340.421 225.371 340.294 225.524 340.2C225.673 340.109 225.876 340.06 226.137 340.06C226.525 340.06 226.882 340.168 227.202 340.38L227.658 339.771C227.206 339.482 226.706 339.333 226.155 339.333C225.641 339.333 225.231 339.455 224.924 339.699C224.617 339.942 224.469 340.263 224.469 340.664C224.469 340.849 224.5 341.011 224.572 341.151C224.64 341.291 224.73 341.399 224.843 341.481C224.956 341.562 225.086 341.638 225.231 341.702C225.375 341.765 225.519 341.814 225.673 341.85C225.822 341.886 225.971 341.932 226.115 341.977C226.259 342.022 226.386 342.067 226.498 342.112C226.611 342.157 226.701 342.225 226.773 342.306C226.841 342.387 226.877 342.486 226.877 342.595C226.877 342.771 226.801 342.91 226.647 343.014C226.494 343.118 226.282 343.168 226.011 343.168C225.542 343.168 225.105 343.014 224.708 342.698L224.252 343.312C224.469 343.501 224.735 343.65 225.046 343.749C225.353 343.853 225.668 343.903 225.993 343.903C226.498 343.903 226.909 343.776 227.229 343.519C227.545 343.262 227.707 342.928 227.707 342.518ZM229.322 341.769H232.705C232.714 341.715 232.718 341.661 232.718 341.616C232.718 340.921 232.529 340.366 232.155 339.947C231.776 339.527 231.28 339.315 230.657 339.315C230.017 339.315 229.498 339.532 229.092 339.96C228.686 340.393 228.487 340.948 228.487 341.625C228.487 342.306 228.686 342.861 229.087 343.285C229.489 343.709 230.008 343.921 230.648 343.921C231.46 343.921 232.087 343.564 232.534 342.843L231.907 342.446C231.6 342.933 231.18 343.177 230.657 343.186C230.26 343.19 229.944 343.064 229.71 342.811C229.475 342.559 229.345 342.211 229.322 341.769ZM230.666 340.051C230.968 340.051 231.221 340.136 231.419 340.308C231.618 340.479 231.753 340.727 231.825 341.048H229.394C229.48 340.736 229.633 340.493 229.854 340.317C230.075 340.141 230.346 340.051 230.666 340.051ZM236.11 339.315C235.533 339.315 235.019 339.5 234.568 339.866V339.397H233.756V343.831H234.586V340.642C234.739 340.461 234.933 340.317 235.177 340.2C235.42 340.082 235.673 340.024 235.935 340.024C236.268 340.024 236.53 340.123 236.71 340.321C236.891 340.52 236.986 340.799 236.986 341.151V343.831H237.82V341.151C237.82 340.601 237.667 340.154 237.364 339.821C237.062 339.487 236.643 339.315 236.11 339.315ZM241.51 340.091V339.397H240.436V337.917H239.602V339.397H238.533V340.091H239.602V342.572L239.782 343.831H240.571L240.436 342.572V340.091H241.51ZM246.485 343.831L246.345 343.199V339.397H245.515V339.902C245.19 339.514 244.744 339.315 244.184 339.315C243.882 339.315 243.594 339.379 243.318 339.496C243.043 339.613 242.804 339.776 242.601 339.978C242.398 340.181 242.236 340.425 242.119 340.714C241.997 341.002 241.938 341.309 241.938 341.634C241.938 342.274 242.146 342.816 242.57 343.253C242.994 343.695 243.512 343.912 244.126 343.912C244.721 343.912 245.195 343.7 245.556 343.267L245.718 343.831H246.485ZM244.257 343.204C243.833 343.204 243.485 343.055 243.206 342.757C242.926 342.459 242.786 342.08 242.786 341.625C242.786 341.165 242.931 340.786 243.219 340.479C243.508 340.177 243.86 340.024 244.275 340.024C244.536 340.024 244.775 340.087 244.996 340.213C245.217 340.339 245.398 340.515 245.533 340.732V342.486C245.398 342.712 245.213 342.888 244.987 343.014C244.762 343.14 244.518 343.204 244.257 343.204ZM250.17 340.091V339.397H249.097V337.917H248.262V339.397H247.193V340.091H248.262V342.572L248.443 343.831H249.232L249.097 342.572V340.091H250.17ZM251.884 338.697H250.987V337.759H251.884V338.697ZM251.023 339.397V343.831H251.853V339.397H251.023ZM256.282 339.397L254.884 342.946L253.508 339.397H252.619L254.437 343.831H255.366L257.171 339.397H256.282ZM258.37 341.769H261.753C261.762 341.715 261.767 341.661 261.767 341.616C261.767 340.921 261.578 340.366 261.203 339.947C260.824 339.527 260.328 339.315 259.706 339.315C259.065 339.315 258.546 339.532 258.14 339.96C257.734 340.393 257.536 340.948 257.536 341.625C257.536 342.306 257.734 342.861 258.136 343.285C258.537 343.709 259.056 343.921 259.697 343.921C260.508 343.921 261.135 343.564 261.582 342.843L260.955 342.446C260.648 342.933 260.229 343.177 259.706 343.186C259.309 343.19 258.993 343.064 258.758 342.811C258.524 342.559 258.393 342.211 258.37 341.769ZM259.715 340.051C260.017 340.051 260.269 340.136 260.468 340.308C260.666 340.479 260.802 340.727 260.874 341.048H258.443C258.528 340.736 258.682 340.493 258.903 340.317C259.124 340.141 259.394 340.051 259.715 340.051ZM214.207 356.101C213.756 355.628 213.417 355.14 213.196 354.644C212.971 354.148 212.863 353.557 212.863 352.876C212.863 352.515 212.894 352.181 212.957 351.875C213.02 351.568 213.115 351.284 213.242 351.022C213.368 350.761 213.503 350.526 213.656 350.314C213.805 350.107 213.99 349.886 214.207 349.651L213.702 349.141C212.601 350.143 212.051 351.388 212.051 352.876C212.051 354.378 212.601 355.623 213.702 356.611L214.207 356.101ZM217.906 351.397L216.507 354.946L215.131 351.397H214.243L216.061 355.831H216.99L218.794 351.397H217.906ZM223.697 355.831L223.557 355.199V351.397H222.727V351.902C222.403 351.514 221.956 351.315 221.397 351.315C221.095 351.315 220.806 351.379 220.531 351.496C220.256 351.613 220.016 351.776 219.814 351.978C219.611 352.181 219.448 352.425 219.331 352.714C219.209 353.002 219.15 353.309 219.15 353.634C219.15 354.274 219.358 354.816 219.782 355.253C220.206 355.695 220.725 355.912 221.338 355.912C221.934 355.912 222.407 355.7 222.768 355.267L222.93 355.831H223.697ZM221.469 355.204C221.045 355.204 220.698 355.055 220.418 354.757C220.138 354.459 219.998 354.08 219.998 353.625C219.998 353.165 220.143 352.786 220.431 352.479C220.72 352.177 221.072 352.024 221.487 352.024C221.749 352.024 221.988 352.087 222.209 352.213C222.43 352.339 222.61 352.515 222.745 352.732V354.486C222.61 354.712 222.425 354.888 222.2 355.014C221.974 355.14 221.731 355.204 221.469 355.204ZM225.763 351.857V351.397H224.951V355.831H225.781V352.732C226.106 352.312 226.503 352.1 226.981 352.1C227.107 352.1 227.22 352.109 227.319 352.123V351.315C226.954 351.315 226.661 351.356 226.44 351.433C226.219 351.509 225.993 351.649 225.763 351.857ZM229.051 350.697H228.154V349.759H229.051V350.697ZM228.19 351.397V355.831H229.02V351.397H228.19ZM234.649 355.831L234.509 355.199V351.397H233.679V351.902C233.354 351.514 232.908 351.315 232.349 351.315C232.046 351.315 231.758 351.379 231.483 351.496C231.207 351.613 230.968 351.776 230.765 351.978C230.562 352.181 230.4 352.425 230.283 352.714C230.161 353.002 230.102 353.309 230.102 353.634C230.102 354.274 230.31 354.816 230.734 355.253C231.158 355.695 231.676 355.912 232.29 355.912C232.885 355.912 233.359 355.7 233.72 355.267L233.882 355.831H234.649ZM232.421 355.204C231.997 355.204 231.649 355.055 231.37 354.757C231.09 354.459 230.95 354.08 230.95 353.625C230.95 353.165 231.095 352.786 231.383 352.479C231.672 352.177 232.024 352.024 232.439 352.024C232.7 352.024 232.939 352.087 233.16 352.213C233.382 352.339 233.562 352.515 233.697 352.732V354.486C233.562 354.712 233.377 354.888 233.151 355.014C232.926 355.14 232.682 355.204 232.421 355.204ZM238.127 351.315C237.558 351.315 237.094 351.514 236.742 351.911V349.186H235.912V355.199L235.772 355.831H236.539L236.697 355.271C237.022 355.7 237.477 355.912 238.073 355.912C238.37 355.912 238.659 355.853 238.934 355.736C239.209 355.619 239.448 355.456 239.651 355.253C239.854 355.05 240.017 354.802 240.138 354.513C240.256 354.225 240.319 353.918 240.319 353.593C240.319 352.953 240.107 352.416 239.683 351.974C239.259 351.536 238.74 351.315 238.127 351.315ZM237.978 355.204C237.716 355.204 237.473 355.14 237.256 355.014C237.035 354.888 236.859 354.716 236.724 354.495V352.741C236.859 352.515 237.04 352.339 237.265 352.213C237.491 352.087 237.734 352.024 237.996 352.024C238.415 352.024 238.767 352.177 239.047 352.475C239.327 352.772 239.466 353.151 239.466 353.602C239.466 354.062 239.322 354.446 239.033 354.748C238.745 355.055 238.393 355.204 237.978 355.204ZM242.349 355.831L242.209 355.055V349.186H241.379V355.055L241.555 355.831H242.349ZM244.144 353.769H247.527C247.536 353.715 247.54 353.661 247.54 353.616C247.54 352.921 247.351 352.366 246.977 351.947C246.598 351.527 246.102 351.315 245.479 351.315C244.839 351.315 244.32 351.532 243.914 351.96C243.508 352.393 243.309 352.948 243.309 353.625C243.309 354.306 243.508 354.861 243.909 355.285C244.311 355.709 244.83 355.921 245.47 355.921C246.282 355.921 246.909 355.564 247.355 354.843L246.728 354.446C246.422 354.933 246.002 355.177 245.479 355.186C245.082 355.19 244.766 355.064 244.532 354.811C244.297 354.559 244.166 354.211 244.144 353.769ZM245.488 352.051C245.79 352.051 246.043 352.136 246.241 352.308C246.44 352.479 246.575 352.727 246.647 353.048H244.216C244.302 352.736 244.455 352.493 244.676 352.317C244.897 352.141 245.168 352.051 245.488 352.051ZM247.861 356.101L248.366 356.611C249.466 355.623 250.017 354.378 250.017 352.876C250.017 351.388 249.466 350.143 248.366 349.141L247.861 349.651C248.077 349.886 248.258 350.107 248.411 350.314C248.56 350.526 248.7 350.761 248.826 351.022C248.952 351.284 249.047 351.568 249.11 351.875C249.173 352.181 249.205 352.515 249.205 352.876C249.205 353.557 249.092 354.148 248.871 354.644C248.646 355.14 248.312 355.628 247.861 356.101Z" fill="#2D2432"/>
<path d="M188.038 425.085L185.602 428.035L183.153 425.085H182.359V431.59H183.207V426.371L185.489 429.104H185.719L188.002 426.353V431.59H188.85V425.085H188.038ZM191.281 426.456H190.383V425.518H191.281V426.456ZM190.419 427.156V431.59H191.249V427.156H190.419ZM194.993 427.074C194.416 427.074 193.902 427.259 193.45 427.625V427.156H192.639V431.59H193.469V428.401C193.622 428.22 193.816 428.076 194.059 427.959C194.303 427.841 194.556 427.783 194.817 427.783C195.151 427.783 195.413 427.882 195.593 428.08C195.773 428.279 195.868 428.558 195.868 428.91V431.59H196.703V428.91C196.703 428.36 196.549 427.913 196.247 427.58C195.945 427.246 195.525 427.074 194.993 427.074ZM198.895 426.456H197.997V425.518H198.895V426.456ZM198.033 427.156V431.59H198.863V427.156H198.033ZM205.277 427.074C205.002 427.074 204.736 427.129 204.483 427.228C204.231 427.332 203.96 427.485 203.672 427.688C203.401 427.282 202.999 427.074 202.467 427.074C201.971 427.074 201.506 427.259 201.064 427.625V427.156H200.253V431.59H201.082V428.401C201.231 428.216 201.412 428.067 201.628 427.954C201.84 427.841 202.066 427.783 202.3 427.783C202.851 427.783 203.126 428.112 203.126 428.77V431.59H203.956V428.306C204.29 427.959 204.682 427.783 205.129 427.783C205.697 427.783 205.986 428.112 205.986 428.77L205.981 431.59H206.815L206.82 428.77C206.82 428.238 206.68 427.823 206.401 427.526C206.121 427.228 205.746 427.074 205.277 427.074ZM211.295 427.156V430.345C211.141 430.525 210.947 430.669 210.704 430.787C210.46 430.904 210.217 430.963 209.964 430.963C209.639 430.963 209.391 430.863 209.211 430.665C209.03 430.466 208.94 430.187 208.94 429.835V427.156H208.106V429.975C208.106 430.453 208.259 430.859 208.575 431.184C208.886 431.508 209.292 431.671 209.788 431.671C210.059 431.671 210.329 431.621 210.6 431.522C210.871 431.423 211.105 431.292 211.313 431.125V431.59H212.125V427.156H211.295ZM218.539 427.074C218.263 427.074 217.997 427.129 217.745 427.228C217.492 427.332 217.222 427.485 216.933 427.688C216.662 427.282 216.261 427.074 215.729 427.074C215.232 427.074 214.768 427.259 214.326 427.625V427.156H213.514V431.59H214.344V428.401C214.493 428.216 214.673 428.067 214.89 427.954C215.102 427.841 215.327 427.783 215.562 427.783C216.112 427.783 216.387 428.112 216.387 428.77V431.59H217.217V428.306C217.551 427.959 217.943 427.783 218.39 427.783C218.958 427.783 219.247 428.112 219.247 428.77L219.242 431.59H220.077L220.081 428.77C220.081 428.238 219.941 427.823 219.662 427.526C219.382 427.228 219.008 427.074 218.539 427.074ZM227.93 431.59L227.79 430.958V427.156H226.96V427.661C226.635 427.273 226.189 427.074 225.629 427.074C225.327 427.074 225.038 427.138 224.763 427.255C224.488 427.372 224.249 427.535 224.046 427.738C223.843 427.94 223.681 428.184 223.563 428.473C223.442 428.761 223.383 429.068 223.383 429.393C223.383 430.033 223.591 430.575 224.015 431.012C224.439 431.454 224.957 431.671 225.571 431.671C226.166 431.671 226.64 431.459 227.001 431.026L227.163 431.59H227.93ZM225.702 430.963C225.278 430.963 224.93 430.814 224.651 430.516C224.371 430.218 224.231 429.839 224.231 429.384C224.231 428.924 224.375 428.545 224.664 428.238C224.953 427.936 225.305 427.783 225.72 427.783C225.981 427.783 226.22 427.846 226.441 427.972C226.662 428.098 226.843 428.274 226.978 428.491V430.245C226.843 430.471 226.658 430.647 226.432 430.773C226.207 430.899 225.963 430.963 225.702 430.963ZM231.538 427.074C230.961 427.074 230.447 427.259 229.996 427.625V427.156H229.184V431.59H230.014V428.401C230.167 428.22 230.361 428.076 230.605 427.959C230.848 427.841 231.101 427.783 231.362 427.783C231.696 427.783 231.958 427.882 232.138 428.08C232.319 428.279 232.413 428.558 232.413 428.91V431.59H233.248V428.91C233.248 428.36 233.094 427.913 232.792 427.58C232.49 427.246 232.071 427.074 231.538 427.074ZM238.818 431.59L238.679 430.958V424.945H237.849V427.661C237.524 427.273 237.077 427.074 236.518 427.074C236.216 427.074 235.927 427.138 235.652 427.255C235.377 427.372 235.138 427.535 234.935 427.738C234.732 427.94 234.569 428.184 234.452 428.473C234.33 428.761 234.272 429.068 234.272 429.393C234.272 430.033 234.479 430.575 234.903 431.012C235.327 431.454 235.846 431.671 236.459 431.671C237.055 431.671 237.528 431.459 237.889 431.026L238.052 431.59H238.818ZM236.59 430.963C236.166 430.963 235.819 430.814 235.539 430.516C235.26 430.218 235.12 429.839 235.12 429.384C235.12 428.924 235.264 428.545 235.553 428.238C235.841 427.936 236.193 427.783 236.608 427.783C236.87 427.783 237.109 427.846 237.33 427.972C237.551 428.098 237.731 428.274 237.867 428.491V430.245C237.731 430.471 237.546 430.647 237.321 430.773C237.095 430.899 236.852 430.963 236.59 430.963ZM247.362 427.074C247.086 427.074 246.82 427.129 246.568 427.228C246.315 427.332 246.045 427.485 245.756 427.688C245.485 427.282 245.084 427.074 244.551 427.074C244.055 427.074 243.591 427.259 243.149 427.625V427.156H242.337V431.59H243.167V428.401C243.316 428.216 243.496 428.067 243.713 427.954C243.925 427.841 244.15 427.783 244.385 427.783C244.935 427.783 245.21 428.112 245.21 428.77V431.59H246.04V428.306C246.374 427.959 246.766 427.783 247.213 427.783C247.781 427.783 248.07 428.112 248.07 428.77L248.065 431.59H248.9L248.904 428.77C248.904 428.238 248.764 427.823 248.485 427.526C248.205 427.228 247.831 427.074 247.362 427.074ZM254.488 431.59L254.349 430.958V427.156H253.519V427.661C253.194 427.273 252.747 427.074 252.188 427.074C251.886 427.074 251.597 427.138 251.322 427.255C251.047 427.372 250.808 427.535 250.605 427.738C250.402 427.94 250.239 428.184 250.122 428.473C250 428.761 249.942 429.068 249.942 429.393C249.942 430.033 250.149 430.575 250.573 431.012C250.997 431.454 251.516 431.671 252.129 431.671C252.725 431.671 253.198 431.459 253.559 431.026L253.722 431.59H254.488ZM252.26 430.963C251.836 430.963 251.489 430.814 251.209 430.516C250.93 430.218 250.79 429.839 250.79 429.384C250.79 428.924 250.934 428.545 251.223 428.238C251.511 427.936 251.863 427.783 252.278 427.783C252.54 427.783 252.779 427.846 253 427.972C253.221 428.098 253.401 428.274 253.537 428.491V430.245C253.401 430.471 253.216 430.647 252.991 430.773C252.765 430.899 252.522 430.963 252.26 430.963ZM259.387 431.59L257.718 429.253L259.22 427.156H258.273L257.294 428.649L256.27 427.156H255.323L256.834 429.307L255.151 431.59H256.094L257.249 429.898L258.44 431.59H259.387ZM261.06 426.456H260.163V425.518H261.06V426.456ZM260.199 427.156V431.59H261.029V427.156H260.199ZM267.443 427.074C267.168 427.074 266.902 427.129 266.649 427.228C266.397 427.332 266.126 427.485 265.837 427.688C265.567 427.282 265.165 427.074 264.633 427.074C264.137 427.074 263.672 427.259 263.23 427.625V427.156H262.418V431.59H263.248V428.401C263.397 428.216 263.577 428.067 263.794 427.954C264.006 427.841 264.231 427.783 264.466 427.783C265.016 427.783 265.291 428.112 265.291 428.77V431.59H266.121V428.306C266.455 427.959 266.848 427.783 267.294 427.783C267.862 427.783 268.151 428.112 268.151 428.77L268.147 431.59H268.981L268.986 428.77C268.986 428.238 268.846 427.823 268.566 427.526C268.286 427.228 267.912 427.074 267.443 427.074ZM273.46 427.156V430.345C273.307 430.525 273.113 430.669 272.869 430.787C272.626 430.904 272.382 430.963 272.13 430.963C271.805 430.963 271.557 430.863 271.376 430.665C271.196 430.466 271.106 430.187 271.106 429.835V427.156H270.271V429.975C270.271 430.453 270.424 430.859 270.74 431.184C271.051 431.508 271.457 431.671 271.954 431.671C272.224 431.671 272.495 431.621 272.766 431.522C273.036 431.423 273.271 431.292 273.478 431.125V431.59H274.29V427.156H273.46ZM280.704 427.074C280.429 427.074 280.163 427.129 279.91 427.228C279.658 427.332 279.387 427.485 279.098 427.688C278.828 427.282 278.426 427.074 277.894 427.074C277.398 427.074 276.933 427.259 276.491 427.625V427.156H275.679V431.59H276.509V428.401C276.658 428.216 276.839 428.067 277.055 427.954C277.267 427.841 277.493 427.783 277.727 427.783C278.278 427.783 278.553 428.112 278.553 428.77V431.59H279.383V428.306C279.716 427.959 280.109 427.783 280.555 427.783C281.124 427.783 281.412 428.112 281.412 428.77L281.408 431.59H282.242L282.247 428.77C282.247 428.238 282.107 427.823 281.827 427.526C281.548 427.228 281.173 427.074 280.704 427.074ZM211.475 443.68C211.881 443.68 212.255 443.585 212.603 443.391C212.95 443.197 213.23 442.922 213.437 442.57C213.645 442.218 213.748 441.821 213.748 441.384C213.748 441.059 213.685 440.752 213.563 440.464C213.442 440.175 213.279 439.931 213.072 439.728C212.864 439.53 212.625 439.368 212.346 439.25C212.066 439.133 211.777 439.074 211.475 439.074C211.069 439.074 210.69 439.174 210.343 439.372C209.996 439.571 209.716 439.846 209.508 440.202C209.301 440.558 209.197 440.951 209.197 441.384C209.197 441.821 209.301 442.218 209.508 442.57C209.716 442.922 209.996 443.197 210.343 443.391C210.69 443.585 211.069 443.68 211.475 443.68ZM211.475 442.945C211.069 442.945 210.726 442.796 210.456 442.507C210.18 442.218 210.045 441.848 210.045 441.402C210.045 440.955 210.18 440.581 210.456 440.274C210.731 439.968 211.069 439.814 211.475 439.81C211.876 439.814 212.215 439.968 212.49 440.274C212.761 440.581 212.9 440.955 212.9 441.402C212.9 441.848 212.761 442.218 212.49 442.507C212.219 442.796 211.881 442.945 211.475 442.945ZM215.656 439.616V439.156H214.844V443.59H215.674V440.491C215.999 440.071 216.396 439.859 216.874 439.859C217.001 439.859 217.113 439.868 217.213 439.882V439.074C216.847 439.074 216.554 439.115 216.333 439.192C216.112 439.268 215.886 439.408 215.656 439.616ZM222.152 443.59L222.012 442.958V436.945H221.182V439.661C220.857 439.273 220.411 439.074 219.851 439.074C219.549 439.074 219.26 439.138 218.985 439.255C218.71 439.372 218.471 439.535 218.268 439.738C218.065 439.94 217.903 440.184 217.785 440.473C217.664 440.761 217.605 441.068 217.605 441.393C217.605 442.033 217.812 442.575 218.236 443.012C218.66 443.454 219.179 443.671 219.793 443.671C220.388 443.671 220.862 443.459 221.222 443.026L221.385 443.59H222.152ZM219.923 442.963C219.499 442.963 219.152 442.814 218.872 442.516C218.593 442.218 218.453 441.839 218.453 441.384C218.453 440.924 218.597 440.545 218.886 440.238C219.175 439.936 219.526 439.783 219.941 439.783C220.203 439.783 220.442 439.846 220.663 439.972C220.884 440.098 221.065 440.274 221.2 440.491V442.245C221.065 442.471 220.88 442.647 220.654 442.773C220.429 442.899 220.185 442.963 219.923 442.963ZM223.942 441.528H227.325C227.334 441.474 227.339 441.42 227.339 441.375C227.339 440.68 227.149 440.125 226.775 439.706C226.396 439.286 225.9 439.074 225.278 439.074C224.637 439.074 224.118 439.291 223.712 439.719C223.306 440.152 223.108 440.707 223.108 441.384C223.108 442.065 223.306 442.62 223.708 443.044C224.109 443.468 224.628 443.68 225.269 443.68C226.08 443.68 226.707 443.323 227.154 442.602L226.527 442.205C226.22 442.692 225.801 442.936 225.278 442.945C224.881 442.949 224.565 442.823 224.33 442.57C224.096 442.318 223.965 441.97 223.942 441.528ZM225.287 439.81C225.589 439.81 225.841 439.895 226.04 440.067C226.238 440.238 226.374 440.486 226.446 440.807H224.015C224.1 440.495 224.254 440.252 224.475 440.076C224.696 439.9 224.966 439.81 225.287 439.81ZM229.188 439.616V439.156H228.376V443.59H229.206V440.491C229.531 440.071 229.928 439.859 230.406 439.859C230.532 439.859 230.645 439.868 230.744 439.882V439.074C230.379 439.074 230.086 439.115 229.865 439.192C229.644 439.268 229.418 439.408 229.188 439.616ZM236.685 439.156L235.287 442.706L233.911 439.156H233.022L234.84 443.59H235.769L237.574 439.156H236.685ZM242.477 443.59L242.337 442.958V439.156H241.507V439.661C241.182 439.273 240.735 439.074 240.176 439.074C239.874 439.074 239.585 439.138 239.31 439.255C239.035 439.372 238.796 439.535 238.593 439.738C238.39 439.94 238.228 440.184 238.11 440.473C237.989 440.761 237.93 441.068 237.93 441.393C237.93 442.033 238.137 442.575 238.561 443.012C238.985 443.454 239.504 443.671 240.118 443.671C240.713 443.671 241.187 443.459 241.547 443.026L241.71 443.59H242.477ZM240.248 442.963C239.824 442.963 239.477 442.814 239.197 442.516C238.918 442.218 238.778 441.839 238.778 441.384C238.778 440.924 238.922 440.545 239.211 440.238C239.5 439.936 239.851 439.783 240.266 439.783C240.528 439.783 240.767 439.846 240.988 439.972C241.209 440.098 241.39 440.274 241.525 440.491V442.245C241.39 442.471 241.205 442.647 240.979 442.773C240.754 442.899 240.51 442.963 240.248 442.963ZM244.682 443.59L244.542 442.814V436.945H243.713V442.814L243.888 443.59H244.682ZM249.071 439.156V442.345C248.918 442.525 248.724 442.669 248.48 442.787C248.237 442.904 247.993 442.963 247.741 442.963C247.416 442.963 247.168 442.863 246.987 442.665C246.807 442.466 246.717 442.187 246.717 441.835V439.156H245.882V441.975C245.882 442.453 246.035 442.859 246.351 443.184C246.662 443.508 247.068 443.671 247.565 443.671C247.835 443.671 248.106 443.621 248.377 443.522C248.647 443.423 248.882 443.292 249.089 443.125V443.59H249.901V439.156H249.071ZM251.827 441.528H255.21C255.219 441.474 255.224 441.42 255.224 441.375C255.224 440.68 255.034 440.125 254.66 439.706C254.281 439.286 253.785 439.074 253.162 439.074C252.522 439.074 252.003 439.291 251.597 439.719C251.191 440.152 250.993 440.707 250.993 441.384C250.993 442.065 251.191 442.62 251.593 443.044C251.994 443.468 252.513 443.68 253.153 443.68C253.965 443.68 254.592 443.323 255.039 442.602L254.412 442.205C254.105 442.692 253.686 442.936 253.162 442.945C252.765 442.949 252.45 442.823 252.215 442.57C251.981 442.318 251.85 441.97 251.827 441.528ZM253.171 439.81C253.474 439.81 253.726 439.895 253.925 440.067C254.123 440.238 254.258 440.486 254.331 440.807H251.899C251.985 440.495 252.138 440.252 252.359 440.076C252.58 439.9 252.851 439.81 253.171 439.81Z" fill="#2D2432"/>
</svg>
