<svg width="172" height="26" viewBox="0 0 172 26" fill="none" xmlns="http://www.w3.org/2000/svg">
<g clip-path="url(#clip0_898_2303)">
<path d="M27.6322 10.2265C27.5392 9.96656 27.2917 9.77711 26.9938 9.73786L18.6238 8.63389L14.8805 1.7498C14.7473 1.50474 14.4723 1.34961 14.1712 1.34961C13.8701 1.34961 13.5952 1.50474 13.4619 1.7498L9.71848 8.63389L1.34863 9.73786C1.05074 9.77711 0.803161 9.96656 0.710139 10.2265C0.617064 10.4864 0.694688 10.7717 0.910315 10.9625L6.96664 16.321L5.53714 23.8874C5.4862 24.1568 5.60823 24.429 5.8518 24.5896C5.9896 24.6805 6.15281 24.7267 6.31681 24.7267C6.44274 24.7267 6.56908 24.6995 6.68478 24.6442L14.1712 21.0718L21.6573 24.6442C21.9238 24.7714 22.2467 24.7502 22.4903 24.5896C22.7339 24.429 22.856 24.1567 22.8051 23.8873L21.3751 16.321L27.4321 10.9624C27.6477 10.7717 27.7254 10.4864 27.6322 10.2265Z" fill="#3B333D"/>
</g>
<g clip-path="url(#clip1_898_2303)">
<path d="M63.6352 10.227C63.5421 9.96704 63.2947 9.7776 62.9967 9.73835L54.6267 8.63438L50.8834 1.75029C50.7502 1.50522 50.4752 1.3501 50.1742 1.3501C49.8731 1.3501 49.5981 1.50522 49.4649 1.75029L45.7214 8.63438L37.3516 9.73835C37.0537 9.7776 36.8061 9.96704 36.7131 10.2269C36.62 10.4869 36.6976 10.7722 36.9132 10.9629L42.9696 16.3215L41.5401 23.8879C41.4891 24.1573 41.6112 24.4294 41.8547 24.5901C41.9925 24.681 42.1557 24.7272 42.3197 24.7272C42.4457 24.7272 42.572 24.7 42.6877 24.6447L50.1741 21.0723L57.6602 24.6447C57.9268 24.7719 58.2497 24.7507 58.4932 24.5901C58.7368 24.4294 58.8589 24.1572 58.808 23.8878L57.378 16.3215L63.435 10.9629C63.6506 10.7722 63.7283 10.4869 63.6352 10.227Z" fill="#3B333D"/>
</g>
<g clip-path="url(#clip2_898_2303)">
<path d="M99.6381 10.227C99.5451 9.96704 99.2976 9.7776 98.9996 9.73835L90.6296 8.63438L86.8864 1.75029C86.7532 1.50522 86.4782 1.3501 86.1771 1.3501C85.876 1.3501 85.601 1.50522 85.4678 1.75029L81.7243 8.63438L73.3545 9.73835C73.0566 9.7776 72.809 9.96704 72.716 10.2269C72.6229 10.4869 72.7005 10.7722 72.9162 10.9629L78.9725 16.3215L77.543 23.8879C77.4921 24.1573 77.6141 24.4294 77.8577 24.5901C77.9955 24.681 78.1587 24.7272 78.3227 24.7272C78.4486 24.7272 78.5749 24.7 78.6906 24.6447L86.177 21.0723L93.6631 24.6447C93.9297 24.7719 94.2526 24.7507 94.4962 24.5901C94.7397 24.4294 94.8618 24.1572 94.8109 23.8878L93.381 16.3215L99.438 10.9629C99.6535 10.7722 99.7312 10.4869 99.6381 10.227Z" fill="#3B333D"/>
</g>
<g clip-path="url(#clip3_898_2303)">
<path d="M135.64 10.227C135.547 9.96704 135.3 9.7776 135.002 9.73835L126.632 8.63438L122.888 1.75029C122.755 1.50522 122.48 1.3501 122.179 1.3501C121.878 1.3501 121.603 1.50522 121.47 1.75029L117.726 8.63438L109.356 9.73835C109.059 9.7776 108.811 9.96704 108.718 10.2269C108.625 10.4869 108.703 10.7722 108.918 10.9629L114.974 16.3215L113.545 23.8879C113.494 24.1573 113.616 24.4294 113.86 24.5901C113.997 24.681 114.161 24.7272 114.325 24.7272C114.451 24.7272 114.577 24.7 114.693 24.6447L122.179 21.0723L129.665 24.6447C129.932 24.7719 130.255 24.7507 130.498 24.5901C130.742 24.4294 130.864 24.1572 130.813 23.8878L129.383 16.3215L135.44 10.9629C135.655 10.7722 135.733 10.4869 135.64 10.227Z" fill="#3B333D"/>
</g>
<g clip-path="url(#clip4_898_2303)">
<path d="M171.848 10.227C171.755 9.96704 171.507 9.7776 171.209 9.73835L162.839 8.63438L159.096 1.75029C158.963 1.50522 158.688 1.3501 158.387 1.3501C158.085 1.3501 157.811 1.50522 157.677 1.75029L153.934 8.63438L145.564 9.73835C145.266 9.7776 145.018 9.96704 144.925 10.2269C144.832 10.4869 144.91 10.7722 145.126 10.9629L151.182 16.3215L149.752 23.8879C149.702 24.1573 149.824 24.4294 150.067 24.5901C150.205 24.681 150.368 24.7272 150.532 24.7272C150.658 24.7272 150.784 24.7 150.9 24.6447L158.387 21.0723L165.873 24.6447C166.139 24.7719 166.462 24.7507 166.706 24.5901C166.949 24.4294 167.071 24.1572 167.02 23.8878L165.59 16.3215L171.647 10.9629C171.863 10.7722 171.941 10.4869 171.848 10.227Z" fill="#3B333D"/>
</g>
<defs>
<clipPath id="clip0_898_2303">
<rect width="26.9996" height="24.5063" fill="white" transform="translate(0.671387 0.784668)"/>
</clipPath>
<clipPath id="clip1_898_2303">
<rect width="26.9996" height="24.5063" fill="white" transform="translate(36.6743 0.785156)"/>
</clipPath>
<clipPath id="clip2_898_2303">
<rect width="26.9996" height="24.5063" fill="white" transform="translate(72.6772 0.785156)"/>
</clipPath>
<clipPath id="clip3_898_2303">
<rect width="26.9996" height="24.5063" fill="white" transform="translate(108.679 0.785156)"/>
</clipPath>
<clipPath id="clip4_898_2303">
<rect width="26.9996" height="24.5063" fill="white" transform="translate(144.887 0.785156)"/>
</clipPath>
</defs>
</svg>
