<svg width="97" height="46" viewBox="0 0 97 46" fill="none" xmlns="http://www.w3.org/2000/svg">
<g clip-path="url(#clip0_898_2360)">
<path d="M0.412598 45.6836H18.3361V27.112H0.412598V45.6836ZM19.8297 45.6836H37.7531V27.112H19.8297V45.6836ZM39.2467 45.6836H57.1702V27.112H39.2467V45.6836ZM58.6638 45.6836H76.5873V27.112H58.6638V45.6836ZM78.0809 45.6836H96.0043V27.112H78.0809V45.6836Z" fill="#00B67A"/>
<path d="M9.37428 33.1678L12.1001 33.8836L13.239 30.2466L9.37428 33.1678ZM15.6475 37.8687H10.8492L9.37428 42.5503L7.89933 37.8687H3.10107L6.98449 34.9669L5.50954 30.2853L9.39295 33.1871L11.7827 34.9669L15.6475 37.8687ZM28.7914 33.1678L31.5172 33.8836L32.6561 30.2466L28.7914 33.1678ZM35.0646 37.8687H30.2663L28.7914 42.5503L27.3164 37.8687H22.5182L26.4016 34.9669L24.9266 30.2853L28.81 33.1871L31.1998 34.9669L35.0646 37.8687ZM48.2084 33.1678L50.9343 33.8836L52.0732 30.2466L48.2084 33.1678ZM54.4817 37.8687H49.6834L48.2084 42.5503L46.7335 37.8687H41.9352L45.8186 34.9669L44.3437 30.2853L48.2271 33.1871L50.6169 34.9669L54.4817 37.8687ZM67.6255 33.1678L70.3514 33.8836L71.4903 30.2466L67.6255 33.1678ZM73.8987 37.8687H69.1005L67.6255 42.5503L66.1506 37.8687H61.3523L65.2357 34.9669L63.7608 30.2853L67.6442 33.1871L70.034 34.9669L73.8987 37.8687ZM87.0426 33.1678L89.7685 33.8836L90.9073 30.2466L87.0426 33.1678ZM93.3158 37.8687H88.5176L87.0426 42.5503L85.5676 37.8687H80.7694L84.6528 34.9669L83.1779 30.2853L87.0613 33.1871L89.4511 34.9669L93.3158 37.8687Z" fill="white"/>
</g>
<path d="M30.9637 7.1582H38.2632V8.70708H35.3891V17.4384H33.8137V8.70708H30.9517L30.9637 7.1582ZM37.9505 9.99553H39.2974V11.4348H39.3214C39.3695 11.2291 39.4537 11.0373 39.574 10.8454C39.6942 10.6535 39.8385 10.4753 40.0189 10.3245C40.1873 10.16 40.3797 10.0366 40.5961 9.9407C40.8006 9.84475 41.017 9.78992 41.2335 9.78992C41.4018 9.78992 41.5221 9.80363 41.5822 9.80363C41.6423 9.81734 41.7145 9.83105 41.7746 9.83105V11.4073C41.6784 11.3799 41.5702 11.3662 41.462 11.3525C41.3537 11.3388 41.2575 11.3251 41.1493 11.3251C40.9088 11.3251 40.6803 11.3799 40.4638 11.4896C40.2474 11.5992 40.067 11.7637 39.8986 11.9693C39.7423 12.1886 39.61 12.4491 39.5138 12.7643C39.4176 13.0796 39.3695 13.4497 39.3695 13.8609V17.3973H37.9265L37.9505 9.99553ZM48.3887 17.4384H46.9697V16.3967H46.9456C46.7652 16.7804 46.5007 17.0683 46.1519 17.3013C45.8032 17.5343 45.4424 17.644 45.0816 17.644C44.2278 17.644 43.6025 17.411 43.2177 16.9175C42.8329 16.4378 42.6405 15.6976 42.6405 14.7244V9.99553H44.0835V14.5599C44.0835 15.2179 44.1918 15.6839 44.4202 15.9443C44.6367 16.2185 44.9494 16.3555 45.3462 16.3555C45.6468 16.3555 45.8994 16.3007 46.1038 16.191C46.3082 16.0814 46.4766 15.9443 46.5969 15.7661C46.7291 15.5879 46.8133 15.3686 46.8734 15.1219C46.9336 14.8752 46.9576 14.601 46.9576 14.3132V9.99553H48.4007V17.4384H48.3887ZM50.8419 15.0534C50.89 15.5331 51.0463 15.8621 51.3229 16.0677C51.5995 16.2596 51.9362 16.3555 52.321 16.3555C52.4533 16.3555 52.6096 16.3418 52.778 16.3144C52.9463 16.287 53.1147 16.2459 53.259 16.1773C53.4153 16.1088 53.5356 16.0129 53.6318 15.8758C53.728 15.7387 53.7761 15.5742 53.7641 15.3686C53.752 15.163 53.6919 14.9848 53.5596 14.8478C53.4274 14.7107 53.271 14.6148 53.0786 14.5188C52.8862 14.4366 52.6577 14.368 52.4052 14.3132C52.1527 14.2584 51.9001 14.1898 51.6356 14.1213C51.371 14.0528 51.1064 13.9705 50.8539 13.8746C50.6014 13.7786 50.3849 13.6553 50.1805 13.4771C49.9881 13.3126 49.8197 13.107 49.7115 12.8466C49.5912 12.5861 49.5311 12.2846 49.5311 11.9008C49.5311 11.4896 49.6153 11.1606 49.7956 10.8865C49.964 10.6123 50.1925 10.393 50.4571 10.2285C50.7216 10.0641 51.0223 9.9407 51.3469 9.87217C51.6716 9.80363 51.9843 9.77622 52.2729 9.77622C52.6096 9.77622 52.9343 9.81734 53.2349 9.89958C53.5356 9.98182 53.8242 10.1052 54.0647 10.2971C54.3172 10.4753 54.5217 10.722 54.678 11.0098C54.8464 11.2977 54.9426 11.6541 54.9907 12.0653H53.4875C53.4153 11.6678 53.259 11.4073 53.0185 11.2703C52.766 11.1332 52.4894 11.0647 52.1647 11.0647C52.0685 11.0647 51.9362 11.0784 51.8039 11.0921C51.6596 11.1195 51.5394 11.1469 51.4071 11.2017C51.2868 11.2566 51.1786 11.3388 51.0944 11.4348C51.0102 11.5307 50.9621 11.6678 50.9621 11.8323C50.9621 12.0379 51.0223 12.1886 51.1425 12.312C51.2628 12.4354 51.4191 12.5313 51.6235 12.6273C51.8159 12.7095 52.0444 12.778 52.297 12.8329C52.5495 12.8877 52.8141 12.9562 53.0786 13.0248C53.3432 13.0933 53.5957 13.1755 53.8482 13.2715C54.1008 13.3674 54.3293 13.4908 54.5217 13.669C54.7141 13.8335 54.8824 14.0391 55.0027 14.2858C55.123 14.5325 55.1831 14.8478 55.1831 15.2041C55.1831 15.6428 55.0989 16.0129 54.9185 16.3281C54.7381 16.6297 54.5097 16.8901 54.2331 17.082C53.9565 17.2739 53.6318 17.411 53.2951 17.5069C52.9463 17.5892 52.6096 17.644 52.2729 17.644C51.864 17.644 51.4792 17.5892 51.1305 17.4795C50.7817 17.3698 50.4691 17.2054 50.2165 16.9998C49.964 16.7804 49.7596 16.52 49.6153 16.191C49.471 15.8758 49.3868 15.492 49.3748 15.0397H50.8298V15.0534H50.8419ZM55.5919 9.99553H56.6863V7.7476H58.1293V9.98182H59.4281V11.2017H58.1293V15.1767C58.1293 15.3549 58.1414 15.492 58.1534 15.6291C58.1654 15.7524 58.2015 15.8621 58.2376 15.9443C58.2857 16.0266 58.3578 16.0951 58.442 16.1362C58.5382 16.1773 58.6585 16.2048 58.8268 16.2048C58.923 16.2048 59.0312 16.2048 59.1275 16.191C59.2237 16.1773 59.3319 16.1636 59.4281 16.1362V17.411C59.2718 17.4384 59.1154 17.4521 58.9591 17.4658C58.8028 17.4932 58.6585 17.4932 58.4901 17.4932C58.1053 17.4932 57.8046 17.4521 57.5762 17.3698C57.3477 17.2876 57.1673 17.1642 57.035 17.0135C56.9027 16.849 56.8186 16.6571 56.7705 16.4241C56.7223 16.191 56.6983 15.9032 56.6863 15.6016V11.2154H55.5919V9.96812V9.99553ZM60.4382 9.99553H61.7971V11.0098H61.8212C62.0256 10.5712 62.3022 10.2697 62.663 10.0778C63.0237 9.88587 63.4085 9.78992 63.8415 9.78992C64.3586 9.78992 64.8035 9.88588 65.1883 10.1052C65.5731 10.3108 65.8858 10.5849 66.1383 10.955C66.3909 11.3114 66.5833 11.7363 66.7035 12.216C66.8238 12.6958 66.8959 13.2166 66.8959 13.7512C66.8959 14.2584 66.8358 14.7381 66.7276 15.2041C66.6073 15.6702 66.439 16.0951 66.2105 16.4515C65.982 16.8079 65.6934 17.0957 65.3326 17.315C64.9719 17.5343 64.563 17.644 64.082 17.644C63.8775 17.644 63.6611 17.6166 63.4566 17.5754C63.2522 17.5343 63.0478 17.4658 62.8554 17.3698C62.663 17.2739 62.4826 17.1505 62.3262 16.9998C62.1579 16.849 62.0256 16.6708 61.9174 16.4789H61.8933V20.1935H60.4503V9.99553H60.4382ZM65.4769 13.7238C65.4769 13.3948 65.4409 13.0659 65.3567 12.7506C65.2845 12.4354 65.1643 12.1612 65.0079 11.9145C64.8516 11.6678 64.6592 11.4759 64.4427 11.3251C64.2142 11.1743 63.9497 11.1058 63.6611 11.1058C63.0598 11.1058 62.6028 11.3388 62.2902 11.8185C61.9895 12.2983 61.8332 12.9425 61.8332 13.7375C61.8332 14.1213 61.8693 14.464 61.9534 14.7792C62.0376 15.0945 62.1459 15.3686 62.3142 15.6016C62.4705 15.8347 62.663 16.0129 62.8914 16.1499C63.1199 16.287 63.3725 16.3555 63.6731 16.3555C64.0098 16.3555 64.2744 16.2733 64.5029 16.1225C64.7313 15.9717 64.9117 15.7661 65.0681 15.5331C65.2124 15.2864 65.3206 15.0123 65.3807 14.697C65.4408 14.368 65.4769 14.0528 65.4769 13.7238ZM68.0143 7.1582H69.4574V8.70708H68.0143V7.1582ZM68.0143 9.99553H69.4574V17.4384H68.0143V9.99553ZM70.7441 7.1582H72.1872V17.4384H70.7441V7.1582ZM76.5885 17.644C76.0714 17.644 75.6024 17.548 75.1936 17.3424C74.7847 17.1368 74.448 16.8764 74.1594 16.5337C73.8828 16.191 73.6663 15.7661 73.522 15.2864C73.3777 14.8067 73.2935 14.2721 73.2935 13.7101C73.2935 13.1481 73.3657 12.6273 73.522 12.1475C73.6663 11.6678 73.8828 11.2566 74.1594 10.9002C74.4359 10.5575 74.7847 10.2834 75.1936 10.0915C75.6024 9.89958 76.0714 9.78992 76.5885 9.78992C77.1056 9.78992 77.5746 9.88587 77.9835 10.0915C78.3923 10.2834 78.729 10.5575 79.0177 10.9002C79.2943 11.2429 79.5107 11.6678 79.655 12.1475C79.7993 12.6273 79.8835 13.1481 79.8835 13.7101C79.8835 14.2858 79.8113 14.8067 79.655 15.2864C79.4987 15.7661 79.2943 16.1773 79.0177 16.5337C78.7411 16.8764 78.3923 17.1505 77.9835 17.3424C77.5746 17.5343 77.1176 17.644 76.5885 17.644ZM76.5885 16.3418C76.9012 16.3418 77.1898 16.2596 77.4183 16.1088C77.6588 15.958 77.8392 15.7524 77.9955 15.5057C78.1518 15.259 78.2601 14.9711 78.3322 14.6696C78.4044 14.3543 78.4404 14.0391 78.4404 13.7101C78.4404 13.3948 78.4044 13.0796 78.3322 12.7643C78.2601 12.4491 78.1518 12.1749 77.9955 11.9282C77.8392 11.6815 77.6468 11.4896 77.4183 11.3388C77.1778 11.188 76.9012 11.1058 76.5885 11.1058C76.2758 11.1058 75.9872 11.188 75.7588 11.3388C75.5182 11.4896 75.3379 11.6952 75.1815 11.9282C75.0252 12.1749 74.917 12.4491 74.8448 12.7643C74.7727 13.0796 74.7366 13.3948 74.7366 13.7101C74.7366 14.0391 74.7727 14.3543 74.8448 14.6696C74.917 14.9848 75.0252 15.259 75.1815 15.5057C75.3379 15.7524 75.5303 15.958 75.7588 16.1088C75.9993 16.2733 76.2758 16.3418 76.5885 16.3418ZM80.3164 9.99553H81.4107V7.7476H82.8538V9.98182H84.1526V11.2017H82.8538V15.1767C82.8538 15.3549 82.8658 15.492 82.8779 15.6291C82.8899 15.7524 82.926 15.8621 82.962 15.9443C83.0101 16.0266 83.0823 16.0951 83.1665 16.1362C83.2627 16.1773 83.3829 16.2048 83.5513 16.2048C83.6475 16.2048 83.7557 16.2048 83.8519 16.191C83.9481 16.1773 84.0564 16.1636 84.1526 16.1362V17.411C83.9962 17.4384 83.8399 17.4521 83.6836 17.4658C83.5272 17.4932 83.3829 17.4932 83.2146 17.4932C82.8298 17.4932 82.5291 17.4521 82.3006 17.3698C82.0721 17.2876 81.8918 17.1642 81.7595 17.0135C81.6272 16.849 81.543 16.6571 81.4949 16.4241C81.4468 16.191 81.4228 15.9032 81.4107 15.6016V11.2154H80.3164V9.96812V9.99553Z" fill="black"/>
<path d="M29.2807 7.155H22.6787L20.6463 0L18.602 7.155L12 7.14129L17.3393 11.5686L15.295 18.7236L20.6343 14.2963L25.9737 18.7236L23.9413 11.5686L29.2807 7.155Z" fill="#00B67A"/>
<path d="M24.3989 13.1889L23.942 11.5715L20.647 14.2992L24.3989 13.1889Z" fill="#005128"/>
<defs>
<clipPath id="clip0_898_2360">
<rect width="95.5917" height="18.5815" fill="white" transform="matrix(1 0 0 -1 0.412598 45.688)"/>
</clipPath>
</defs>
</svg>
