<svg width="20" height="20" viewBox="0 0 20 20" fill="none" xmlns="http://www.w3.org/2000/svg">
<path d="M9.44446 15.0002C9.00243 15.0002 8.57851 14.8246 8.26595 14.5121C7.95339 14.1995 7.77779 13.7756 7.77779 13.3336V11.1113C7.77779 10.6693 7.95339 10.2454 8.26595 9.93282C8.57851 9.62026 9.00243 9.44466 9.44446 9.44466C9.77946 9.44133 12.7778 8.88911 12.7778 6.66688C12.7778 5.55577 11.6667 4.44466 10 4.44466C8.6439 4.44466 7.77779 5.55577 7.77779 6.11133C7.77779 6.3302 7.73468 6.54692 7.65092 6.74913C7.56717 6.95134 7.4444 7.13508 7.28964 7.28984C7.13487 7.4446 6.95114 7.56737 6.74893 7.65113C6.54672 7.73489 6.32999 7.778 6.11112 7.778C5.89225 7.778 5.67553 7.73489 5.47332 7.65113C5.27111 7.56737 5.08738 7.4446 4.93261 7.28984C4.77785 7.13508 4.65508 6.95134 4.57133 6.74913C4.48757 6.54692 4.44446 6.3302 4.44446 6.11133C4.44446 3.40133 6.9889 1.11133 10 1.11133C14.4445 1.11133 16.1111 4.43466 16.1111 7.22244C16.1111 9.52522 14.8461 11.2852 12.5483 12.178C12.0483 12.373 11.5539 12.5041 11.1111 12.593V13.3336C11.1111 13.7756 10.9355 14.1995 10.623 14.5121C10.3104 14.8246 9.88649 15.0002 9.44446 15.0002Z" fill="#BE1931"/>
<path d="M9.4445 19.4447C10.365 19.4447 11.1112 18.6985 11.1112 17.778C11.1112 16.8575 10.365 16.1113 9.4445 16.1113C8.52402 16.1113 7.77783 16.8575 7.77783 17.778C7.77783 18.6985 8.52402 19.4447 9.4445 19.4447Z" fill="#BE1931"/>
</svg>
