<svg width="25" height="25" viewBox="0 0 25 25" fill="none" xmlns="http://www.w3.org/2000/svg">
<g clip-path="url(#clip0_872_256)">
<mask id="mask0_872_256" style="mask-type:luminance" maskUnits="userSpaceOnUse" x="0" y="0" width="25" height="25">
<path d="M0 -1.90735e-06H25V25H0V-1.90735e-06Z" fill="white"/>
</mask>
<g mask="url(#mask0_872_256)">
<path d="M24.7999 12.5C24.7999 5.66667 19.293 0.127157 12.5 0.127157C5.70703 0.127157 0.200195 5.66667 0.200195 12.5C0.200195 18.3026 4.17132 23.1714 9.52868 24.5085V16.2809H6.99236V12.5H9.52868V10.8708C9.52868 6.65947 11.4232 4.70753 15.5334 4.70753C16.3126 4.70753 17.6571 4.8612 18.2072 5.01492V8.44239C17.9169 8.41166 17.4127 8.39627 16.7862 8.39627C14.7694 8.39627 13.9901 9.16477 13.9901 11.1628V12.5H18.0077L17.3175 16.2809H13.9901V24.7822C20.0803 24.0423 24.7999 18.8259 24.7999 12.5Z" fill="#0866FF"/>
</g>
<mask id="mask1_872_256" style="mask-type:luminance" maskUnits="userSpaceOnUse" x="0" y="0" width="25" height="25">
<path d="M0 -1.90735e-06H25V25H0V-1.90735e-06Z" fill="white"/>
</mask>
<g mask="url(#mask1_872_256)">
<path d="M17.3175 16.2809L18.0077 12.5H13.9901V11.1628C13.9901 9.16474 14.7693 8.39629 16.7862 8.39629C17.4126 8.39629 17.9168 8.41163 18.2071 8.44236V5.01494C17.6571 4.86122 16.3125 4.7075 15.5333 4.7075C11.4233 4.7075 9.52863 6.65949 9.52863 10.8708V12.5H6.99231V16.2809H9.52863V24.5085C10.4803 24.7459 11.4754 24.8728 12.5 24.8728C13.0045 24.8728 13.5016 24.8416 13.9901 24.7822V16.2809H17.3175Z" fill="white"/>
</g>
</g>
<defs>
<clipPath id="clip0_872_256">
<rect width="25" height="25" fill="white"/>
</clipPath>
</defs>
</svg>
