<svg width="36" height="26" viewBox="0 0 36 26" fill="none" xmlns="http://www.w3.org/2000/svg">
<g clip-path="url(#clip0_872_282)">
<path d="M14.2809 17.8596L23.5324 12.4894L14.2809 7.14537V17.8596ZM3.90906 24.2465C2.37144 23.8293 1.17268 22.6041 0.729679 21.0921C0 18.3027 0 12.4894 0 12.4894C0 12.4894 0 6.67611 0.729679 3.91282C1.17268 2.3748 2.37144 1.17554 3.90906 0.758478C6.67142 0.00247192 17.8251 0.00247192 17.8251 0.00247192C17.8251 0.00247192 29.005 0.00247192 31.7674 0.758478C33.331 1.17554 34.5037 2.3748 34.9208 3.91282C35.6764 6.67611 35.6764 12.4894 35.6764 12.4894C35.6764 12.4894 35.6764 18.3027 34.9208 21.0921C34.5037 22.6041 33.331 23.8293 31.7674 24.2465C29.005 25.0025 17.8251 25.0025 17.8251 25.0025C17.8251 25.0025 6.67142 25.0025 3.90906 24.2465Z" fill="#ED1838"/>
<path d="M14.2809 17.8595L23.5325 12.4894L14.2809 7.1453V17.8595Z" fill="white"/>
</g>
<defs>
<clipPath id="clip0_872_282">
<rect width="36" height="26" fill="white"/>
</clipPath>
</defs>
</svg>
