<svg width="22" height="22" viewBox="0 0 22 22" fill="none" xmlns="http://www.w3.org/2000/svg">
<path d="M5.78597 0.75C6.36151 0.75 8.66367 5.92986 8.66367 6.5054C8.66367 7.65648 6.93705 8.80755 6.36151 9.95863C5.78597 11.1097 6.93705 12.2608 8.08813 13.4119C8.53705 13.8608 10.3903 15.714 11.5414 15.1385C12.6924 14.563 13.8435 12.8363 14.9946 12.8363C15.5701 12.8363 20.75 15.1385 20.75 15.714C20.75 18.0162 19.0234 19.7428 17.2968 20.3183C15.5701 20.8939 14.4191 20.8939 12.1169 20.3183C9.81475 19.7428 8.08813 19.1673 5.21043 16.2896C2.33273 13.4119 1.75719 11.6853 1.18165 9.38309C0.606115 7.08094 0.606115 5.92986 1.18165 4.20324C1.75719 2.47662 3.48381 0.75 5.78597 0.75Z" stroke="#3B333D" stroke-width="1.5" stroke-linecap="round" stroke-linejoin="round"/>
<path d="M12.6926 5.40039C13.4523 5.75723 14.1429 6.24068 14.7185 6.82773C15.2825 7.39176 15.7544 8.07089 16.0998 8.80758" stroke="#3B333D" stroke-width="1.5" stroke-linecap="round" stroke-linejoin="round" stroke-dasharray="4 4"/>
<path d="M13.8437 1.03662C15.4667 1.46252 16.9171 2.30281 18.0681 3.45389C19.2077 4.60497 20.048 6.04382 20.4624 7.65533" stroke="#3B333D" stroke-width="1.5" stroke-linecap="round" stroke-linejoin="round" stroke-dasharray="6 6"/>
</svg>
